<svg xmlns="http://www.w3.org/2000/svg" viewBox="0 0 72.01 72.01"><defs><style>.cls-1{fill:#984124;}.cls-2{fill:#ebe5de;}</style></defs><title>item (6)</title><g id="Capa_2" data-name="Capa 2"><g id="Capa_1-2" data-name="Capa 1"><g id="item"><g id="icono"><path class="cls-1" d="M72,36A36,36,0,1,1,36,0,36,36,0,0,1,72,36"/><path class="cls-2" d="M57.6,25.92c0-1-.69-1.42-1-2.05a11.86,11.86,0,0,0-2.4-3.46,20.56,20.56,0,0,0-4.83-4,12.5,12.5,0,0,0-5.29-1.59,14.73,14.73,0,0,0-6.08.43,9.38,9.38,0,0,0-4,1.28,36.78,36.78,0,0,0-4.63,3.07l-.14.13c-.56.52-1.13,1-1.66,1.57-1.2,1.23-2.48,2.42-3,4.2a4.21,4.21,0,0,0,1.87.41c2.36.08,4.72.21,7.08.32.51,0,1,0,1.54,0s1,0,1.52,0a44.3,44.3,0,0,0,7.1-.07A12.41,12.41,0,0,1,46,26.11,24.76,24.76,0,0,0,52.35,26,12.23,12.23,0,0,1,54.27,26c1.08,0,2.17,0,3.33,0M42.51,53.37c-.37.35-.22.75-.25,1.1s0,.77,0,1.16c-.06.69-.14,1.39-.24,2.08a2.76,2.76,0,0,1-.19.55c-.11.28-.5.59-.74.51a1.17,1.17,0,0,1-.61-.39,3.31,3.31,0,0,1-.54-2.19c0-1,.06-2,.07-3.08a4.12,4.12,0,0,0-.12-.69c-.38.52-.66.91-1,1.29s-.64.8-1,1.2-.66.79-1,1.17c-.62.72-1.23,1.46-1.89,2.15a1.88,1.88,0,0,1-.85.41.65.65,0,0,1-.53-.14c-.62-.62-.86-1.26-.53-1.88a11.19,11.19,0,0,1,1.29-2.13,31.14,31.14,0,0,0,2.16-2.93,14.88,14.88,0,0,1,1.64-2.13,2.83,2.83,0,0,0,.88-2.6c-.08-.5-.21-1-.32-1.53a8.45,8.45,0,0,0-1.2-.06c-1.6.1-3.19.27-4.79.33-1.34,0-2.69,0-4,0a1.11,1.11,0,0,1-1-1.51c.11-.37.26-.72.41-1.13a15.87,15.87,0,0,1,3.43-.37c1.28,0,2.57,0,3.85-.11s2.29-.21,3.39-.31c.11-.15.25-.25.25-.36.16-4,.53-8,.46-11.94a.93.93,0,0,0-.91-.4c-1.72-.07-3.43-.23-5.16-.22-2.23,0-4.47-.18-6.7-.28l-3.45-.18q-.48,0-1-.09a1.29,1.29,0,0,1-1.2-1.05A4.1,4.1,0,0,1,21.41,25c.61-1.2,1.16-2.43,1.83-3.58A7.81,7.81,0,0,1,24.55,20c.36-.37.76-.69,1.09-1.07a15.4,15.4,0,0,1,4-3.29c1.16-.68,2.36-1.29,3.49-2a11.51,11.51,0,0,1,4.11-1.5A30.52,30.52,0,0,1,42,11.6a16.52,16.52,0,0,1,6.91,1.32,13.69,13.69,0,0,1,3.75,2.29,29.1,29.1,0,0,1,4.5,4.72,33.43,33.43,0,0,1,2.72,4.63,2.74,2.74,0,0,1,0,2.58,2.41,2.41,0,0,1-2.08,1.45c-.57.06-1.15,0-1.73.05l-6.31.59c-.31,0-.64,0-1,0-1.52,0-3-.08-4.58-.1a6.19,6.19,0,0,0-1,.08c-.31,0-.65,0-.95.24a5.81,5.81,0,0,0-.05,2.24c.16,2.57.05,5.13,0,7.69a8.43,8.43,0,0,0,.16,2.5c.51.31,1.09.11,1.65.17a11,11,0,0,0,1.72,0,21.65,21.65,0,0,1,4.41.11,7.72,7.72,0,0,1,1.48.4,1.73,1.73,0,0,1,1.06,1.28.54.54,0,0,1-.29.65,6.27,6.27,0,0,1-3,.64c-2.12,0-4.23,0-6.35,0a4.5,4.5,0,0,0-.79.15c-.06,1-.13,2.07-.15,3.08a1.42,1.42,0,0,0,.67,1.31,7.45,7.45,0,0,1,1.64,1.58,20,20,0,0,0,2.87,2.56A41.37,41.37,0,0,1,50.69,57a1.08,1.08,0,0,1,0,1.7,2.59,2.59,0,0,1-.4.41.89.89,0,0,1-1.07.11,2.69,2.69,0,0,1-.75-.58A21.64,21.64,0,0,0,44.56,55,17.27,17.27,0,0,1,43,53.58a1.21,1.21,0,0,0-.46-.21"/><path class="cls-2" d="M18.92,49.11h4.82a6.32,6.32,0,0,1,1.15,0A2.1,2.1,0,0,1,26.81,51a31.84,31.84,0,0,0,1.51,4.74,12.31,12.31,0,0,0,.51,1.44,1.39,1.39,0,0,1-.31,1.59.87.87,0,0,1-1.2.18,4.27,4.27,0,0,1-1.68-2c-.46-1.4-1-2.77-1.47-4.15-.08-.24-.19-.47-.33-.78-1.56-.17-3.14-.12-4.71-.17-.78,1.87-1.54,3.69-2.29,5.51a3.47,3.47,0,0,1-1,1.39.92.92,0,0,1-1.07,0c-.41-.4-.78-.84-1.19-1.29A20.89,20.89,0,0,1,14.82,54a7,7,0,0,1,.48-1,5.84,5.84,0,0,0,.26-4.82,44.9,44.9,0,0,1-1.23-5.61c-.15-.88-.27-1.77-.37-2.66a3.7,3.7,0,0,1,0-1.15c.2-.91.77-1.67,1.92-.81A1.71,1.71,0,0,1,16.62,39c.14.69.32,1.38.47,2.06.33,1.5.65,3,1,4.49.27,1.18.55,2.35.84,3.59"/></g></g></g></g></svg>