<svg xmlns="http://www.w3.org/2000/svg" viewBox="0 0 72.01 72.01"><defs><style>.cls-1{fill:#984124;}.cls-2{fill:#ebe5de;}</style></defs><title>item (11)</title><g id="Capa_2" data-name="Capa 2"><g id="Capa_1-2" data-name="Capa 1"><g id="item"><g id="icono"><path class="cls-1" d="M72,36A36,36,0,1,1,36,0,36,36,0,0,1,72,36"/><path class="cls-2" d="M37.92,54.47A3.24,3.24,0,0,1,35.81,54c-.92.78-1.86,1.54-2.77,2.34a3.37,3.37,0,0,0-1.38,2.4C33,60,33,59.94,34.64,60.08a11.82,11.82,0,0,0,6.19-.87c.39-.19.85-.33,1-.83a16.64,16.64,0,0,0-3.9-3.91M36.64,14.24a9.9,9.9,0,0,0-4,.54,4.44,4.44,0,0,0-2.76,1.6.7.7,0,0,0,.06,1A8.91,8.91,0,0,0,33.53,19a12.24,12.24,0,0,0,4.52-.16,12.27,12.27,0,0,0,4.73-2,1.41,1.41,0,0,0-.21-2.58l-.18-.07A3.27,3.27,0,0,0,40,13.94a13.85,13.85,0,0,1-3.34.3m-7.8,6.37c-.08.1-.21.19-.23.29a3.26,3.26,0,0,0-.07.76c.05.77.19,1.53.18,2.3,0,1.85.08,3.7.22,5.55.1,1.16.59,2.23.59,3.39a.72.72,0,0,0,.13.36,14.86,14.86,0,0,0,2.16,3.16,3.33,3.33,0,0,0,1.06.82,5.86,5.86,0,0,0,4.66.21c.82-.36,1.59-.82,2.43-1.13a3.58,3.58,0,0,0,1.71-1.47A9.55,9.55,0,0,0,43,32.1a19.66,19.66,0,0,0,.86-6c0-1.72-.16-3.44-.25-5.16,0-.25,0-.51-.36-.61l-.5.19a20.18,20.18,0,0,1-8.16,1.85,7.22,7.22,0,0,1-4-1,3,3,0,0,0-1.73-.7m9.3,20a65.06,65.06,0,0,1,.27,10.11c1.1,1,2.18,1.9,3.18,2.9a10.82,10.82,0,0,1,2.79,4.3,2.37,2.37,0,0,1-.82,2.87A6.45,6.45,0,0,1,41.41,62a19.6,19.6,0,0,1-6.61,1.06,7,7,0,0,1-2.44-.45,5.11,5.11,0,0,1-3-2.84,3.39,3.39,0,0,1-.1-1.89A4.56,4.56,0,0,1,31,54.59c1.26-1,2.38-2.13,3.61-3.16a1.64,1.64,0,0,0,.63-1.31c0-2.44.08-4.87.11-7.3,0-.57,0-1.14,0-1.65-.16-.13-.24-.26-.35-.28a9.87,9.87,0,0,1-5.94-3.6,22.71,22.71,0,0,1-1.58-1.92,14,14,0,0,1-1.66-6.82c-.09-1.66,0-3.32.08-5s.12-3.58.15-5.37A8,8,0,0,1,26.64,15a9.48,9.48,0,0,1,4.25-2.79,21.57,21.57,0,0,1,3.33-.9c2-.32,4.06-.55,6.1-.76a5.06,5.06,0,0,1,4.14,1.58,6,6,0,0,1,1.92,2.82,5.49,5.49,0,0,1,.2,1.12c0,2.3.06,4.6.1,6.91,0,.64,0,1.28.1,1.92A18.64,18.64,0,0,1,46,32.45,11.87,11.87,0,0,1,42.78,38,8.5,8.5,0,0,1,40,39.74c-.59.23-1.17.51-1.9.84"/></g></g></g></g></svg>