<svg xmlns="http://www.w3.org/2000/svg" viewBox="0 0 72.01 72.01"><defs><style>.cls-1{fill:#984124;}.cls-2{fill:#ebe5de;}</style></defs><title>item (7)</title><g id="Capa_2" data-name="Capa 2"><g id="Capa_1-2" data-name="Capa 1"><g id="item"><g id="icono"><path class="cls-1" d="M72,36A36,36,0,1,1,36,0,36,36,0,0,1,72,36"/><path class="cls-2" d="M17,33a5.36,5.36,0,0,0-3.94,1.54,3,3,0,0,0-.67,1.13c-.61,1.63-.33,2.27,1.25,3A2.16,2.16,0,0,0,15.1,39a5.77,5.77,0,0,0,2-.62c0-1.64.05-3.23.06-4.81A2.37,2.37,0,0,0,17,33m15.57-5.7c-1.07-.36-1.07-.34-1.75-.21a47.15,47.15,0,0,1-5.34.19,11.9,11.9,0,0,0-4,.17c-.62.17-.89.41-.93,1.06-.08,1.27-.12,2.54-.19,3.82-.21,4.14-.29,8.29-.17,12.44a8.51,8.51,0,0,0,.07,1.14.92.92,0,0,0,.73.8,7.51,7.51,0,0,0,1.33.21c.82.07,1.66,0,2.48.15a62.17,62.17,0,0,0,7.09.18l.19,0c.81-.06,1-.28,1-1.07S33,44.34,33,43.45c0-2,.07-4.09.06-6.13,0-1.72-.17-3.45-.1-5.16a24.11,24.11,0,0,0-.34-4.89M17.4,29.84c0-.89,0-1.66.11-2.42a6.41,6.41,0,0,1,.4-1.47.72.72,0,0,1,.34-.44c.95-.5,1.77-1.26,3-1.25a19.91,19.91,0,0,1,2.67.06,23.4,23.4,0,0,0,5.73-.09,6.29,6.29,0,0,1,3.41.19c.46.21.92.45,1.36.7a1.19,1.19,0,0,1,.58.95c.06.83.17,1.66.19,2.49.1,3.46.47,6.91.4,10.37,0,2.87-.19,5.75-.3,8.62a4.9,4.9,0,0,1-.08.77,1.39,1.39,0,0,1-1,1.1,7.42,7.42,0,0,1-1.11.33,35.74,35.74,0,0,1-4,.54c-1.79.07-3.58-.06-5.38-.06a15,15,0,0,1-4.3-.93,2.48,2.48,0,0,1-1.57-1.83,9.54,9.54,0,0,1-.74-4.32,2.71,2.71,0,0,0,0-.57.77.77,0,0,0-.79-.69A7.29,7.29,0,0,0,15.2,42a2.68,2.68,0,0,1-1.51-.11A7.61,7.61,0,0,1,9.2,37.45a2.72,2.72,0,0,1-.14-.94,5.59,5.59,0,0,1,1.46-3.85,6.51,6.51,0,0,1,2.26-1.76A9.07,9.07,0,0,1,15.66,30l1.74-.14"/><path class="cls-2" d="M43,40.8a3.77,3.77,0,0,0,.15.93A21.22,21.22,0,0,0,45.91,46a64.94,64.94,0,0,0,10.53-.3,21,21,0,0,0,1.9-5.26,1.58,1.58,0,0,0-.43-.15c-2.1-.1-4.2.23-6.31.06a.68.68,0,0,0-.19,0,19.47,19.47,0,0,1-4.18,0A9.3,9.3,0,0,0,43,40.8M49,49c-1.19,0-2.22,0-3.24,0a2.65,2.65,0,0,1-2.44-1.26c-.45-.69-.85-1.42-1.25-2.14-.69-1.23-1.39-2.45-2-3.71a4.43,4.43,0,0,1-.53-3,1.14,1.14,0,0,1,1-1c.82-.13,1.64-.24,2.47-.31,1.54-.13,3.07-.19,4.6-.33.83-.08,1.65.38,2.47,0a15.25,15.25,0,0,0,3.24-.08c1,0,2.05-.18,3.07-.18a11,11,0,0,1,3.23.39,1.88,1.88,0,0,1,.82.45,3.49,3.49,0,0,1,.89,3.55c-.59,1.69-1.31,3.33-2,5a9.31,9.31,0,0,1-.88,1.48,1.51,1.51,0,0,1-1.12.67,3.88,3.88,0,0,1-.76.12c-2.56,0-5.09.69-7.5.36"/></g></g></g></g></svg>