<svg xmlns="http://www.w3.org/2000/svg" viewBox="0 0 72.01 72.01"><defs><style>.cls-1{fill:#984124;}.cls-2{fill:#ebe5de;}</style></defs><title>item (5)</title><g id="Capa_2" data-name="Capa 2"><g id="Capa_1-2" data-name="Capa 1"><g id="item"><g id="icono"><path class="cls-1" d="M72,36A36,36,0,1,1,36,0,36,36,0,0,1,72,36"/><path class="cls-2" d="M31.37,49.37c.83,0,1.66,0,2.49,0,1.73,0,3.46-.07,5.18-.18s3.44,0,5.16,0c.06,0,.13,0,.19,0,2.26-.34,4.44.31,6.66.5a2.6,2.6,0,0,1,2.06,1.53.79.79,0,0,1-.3,1,2.28,2.28,0,0,1-1.45.39c-.77,0-1.54,0-2.3-.12a29.35,29.35,0,0,0-4.78-.15c-1.08,0-2.17-.1-3.26-.15a6.56,6.56,0,0,0-1.33,0,42,42,0,0,1-6.34.27c-2.62.07-5.24.08-7.86.24-1.47.1-2.93.19-4.4.27a21.34,21.34,0,0,1-2.88-.11c-.6,0-.88-.4-.88-1,0-.2,0-.39,0-.58.09-.88.33-1.13,1.19-1.19,2.49-.19,5-.41,7.46-.55,1.79-.1,3.58-.09,5.37-.12Z"/><path class="cls-2" d="M37.57,33.15c-1.29,0-2.38-.06-3.46,0A3.45,3.45,0,0,1,31,30.54a.81.81,0,0,1,0-.38,14.74,14.74,0,0,1,.94-2.71c.69-1.29,1.32-2.63,2-3.95a8.83,8.83,0,0,0,.9-4.47,19.72,19.72,0,0,1,.08-2.3c0-.25.17-.54.45-.52a.9.9,0,0,1,.65.31,4.44,4.44,0,0,1,.94,2.28A10.31,10.31,0,0,1,35.46,26a12.48,12.48,0,0,0-1.53,3.29,4.24,4.24,0,0,0,0,.74,4.67,4.67,0,0,0,2,0,3.38,3.38,0,0,1,2.4.47c.92.69,1.94,1.28,2.3,2.48a3.17,3.17,0,0,1,.2.93,22,22,0,0,1-.24,3,8.77,8.77,0,0,1-1.45,3.31c-1.24,1.87-2.51,3.71-3.77,5.56a1.45,1.45,0,0,1-1.46.75,1.72,1.72,0,0,1-.42-1.42,3,3,0,0,1,.42-1.65c.52-.81,1-1.65,1.54-2.44a17,17,0,0,0,2-4.11,7.84,7.84,0,0,0,.16-3.79"/><path class="cls-2" d="M27.72,39.09a3.46,3.46,0,0,0-2,.32c-.49.15-1,.39-1.45.52a3.1,3.1,0,0,1-3.38-1.21,5,5,0,0,1-.75-1.33,3.53,3.53,0,0,1,.24-3.13,16.84,16.84,0,0,1,1.93-2.83,27,27,0,0,0,4.43-6,7.08,7.08,0,0,1,.38-.66c.24-.37.42-.86,1-.8a1.53,1.53,0,0,1,1.3,1.45,5,5,0,0,1-.25,1.49,10.43,10.43,0,0,1-2,3.44,23.77,23.77,0,0,1-2.65,3A7.47,7.47,0,0,0,23,36.26a.63.63,0,0,0,.74.65c.61-.19,1.2-.41,1.8-.61.31-.1.62-.18.93-.26a3.19,3.19,0,0,1,4.09,2.42A5.1,5.1,0,0,1,30,42.67,33.89,33.89,0,0,1,28,45.51a2.56,2.56,0,0,1-1.64.91.94.94,0,0,1-.94-.52,2,2,0,0,1,.09-2.17c.46-.61.75-1.32,1.28-1.9a3.79,3.79,0,0,0,.91-2.74"/><path class="cls-2" d="M42.5,44.83a29.36,29.36,0,0,1,2-2.51,9.51,9.51,0,0,0,1.47-2,22.77,22.77,0,0,0,2-3.71,6.19,6.19,0,0,0,0-3.76.89.89,0,0,0-.57-.46,12.09,12.09,0,0,1-2.44-1.08,3.83,3.83,0,0,1-2.19-3.92,6.63,6.63,0,0,1,.54-2.23c.77-1.62,1.51-3.25,2.28-4.87a2.82,2.82,0,0,1,.56-.77.56.56,0,0,1,.52-.06,1.64,1.64,0,0,1,1,1.51,4.29,4.29,0,0,1-.34,1.87C46.82,23.89,46.39,25,46,26a3.3,3.3,0,0,0,0,2.74,13.15,13.15,0,0,0,2.13,1,4.32,4.32,0,0,1,2.56,2.44A8.11,8.11,0,0,1,51.48,35,5.19,5.19,0,0,1,51,37.37a31.12,31.12,0,0,1-2.37,4.36,21.32,21.32,0,0,1-2.25,3.08,14.11,14.11,0,0,1-1.94,1.84.94.94,0,0,1-1.34-.28,3.1,3.1,0,0,1-.27-.51c-.11-.3-.2-.61-.34-1"/></g></g></g></g></svg>