<svg xmlns="http://www.w3.org/2000/svg" viewBox="0 0 72.01 72.01"><defs><style>.cls-1{fill:#984124;}.cls-2{fill:#ebe5de;}</style></defs><title>item (14)</title><g id="Capa_2" data-name="Capa 2"><g id="Capa_1-2" data-name="Capa 1"><g id="item"><g id="icono"><path class="cls-1" d="M72,36A36,36,0,1,1,36,0,36,36,0,0,1,72,36"/><path class="cls-2" d="M52.33,37.15c.08-1,.15-2,.24-3.07a7.74,7.74,0,0,0-1.76-5.73,20.55,20.55,0,0,0-4.51-4.12,5.53,5.53,0,0,0-1.59-.64c-1.61-.44-3.24-.78-4.84-1.25a15,15,0,0,0-4.38-.16,11.36,11.36,0,0,0-7.08,2.65,12.5,12.5,0,0,0-4.19,4.89,18.82,18.82,0,0,0-1,2.68A27.53,27.53,0,0,0,22.59,36a3.87,3.87,0,0,0,.17,1.51,11.05,11.05,0,0,0,1.62,3.26,15.21,15.21,0,0,0,2.85,3.35,4.34,4.34,0,0,0,1.85,1,3.08,3.08,0,0,1,.73.22,5.37,5.37,0,0,0,4.47-.19c1-.44,2-.86,3-1.25A20.73,20.73,0,0,0,40,42.4a1,1,0,0,0,.3-.25c1.24-1.62,2.55-3.2,2.86-5.34a2.76,2.76,0,0,0-1-2.74,9.93,9.93,0,0,0-7.07-2.4,3.84,3.84,0,0,0-3.44,3.75,1.1,1.1,0,0,0,.3.67,2.76,2.76,0,0,0,1.68.86,1.94,1.94,0,0,0,1.65-.22,2.83,2.83,0,0,1,.9-.32c.65-.19.9-.12,1.17.3a1.38,1.38,0,0,1,0,1.77,5.15,5.15,0,0,1-6.22.81,2.47,2.47,0,0,0-.63-.42c-1.17-.35-1.49-1.28-1.76-2.31a6.92,6.92,0,0,1,.49-4.14,13.63,13.63,0,0,1,1.86-1.93,9,9,0,0,1,6.34-1.78,11.18,11.18,0,0,1,5.33,2A10.25,10.25,0,0,1,46,34.41a2.4,2.4,0,0,1,.35,1.47c-.17,1.14-.36,2.28-.56,3.41a1.26,1.26,0,0,1-.25.52c-.89,1-1.37,2.28-2.27,3.29a6.06,6.06,0,0,1-1.76,1.47c-1.31.66-2.63,1.33-3.95,2-.75.36-1.51.71-2.28,1a11,11,0,0,1-4.09.94A9.72,9.72,0,0,1,25,46.24a10.12,10.12,0,0,1-2.65-3c-.43-.79-1-1.49-1.44-2.26a9.21,9.21,0,0,1-.77-1.76,9.54,9.54,0,0,1-.24-5.86,13.3,13.3,0,0,0,.34-1.69A9.34,9.34,0,0,1,23,26.28c.45-.46.84-1,1.27-1.45a15.84,15.84,0,0,1,3.24-2.68,23.39,23.39,0,0,1,6.2-2.53,4.89,4.89,0,0,1,1.13-.21c1.54-.06,3.07-.06,4.61-.14a15.52,15.52,0,0,1,3.76.71c1,.2,1.94.62,3,.82A7.36,7.36,0,0,1,49,22.36,18.51,18.51,0,0,1,55.51,31a6.76,6.76,0,0,1,.25,3c-.15,1.53-.24,3.07-.49,4.57a47.19,47.19,0,0,1-1.14,5,9,9,0,0,1-1.24,2.59,35.6,35.6,0,0,1-5.25,6.36c-1.14,1-2.41,1.9-3.63,2.84a2.61,2.61,0,0,1-.66.39c-2.86,1.13-5.7,2.37-8.81,2.6a18.82,18.82,0,0,1-4.18.17,5.8,5.8,0,0,1-2.05-.44,1.56,1.56,0,0,0-.73-.22A11.41,11.41,0,0,1,24.64,57a14.78,14.78,0,0,1-4.95-2.86c-1.24-1-2.47-2-3.65-3.1a14.14,14.14,0,0,1-1.35-1.62,22.58,22.58,0,0,1-3.44-6.37c-.6-1.62-1.21-3.24-1.65-4.92a10.22,10.22,0,0,1-.14-4.76c.26-1.25.45-2.52.81-3.75a17.12,17.12,0,0,1,2-4.15c.55-.87,1.06-1.75,1.61-2.62a8.38,8.38,0,0,1,.76-1.11,27.48,27.48,0,0,0,2.2-3.13A9.31,9.31,0,0,1,19,16.24a22.25,22.25,0,0,0,2.34-2,8.43,8.43,0,0,1,3.79-2.18,41.47,41.47,0,0,1,5.36-1.53c1.76-.3,3.51-.69,5.28-1a18.22,18.22,0,0,1,5.94,0A22.07,22.07,0,0,1,49,11.77c.83.47,1.61,1,2.45,1.51A22.52,22.52,0,0,1,54,15a18.32,18.32,0,0,1,4.75,5.48A29.78,29.78,0,0,1,62,27.61a5.45,5.45,0,0,0,.41,1.08,10.77,10.77,0,0,1,.85,4.48c0,1.15.13,2.3.16,3.45a32,32,0,0,1-.73,6.47,15.5,15.5,0,0,1-.71,3c-.37.94-1.06,1.75-1.53,2.66a14,14,0,0,1-2.92,4,13.56,13.56,0,0,0-1.24,1.47,4.12,4.12,0,0,1-1.63,1.32.58.58,0,0,1-.5-.09.65.65,0,0,1-.15-.51,2.26,2.26,0,0,1,.35-.67,34.05,34.05,0,0,1,2.19-3.15,4.81,4.81,0,0,0,.87-1.48,14.37,14.37,0,0,1,1.34-2.76,9.74,9.74,0,0,0,1-3.68c.28-1.63.3-3.31.52-5a21.73,21.73,0,0,0-.15-5,14.56,14.56,0,0,0-.5-3.41c-.39-1.15-.74-2.32-1.23-3.42a38.85,38.85,0,0,0-3.27-6.1,7,7,0,0,0-1.24-1.46A19.07,19.07,0,0,0,50.07,16a6.15,6.15,0,0,1-1-.55,18.6,18.6,0,0,0-8-3,22.11,22.11,0,0,0-8.19.3c-.93.2-1.89.35-2.82.57-.74.17-1.48.4-2.21.63a6.22,6.22,0,0,1-.71.29,7.15,7.15,0,0,0-3.78,2.14c-.52.47-1.13.84-1.65,1.31a12,12,0,0,0-1.86,1.92c-1.28,1.83-2.58,3.65-3.79,5.52C15.26,26.4,14.7,27.76,13.9,29a5.57,5.57,0,0,0-.6,1.61c-.31,1.18-.61,2.35-.84,3.54a11.26,11.26,0,0,0,.2,4.21,6,6,0,0,0,.32,1.1,36.06,36.06,0,0,0,4.15,8.22,8.09,8.09,0,0,0,1.57,1.68c1.38,1,2.66,2.18,4.1,3.14a16.88,16.88,0,0,0,10.26,3.12,22.47,22.47,0,0,0,7.65-1.69,14.68,14.68,0,0,0,2.91-1.46,13.26,13.26,0,0,0,1.9-1.61c.86-.85,1.63-1.79,2.45-2.66a19.86,19.86,0,0,0,2.54-3.6,6.12,6.12,0,0,0,.67-1.79c.35-1.43.66-2.87,1-4.31a12.21,12.21,0,0,0,.15-1.34h0"/></g></g></g></g></svg>