<svg xmlns="http://www.w3.org/2000/svg" viewBox="0 0 72.01 72.01"><defs><style>.cls-1{fill:#984124;}.cls-2{fill:#ebe5de;}</style></defs><title>item</title><g id="Capa_2" data-name="Capa 2"><g id="Capa_1-2" data-name="Capa 1"><g id="item"><g id="icono"><path class="cls-1" d="M72,36A36,36,0,1,1,36,0,36,36,0,0,1,72,36"/><path class="cls-2" d="M40,22.63c-1-.07-2-.15-3-.21a2.76,2.76,0,0,0-.57.06c-.82.16-1.64.3-2.45.49a8.65,8.65,0,0,0-1.63.54,15.22,15.22,0,0,0-2,1.11A7.51,7.51,0,0,0,28.69,26a12.91,12.91,0,0,0-2.59,3.78,16.22,16.22,0,0,1-.8,1.75,7.42,7.42,0,0,0-.73,3,15.39,15.39,0,0,0,.39,4,11.3,11.3,0,0,0,1.74,4,4.79,4.79,0,0,0,1.1,1.05A11.93,11.93,0,0,0,30.7,45a9.77,9.77,0,0,0,6.91.53,7.17,7.17,0,0,0,2.6-1.16c.81-.62,1.71-1.13,2.58-1.68a5.78,5.78,0,0,0,2-2,13.05,13.05,0,0,0,1.93-6.55,4.39,4.39,0,0,0,0-1c-.53-2.12-1.18-4.14-3-5.69A14.34,14.34,0,0,1,40,22.63m9.68,11.69a15.59,15.59,0,0,1-2.49,8.19,10.82,10.82,0,0,1-3.52,3.21c-1.13.72-2.32,1.36-3.48,2a9.78,9.78,0,0,1-3.07,1,11.52,11.52,0,0,1-4.75,0,15.55,15.55,0,0,1-2-.58c-.48-.16-.92-.45-1.4-.61a9.06,9.06,0,0,1-3.47-2.33,11.63,11.63,0,0,1-1.95-3.05c-.39-.73-.56-1.57-.88-2.33a17.85,17.85,0,0,1-1-5.45A7.35,7.35,0,0,1,21.92,32a12.61,12.61,0,0,1,2.75-5.82,2.26,2.26,0,0,0,.25-.29C27,22.8,27.1,23.39,30,21.26a7.61,7.61,0,0,1,2.44-1.05,11.41,11.41,0,0,1,3.19-.58c2.31,0,4.62.25,6.5,1.87a5.42,5.42,0,0,1,1.68,2.05,4.33,4.33,0,0,0,1.43,1.75,9.52,9.52,0,0,1,3,3.93,17.94,17.94,0,0,1,1.22,3.43,8.36,8.36,0,0,1,.24,1.66"/><path class="cls-2" d="M20.27,42.29a1.51,1.51,0,0,1-.06.37,2,2,0,0,1-1.27,1.09,30.74,30.74,0,0,0-4.87,1.76c-1.53.72-3.2.9-4.76,1.5-.86.33-2-.57-2-1.54a1,1,0,0,1,.17-.54,2.35,2.35,0,0,1,1.48-1.16,45.21,45.21,0,0,0,6.89-2.28,8.89,8.89,0,0,0,.92-.26c1.32-.62,2.34.06,3.37.73.09.06.12.22.17.33"/><path class="cls-2" d="M52.56,39.6a1.16,1.16,0,0,1,1.15-.84c.89,0,1.78,0,2.67-.06s1.54.06,2.3,0a23.4,23.4,0,0,1,4.58.28,3.56,3.56,0,0,1,2.27.91.72.72,0,0,1,0,1,2.37,2.37,0,0,1-.75.57,4.88,4.88,0,0,1-1.5.3c-2.48,0-5-.08-7.46-.13a3.9,3.9,0,0,1-.76-.06c-1.42-.22-1.74-.48-2.54-2"/><path class="cls-2" d="M6.16,28.49c.27-.38.52-.75.83-1.17a13.14,13.14,0,0,1,2.23.37c2.21.64,4.44,1.23,6.66,1.84a6.94,6.94,0,0,1,2.94,1.74.65.65,0,0,1,.08.87c-.45.68-.91.93-1.61.67-1.45-.53-3-.8-4.44-1.18s-2.95-.87-4.44-1.22a2.64,2.64,0,0,1-1.82-1.26c-.13-.22-.28-.42-.43-.66"/><path class="cls-2" d="M33.52,53.51a13.42,13.42,0,0,1-.29,3.36A7.1,7.1,0,0,0,33.11,58a29.54,29.54,0,0,1-1,5.43,2.57,2.57,0,0,1-.43.84c-.64.8-1.32.71-1.78-.19a3.16,3.16,0,0,1-.33-2c.49-2.82,1-5.64,1.49-8.47a2.52,2.52,0,0,1,.76-1.5.79.79,0,0,1,1-.12c.52.3,1,.63.71,1.36-.07.17,0,.37,0,.2"/><path class="cls-2" d="M60.41,55a1.07,1.07,0,0,1-1.13,1,2.31,2.31,0,0,1-1.34-.68c-1.26-1.27-2.52-2.54-3.8-3.79-1-.93-1.94-1.84-3-2.71a3.38,3.38,0,0,1-.95-1.18.83.83,0,0,1,.62-1.15,1.73,1.73,0,0,1,1.3.17,10.89,10.89,0,0,1,1.27.86c1,.88,2,1.8,3,2.7.29.25.58.51.88.74a12.9,12.9,0,0,1,2.78,3.16,3.31,3.31,0,0,1,.34.87"/><path class="cls-2" d="M48.89,62.83A1.22,1.22,0,0,1,48.14,64a.74.74,0,0,1-.88-.16,10.93,10.93,0,0,1-.93-1.67,18.13,18.13,0,0,1-.76-2.58,56.41,56.41,0,0,0-1.76-6.88,2.45,2.45,0,0,1-.08-.37,1.1,1.1,0,0,1,.59-.93.8.8,0,0,1,.9.09,5.36,5.36,0,0,1,1.51,2,4.71,4.71,0,0,1,.41,1.08c.5,2.11,1,4.24,1.43,6.36.15.69.24,1.38.32,1.89"/><path class="cls-2" d="M46.16,17.55a3.63,3.63,0,0,1,.23-.89A46.57,46.57,0,0,1,50,9.9a3.31,3.31,0,0,1,1.07-1.07,1.51,1.51,0,0,1,2.14.58A.9.9,0,0,1,53,10.62a4.54,4.54,0,0,0-1.33,1.84c-.88,1.62-1.71,3.28-2.59,4.91a10.48,10.48,0,0,1-1,1.42,1,1,0,0,1-1.18.37,1.12,1.12,0,0,1-.76-1c0-.13,0-.26,0-.6"/><path class="cls-2" d="M55.27,29a2.18,2.18,0,0,1-1.76-1.41,3.41,3.41,0,0,1,1.65-1.72c1.71-.71,3.17-1.89,4.85-2.66a13.2,13.2,0,0,0,1.36-.67,2.17,2.17,0,0,1,2.19,0,1.14,1.14,0,0,1,.72,1.19,33.1,33.1,0,0,1-9,5.23"/><path class="cls-2" d="M24,48.84a8.18,8.18,0,0,1,.75.59.73.73,0,0,1,.12,1c-.64.95-1.26,1.92-2,2.81A48,48,0,0,0,19.57,58a6.1,6.1,0,0,1-1.65,1.82.74.74,0,0,1-.88-.1,1.16,1.16,0,0,1-.37-1.37,24.34,24.34,0,0,1,1.49-2.87C19,54.12,20,52.85,21,51.6a12.44,12.44,0,0,1,3-2.76"/><path class="cls-2" d="M37.71,11.86c0,.82.13,2,.19,3.25a3.77,3.77,0,0,1,0,.95,1.15,1.15,0,0,1-.72.85c-.34.14-.6-.12-.82-.34a2.64,2.64,0,0,1-.86-1.67,53.93,53.93,0,0,1-.13-8.62,3.38,3.38,0,0,1,.17-.94c.1-.29.26-.61.64-.62a.94.94,0,0,1,1,.49,4.07,4.07,0,0,1,.39,1.27c.1.82.14,1.66.17,2.49s0,1.66,0,2.89"/><path class="cls-2" d="M18.14,12.49a2.51,2.51,0,0,1,2,1l2.49,3.4c.49.67,1,1.32,1.48,2A1.27,1.27,0,0,1,24.36,20a.93.93,0,0,1-1.45.67A6,6,0,0,1,21,19c-.8-1-1.58-2-2.4-3a9.17,9.17,0,0,1-1.11-2,1.27,1.27,0,0,1,.2-1.26c.08-.14.3-.21.42-.29"/></g></g></g></g></svg>