<svg xmlns="http://www.w3.org/2000/svg" viewBox="0 0 72.01 72.01"><defs><style>.cls-1{fill:#984124;}.cls-2{fill:#ebe5de;}.cls-3{fill:#2e331f;}</style></defs><title>item (4)</title><g id="Capa_2" data-name="Capa 2"><g id="Capa_1-2" data-name="Capa 1"><g id="item"><g id="icono"><path class="cls-1" d="M72,36A36,36,0,1,1,36,0,36,36,0,0,1,72,36"/><path class="cls-2" d="M17.57,50.54c0-.13.08-.2.06-.25a26.84,26.84,0,0,0-2.16-2.76,1.31,1.31,0,0,0-.27.08A15.24,15.24,0,0,0,13,50.18s.18.37.27.38a27.32,27.32,0,0,0,4.34,0M57,45.94c-2.1,2.05-2.9,3.17-3.23,4.45,1.73.47,3.39-.22,5.2-.25a24.25,24.25,0,0,0-2-4.2M53.49,28.73c-.43-.24-.73.08-1,.27a32.36,32.36,0,0,1-7.83,3.56c-1.6.49-3.22.79-4.85,1.13a27.67,27.67,0,0,1-6.47.72c-.83,0-1.66,0-2.49,0A22,22,0,0,1,22.92,33,22.61,22.61,0,0,1,19,31c-.13-.07-.33,0-.59,0a3.81,3.81,0,0,0,.37.78,34.2,34.2,0,0,0,4.49,5c.83.7,1.62,1.44,2.44,2.16a2.7,2.7,0,0,0,.63.43c1.15.55,2.31,1.1,3.47,1.62a12.67,12.67,0,0,0,4.67.93,11.71,11.71,0,0,0,7.65-2c.31-.22.66-.38,1-.58a22.15,22.15,0,0,0,4-2.91,27.47,27.47,0,0,0,4.38-4.82c.64-1,1.33-1.88,2-2.81-.11-.11,0,.07,0,0M15.82,32c-.34,1.49-.39,8.76-.12,12.7.94,1.13,1.83,2.3,2.82,3.38.84.91,1.3,2.06,2.06,3a.87.87,0,0,1-.32,1.18,2.45,2.45,0,0,1-1.43.47c-2,0-4,.07-6,.06a10,10,0,0,1-1.5-.3A1.53,1.53,0,0,1,10,51.08a17,17,0,0,1,1.9-2.87c.39-.5.78-1,1.13-1.55a2,2,0,0,0,.37-1.42c-.09-1,.06-2.05.07-3.07.06-3.83.13-7.66.16-11.5,0-2.5,0-5,0-7.5,0-.64,0-1.28,0-1.92a1.85,1.85,0,0,1,.15-.74,1.17,1.17,0,0,1,.5-.53c.25-.12.82.3.88.61a5.62,5.62,0,0,1,.09.57c.09,1.08.19,2.17.28,3.2.71.82,1.37,1.59,2,2.36a2.7,2.7,0,0,0,.56.51c1.27.74,2.5,1.54,3.78,2.27,2.93,1.69,6.19,2,9.41,2.47a3.31,3.31,0,0,0,.77,0c1.92-.11,3.86-.09,5.75-.36a57.94,57.94,0,0,0,5.81-1.29A32.93,32.93,0,0,0,47,29.23a20.69,20.69,0,0,0,5.39-2.92,19.37,19.37,0,0,0,3.24-2.89c0-.53,0-1.17.07-1.8a6,6,0,0,1,.39-2.26c.12-.25.32-.46.58-.39a1.14,1.14,0,0,1,.59.42,1.65,1.65,0,0,1,.23.73c.07.57.12,1.14.14,1.72.2,4.42.13,8.83,0,13.24-.07,2.43,0,4.87-.05,7.31a4.67,4.67,0,0,0,.68,2.34,40.29,40.29,0,0,1,2.64,5.55c.45,1.26.08,1.88-1.24,1.88s-2.78.44-4.2.51c-1,0-2,.16-3.06.16a1.56,1.56,0,0,1-1.45-2.28,19.27,19.27,0,0,1,1.29-2.36c.47-.76,1-1.47,1.55-2.2l1.11-1.57a3.35,3.35,0,0,0,.58-2.17c-.07-2.17-.07-4.35-.06-6.53,0-1.28.1-2.56.14-3.84,0-.3,0-.6,0-.86a.56.56,0,0,0-.74.28c-.64.94-1.22,1.94-1.9,2.86A18.24,18.24,0,0,1,51.23,36c-.85.87-1.7,1.76-2.61,2.56a13.07,13.07,0,0,1-2.95,2.1A22.12,22.12,0,0,0,43.51,42a15.58,15.58,0,0,1-5.08,2.22,14.37,14.37,0,0,1-5.91.33c-.25,0-.5-.06-.76-.09a12.35,12.35,0,0,1-4.06-1.08A19.7,19.7,0,0,1,23.56,41a36.14,36.14,0,0,1-4.41-4.25c-.79-.92-1.48-1.93-2.21-2.9-.22-.31-.44-.62-.64-.94a3.36,3.36,0,0,0-.48-.85"/><path class="cls-3" d="M53.89,29.93c.06,0-.06-.15,0,0Z"/></g></g></g></g></svg>