<svg xmlns="http://www.w3.org/2000/svg" viewBox="0 0 72.01 72.01"><defs><style>.cls-1{fill:#984124;}.cls-2{fill:#ebe5de;}</style></defs><title>item (12)</title><g id="Capa_2" data-name="Capa 2"><g id="Capa_1-2" data-name="Capa 1"><g id="item"><g id="icono"><path class="cls-1" d="M72,36A36,36,0,1,1,36,0,36,36,0,0,1,72,36"/><path class="cls-2" d="M35.62,21.29c-.27-.12-.45-.28-.61-.26a9.11,9.11,0,0,0-4,1.06,7.59,7.59,0,0,1-1,.57,8,8,0,0,0-3.35,2.49c-.8.92-1.57,1.87-2.36,2.8a8.49,8.49,0,0,0-1.6,2.82,17.18,17.18,0,0,1-.6,1.61,15.75,15.75,0,0,0-.86,4.12A5,5,0,0,0,21.55,39c.33.9.76,1.76,1.13,2.64a6.75,6.75,0,0,0,2.21,2.85c.22.17.4.31.67.11.09-1.4.2-2.8.28-4.21a7.32,7.32,0,0,1,.63-2.8,6.9,6.9,0,0,0,.33-.9,20.71,20.71,0,0,1,1.76-4.25C29.38,31,30.19,29.5,31,28a20.54,20.54,0,0,1,4.4-6.24,2.49,2.49,0,0,0,.27-.49M41.28,48a7.49,7.49,0,0,0,1.33-.56c1.84-1.26,3.79-2.43,4.84-4.54a13.57,13.57,0,0,0,2.4-4.73,15.75,15.75,0,0,0,.49-3.59,8.27,8.27,0,0,0-1.17-5.33c-.44-.78-.89-1.55-1.34-2.33a11.29,11.29,0,0,0-4.12-4.2A3.5,3.5,0,0,0,41.57,22c-.29,0-.22.95.15,2.16A44.86,44.86,0,0,1,43,30.38a50.9,50.9,0,0,1,.25,6.3c.08,2.46-.62,4.8-.88,7.21a1.48,1.48,0,0,1-.1.36c-.32,1-.66,1.93-1,2.9a3.31,3.31,0,0,0,0,.85M38.73,23.23c-.26.05-.49,0-.61.12-.66.6-1.33,1.2-1.94,1.86a7.68,7.68,0,0,0-1.12,1.54c-1.76,3.26-3.5,6.51-5,9.92a20.72,20.72,0,0,0-1.6,7.23,10.41,10.41,0,0,0,.08,3.39A11.47,11.47,0,0,0,37,49.19,8,8,0,0,0,37.68,48a15.38,15.38,0,0,0,.86-2.53c.21-1,.76-2,1-3.09a37.26,37.26,0,0,0,.66-9.31,74.57,74.57,0,0,0-1.11-8.15c-.09-.55-.21-1.1-.32-1.69m-2.49-5.1h1.92a5.86,5.86,0,0,1,2.07.36,3.45,3.45,0,0,0,.92.27,11,11,0,0,1,4.79,2.33,16.74,16.74,0,0,1,1.84,1.39,16.49,16.49,0,0,1,3.49,4.78c.34.62.66,1.24,1,1.86a9.48,9.48,0,0,1,1.21,4,15.12,15.12,0,0,1-1.32,7.64c-.35.69-.66,1.38-1,2.06a18.49,18.49,0,0,1-7.22,7.27,21.64,21.64,0,0,1-3.08,1.55,15.68,15.68,0,0,1-7.77.6A13.41,13.41,0,0,1,26.7,49.7a26.79,26.79,0,0,1-5-4.71,16.56,16.56,0,0,1-2.48-4.75c-.19-.48-.3-1-.53-1.44A5,5,0,0,1,18.2,36a18.73,18.73,0,0,1,2-7.34,29.87,29.87,0,0,1,3.15-4.59,11.8,11.8,0,0,1,1.54-1.69A18.77,18.77,0,0,1,28,20.1c2-1.06,4-2.08,6.32-2,.63,0,1.27,0,1.91-.08Z"/></g></g></g></g></svg>