<svg xmlns="http://www.w3.org/2000/svg" viewBox="0 0 72.01 72.01"><defs><style>.cls-1{fill:#984124;}.cls-2{fill:#ebe5de;}</style></defs><title>item (13)</title><g id="Capa_2" data-name="Capa 2"><g id="Capa_1-2" data-name="Capa 1"><g id="item"><g id="icono"><path class="cls-1" d="M72,36A36,36,0,1,1,36,0,36,36,0,0,1,72,36"/><path class="cls-2" d="M34.93,53.24c1.52-.26,1.52-.26,1.89-.59a5.23,5.23,0,0,0,1.73-4.31,2.8,2.8,0,0,0-1.94-2.62,2.35,2.35,0,0,0-2.69.92,6.49,6.49,0,0,0-.85,3.12,4,4,0,0,0,1.86,3.48m6.53-33c-.22.31-.43.48-.47.68-.12.57-.14,1.15-.24,1.72a25.38,25.38,0,0,0-.14,7.07c.13,1.08.33,2.15.48,3.23a2,2,0,0,1-1.18,2.22,6.94,6.94,0,0,1-3.18-3c-.43-.79-.72-1.65-1.1-2.46-.08-.18-.08-.52-.5-.39A16.44,16.44,0,0,0,35,32.11a13.3,13.3,0,0,1-.74,5.66,5.35,5.35,0,0,1-2.95,3.13,2.39,2.39,0,0,1-2.65-.54,3.73,3.73,0,0,1-1.25-2.51c0-.27-.13-.64-.6-.59a14.39,14.39,0,0,0-1.26,1.65c-.84,1.51-1.59,3.06-2.41,4.58a6.09,6.09,0,0,0-.68,2.18c-.07.51-.1,1-.21,1.53a4.09,4.09,0,0,0,.17,2.08,11.88,11.88,0,0,0,1.53,3.09,4.12,4.12,0,0,0,2.26,1.7c.55.17,1.08.39,1.63.54a4,4,0,0,0,1.3.25,7.25,7.25,0,0,0,2.83-.56,7,7,0,0,0-.37-.73,8.44,8.44,0,0,1-1.47-4.88,5.87,5.87,0,0,1,.68-2.76,6.39,6.39,0,0,1,2-2.33c2-1.34,3.23-1.43,5-.4a13.83,13.83,0,0,1,2,1.5,5.17,5.17,0,0,1,1.55,5.23c-.12.43-.26.86-.34,1.3a2.49,2.49,0,0,1-.82,1.48A2.41,2.41,0,0,0,39.25,54a3.25,3.25,0,0,0,4.2-.52,8.79,8.79,0,0,0,1.22-1.22A34.23,34.23,0,0,0,47,48.91a15.07,15.07,0,0,0,2-5.36A8.61,8.61,0,0,0,49.11,42a25,25,0,0,0-.18-2.88,15.57,15.57,0,0,0-1.31-4.79c-1-2.13-2.17-4.21-3.23-6.32a33.48,33.48,0,0,1-2.63-7c-.06-.24-.16-.47-.3-.86m-3.79,5.19a31.9,31.9,0,0,1,1.57-7.83c.66-2.08,1.52-4.07,2.31-6.1a1.64,1.64,0,0,1,.39-.65,1.06,1.06,0,0,1,.66-.3,2.15,2.15,0,0,1,.93.19,1.2,1.2,0,0,1,.77,1.22c0,.38-.06.76-.12,1.14a23.19,23.19,0,0,0,1,10.23,24.07,24.07,0,0,0,.8,2.35c.58,1.35,1.22,2.67,1.85,4,.85,1.79,1.68,3.58,2.47,5.4a14,14,0,0,1,.9,4.11,20.72,20.72,0,0,1,.11,4.59,24.14,24.14,0,0,1-1.35,6.17c-.27.65-.47,1.32-.74,2a7.93,7.93,0,0,1-.64,1.18c-.2.32-.51.59-.68.92a7,7,0,0,1-3.24,2.9,7.28,7.28,0,0,1-5.93.45c-.66-.25-1.3-.55-2-.81a2.67,2.67,0,0,0-2.21.1,35,35,0,0,1-3.43,1.22,5.24,5.24,0,0,1-2.86,0c-1.06-.24-2.11-.57-3.14-.9A3.94,3.94,0,0,1,23,55.42,18.64,18.64,0,0,0,21.73,54a13,13,0,0,1-2.3-5.66,9.62,9.62,0,0,1,.92-6,78.13,78.13,0,0,1,3.92-7,10.56,10.56,0,0,0,1.55-4.66,2,2,0,0,1,.32-1.09.89.89,0,0,1,1.32-.29A2.8,2.8,0,0,1,28.81,31a25.26,25.26,0,0,1,1.25,6.15,3.83,3.83,0,0,0,.13.74.57.57,0,0,0,.11.16,1.13,1.13,0,0,0,1.1-.91,12,12,0,0,0,.54-2.43c.11-1.27.06-2.55.1-3.84.06-1.47.14-2.94.22-4.41,0-.64.08-1.27.12-1.91a18,18,0,0,1,1.43-6.14,3.73,3.73,0,0,1,.16-.35,1.2,1.2,0,0,1,1.2-.78,1.58,1.58,0,0,1,1.35,1.21,9,9,0,0,1,.14,1.72,24,24,0,0,0,.71,4.54,2.74,2.74,0,0,0,.3.61"/></g></g></g></g></svg>