<svg xmlns="http://www.w3.org/2000/svg" viewBox="0 0 72.01 72.01"><defs><style>.cls-1{fill:#984124;}.cls-2{fill:#ebe5de;}</style></defs><title>item (10)</title><g id="Capa_2" data-name="Capa 2"><g id="Capa_1-2" data-name="Capa 1"><g id="item"><g id="icono"><path class="cls-1" d="M72,36A36,36,0,1,1,36,0,36,36,0,0,1,72,36"/><path class="cls-2" d="M40.35,24.88c.3.07.62.12.92.2a2,2,0,0,1,1.41,1.21A6,6,0,0,1,42.92,31c-.48,1.19-1,2.36-1.5,3.53-.65,1.54-1.31,3.07-2,4.6a2.76,2.76,0,0,0-.19.55c-.09.47-.47,1,.06,1.39a1.41,1.41,0,0,0,1.46-.22,6.62,6.62,0,0,0,1.5-1.18,20.27,20.27,0,0,0,3.18-4.79,16.92,16.92,0,0,1,2.88-4.5c.89-.92,1.65-2,2.55-2.86a9.89,9.89,0,0,1,4.32-2.76,1.39,1.39,0,0,1,1.54.46c1.2,1.26,1.14,2.78.93,4.32a11.93,11.93,0,0,1-1,3.09c-1,2.17-1.82,4.37-2.73,6.56a3.5,3.5,0,0,0-.29,1.69,1,1,0,0,0,.64.87,3.27,3.27,0,0,0,2.8-.14c1.45-.84,3-1.45,4.48-2.21A6.85,6.85,0,0,1,63,38.87a1.72,1.72,0,0,1,1.87.64.78.78,0,0,1-.14,1.3l-.16.1c-2.36,1.15-4.73,2.29-7.08,3.46a4.61,4.61,0,0,1-5-.67,3,3,0,0,1-1.07-1.78,6.48,6.48,0,0,1,.16-4.15c.29-.78.63-1.54.95-2.31.8-1.89,1.6-3.77,2.37-5.66A12.82,12.82,0,0,0,55.42,28a.57.57,0,0,0-.2-.49.6.6,0,0,0-.54,0,5.13,5.13,0,0,0-1.27.85,34.91,34.91,0,0,0-4.91,5.88c-.69,1.15-1.26,2.37-1.87,3.57a18,18,0,0,1-2.44,3.43,8.49,8.49,0,0,1-3.51,2.28,4,4,0,0,1-2.47.07,2.24,2.24,0,0,1-1.44-1.68,4.2,4.2,0,0,1-.07-2.28A28.84,28.84,0,0,1,37.93,36a44,44,0,0,1,2-4.37,11,11,0,0,0,1-2.91,2.19,2.19,0,0,0,0-.57.47.47,0,0,0-.51-.44,2.92,2.92,0,0,0-1.62,1c-.72.91-1.53,1.73-2.16,2.71s-1.52,2.21-2.28,3.32a1.6,1.6,0,0,0-.22.31c-1.33,2.79-3.52,4.85-5.75,6.87a7.6,7.6,0,0,1-3.58,1.79c-1.61.33-2.57-.48-2.67-2.15a5.08,5.08,0,0,1,.48-2.61c.6-1.2.82-2.58,1.7-3.65.58-2,1.48-3.82,1.92-5.82a3.67,3.67,0,0,0-.09-1.13.47.47,0,0,0-.63-.25,5.09,5.09,0,0,0-.47.34c-.43.38-.88.74-1.27,1.16-1.76,1.85-3.49,3.73-5.06,5.74-1.3,1.66-2.51,3.39-3.81,5a23.12,23.12,0,0,1-2.51,2.89,9.69,9.69,0,0,1-2.28,1.38,7.25,7.25,0,0,1-1.44.51.7.7,0,0,1-.88-.74,1.85,1.85,0,0,1,.2-.73,1.53,1.53,0,0,1,.5-.57c2.17-1.38,3.57-3.46,5-5.49.92-1.29,1.84-2.59,2.81-3.85s2-2.52,3-3.7,2.26-2.26,3.41-3.36a5.53,5.53,0,0,1,2.33-1.32,4.79,4.79,0,0,1,1.31-.14,1.44,1.44,0,0,1,1.24.79,7,7,0,0,1,.71,5.71c-.66,2.23-1.75,4.25-2.59,6.4-.33.83-.66,1.65-1,2.48a.15.15,0,0,0,.07.16c.09.06.25.16.31.12a14.69,14.69,0,0,0,1.74-1.17,25.67,25.67,0,0,0,4.76-5.48c1-1.45,1.75-3,2.78-4.38a20,20,0,0,1,3.16-3.6,10,10,0,0,1,2.77-1.35"/></g></g></g></g></svg>