<svg xmlns="http://www.w3.org/2000/svg" viewBox="0 0 72.01 72.01"><defs><style>.cls-1{fill:#984124;}.cls-2{fill:#ebe5de;}</style></defs><title>item (9)</title><g id="Capa_2" data-name="Capa 2"><g id="Capa_1-2" data-name="Capa 1"><g id="item"><g id="icono"><path class="cls-1" d="M72,36A36,36,0,1,1,36,0,36,36,0,0,1,72,36"/><path class="cls-2" d="M37.82,43.24a9.51,9.51,0,0,0,2.88-.16,25.38,25.38,0,0,1,3-.42,2.88,2.88,0,0,1,3,2.14A8.72,8.72,0,0,1,47,46.31c.21,2.1.62,4.18.69,6.29,0,.51,0,1-.06,1.54a1,1,0,0,1-.15.55c-.3.41-.64.85-1.2.86s-.77-.39-1-.8a5.68,5.68,0,0,1-.71-2.56,20.81,20.81,0,0,0-.45-4.58A12.16,12.16,0,0,1,44,45.94c-.16-.33-.45-.26-.68-.27a2,2,0,0,0-1.31.44,16.8,16.8,0,0,1,.72,5.07c0,1.27,0,2.55,0,3.82a1.5,1.5,0,0,1-.91,1.36A.92.92,0,0,1,40.49,56a5.35,5.35,0,0,1-.74-3.13c.11-2.11-.18-4.2-.22-6.24-.4-.48-.88-.25-1.3-.29-1.42-.12-1.28.19-1.28,1.39a43.54,43.54,0,0,1-.14,5.93A3.57,3.57,0,0,1,36,55.59c-.49.59-1,.42-1.19-.1a6,6,0,0,1-.39-1.27,25,25,0,0,1-.14-2.87c0-1.41.18-2.81.26-4.21a7.5,7.5,0,0,0,0-.94,1.88,1.88,0,0,0-1.68-.05c-.08.13-.2.24-.2.34a48.36,48.36,0,0,1-.71,8.4,1.93,1.93,0,0,1-1.51,1.73A1.86,1.86,0,0,1,29.48,55a16.91,16.91,0,0,1,.11-4c.16-1.26.39-2.52.58-3.78.09-.58-.22-.82-.82-.63a2.42,2.42,0,0,0-.53.3c-.35,1.41-.72,2.82-1.05,4.25-.26,1.18-.46,2.37-.68,3.56A2.27,2.27,0,0,1,26.36,56a.91.91,0,0,1-1.55-.31,4,4,0,0,1-.28-2.08c.21-1.64.44-3.27.72-4.9.16-.94.5-1.86.67-2.8a2.64,2.64,0,0,1,2.43-2.31,31.71,31.71,0,0,1,5.31-.74.82.82,0,0,0,.92-.78,9.2,9.2,0,0,0,.11-1.73,30,30,0,0,1,0-3.42q.12-5.85.74-11.67a69.3,69.3,0,0,0,.35-7.49c0-1.21.2-2.43.14-3.64a27.33,27.33,0,0,1,.17-3.63A4.14,4.14,0,0,1,36.4,9.4a.45.45,0,0,1,.66-.16,2.37,2.37,0,0,1,.62.69,3.87,3.87,0,0,1,.31,1.3c.06,1.27.26,2.53.21,3.82-.08,2.17,0,4.35,0,6.52,0,1.22,0,2.43,0,3.64-.1,2.24-.38,4.48-.32,6.71.07,2.49-.34,5,0,7.46a14.47,14.47,0,0,0-.18,2.86,6.34,6.34,0,0,0,.17,1"/></g></g></g></g></svg>