<svg xmlns="http://www.w3.org/2000/svg" viewBox="0 0 72.01 72.01"><defs><style>.cls-1{fill:#984124;}.cls-2{fill:#ebe5de;}</style></defs><title>item (8)</title><g id="Capa_2" data-name="Capa 2"><g id="Capa_1-2" data-name="Capa 1"><g id="item"><g id="icono"><path class="cls-1" d="M72,36A36,36,0,1,1,36,0,36,36,0,0,1,72,36"/><path class="cls-2" d="M54.61,51.85a6.17,6.17,0,0,0,.3-1,62.83,62.83,0,0,0,.37-10.35,13,13,0,0,0-.76-4.06c-2.43.11-4.77.36-7.13.34a57.44,57.44,0,0,0-8,.63c0,1.14-.1,2.28-.07,3.42.06,2.24-.07,4.47-.21,6.71Q39,48.93,39,50.35a1.21,1.21,0,0,0,.45,1.18c.47.06,1.09.16,1.72.21a10,10,0,0,1,1.91.11,13.84,13.84,0,0,0,4,.27A26.57,26.57,0,0,0,50.51,52a5.46,5.46,0,0,1,1.89,0,4.73,4.73,0,0,0,2.21-.16M37.85,34.53a5.68,5.68,0,0,0,2.24,0c1.52-.26,3.06-.34,4.58-.53a53.85,53.85,0,0,1,9,0,5.45,5.45,0,0,1,1.13.19,1.17,1.17,0,0,1,.65.38A8.82,8.82,0,0,1,56.63,37c0,.31,0,.64.09.95a16,16,0,0,1,.46,6.45,5,5,0,0,0,0,.77A32.92,32.92,0,0,1,56.6,52q-.08.38-.18.75A1.6,1.6,0,0,1,55.09,54c-.44.08-.89.13-1.33.17-2.55.19-5.1.39-7.66.56a11.17,11.17,0,0,1-1.53,0l-4.41-.28a11.08,11.08,0,0,1-1.52-.19,2.37,2.37,0,0,1-1.56-.64,3.22,3.22,0,0,1-.83-2.1c.11-2.3-.08-4.61.06-6.91a16.55,16.55,0,0,0,0-4.39,9.32,9.32,0,0,1,.09-2.1,4.83,4.83,0,0,0,0-1.32,1.46,1.46,0,0,1,.54-1.53,8.31,8.31,0,0,1,1-.71"/><path class="cls-2" d="M18.47,37.06A5.28,5.28,0,0,0,18,39.67c0,.63,0,1.27,0,1.91q0,4.31.06,8.62a2.85,2.85,0,0,0,.18.71,3.7,3.7,0,0,0,1.71.37c.57,0,1.15.06,1.72,0,1.41,0,2.81-.06,4.21-.16a43.77,43.77,0,0,1,4.58-.59A5.76,5.76,0,0,0,32,50.24a4.09,4.09,0,0,0,.19-.62c.28-3.65.43-7.29.43-10.95a7.07,7.07,0,0,0-.23-1.27A5.48,5.48,0,0,0,30.2,37a18.15,18.15,0,0,1-2.86-.13,24.17,24.17,0,0,0-2.69,0,16.94,16.94,0,0,1-4.21.1,8.58,8.58,0,0,0-2,.14m-3.16,8.76a25,25,0,0,1-.2-3.44c.14-1.66.08-3.31.18-5a3.07,3.07,0,0,1,1-2.22A2.34,2.34,0,0,1,18,34.5c1.09,0,2.17,0,3.26,0s2.43-.14,3.64-.22c.13,0,.27-.09.37-.06,1.8.53,3.72,0,5.5.65a2.51,2.51,0,0,0,.95,0c.32,0,.64-.06.95-.06a1.83,1.83,0,0,1,1.84,1.63,33.1,33.1,0,0,1,.33,4.78c-.11,1.39-.07,2.79-.13,4.19a37.85,37.85,0,0,1-.48,5.52,1.62,1.62,0,0,1-.88,1.18,7.47,7.47,0,0,1-2.74.81,37,37,0,0,0-4.33.77,15.93,15.93,0,0,1-2.66.38,32,32,0,0,1-6-.2,1.73,1.73,0,0,1-1.4-.88,4.07,4.07,0,0,1-.64-1.59c-.08-.77-.2-1.53-.23-2.3,0-1.08,0-2.17,0-3.26h-.06"/><path class="cls-2" d="M44.45,17.51A10.6,10.6,0,0,0,41,17.38c-2.49.05-5,0-7.47,0a4.57,4.57,0,0,0-1.34.07,14.85,14.85,0,0,1-2.64.44,9.12,9.12,0,0,0-.9.23,3.14,3.14,0,0,0-.15.61,5.43,5.43,0,0,0,.07,1.34,13.25,13.25,0,0,1,.15,4.57A5.13,5.13,0,0,0,28.65,26a18.28,18.28,0,0,1,.13,3.62,11.06,11.06,0,0,0,0,1.15.62.62,0,0,0,.63.59l4.78-.32c.38,0,.76-.07,1.14-.09,1-.05,2,0,3.06-.15,1.72-.23,3.44-.36,5.17-.42a2.24,2.24,0,0,0,.56-.18A16.89,16.89,0,0,0,44.62,26a73.83,73.83,0,0,0-.17-8.52M25.86,24.33c.18-1.7-.07-3.54-.07-5.39a5.2,5.2,0,0,1,.38-2.06,2.11,2.11,0,0,1,1.88-1.41,11.78,11.78,0,0,0,3.58-.64,2.32,2.32,0,0,1,.95-.1c2.3.08,4.6.2,6.9.28,1.54.06,3.08.08,4.61.1a3.7,3.7,0,0,1,1.5.28,1.22,1.22,0,0,1,.85,1.15c0,1.41,0,2.82.1,4.22a43.14,43.14,0,0,1,0,5.57c-.12,1.46-.29,2.92-.44,4.38a1.36,1.36,0,0,1-1.28,1.42c-.5,0-1,.24-1.5.28-2.17.16-4.33.44-6.49.73a45.87,45.87,0,0,1-5,.2c-1,0-2.05,0-3.07-.06-.39,0-.77-.08-1.15-.12a1.26,1.26,0,0,1-1.05-.73A4.51,4.51,0,0,1,26,30a32,32,0,0,0-.13-4.59c0-.32,0-.64,0-1.11"/></g></g></g></g></svg>