<svg xmlns="http://www.w3.org/2000/svg" viewBox="0 0 72.01 72.01"><defs><style>.cls-1{fill:#984124;}.cls-2{fill:#ebe5de;}</style></defs><title>item (3)</title><g id="Capa_2" data-name="Capa 2"><g id="Capa_1-2" data-name="Capa 1"><g id="item"><g id="icono"><path class="cls-1" d="M72,36A36,36,0,1,1,36,0,36,36,0,0,1,72,36"/><path class="cls-2" d="M46.08,25.77c.18,0,.46,0,.55-.08s0-.45-.15-.66-.3-.63-.49-.92c-1-1.52-1.72-3.15-3.31-4.22-1.1-.73-2.34-1.13-3.47-1.76A4.26,4.26,0,0,0,36,17.87a32.19,32.19,0,0,0-4.37,1.5,9.41,9.41,0,0,0-4.18,3.09,2.66,2.66,0,0,0-.59,2.08c.1.41,1,.1,1.54.18l.75.08a26.86,26.86,0,0,0,4,.41c2.23-.08,4.47.09,6.7-.07a22.89,22.89,0,0,1,6.26.63M37.89,11.82a21.09,21.09,0,0,1,0,2.25,1,1,0,0,0,.77,1.23,17.55,17.55,0,0,1,6.6,4.08,3.55,3.55,0,0,1,.85,1,25.49,25.49,0,0,1,2.39,5.33c.13.53.55.66.89.94s.64.56.47,1-.45.93-1.06.93a11,11,0,0,1-3.3-.14,18.75,18.75,0,0,0-6.24-.4,66.56,66.56,0,0,1-7.34,0c-1.49-.11-3-.21-4.46-.34a5.9,5.9,0,0,0-1.19.05,2.49,2.49,0,0,1-2.73-3.23,11.83,11.83,0,0,1,2.73-5.26,15,15,0,0,1,4.86-3.12,19.27,19.27,0,0,1,3.44-1.05c.66-.15.89-.39.88-1.08,0-1.91.08-3.81.09-5.72a5.47,5.47,0,0,1,.41-2c.33-.76.82-.78,1.31-.1a2.23,2.23,0,0,1,.37,1.13c.09,1.5.28,3,.28,4.5"/><path class="cls-2" d="M45.12,58a7.23,7.23,0,0,1,0,1.8c0,.59-.28,1.15-.89,1.22A1.23,1.23,0,0,1,43,60a15.67,15.67,0,0,1-.72-2.91c-.2-1.64-.28-3.29-.41-4.93,0-.76.39-1.67.85-1.76s1.52.64,1.69,1.44A31.16,31.16,0,0,1,45.12,58"/><path class="cls-2" d="M44.52,44.6c-.05.95.16,1.93-.55,2.73-.33.38-.68.82-1.25.55s-.5-.66-.57-1.2c-.21-1.52-.39-3-.46-4.58,0-.69-.12-1.38-.12-2.07a1.23,1.23,0,0,1,.73-1.22c.46-.17.88.18,1.18.5a2.24,2.24,0,0,1,.74,1.42c.06,1.29.2,2.58.3,3.87"/><path class="cls-2" d="M28.32,49.76A13.61,13.61,0,0,1,26,56.34a4.3,4.3,0,0,1-.43.62.59.59,0,0,1-.79.2.68.68,0,0,1-.37-.75c.81-2.09.37-4.37,1-6.48a6.15,6.15,0,0,1,.55-1c.28-.52.55-1,1.27-.67a1.37,1.37,0,0,1,1,1.55"/><path class="cls-2" d="M50.92,45.06c0,.26,0,.46,0,.66-.08.58-.3,1.14-.92,1.23s-1-.43-1.15-1a26.93,26.93,0,0,1-1.32-5.38c0-.25,0-.5,0-.75,0-.63.11-1.35.75-1.46a1.58,1.58,0,0,1,1.46.89c.58.94.47,2,.82,3a14.53,14.53,0,0,1,.42,2.75"/><path class="cls-2" d="M14,57a11.69,11.69,0,0,1,1.56-4.36,5.78,5.78,0,0,1,1-1.69c.33-.3.63-.62,1.18-.44a1.1,1.1,0,0,1,.85,1.09,2,2,0,0,1-.13,1c-.58,1.22-1.11,2.46-1.68,3.68A5.71,5.71,0,0,1,15.49,58c-.26.24-.51.54-.91.38a.85.85,0,0,1-.58-.94A2.94,2.94,0,0,0,14,57"/><path class="cls-2" d="M18.28,45.71a8.85,8.85,0,0,1,2.19-5.41A1,1,0,0,1,21.89,40a1,1,0,0,1,.59,1.47,21.41,21.41,0,0,1-1.43,3.12A9.6,9.6,0,0,0,19.67,47c-.09.33-.31.68-.74.6a.8.8,0,0,1-.7-.84c0-.35,0-.7.05-1"/><path class="cls-2" d="M24.47,31.16c1.06.05,1.21.23,1,1.29-.3,1.72-1.32,3.13-2.07,4.65a.68.68,0,0,1-1,.36c-.47-.28-1-.56-.87-1.25a17.29,17.29,0,0,1,2.11-4.8.72.72,0,0,1,.81-.25"/><path class="cls-2" d="M51.8,53.64a4.08,4.08,0,0,1-.34,1.92c-.41.7-1.19.75-1.51,0a13.71,13.71,0,0,1-1.16-4c-.07-.69.14-1.43.83-1.59a1.51,1.51,0,0,1,1.57,1,7.9,7.9,0,0,1,.61,2.73"/><path class="cls-2" d="M30.31,40.91a9.2,9.2,0,0,1-1,3.27c-.29.43-.53.92-1.15.71a1.36,1.36,0,0,1-1-1.35,13,13,0,0,1,1.25-4.12.56.56,0,0,1,.76-.28c.48.16.95.35,1.11.89a3.46,3.46,0,0,1,0,.88"/><path class="cls-2" d="M35.76,51.75a16.71,16.71,0,0,1-.35,2.31,1.74,1.74,0,0,1-.49.9c-.26.32-.55.66-1,.49a1.12,1.12,0,0,1-.76-1.17c.09-1.24.24-2.48.36-3.72.05-.57.16-1.13.82-1.26.49-.11,1.34.72,1.42,1.33a9.76,9.76,0,0,1,0,1.12"/><path class="cls-2" d="M36.34,42.42a8.27,8.27,0,0,1-.46,2.84c-.11.37-.32.81-.81.77s-.76-.46-.79-1a20.45,20.45,0,0,1,.47-4.47c0-.3.23-.61.58-.61a.86.86,0,0,1,.83.53,3.92,3.92,0,0,1,.18,1.89"/><path class="cls-2" d="M37.51,32c-.37,1,0,2.26-.66,3.35-.21.35-.4.75-.9.61a.9.9,0,0,1-.79-1,13.3,13.3,0,0,1,.63-3.53c.15-.41.35-.85,1-.73s.78.54.76,1.25"/><path class="cls-2" d="M28.48,35.21a8.19,8.19,0,0,1,.74-3.34c.12-.35.35-.63.79-.52s.92.29.9.84A9.69,9.69,0,0,1,30,35.81c-.14.31-.36.66-.78.57a.9.9,0,0,1-.71-.87c0-.2,0-.4,0-.3"/><path class="cls-2" d="M48,33.68c0,.51.12,1.07-.49,1.3s-1.06-.26-1.35-.69a3.65,3.65,0,0,1-.43-2.88c.14-.69.65-.83,1.25-.41.95.67.79,1.75,1,2.68"/><path class="cls-2" d="M41.49,33.66c0-.83.39-1.7.85-1.64.78.11,1,.76,1.13,1.41s.48,1.33.1,2-.89.82-1.51.21-.48-1.27-.57-2"/></g></g></g></g></svg>