<svg xmlns="http://www.w3.org/2000/svg" viewBox="0 0 72.01 72.01"><defs><style>.cls-1{fill:#984124;}.cls-2{fill:#ebe5de;}</style></defs><title>item (2)</title><g id="Capa_2" data-name="Capa 2"><g id="Capa_1-2" data-name="Capa 1"><g id="item"><g id="icono"><path class="cls-1" d="M72,36A36,36,0,1,1,36,0,36,36,0,0,1,72,36"/><path class="cls-2" d="M61.77,44.3a29.11,29.11,0,0,1,.41,5A4.37,4.37,0,0,1,62,50.57c-.58,1.71-1.62,2-3.23,1.06a2.66,2.66,0,0,1-1.44-2.55,51.89,51.89,0,0,1,1.19-8.42,3.4,3.4,0,0,0-.36-2.91,5.42,5.42,0,0,1-.6-2.84,87.5,87.5,0,0,1,.39-11.1,12.18,12.18,0,0,1,2.13-5.75,1.48,1.48,0,0,1,1.66-.62c.64.12.77.72.84,1.31a62.56,62.56,0,0,1,.19,11c-.12,1.89-.13,3.78-.24,5.67-.06,1.1,0,2.27-.82,3.17-.25.25-.13.56-.12.86.07,1.63.13,3.27.19,4.9"/><path class="cls-2" d="M12.35,23.69c-.07,1.45-.15,2.91-.21,4.37,0,.25-.1.62.29.68s.55-.3.56-.63c0-1,.09-2.07.06-3.11a34.27,34.27,0,0,1,.23-3.79,4.78,4.78,0,0,1,.27-1.1c.07-.23.21-.43.49-.4a.56.56,0,0,1,.48.46,5,5,0,0,1,0,2,30,30,0,0,0,0,4.64c0,.22-.08.53.2.62s.4-.18.54-.36a2.9,2.9,0,0,0,.5-1.44,27,27,0,0,0-.08-4.5c0-.19-.09-.37-.1-.56,0-.51.16-1,.66-1.1s.83.35.93.85a25.05,25.05,0,0,1,.38,4.49,5.27,5.27,0,0,1-2.65,4.79,1.64,1.64,0,0,0-.79,1.63c.17,3.85,0,7.7-.18,11.55a47.64,47.64,0,0,1,0,5.07,3.74,3.74,0,0,1-.68,2c-.75.9-1.55.8-2-.3a6.44,6.44,0,0,1-.33-2.92c.19-3.84.41-7.69.59-11.53.06-1.36.06-2.73.1-4.09a.89.89,0,0,0-.31-.74,8.93,8.93,0,0,1-2.83-7.88c.09-.8.13-1.6.2-2.39,0-.29,0-.62.38-.67s.58.27.69.58a5.55,5.55,0,0,1,.1,1.41,19.6,19.6,0,0,0,.4,4.89c0,.17,0,.44.24.44s.25-.24.26-.44c.08-1.73.15-3.47.23-5.21a7.61,7.61,0,0,1,.15-1.26c.07-.3.21-.68.63-.61a.72.72,0,0,1,.62.68c0,.85,0,1.69,0,2.54,0,.47,0,.94-.08,1.41h.06"/><path class="cls-2" d="M31.32,49.42a10.82,10.82,0,0,1-6.11-3.76,15.78,15.78,0,0,1-3.85-9.23,15.09,15.09,0,0,1,1.5-6.88,30.1,30.1,0,0,1,1.52-3c.27-.47.53-1,.79-1.44a6.44,6.44,0,0,1,2.08-2.27,18.19,18.19,0,0,1,8.42-3.68c.43-.05.88-.07,1.31-.1l.6,0h0a13.29,13.29,0,0,1,2,.2l1,.14h.06a.81.81,0,0,1,.52.16,9.18,9.18,0,0,0,4.93,2.08A2.53,2.53,0,0,1,48,22.78c3.56,5.91,4.59,11.08,3.22,16.27a13,13,0,0,1-1.51,3.17c-.26.44-.53.89-.78,1.36-1.68,3.22-4.75,4.43-8,5.47-.56.18-1.14.32-1.7.46l-.78.19a8.29,8.29,0,0,1-2.63.1h-.11c-.36,0-.72,0-1.09-.06a23.54,23.54,0,0,1-3.24-.32M52.45,27.58a23.73,23.73,0,0,0-2.61-5.49,5.44,5.44,0,0,0-3.73-2.64,8.2,8.2,0,0,1-2.64-.76,14.28,14.28,0,0,0-6.65-1.52h0l-.85,0c-.61,0-1.13.07-1.67.14a15.76,15.76,0,0,0-5.1,1.91l-.59.3a11.9,11.9,0,0,0-4.87,3.92A30,30,0,0,0,20.4,29.8a15.39,15.39,0,0,0-.95,7.58,16.29,16.29,0,0,0,1,3.46c.15.4.3.82.44,1.23a14.3,14.3,0,0,0,5.44,7.34l.43.3a8.19,8.19,0,0,0,3.15,1.64,32,32,0,0,0,6.56.64h.91a15.75,15.75,0,0,0,5-1.25l1.11-.4a12.37,12.37,0,0,0,7-5.45l0-.05c.33-.56.67-1.15,1-1.69a14.61,14.61,0,0,0,2.27-8.71,20.7,20.7,0,0,0-1.43-6.85"/><path class="cls-2" d="M45.08,39.07a10.31,10.31,0,0,1-5.72,4.13,7.22,7.22,0,0,1-3,.25,29.06,29.06,0,0,1-3.73-.84,5.44,5.44,0,0,1-2.61-1.79,10,10,0,0,1-2.39-6.29,6.18,6.18,0,0,1,1.62-4.34l.54-.71a13.86,13.86,0,0,1,1.66-1.93c1.35-1.22,3.11-1.38,4.81-1.53l.26,0a8.28,8.28,0,0,1,6.13,1.69,2.68,2.68,0,0,1,.65.85,4.13,4.13,0,0,0,.5.73A8.91,8.91,0,0,1,46.22,33a6.9,6.9,0,0,1-1.14,6m-3.51,5.58a13.58,13.58,0,0,0,5-3.94c2.34-3.08,2.66-6.29,1-9.53a15,15,0,0,0-4.22-5.07A9.65,9.65,0,0,0,37,23.84l-.44,0-1,0a8.51,8.51,0,0,0-6.9,3.6,13,13,0,0,1-1.1,1.39,7.79,7.79,0,0,0-1.89,6.92,15.14,15.14,0,0,0,1.2,3.73,12.52,12.52,0,0,0,3.37,4.32,4.23,4.23,0,0,0,2,.89c.32.07.64.16.94.25l.54.15a13.88,13.88,0,0,0,3.52.5,9.55,9.55,0,0,0,4.32-1"/></g></g></g></g></svg>