<?xml version="1.0" standalone="no"?>
<!DOCTYPE svg PUBLIC "-//W3C//DTD SVG 1.1//EN" "http://www.w3.org/Graphics/SVG/1.1/DTD/svg11.dtd" >
<svg xmlns="http://www.w3.org/2000/svg" xmlns:xlink="http://www.w3.org/1999/xlink" version="1.1">
<metadata>
Created by FontForge 20170731 at Tue Sep 13 07:41:58 2022
 By Aleksey,,,
Copyright (c) 2015 by Pangram Pangram. All rights reserved.
</metadata>
<defs>
<font id="PPPangramSans-SlimRegular" horiz-adv-x="782" >
  <font-face 
    font-family="PP Pangram Sans Slim"
    font-weight="400"
    font-stretch="extra-condensed"
    units-per-em="2048"
    panose-1="0 0 5 8 0 0 0 0 0 0"
    ascent="1638"
    descent="-410"
    x-height="1047"
    cap-height="1454"
    bbox="-543 -494 1841 1968"
    underline-thickness="40"
    underline-position="-204"
    unicode-range="U+0020-FB01"
  />
<missing-glyph horiz-adv-x="1003" 
d="M186 1536h637v-2007h-637v2007zM668 1335v66h-330v-66h129v-73h-131v-68h332v68h-131v73h131zM537 1001v142h-201v-209h332v67h-131zM401 1075h66v-74h-66v74zM668 813v68h-332v-68h131v-74h-131v-65h201v139h131zM668 559v201h-66v-133h-266v-68h332zM668 287v227h-201
v-113h70v48h65v-95h-201v160h-65v-227h332zM668 -59v227h-332v-227h332zM401 100h201v-94h-201v94zM668 -172v66h-332v-66h139l-139 -94v-66h332v66h-205l141 94h64z" />
    <glyph glyph-name="fi" unicode="fi" horiz-adv-x="651" 
d="M246 1325v-278h307v-1047h-113v950h-194v-950h-115v950h-78v97h78v280q0 109 54.5 164t140.5 55q50 0 98 -20v-96q-40 16 -78 16q-103 0 -100 -121z" />
    <glyph glyph-name="f_f_i.liga" unicode="ffi" horiz-adv-x="958" 
d="M553 1325v-278h309v-1047h-114v950h-195v-950h-113v950h-194v-950h-115v950h-78v97h78v280q0 110 51.5 163.5t136.5 53.5q49 0 80 -16v-96q-42 15 -76.5 13.5t-56 -32.5t-20.5 -88v-278h194v280q0 110 54 164.5t141 54.5q48 0 96 -20v-96q-40 16 -78 16q-100 0 -100 -121
z" />
    <glyph glyph-name=".notdef" horiz-adv-x="1003" 
d="M186 1536h637v-2007h-637v2007zM668 1335v66h-330v-66h129v-73h-131v-68h332v68h-131v73h131zM537 1001v142h-201v-209h332v67h-131zM401 1075h66v-74h-66v74zM668 813v68h-332v-68h131v-74h-131v-65h201v139h131zM668 559v201h-66v-133h-266v-68h332zM668 287v227h-201
v-113h70v48h65v-95h-201v160h-65v-227h332zM668 -59v227h-332v-227h332zM401 100h201v-94h-201v94zM668 -172v66h-332v-66h139l-139 -94v-66h332v66h-205l141 94h64z" />
    <glyph glyph-name=".null" horiz-adv-x="0" 
 />
    <glyph glyph-name="nonmarkingreturn" horiz-adv-x="682" 
 />
    <glyph glyph-name="space" unicode=" " horiz-adv-x="331" 
 />
    <glyph glyph-name="exclam" unicode="!" horiz-adv-x="389" 
d="M252 377h-113l-4 1077h117v-1077zM195 -10q-31 0 -52.5 20.5t-21.5 50.5q0 32 21.5 53t52.5 21t52 -21t21 -53q0 -31 -21 -51t-52 -20z" />
    <glyph glyph-name="quotedbl" unicode="&#x22;" horiz-adv-x="532" 
d="M115 1032v422h106v-422h-106zM311 1032v422h107v-422h-107z" />
    <glyph glyph-name="numbersign" unicode="#" horiz-adv-x="919" 
d="M862 1059v-96h-162l-30 -488h153v-96h-159l-25 -379h-111l25 379h-229l-25 -379h-109l25 379h-158v96h164l31 488h-156v96h162l27 395h108l-26 -395h231l27 395h108l-26 -395h155zM330 475h229l33 488h-232z" />
    <glyph glyph-name="dollar" unicode="$" horiz-adv-x="753" 
d="M692 303q0 -135 -72 -220t-198 -97v-185h-92v187q-124 15 -197.5 108t-77.5 250h121q4 -127 60 -194.5t145 -67.5t139.5 58t50.5 153q0 70 -27 137.5t-70 124t-94.5 113t-103.5 114t-95 116.5t-70 131t-27 147q0 122 67.5 200t178.5 90v185h92v-187q115 -15 179.5 -100.5
t68.5 -230.5l-117 -2q-15 237 -180 237q-77 0 -123.5 -49.5t-46.5 -138.5q0 -66 27 -130.5t70 -119t95 -109.5t104.5 -112.5t95.5 -117.5t70 -135t27 -155z" />
    <glyph glyph-name="percent" unicode="%" horiz-adv-x="1349" 
d="M326 705q-116 0 -181 101t-65 279q0 180 65 281.5t181 101.5q114 0 179.5 -101.5t65.5 -281.5q0 -178 -65.5 -279t-179.5 -101zM838 1454h92l-418 -1454h-90zM326 788q72 0 113.5 79.5t41.5 217.5t-41.5 217.5t-113.5 79.5q-71 0 -113.5 -79t-42.5 -218
q0 -138 42.5 -217.5t113.5 -79.5zM1026 -18q-116 0 -181 101t-65 279q0 180 65 281.5t181 101.5q114 0 180 -102t66 -281q0 -178 -66 -279t-180 -101zM1026 68q72 0 114 79.5t42 217.5q0 136 -42 215t-114 79q-71 0 -113.5 -78t-42.5 -216q0 -139 42.5 -218t113.5 -79z" />
    <glyph glyph-name="ampersand" unicode="&#x26;" horiz-adv-x="1081" 
d="M784 479l238 -479h-119l-178 362q-89 -225 -158 -303.5t-178 -78.5q-143 0 -226 132.5t-83 352.5q0 216 78 343.5t213 127.5q41 0 82 -23l-269 541h602v-96h-436l379 -766l180 455h111zM397 90q79 0 132.5 75t142.5 304l-105 215q-40 88 -79.5 126t-92.5 38
q-96 0 -149 -103.5t-53 -277.5q0 -176 54 -276.5t150 -100.5z" />
    <glyph glyph-name="quotesingle" unicode="'" horiz-adv-x="335" 
d="M115 1032v422h106v-422h-106z" />
    <glyph glyph-name="parenleft" unicode="(" horiz-adv-x="405" 
d="M371 1454v-104q-68 0 -113 -42.5t-45 -125.5v-1217q0 -84 45 -126t113 -42v-104q-125 0 -196 71t-71 205v1209q0 134 71 205t196 71z" />
    <glyph glyph-name="parenright" unicode=")" horiz-adv-x="405" 
d="M37 -307v104q67 0 111.5 42.5t44.5 125.5v1217q0 84 -44.5 126t-111.5 42v104q125 0 195.5 -71t70.5 -205v-1209q0 -134 -70.5 -205t-195.5 -71z" />
    <glyph glyph-name="asterisk" unicode="*" horiz-adv-x="671" 
d="M283 1044l-70 -96l-70 49l72 99q38 48 72 80q-36 3 -103 22l-118 37l28 82l113 -39q44 -16 96 -43q-8 62 -8 108l-2 111h84l-2 -113q0 -67 -10 -106q59 28 98 41l115 41l28 -82l-119 -37q-37 -11 -102 -22q25 -21 72 -80l71 -99l-69 -49l-68 96q-44 70 -53 93
q-20 -39 -55 -93z" />
    <glyph glyph-name="plus" unicode="+" horiz-adv-x="636" 
d="M375 610h178v-104h-178v-187h-111v187h-180v104h180v187h111v-187z" />
    <glyph glyph-name="comma" unicode="," horiz-adv-x="391" 
d="M104 -223l66 354h123l-94 -354h-95z" />
    <glyph glyph-name="hyphen" unicode="-" horiz-adv-x="661" 
d="M96 512v100h469v-100h-469z" />
    <glyph glyph-name="period" unicode="." horiz-adv-x="389" 
d="M195 -10q-31 0 -52.5 20.5t-21.5 50.5q0 32 21.5 53t52.5 21t52 -21t21 -53q0 -31 -21 -51t-52 -20z" />
    <glyph glyph-name="slash" unicode="/" horiz-adv-x="468" 
d="M352 1536h103l-338 -1804h-101z" />
    <glyph glyph-name="zero" unicode="0" horiz-adv-x="847" 
d="M424 -20q-149 0 -238.5 94t-89.5 254v798q0 160 89.5 254.5t238.5 94.5t239.5 -94.5t90.5 -254.5v-798q0 -160 -90.5 -254t-239.5 -94zM424 88q96 0 154.5 65t58.5 175v798q0 110 -58.5 175t-154.5 65t-153.5 -65t-57.5 -175v-798q0 -110 57.5 -175t153.5 -65z" />
    <glyph glyph-name="one" unicode="1" horiz-adv-x="598" 
d="M569 0h-526v104h205v1194l-191 -108v110l305 154v-1350h207v-104z" />
    <glyph glyph-name="two" unicode="2" horiz-adv-x="735" 
d="M174 109h504v-109h-621v84q0 85 27.5 168.5t71.5 153.5t97.5 140t107 139.5t97.5 138.5t71.5 150.5t27.5 164.5q0 107 -50.5 168t-135.5 61q-91 0 -143.5 -73t-53.5 -210h-119q0 181 85.5 285.5t230.5 104.5q138 0 220.5 -90.5t82.5 -245.5q0 -90 -26.5 -177.5
t-69 -160.5t-94 -143.5t-104 -138t-97 -132t-74.5 -136.5t-35 -142z" />
    <glyph glyph-name="three" unicode="3" horiz-adv-x="763" 
d="M498 758q95 -34 147.5 -128t52.5 -231q0 -191 -85.5 -305t-233.5 -114q-152 0 -238 116.5t-86 319.5h113q0 -158 55.5 -245t155.5 -87q95 0 149 84t54 233q0 143 -63 220t-171 77h-61v103h63q96 0 148.5 77.5t52.5 213.5q0 133 -47 205.5t-131 72.5q-91 0 -142 -83
t-51 -232h-112q0 196 82.5 308t228.5 112q134 0 211.5 -99.5t77.5 -271.5q0 -122 -43 -213t-127 -133z" />
    <glyph glyph-name="four" unicode="4" horiz-adv-x="778" 
d="M575 418h164v-96h-164v-322h-112v322h-418v81l393 1051h137v-1036zM483 1341l-327 -923h307v700q0 129 20 223z" />
    <glyph glyph-name="five" unicode="5" horiz-adv-x="772" 
d="M389 -20q-150 0 -235.5 128.5t-85.5 348.5h114q1 -174 56.5 -272.5t150.5 -98.5q94 0 149.5 103t55.5 288q0 190 -55 293.5t-148 103.5q-72 0 -125 -60t-73 -173h-115l80 813h491v-104h-393l-53 -531q36 77 93 116.5t126 39.5q131 0 211 -133t80 -363t-88 -364.5
t-236 -134.5z" />
    <glyph glyph-name="six" unicode="6" horiz-adv-x="776" 
d="M424 961q128 0 207.5 -129.5t79.5 -350.5q0 -233 -86.5 -367t-235.5 -134t-236 132.5t-87 358.5q0 183 67 350l248 633h121l-230 -571q58 78 152 78zM389 88q96 0 150.5 102t54.5 287t-54.5 287t-150.5 102q-98 0 -153.5 -102t-55.5 -287t55.5 -287t153.5 -102z" />
    <glyph glyph-name="seven" unicode="7" horiz-adv-x="684" 
d="M35 1350v104h604v-88l-336 -1366h-121l336 1350h-483z" />
    <glyph glyph-name="eight" unicode="8" horiz-adv-x="778" 
d="M528 780q87 -42 135 -142.5t48 -236.5q0 -196 -87 -308.5t-235 -112.5t-234.5 112.5t-86.5 308.5q0 137 47 237.5t133 143.5q-67 44 -103 129.5t-36 196.5q0 171 76 269t204 98t205.5 -98t77.5 -269q0 -111 -38 -198.5t-106 -129.5zM389 1376q-74 0 -121 -72t-47 -202
t47 -203.5t121 -73.5q76 0 123 73.5t47 203.5t-47 202t-123 72zM389 84q95 0 150 86t55 240q0 152 -55 236.5t-150 84.5t-150 -84.5t-55 -236.5q0 -154 55 -240t150 -86z" />
    <glyph glyph-name="nine" unicode="9" horiz-adv-x="780" 
d="M387 1475q149 0 236.5 -133t87.5 -359q0 -181 -68 -350l-248 -633h-119l228 569q-55 -75 -152 -75q-128 0 -207 129t-79 350q0 233 86 367.5t235 134.5zM387 588q99 0 154 102t55 287t-55.5 287t-153.5 102q-96 0 -150.5 -102t-54.5 -287t54.5 -287t150.5 -102z" />
    <glyph glyph-name="colon" unicode=":" horiz-adv-x="376" 
d="M190 821q-31 0 -52 21.5t-21 52.5q0 32 21 53t52 21t52.5 -21t21.5 -53q0 -31 -21.5 -52.5t-52.5 -21.5zM190 -10q-31 0 -52 20t-21 51q0 32 21 53t52 21t52.5 -21t21.5 -53q0 -30 -21.5 -50.5t-52.5 -20.5z" />
    <glyph glyph-name="semicolon" unicode=";" horiz-adv-x="428" 
d="M233 821q-31 0 -52 21.5t-21 52.5q0 32 21 53t52 21t52.5 -21t21.5 -53q0 -31 -21.5 -52.5t-52.5 -21.5zM104 -223l66 354h123l-94 -354h-95z" />
    <glyph glyph-name="less" unicode="&#x3c;" horiz-adv-x="651" 
d="M84 649l469 211v-100q-200 -93 -271.5 -123.5t-117.5 -40.5q61 -17 389 -166v-102l-469 213v108z" />
    <glyph glyph-name="equal" unicode="=" horiz-adv-x="757" 
d="M145 623v100h469v-100h-469zM145 406v98h469v-98h-469z" />
    <glyph glyph-name="greater" unicode="&#x3e;" horiz-adv-x="651" 
d="M96 758v100l469 -213v-108l-469 -211v100q202 93 273.5 123.5t117.5 42.5q-46 11 -113 40t-278 126z" />
    <glyph glyph-name="question" unicode="?" horiz-adv-x="632" 
d="M141 1032h-114q0 205 78.5 324t211.5 119q128 0 202.5 -101.5t74.5 -273.5q0 -159 -62.5 -260.5t-171.5 -128.5v-334h-106v420q108 0 164.5 76t56.5 219q0 127 -42.5 198.5t-119.5 71.5q-79 0 -125.5 -87t-46.5 -243zM305 -10q-30 0 -51 20.5t-21 50.5q0 32 21 53t51 21
q32 0 54 -21t22 -53q0 -31 -22 -51t-54 -20z" />
    <glyph glyph-name="at" unicode="@" horiz-adv-x="1189" 
d="M598 1325q231 0 365.5 -207t134.5 -577q0 -209 -52 -333t-151 -124q-148 0 -158 276q-21 -89 -68.5 -138.5t-115.5 -49.5q-97 0 -157 102t-60 273t61.5 272t161.5 101q58 0 101.5 -39.5t66.5 -112.5l16 143h82v-518q0 -108 17.5 -162.5t58.5 -54.5q107 0 107 352
q0 340 -110.5 524.5t-299.5 184.5t-300.5 -185.5t-111.5 -502.5q0 -315 109 -499.5t295 -184.5q108 0 174 51v-92q-65 -47 -182 -47q-225 0 -357.5 208t-132.5 564q0 357 137 566.5t369 209.5zM580 260q70 0 109.5 77.5t39.5 209.5q0 131 -39.5 207.5t-109.5 76.5
q-66 0 -107 -77t-41 -207t41.5 -208.5t106.5 -78.5z" />
    <glyph glyph-name="A" unicode="A" horiz-adv-x="825" 
d="M780 0h-125q-21 107 -80 416h-329q-13 -64 -39.5 -204t-40.5 -212h-121l295 1454h141zM264 514h293q-135 706 -147 842q-11 -125 -146 -842z" />
    <glyph glyph-name="B" unicode="B" horiz-adv-x="841" 
d="M356 0h-233v1454h221q184 0 284.5 -92t100.5 -258q0 -129 -66.5 -219t-175.5 -107q134 -20 210.5 -121.5t76.5 -257.5q0 -185 -111 -292t-307 -107zM240 1352v-541h104q129 0 199.5 71.5t70.5 200.5q0 128 -70.5 198.5t-199.5 70.5h-104zM240 719v-617h116
q142 0 221.5 80t79.5 219q0 150 -78 234t-217 84h-122z" />
    <glyph glyph-name="C" unicode="C" horiz-adv-x="796" 
d="M537 -14q-144 0 -249.5 97t-158.5 263t-53 381t53 381t158.5 263t249.5 97q126 0 198 -55v-110q-30 28 -80 45.5t-106 17.5q-113 0 -195 -84.5t-121.5 -227t-39.5 -327.5t39.5 -327.5t121.5 -227t195 -84.5q56 0 105.5 18t80.5 46v-111q-72 -55 -198 -55z" />
    <glyph glyph-name="D" unicode="D" horiz-adv-x="894" 
d="M307 0h-184v1454h184q242 0 377 -195.5t135 -531.5t-135 -531.5t-377 -195.5zM240 1348v-1242h82q178 0 280.5 166t102.5 455t-102.5 455t-280.5 166h-82z" />
    <glyph glyph-name="E" unicode="E" horiz-adv-x="712" 
d="M662 1454v-106h-422v-551h340v-105h-340v-586h422v-106h-539v1454h539z" />
    <glyph glyph-name="F" unicode="F" horiz-adv-x="694" 
d="M240 0h-117v1454h526v-108h-409v-562h352v-102h-352v-682z" />
    <glyph glyph-name="G" unicode="G" horiz-adv-x="952" 
d="M418 655v101h471q0 -365 -108.5 -569.5t-299.5 -204.5q-190 0 -297.5 198t-107.5 547t110 547.5t303 198.5q120 0 213.5 -85.5t133.5 -250.5l-101 -43q-32 131 -95.5 201.5t-147.5 70.5q-140 0 -221 -169t-81 -470q0 -300 78.5 -469.5t214.5 -169.5q125 0 203.5 150
t87.5 417h-356z" />
    <glyph glyph-name="H" unicode="H" horiz-adv-x="933" 
d="M696 793v661h115v-1454h-115v690h-456v-690h-117v1454h117v-661h456z" />
    <glyph glyph-name="I" unicode="I" horiz-adv-x="362" 
d="M240 0h-117v1454h117v-1454z" />
    <glyph glyph-name="J" unicode="J" horiz-adv-x="565" 
d="M35 70l45 92q50 -63 125 -66q131 0 131 187v1171h117v-1182q0 -146 -66 -217t-166 -71q-64 0 -113.5 25.5t-72.5 60.5z" />
    <glyph glyph-name="K" unicode="K" horiz-adv-x="829" 
d="M653 1452l129 2l-430 -698l428 -756h-133l-414 741q9 -159 9 -741h-119v1454h119q0 -526 -9 -682z" />
    <glyph glyph-name="L" unicode="L" horiz-adv-x="675" 
d="M631 0h-508v1454h117v-1348h391v-106z" />
    <glyph glyph-name="M" unicode="M" horiz-adv-x="1130" 
d="M565 586l332 868h111v-1454h-113q0 707 3 927t15 320l-348 -909l-348 909q11 -101 13.5 -304t2.5 -943h-110v1454h110z" />
    <glyph glyph-name="N" unicode="N" horiz-adv-x="958" 
d="M723 1454h111v-1454h-107l-512 1235q12 -123 15 -352.5t3 -882.5h-110v1454h108l512 -1239q-13 124 -16.5 353t-3.5 886z" />
    <glyph glyph-name="O" unicode="O" horiz-adv-x="987" 
d="M494 -18q-193 0 -305.5 199t-112.5 546t112.5 546.5t305.5 199.5q194 0 305.5 -199t111.5 -547t-111.5 -546.5t-305.5 -198.5zM494 90q139 0 221 171t82 466t-82 467t-221 172q-137 0 -219 -172t-82 -467q0 -294 82 -465.5t219 -171.5z" />
    <glyph glyph-name="P" unicode="P" horiz-adv-x="806" 
d="M123 1454h215q191 0 301.5 -121.5t110.5 -337.5q0 -218 -110.5 -339t-301.5 -121h-98v-535h-117v1454zM240 641h98q138 0 217.5 92.5t79.5 259.5t-79.5 261t-217.5 94h-98v-707z" />
    <glyph glyph-name="Q" unicode="Q" horiz-adv-x="985" 
d="M909 727q0 -338 -102.5 -531.5t-278.5 -193.5q-67 0 -114 29l243 -371h-125l-305 463q-151 231 -151 604q0 348 112 547t306 199q191 0 303 -199.5t112 -546.5zM193 727q0 -293 82 -463t219 -170t218 169t81 464q0 296 -81 466.5t-218 170.5q-138 0 -219.5 -170.5
t-81.5 -466.5z" />
    <glyph glyph-name="R" unicode="R" horiz-adv-x="796" 
d="M371 664h-11q44 -68 377 -664h-133l-371 690q7 -222 7 -690h-117v1454h225q183 0 286 -107.5t103 -293.5q0 -177 -100 -283t-266 -106zM621 1042q0 141 -76 223.5t-211 82.5h-94v-607h94q135 0 211 82t76 219z" />
    <glyph glyph-name="S" unicode="S" horiz-adv-x="753" 
d="M381 -16q-146 0 -234 94t-92 268h121q4 -127 60 -194.5t145 -67.5t139.5 58t50.5 153q0 70 -27 137.5t-70 124t-94.5 113t-103.5 114t-95 116.5t-70 131t-27 147q0 132 79 212t206 80q139 0 218 -86.5t83 -248.5l-117 -2q-15 237 -180 237q-77 0 -123.5 -49.5
t-46.5 -138.5q0 -66 27 -130.5t70 -119t95 -109.5t104.5 -112.5t95.5 -117.5t70 -135t27 -155q0 -147 -83.5 -233t-227.5 -86z" />
    <glyph glyph-name="T" unicode="T" horiz-adv-x="700" 
d="M410 0h-117v1348h-248v106h610v-106h-245v-1348z" />
    <glyph glyph-name="U" unicode="U" horiz-adv-x="921" 
d="M461 -20q-164 0 -257 106.5t-93 298.5v1069h114v-1071q0 -142 63.5 -219.5t172.5 -77.5t172 77t63 220v1071h115v-1069q0 -192 -93 -298.5t-257 -106.5z" />
    <glyph glyph-name="V" unicode="V" horiz-adv-x="817" 
d="M657 1454h119l-295 -1454h-141l-299 1454h123q156 -803 199 -1037t49 -319q6 85 51.5 336.5t193.5 1019.5z" />
    <glyph glyph-name="W" unicode="W" horiz-adv-x="1196" 
d="M1036 1454h115l-238 -1454h-141q-103 746 -133 978t-39 347q-22 -190 -180 -1325h-137l-238 1454h115q171 -1143 190 -1327q14 159 182 1327h134q105 -718 137.5 -955t42.5 -370q21 188 190 1325z" />
    <glyph glyph-name="X" unicode="X" horiz-adv-x="843" 
d="M672 1454h127l-289 -723l289 -731h-127q-155 389 -197 501t-55 177q-14 -69 -59.5 -194.5t-188.5 -483.5h-129l291 729l-291 725h129q221 -549 250 -663q13 56 59.5 180t190.5 483z" />
    <glyph glyph-name="Y" unicode="Y" horiz-adv-x="804" 
d="M645 1454h123l-307 -842v-612h-117v612l-307 842h125q132 -373 179 -522.5t62 -243.5q18 96 66 249.5t176 516.5z" />
    <glyph glyph-name="Z" unicode="Z" horiz-adv-x="794" 
d="M66 1454h679l-532 -1350h510v-104h-674l537 1350h-520v104z" />
    <glyph glyph-name="bracketleft" unicode="[" horiz-adv-x="417" 
d="M381 -307h-266v1761h266v-102h-156v-1557h156v-102z" />
    <glyph glyph-name="backslash" unicode="\" horiz-adv-x="468" 
d="M352 -268l-336 1804h101l338 -1804h-103z" />
    <glyph glyph-name="bracketright" unicode="]" horiz-adv-x="417" 
d="M37 1454h266v-1761h-266v102h156v1557h-156v102z" />
    <glyph glyph-name="asciicircum" unicode="^" horiz-adv-x="704" 
d="M403 1454l232 -819h-105q-122 457 -178 719q-56 -262 -178 -719h-104l229 819h104z" />
    <glyph glyph-name="underscore" unicode="_" horiz-adv-x="952" 
d="M96 -96v96h760v-96h-760z" />
    <glyph glyph-name="grave" unicode="`" horiz-adv-x="309" 
d="M158 1464l106 -284h-90l-137 284h121z" />
    <glyph glyph-name="a" unicode="a" horiz-adv-x="849" 
d="M641 813l8 234h105v-1047h-115v231q-35 -120 -104.5 -185.5t-163.5 -65.5q-146 0 -229 145.5t-83 402.5q0 253 84.5 395t233.5 142q92 0 162.5 -68t101.5 -184zM408 84q108 0 169.5 117t61.5 323t-61.5 322.5t-169.5 116.5t-171 -116t-63 -323t63 -323.5t171 -116.5z" />
    <glyph glyph-name="b" unicode="b" horiz-adv-x="849" 
d="M479 1067q146 0 229 -146t83 -403q0 -253 -84 -394.5t-234 -141.5q-90 0 -160 65t-102 178v-225h-115v1536h115v-721q35 120 105 186t163 66zM442 84q108 0 171 115.5t63 322.5q0 208 -63 324.5t-171 116.5t-169.5 -117.5t-61.5 -323.5t61.5 -322t169.5 -116z" />
    <glyph glyph-name="c" unicode="c" horiz-adv-x="641" 
d="M432 -16q-173 0 -273 145.5t-100 396.5q0 248 100 392.5t273 144.5q92 0 152 -51v-109q-61 58 -138 58q-129 0 -201.5 -116t-72.5 -319q0 -205 72.5 -323.5t199.5 -118.5q80 0 140 57v-106q-60 -51 -152 -51z" />
    <glyph glyph-name="d" unicode="d" horiz-adv-x="849" 
d="M639 821v715h115v-1536h-115v231q-35 -120 -104.5 -185.5t-163.5 -65.5q-146 0 -229 145.5t-83 402.5q0 253 84.5 395t233.5 142q90 0 160 -65.5t102 -178.5zM408 84q108 0 169.5 117t61.5 323t-61.5 322.5t-169.5 116.5t-171 -116t-63 -323t63 -323.5t171 -116.5z" />
    <glyph glyph-name="e" unicode="e" 
d="M391 1067q161 0 248.5 -147t83.5 -426h-551q3 -195 64.5 -305.5t164.5 -110.5q75 0 127.5 59.5t75.5 169.5l101 -16q-30 -144 -110 -227.5t-194 -83.5q-159 0 -250.5 144.5t-91.5 401.5q0 253 89 397t243 144zM391 971q-97 0 -156.5 -104.5t-62.5 -286.5h438
q-2 183 -60 287t-159 104z" />
    <glyph glyph-name="f" unicode="f" horiz-adv-x="454" 
d="M346 1446q-103 0 -100 -121v-278h174v-97h-174v-950h-115v950h-78v97h78v280q0 109 54.5 164t140.5 55q50 0 98 -20v-96q-40 16 -78 16z" />
    <glyph glyph-name="g" unicode="g" horiz-adv-x="849" 
d="M641 811l8 236h105v-1108q0 -219 -100.5 -325t-268.5 -106q-139 0 -252 66v107q112 -72 229 -72q130 0 203.5 81.5t73.5 248.5v292q-35 -120 -104.5 -185.5t-163.5 -65.5q-146 0 -229 145.5t-83 402.5q0 253 84.5 395t233.5 142q92 0 162.5 -68.5t101.5 -185.5zM408 84
q108 0 169.5 117t61.5 323t-61.5 322.5t-169.5 116.5t-171 -116t-63 -323t63 -323.5t171 -116.5z" />
    <glyph glyph-name="h" unicode="h" 
d="M446 1067q113 0 180.5 -78.5t67.5 -232.5v-756h-114v743q0 113 -48.5 169.5t-130.5 56.5q-90 0 -140 -67.5t-50 -188.5v-713h-115v1536h115v-637q60 168 235 168z" />
    <glyph glyph-name="i" unicode="i" horiz-adv-x="307" 
d="M154 1243q-31 0 -53.5 22t-22.5 54t22.5 53t53.5 21t53 -21t22 -53t-22 -54t-53 -22zM96 1047h115v-1047h-115v1047z" />
    <glyph glyph-name="j" unicode="j" horiz-adv-x="307" 
d="M154 1243q-31 0 -53.5 22t-22.5 54t22.5 53t53.5 21t53 -21t22 -53t-22 -54t-53 -22zM96 1047h115v-1518h-115v1518z" />
    <glyph glyph-name="k" unicode="k" horiz-adv-x="716" 
d="M313 565l361 -565h-127l-344 541q8 -213 8 -541h-115v1536h115q0 -686 -8 -946l344 457h125z" />
    <glyph glyph-name="l" unicode="l" horiz-adv-x="307" 
d="M96 1536h115v-1536h-115v1536z" />
    <glyph glyph-name="m" unicode="m" horiz-adv-x="1173" 
d="M856 1063q107 0 168 -78t61 -219v-766h-114v752q0 101 -42.5 157t-117.5 56t-118.5 -56t-43.5 -157v-752h-114v752q0 100 -43 156.5t-117 56.5q-77 0 -120.5 -56t-43.5 -157v-752h-115v1047h103l6 -136q59 152 215 152q78 0 133 -42.5t78 -121.5q55 164 225 164z" />
    <glyph glyph-name="n" unicode="n" 
d="M446 1067q115 0 181.5 -78t66.5 -233v-756h-114v743q0 113 -48.5 169.5t-130.5 56.5q-89 0 -139.5 -68t-50.5 -188v-713h-115v1047h105l6 -162q57 182 239 182z" />
    <glyph glyph-name="o" unicode="o" horiz-adv-x="802" 
d="M401 -20q-159 0 -250.5 145t-91.5 399t91.5 398.5t250.5 144.5t250.5 -144.5t91.5 -398.5t-91.5 -399t-250.5 -145zM401 84q107 0 169.5 117.5t62.5 322.5q0 207 -62.5 324t-169.5 117t-169 -117t-62 -324q0 -206 62.5 -323t168.5 -117z" />
    <glyph glyph-name="p" unicode="p" horiz-adv-x="849" 
d="M479 1067q146 0 229 -146t83 -403q0 -253 -84 -394.5t-234 -141.5q-90 0 -160 65t-102 178v-696h-115v1518h105l8 -240q34 123 104.5 191.5t165.5 68.5zM442 84q108 0 171 115.5t63 322.5q0 208 -63 324.5t-171 116.5t-169.5 -117.5t-61.5 -323.5t61.5 -322t169.5 -116z
" />
    <glyph glyph-name="q" unicode="q" horiz-adv-x="849" 
d="M641 815l8 232h105v-1518h-115v702q-35 -120 -104.5 -185.5t-163.5 -65.5q-146 0 -229 145.5t-83 402.5q0 253 84.5 395t233.5 142q91 0 161 -67.5t103 -182.5zM408 84q108 0 169.5 117t61.5 323t-61.5 322.5t-169.5 116.5t-171 -116t-63 -323t63 -323.5t171 -116.5z" />
    <glyph glyph-name="r" unicode="r" horiz-adv-x="487" 
d="M197 1047l10 -195q52 239 244 199l-2 -117q-113 24 -175.5 -47t-62.5 -213v-674h-115v1047h101z" />
    <glyph glyph-name="s" unicode="s" horiz-adv-x="665" 
d="M338 -20q-132 0 -211 77.5t-88 218.5h113q7 -98 55.5 -151t130.5 -53q77 0 124.5 42t47.5 115q0 46 -24.5 89t-63.5 78.5t-86 71.5t-94 73.5t-86 78t-63.5 93t-24.5 110.5q0 109 71.5 174.5t188.5 65.5q120 0 192.5 -70.5t79.5 -197.5h-108q-6 86 -49 132t-115 46
q-68 0 -110 -39t-42 -105q0 -47 24.5 -90t64 -78t87.5 -69.5t95.5 -72t87 -77t64 -92.5t24.5 -112q0 -119 -77.5 -188.5t-207.5 -69.5z" />
    <glyph glyph-name="t" unicode="t" horiz-adv-x="413" 
d="M248 1047h131v-97h-131v-950h-115v950h-90v97h90v296h115v-296z" />
    <glyph glyph-name="u" unicode="u" 
d="M571 334v713h115v-1047h-104l-7 162q-61 -182 -239 -182q-114 0 -181 80t-67 231v756h115v-744q0 -109 48.5 -167t129.5 -58q90 0 140 67.5t50 188.5z" />
    <glyph glyph-name="v" unicode="v" horiz-adv-x="727" 
d="M569 1047h115l-258 -1047h-121l-262 1047h121q174 -759 203 -947q31 208 202 947z" />
    <glyph glyph-name="w" unicode="w" horiz-adv-x="1081" 
d="M926 1047h106l-209 -1047h-114q-103 522 -129.5 667t-36.5 255q-17 -142 -45 -290.5t-127 -631.5h-113l-209 1047h111q93 -477 121 -632t43 -282q13 127 41 280.5t124 633.5h109q94 -478 122 -636t42 -274q18 148 46 304.5t118 605.5z" />
    <glyph glyph-name="x" unicode="x" horiz-adv-x="753" 
d="M588 1047h123l-256 -521l256 -526h-123q-115 234 -154.5 320.5t-58.5 152.5q-22 -71 -62 -161.5t-147 -311.5h-123l256 524l-256 523h123q176 -362 211 -472q20 65 59.5 153.5t151.5 318.5z" />
    <glyph glyph-name="y" unicode="y" horiz-adv-x="727" 
d="M567 1047h117l-371 -1518h-110l112 467l-272 1051h121q162 -665 207 -930q38 270 196 930z" />
    <glyph glyph-name="z" unicode="z" horiz-adv-x="593" 
d="M45 1047h514l-369 -947h361v-100h-516l371 946h-361v101z" />
    <glyph glyph-name="braceleft" unicode="{" horiz-adv-x="407" 
d="M371 1454v-102q-28 8 -53 8t-48 -9.5t-35.5 -38t-9.5 -73.5l29 -522q3 -58 -16.5 -94.5t-51.5 -49.5q71 -33 68 -145l-29 -518q-3 -46 9.5 -74.5t36 -38t48 -9t52.5 8.5v-104q-120 -22 -189.5 22t-62.5 170l28 533q3 64 -19.5 87t-61.5 23h-27v93h27q39 0 61.5 22.5
t19.5 85.5l-28 533q-4 65 14.5 109.5t53.5 64t82.5 25t101.5 -6.5z" />
    <glyph glyph-name="bar" unicode="|" horiz-adv-x="395" 
d="M250 -164h-105v1782h105v-1782z" />
    <glyph glyph-name="braceright" unicode="}" horiz-adv-x="407" 
d="M342 621h27v-93h-27q-39 0 -62 -23t-20 -87l29 -533q4 -65 -14.5 -109t-53.5 -64t-82.5 -25.5t-101.5 6.5v104q36 -8 69.5 -8t56.5 31t19 90l-28 520q-3 60 16.5 96t52.5 47q-75 33 -69 146l28 520q3 45 -9.5 73.5t-35.5 38t-48 9.5t-52 -8v104q121 21 190 -23t62 -169
l-29 -535q-3 -63 20 -85.5t62 -22.5z" />
    <glyph glyph-name="asciitilde" unicode="~" horiz-adv-x="776" 
d="M199 442l-82 21q7 65 44.5 110t104.5 45q42 0 84.5 -23.5t81 -47t70.5 -23.5q33 0 51.5 24.5t21.5 57.5l84 -18q-7 -66 -45 -112t-104 -46q-41 0 -84.5 24t-82.5 48t-71 24q-33 0 -51.5 -24.5t-21.5 -59.5z" />
    <glyph glyph-name="exclamdown" unicode="&#xa1;" horiz-adv-x="385" 
d="M184 1061q31 0 52.5 -21.5t21.5 -52.5q0 -32 -21.5 -53t-52.5 -21t-52 21t-21 53q0 31 21 52.5t52 21.5zM129 674h111l6 -1080h-119z" />
    <glyph glyph-name="cent" unicode="&#xa2;" horiz-adv-x="641" 
d="M446 961q-129 0 -201.5 -116t-72.5 -319q0 -205 72.5 -323.5t199.5 -118.5q80 0 140 57v-106q-56 -48 -146 -51v-201h-96v213q-134 35 -208.5 174.5t-74.5 355.5q0 213 74.5 351.5t208.5 173.5v215h96v-203q90 -3 146 -51v-109q-61 58 -138 58z" />
    <glyph glyph-name="sterling" unicode="&#xa3;" horiz-adv-x="845" 
d="M590 86q97 0 172 66v-107q-73 -61 -172 -61q-63 0 -157 38.5t-154 38.5q-98 0 -173 -69v108q103 68 145 134t42 163q0 71 -27 154h-160v84h130q-3 7 -26.5 61t-29.5 70t-23.5 65t-23 79t-12 76t-6.5 91q0 187 83.5 292.5t223.5 105.5q149 0 232 -130.5t83 -351.5h-116
q0 180 -52 278.5t-149 98.5q-85 0 -137 -74t-52 -215q0 -64 13.5 -130t28.5 -107.5t42 -108t39 -100.5h264v-84h-239q18 -67 18 -145q0 -157 -94 -242q51 -2 139.5 -40t147.5 -38z" />
    <glyph glyph-name="currency" unicode="&#xa4;" horiz-adv-x="901" 
d="M750 700q0 -94 -56 -172l107 -104l-66 -62l-100 103q-84 -64 -184 -64q-107 0 -183 64l-100 -103l-66 62l105 104q-55 77 -55 172q0 93 51 166l-101 103l66 61l96 -98q81 65 187 65q107 0 188 -65l96 98l66 -61l-103 -103q52 -74 52 -166zM451 487q88 0 149.5 62.5
t61.5 150.5t-61.5 149.5t-149.5 61.5t-150.5 -61.5t-62.5 -149.5q0 -89 62 -151t151 -62z" />
    <glyph glyph-name="yen" unicode="&#xa5;" horiz-adv-x="804" 
d="M645 1454h123l-285 -778h219v-84h-241v-123h241v-84h-241v-385h-117v385h-246v84h246v123h-246v84h224l-285 778h125q132 -373 179 -522.5t62 -243.5q18 96 66 249.5t176 516.5z" />
    <glyph glyph-name="brokenbar" unicode="&#xa6;" horiz-adv-x="395" 
d="M250 1024h-105v594h105v-594zM250 -164h-105v594h105v-594z" />
    <glyph glyph-name="section" unicode="&#xa7;" horiz-adv-x="741" 
d="M528 469q99 -99 99 -231q0 -126 -69 -192t-185 -66q-124 0 -197.5 78t-79.5 233h111q6 -112 50 -166.5t114 -54.5q66 0 104.5 40t38.5 119q0 60 -35.5 116.5t-97.5 100.5l-107 70q-178 126 -178 301q0 82 36.5 152t100.5 106q-110 106 -110 234q0 116 64.5 180.5
t168.5 64.5q115 0 184.5 -72t75.5 -210h-108q-14 194 -150 194q-57 0 -92 -38t-35 -111q0 -55 36.5 -110t101.5 -101l92 -66q192 -113 192 -317q0 -82 -33.5 -149.5t-91.5 -104.5zM340 600l106 -70l5 -2q44 19 70 70.5t26 116.5q0 139 -141 237l-95 64q-50 -17 -81 -70.5
t-31 -122.5q0 -134 141 -223z" />
    <glyph glyph-name="dieresis" unicode="&#xa8;" horiz-adv-x="538" 
d="M150 1245q-26 0 -46 20t-20 48q0 29 19.5 48t46.5 19q29 0 48 -19t19 -48q0 -28 -19 -48t-48 -20zM389 1245q-28 0 -47.5 20t-19.5 48q0 29 19.5 48t47.5 19q27 0 46.5 -19t19.5 -48q0 -28 -20 -48t-46 -20z" />
    <glyph glyph-name="copyright" unicode="&#xa9;" horiz-adv-x="1226" 
d="M612 -88q-240 0 -381 221t-141 604q0 381 141 602.5t381 221.5q242 0 383.5 -221t141.5 -603q0 -383 -141.5 -604t-383.5 -221zM612 -12q205 0 325 201.5t120 547.5t-120 547t-325 201q-202 0 -322 -201t-120 -547t120 -547.5t322 -201.5zM664 276q-143 0 -227.5 126
t-84.5 339q0 214 83.5 338.5t228.5 124.5q78 0 131 -39v-90q-48 45 -119 45q-108 0 -170 -102t-62 -277t62 -279t168 -104q66 0 121 48v-89q-48 -41 -131 -41z" />
    <glyph glyph-name="ordfeminine" unicode="&#xaa;" horiz-adv-x="657" 
d="M469 1288l10 166h82v-735h-94v153q-24 -84 -73.5 -125.5t-114.5 -41.5q-102 0 -160 101.5t-58 280.5q0 178 59.5 278.5t164.5 100.5q67 0 115 -43t69 -125v-10zM311 788q72 0 114 79.5t42 217.5q0 139 -42 218t-114 79t-113.5 -79t-41.5 -218q0 -138 41.5 -217.5
t113.5 -79.5z" />
    <glyph glyph-name="guillemotleft" unicode="&#xab;" horiz-adv-x="604" 
d="M217 817h119l-162 -330l162 -331h-119l-162 329zM436 817h119l-162 -330l162 -331h-119l-162 329z" />
    <glyph glyph-name="logicalnot" unicode="&#xac;" horiz-adv-x="706" 
d="M92 549v98h469v-282h-108v184h-361z" />
    <glyph glyph-name="registered" unicode="&#xae;" horiz-adv-x="747" 
d="M373 1470q133 0 224 -92t91 -227q0 -133 -91 -224t-224 -91q-132 0 -222 91t-90 224q0 135 90 227t222 92zM373 881q113 0 188.5 76.5t75.5 193.5q0 116 -76 194t-188 78q-111 0 -186.5 -77t-75.5 -195q0 -114 76 -192t186 -78zM389 1124h-12l137 -151h-61l-144 162v-162
h-51v370h131q55 0 88 -29t33 -79q0 -54 -36.5 -82.5t-84.5 -28.5zM383 1296h-74v-133h74q36 0 56 19t20 49t-20 47.5t-56 17.5z" />
    <glyph glyph-name="macron" unicode="&#xaf;" horiz-adv-x="587" 
d="M96 1245v90h396v-90h-396z" />
    <glyph glyph-name="degree" unicode="&#xb0;" horiz-adv-x="667" 
d="M334 1012q-97 0 -163.5 66t-66.5 163t66.5 163t163.5 66t163 -66t66 -163t-66 -163t-163 -66zM334 1090q62 0 104.5 43.5t42.5 107.5t-42.5 108t-104.5 44t-105 -44t-43 -108t43 -107.5t105 -43.5z" />
    <glyph glyph-name="plusminus" unicode="&#xb1;" horiz-adv-x="636" 
d="M375 907v-186h178v-103h-178v-186h-111v186h-180v103h180v186h111zM553 236h-469v98h469v-98z" />
    <glyph glyph-name="uni00B2" unicode="&#xb2;" horiz-adv-x="501" 
d="M137 809h316v-84h-406v63q0 64 23 125.5t58 108t75.5 98t75.5 96t58 102t23 116.5q0 63 -28.5 100t-77.5 37q-54 0 -84.5 -43.5t-32.5 -120.5h-90q0 113 55.5 180.5t149.5 67.5q90 0 144.5 -58.5t54.5 -158.5q0 -79 -31 -152t-76 -129.5t-90 -110t-79 -115t-38 -122.5z
" />
    <glyph glyph-name="uni00B3" unicode="&#xb3;" horiz-adv-x="522" 
d="M344 1204q60 -23 91.5 -81.5t31.5 -143.5q0 -121 -56.5 -193.5t-154.5 -72.5q-100 0 -157.5 74.5t-57.5 205.5h88q0 -97 33.5 -148.5t91.5 -51.5q57 0 90 49.5t33 138.5q0 86 -38 131t-103 45h-41v80h43q55 0 85.5 45t30.5 127q0 78 -27.5 121t-76.5 43q-53 0 -83 -49.5
t-30 -139.5h-88q0 125 55.5 198t151.5 73q86 0 137 -63.5t51 -172.5q0 -75 -25.5 -131.5t-74.5 -83.5z" />
    <glyph glyph-name="acute" unicode="&#xb4;" horiz-adv-x="307" 
d="M133 1180h-90l111 284h116z" />
    <glyph glyph-name="uni00B5" unicode="&#xb5;" horiz-adv-x="862" 
d="M629 336v711h114v-1047h-98l-16 154q-29 -82 -85 -126t-132 -44q-100 0 -154 65l-2 -520h-111v1518h115v-742q0 -109 48.5 -168t129.5 -59q89 0 140 69t51 189z" />
    <glyph glyph-name="paragraph" unicode="&#xb6;" horiz-adv-x="843" 
d="M74 1145q0 140 86.5 224.5t218.5 84.5h92v-1454h-92v840q-130 -2 -217.5 82t-87.5 223zM606 0v1454h94v-1454h-94z" />
    <glyph glyph-name="periodcentered" unicode="&#xb7;" horiz-adv-x="389" 
d="M195 449q-31 0 -52.5 20.5t-21.5 52.5q0 31 21.5 51.5t52.5 20.5t52 -20.5t21 -51.5q0 -32 -21 -52.5t-52 -20.5z" />
    <glyph glyph-name="cedilla" unicode="&#xb8;" horiz-adv-x="344" 
d="M221 0l-41 -137q117 -44 117 -168q0 -83 -48.5 -127.5t-119.5 -44.5q-42 0 -88 16l2 88q34 -18 70 -18t59 23t23 65q0 93 -123 113l57 215z" />
    <glyph glyph-name="uni00B9" unicode="&#xb9;" horiz-adv-x="401" 
d="M379 725h-346v80h127v721l-119 -62v82l209 94v-835h129v-80z" />
    <glyph glyph-name="ordmasculine" unicode="&#xba;" horiz-adv-x="610" 
d="M305 705q-116 0 -181 101t-65 279q0 180 65 281.5t181 101.5q114 0 180 -102t66 -281q0 -178 -66 -279t-180 -101zM305 788q72 0 114 79.5t42 217.5t-42 217.5t-114 79.5q-71 0 -112 -78.5t-41 -218.5q0 -139 41 -218t112 -79z" />
    <glyph glyph-name="guillemotright" unicode="&#xbb;" horiz-adv-x="593" 
d="M43 817h117l164 -332l-164 -329h-117l160 331zM262 817h117l164 -332l-164 -329h-117l160 331z" />
    <glyph glyph-name="onequarter" unicode="&#xbc;" horiz-adv-x="1110" 
d="M250 618h129v-79h-346v79h127v721l-119 -61v82l209 94v-836zM283 0l417 1454h91l-416 -1454h-92zM991 915v-641h86v-73h-86v-201h-84v201h-278v65l262 649h100zM713 274h194q-3 281 6 547q-28 -85 -59 -170t-74.5 -199t-66.5 -178z" />
    <glyph glyph-name="onehalf" unicode="&#xbd;" horiz-adv-x="1171" 
d="M250 618h129v-79h-346v79h127v721l-119 -61v82l209 94v-836zM283 0l417 1454h91l-416 -1454h-92zM809 84h315v-84h-405v63q0 64 23 125.5t58 108t75.5 98t75.5 96t58 102t23 116.5q0 63 -28.5 100t-77.5 37q-54 0 -84.5 -43.5t-32.5 -120.5h-90q0 113 55.5 180.5
t149.5 67.5q90 0 144 -58.5t54 -158.5q0 -58 -16.5 -112.5t-43 -98.5t-59 -85.5t-65.5 -81.5t-61 -78.5t-46.5 -83t-21.5 -89.5z" />
    <glyph glyph-name="threequarters" unicode="&#xbe;" horiz-adv-x="1230" 
d="M344 1018q60 -23 91.5 -81.5t31.5 -143.5q0 -121 -57 -194t-154 -73q-100 0 -157.5 74.5t-57.5 206.5h88q0 -97 33.5 -149t91.5 -52q57 0 90 50t33 139q0 86 -38 131t-103 45h-41v80h43q55 0 85.5 45t30.5 127q0 78 -27 120.5t-77 42.5q-53 0 -83 -49t-30 -139h-88
q0 125 55.5 197.5t151.5 72.5q86 0 137 -63t51 -172q0 -75 -25.5 -131.5t-74.5 -83.5zM403 0l418 1454h90l-415 -1454h-93zM1112 915v-641h86v-73h-86v-201h-84v201h-278v65l262 649h100zM834 274h194q-3 281 6 547q-28 -85 -59 -170t-74.5 -199t-66.5 -178z" />
    <glyph glyph-name="questiondown" unicode="&#xbf;" horiz-adv-x="669" 
d="M344 1057q31 0 52.5 -21.5t21.5 -52.5q0 -32 -21.5 -53t-52.5 -21t-52.5 21t-21.5 53q0 31 21.5 52.5t52.5 21.5zM510 12h113q0 -204 -79 -323t-212 -119q-128 0 -201.5 101t-73.5 274q0 160 62 261t172 128v334h106v-420q-108 0 -165.5 -76t-57.5 -219q0 -126 43 -198
t119 -72q79 0 126.5 86.5t47.5 242.5z" />
    <glyph glyph-name="Agrave" unicode="&#xc0;" horiz-adv-x="825" 
d="M352 1872l107 -287h-90l-138 287h121zM780 0h-125q-21 107 -80 416h-329q-13 -64 -39.5 -204t-40.5 -212h-121l295 1454h141zM264 514h293q-135 706 -147 842q-11 -125 -146 -842z" />
    <glyph glyph-name="Aacute" unicode="&#xc1;" horiz-adv-x="825" 
d="M477 1872h117l-137 -285h-90zM780 0h-125q-21 107 -80 416h-329q-13 -64 -39.5 -204t-40.5 -212h-121l295 1454h141zM264 514h293q-135 706 -147 842q-11 -125 -146 -842z" />
    <glyph glyph-name="Acircumflex" unicode="&#xc2;" horiz-adv-x="825" 
d="M414 1815q-29 -74 -105 -226h-102l153 287h105l153 -287h-102q-56 113 -102 226zM780 0h-125q-21 107 -80 416h-329q-13 -64 -39.5 -204t-40.5 -212h-121l295 1454h141zM264 514h293q-135 706 -147 842q-11 -125 -146 -842z" />
    <glyph glyph-name="Atilde" unicode="&#xc3;" horiz-adv-x="825" 
d="M317 1722q-48 0 -67 -65l-74 24q10 53 44 89t91 36q43 0 104.5 -35.5t90.5 -35.5q47 0 65 67l76 -26q-11 -56 -45 -90.5t-86 -34.5q-46 0 -108 35.5t-91 35.5zM780 0h-125q-21 107 -80 416h-329q-13 -64 -39.5 -204t-40.5 -212h-121l295 1454h141zM264 514h293
q-135 706 -147 842q-11 -125 -146 -842z" />
    <glyph glyph-name="Adieresis" unicode="&#xc4;" horiz-adv-x="825" 
d="M293 1655q-27 0 -46.5 19.5t-19.5 47.5q0 29 19.5 48.5t46.5 19.5q29 0 48 -19.5t19 -48.5q0 -28 -19 -47.5t-48 -19.5zM532 1655q-28 0 -47.5 19.5t-19.5 47.5q0 29 19.5 48.5t47.5 19.5q27 0 46.5 -19.5t19.5 -48.5q0 -28 -20 -47.5t-46 -19.5zM780 0h-125
q-21 107 -80 416h-329q-13 -64 -39.5 -204t-40.5 -212h-121l295 1454h141zM264 514h293q-135 706 -147 842q-11 -125 -146 -842z" />
    <glyph glyph-name="Aring" unicode="&#xc5;" horiz-adv-x="825" 
d="M414 1585q-67 0 -114.5 47t-47.5 113t47.5 113t114.5 47t114 -47t47 -113t-47 -113t-114 -47zM414 1839q-40 0 -67.5 -27t-27.5 -67t27.5 -67t67.5 -27q41 0 68.5 27t27.5 67t-27.5 67t-68.5 27zM780 0h-125q-21 107 -80 416h-329q-13 -64 -39.5 -204t-40.5 -212h-121
l295 1454h141zM264 514h293q-135 706 -147 842q-11 -125 -146 -842z" />
    <glyph glyph-name="AE" unicode="&#xc6;" horiz-adv-x="1157" 
d="M1106 1454v-106h-422v-551h340v-105h-340v-586h422v-106h-537v395h-307l-125 -395h-125l469 1454h625zM563 1356l-270 -862h276v862h-6z" />
    <glyph glyph-name="Ccedilla" unicode="&#xc7;" horiz-adv-x="796" 
d="M549 1366q-113 0 -195 -84.5t-121.5 -227t-39.5 -327.5t39.5 -327.5t121.5 -227t195 -84.5q56 0 105.5 18t80.5 46v-111q-72 -55 -198 -55h-7l-36 -123q116 -44 116 -168q0 -83 -48.5 -127.5t-119.5 -44.5q-42 0 -88 16l2 88q34 -18 70 -18t59 23t23 65q0 93 -123 113
l51 190q-170 46 -265 243.5t-95 483.5q0 215 53 381t158.5 263t249.5 97q126 0 198 -55v-110q-30 28 -80 45.5t-106 17.5z" />
    <glyph glyph-name="Egrave" unicode="&#xc8;" horiz-adv-x="712" 
d="M344 1872l107 -287h-91l-137 287h121zM662 1454v-106h-422v-551h340v-105h-340v-586h422v-106h-539v1454h539z" />
    <glyph glyph-name="Eacute" unicode="&#xc9;" horiz-adv-x="712" 
d="M469 1872h117l-137 -285h-91zM662 1454v-106h-422v-551h340v-105h-340v-586h422v-106h-539v1454h539z" />
    <glyph glyph-name="Ecircumflex" unicode="&#xca;" horiz-adv-x="712" 
d="M403 1815q-33 -83 -104 -226h-102l153 287h105l153 -287h-102q-62 123 -103 226zM662 1454v-106h-422v-551h340v-105h-340v-586h422v-106h-539v1454h539z" />
    <glyph glyph-name="Edieresis" unicode="&#xcb;" horiz-adv-x="712" 
d="M283 1655q-27 0 -46.5 19.5t-19.5 47.5q0 29 19.5 48.5t46.5 19.5q29 0 48 -19.5t19 -48.5q0 -28 -19 -47.5t-48 -19.5zM522 1655q-28 0 -47.5 19.5t-19.5 47.5q0 29 19.5 48.5t47.5 19.5q27 0 46.5 -19.5t19.5 -48.5q0 -28 -20 -47.5t-46 -19.5zM662 1454v-106h-422
v-551h340v-105h-340v-586h422v-106h-539v1454h539z" />
    <glyph glyph-name="Igrave" unicode="&#xcc;" horiz-adv-x="362" 
d="M121 1872l106 -287h-90l-137 287h121zM240 0h-117v1454h117v-1454z" />
    <glyph glyph-name="Iacute" unicode="&#xcd;" horiz-adv-x="362" 
d="M225 1587h-90l111 285h116zM240 0h-117v1454h117v-1454z" />
    <glyph glyph-name="Icircumflex" unicode="&#xce;" horiz-adv-x="362" 
d="M129 1876h104l154 -287h-102q-62 123 -103 226q-33 -83 -104 -226h-103zM240 0h-117v1454h117v-1454z" />
    <glyph glyph-name="Idieresis" unicode="&#xcf;" horiz-adv-x="362" 
d="M61 1655q-26 0 -45.5 19.5t-19.5 47.5q0 29 19 48.5t46 19.5q29 0 48.5 -19.5t19.5 -48.5q0 -28 -19.5 -47.5t-48.5 -19.5zM301 1655q-28 0 -48 19.5t-20 47.5q0 29 20 48.5t48 19.5q27 0 46.5 -19.5t19.5 -48.5q0 -28 -19.5 -47.5t-46.5 -19.5zM240 0h-117v1454h117
v-1454z" />
    <glyph glyph-name="Eth" unicode="&#xd0;" horiz-adv-x="909" 
d="M137 1454h185q242 0 377 -195.5t135 -531.5t-135 -531.5t-377 -195.5h-185v696h-143v86h143v672zM254 106h82q178 0 280.5 166t102.5 455t-102.5 455t-280.5 166h-82v-566h172v-86h-172v-590z" />
    <glyph glyph-name="Ntilde" unicode="&#xd1;" horiz-adv-x="958" 
d="M389 1722q-48 0 -67 -65l-74 24q10 53 44 89t91 36q43 0 104.5 -35.5t90.5 -35.5q47 0 65 67l76 -26q-11 -56 -45 -90.5t-86 -34.5q-46 0 -108 35.5t-91 35.5zM723 1454h111v-1454h-107l-512 1235q12 -123 15 -352.5t3 -882.5h-110v1454h108l512 -1239q-13 124 -16.5 353
t-3.5 886z" />
    <glyph glyph-name="Ograve" unicode="&#xd2;" horiz-adv-x="987" 
d="M434 1872l107 -287h-90l-138 287h121zM494 -18q-193 0 -305.5 199t-112.5 546t112.5 546.5t305.5 199.5q194 0 305.5 -199t111.5 -547t-111.5 -546.5t-305.5 -198.5zM494 90q139 0 221 171t82 466t-82 467t-221 172q-137 0 -219 -172t-82 -467q0 -294 82 -465.5
t219 -171.5z" />
    <glyph glyph-name="Oacute" unicode="&#xd3;" horiz-adv-x="987" 
d="M539 1587h-90l110 285h117zM494 -18q-193 0 -305.5 199t-112.5 546t112.5 546.5t305.5 199.5q194 0 305.5 -199t111.5 -547t-111.5 -546.5t-305.5 -198.5zM494 90q139 0 221 171t82 466t-82 467t-221 172q-137 0 -219 -172t-82 -467q0 -294 82 -465.5t219 -171.5z" />
    <glyph glyph-name="Ocircumflex" unicode="&#xd4;" horiz-adv-x="987" 
d="M494 1815q-29 -74 -105 -226h-102l153 287h105l153 -287h-102q-56 113 -102 226zM494 1473q194 0 305.5 -199t111.5 -547t-111.5 -546.5t-305.5 -198.5q-193 0 -305.5 199t-112.5 546t112.5 546.5t305.5 199.5zM494 90q139 0 221 171t82 466t-82 467t-221 172
q-137 0 -219 -172t-82 -467q0 -294 82 -465.5t219 -171.5z" />
    <glyph glyph-name="Otilde" unicode="&#xd5;" horiz-adv-x="987" 
d="M332 1657l-74 24q10 53 44 89t91 36q43 0 104.5 -35.5t90.5 -35.5q47 0 65 67l76 -26q-11 -56 -45 -90.5t-86 -34.5q-46 0 -108 35.5t-91 35.5q-48 0 -67 -65zM494 -18q-193 0 -305.5 199t-112.5 546t112.5 546.5t305.5 199.5q194 0 305.5 -199t111.5 -547t-111.5 -546.5
t-305.5 -198.5zM494 90q139 0 221 171t82 466t-82 467t-221 172q-137 0 -219 -172t-82 -467q0 -294 82 -465.5t219 -171.5z" />
    <glyph glyph-name="Odieresis" unicode="&#xd6;" horiz-adv-x="987" 
d="M373 1655q-27 0 -46.5 19.5t-19.5 47.5q0 29 19.5 48.5t46.5 19.5q29 0 48 -19.5t19 -48.5q0 -28 -19 -47.5t-48 -19.5zM612 1655q-28 0 -47.5 19.5t-19.5 47.5q0 29 19.5 48.5t47.5 19.5q27 0 46.5 -19.5t19.5 -48.5q0 -28 -20 -47.5t-46 -19.5zM494 -18
q-193 0 -305.5 199t-112.5 546t112.5 546.5t305.5 199.5q194 0 305.5 -199t111.5 -547t-111.5 -546.5t-305.5 -198.5zM494 90q139 0 221 171t82 466t-82 467t-221 172q-137 0 -219 -172t-82 -467q0 -294 82 -465.5t219 -171.5z" />
    <glyph glyph-name="multiply" unicode="&#xd7;" horiz-adv-x="600" 
d="M371 561l141 -151l-74 -76l-139 149l-137 -149l-70 74l139 149l-143 154l76 73l139 -149l137 147l70 -69z" />
    <glyph glyph-name="Oslash" unicode="&#xd8;" horiz-adv-x="995" 
d="M895 1495l-96 -211q119 -202 119 -557q0 -347 -112.5 -546t-305.5 -199q-143 0 -242 108l-59 -131h-103l99 217q-115 200 -115 551q0 348 113 547t307 199q138 0 235 -105l58 127h102zM197 727q0 -254 59 -414l428 942q-76 111 -184 111q-139 0 -221 -172t-82 -467z
M500 90q137 0 219 171.5t82 465.5q0 257 -64 422l-428 -944q79 -115 191 -115z" />
    <glyph glyph-name="Ugrave" unicode="&#xd9;" horiz-adv-x="921" 
d="M399 1872l107 -287h-90l-137 287h120zM461 -20q-164 0 -257 106.5t-93 298.5v1069h114v-1071q0 -142 63.5 -219.5t172.5 -77.5t172 77t63 220v1071h115v-1069q0 -192 -93 -298.5t-257 -106.5z" />
    <glyph glyph-name="Uacute" unicode="&#xda;" horiz-adv-x="921" 
d="M504 1587h-90l110 285h117zM461 -20q-164 0 -257 106.5t-93 298.5v1069h114v-1071q0 -142 63.5 -219.5t172.5 -77.5t172 77t63 220v1071h115v-1069q0 -192 -93 -298.5t-257 -106.5z" />
    <glyph glyph-name="Ucircumflex" unicode="&#xdb;" horiz-adv-x="921" 
d="M461 1815q-29 -74 -105 -226h-102l154 287h104l154 -287h-103q-56 113 -102 226zM696 383v1071h115v-1069q0 -192 -93 -298.5t-257 -106.5t-257 106.5t-93 298.5v1069h114v-1071q0 -142 63.5 -219.5t172.5 -77.5t172 77t63 220z" />
    <glyph glyph-name="Udieresis" unicode="&#xdc;" horiz-adv-x="921" 
d="M340 1655q-26 0 -46 19.5t-20 47.5q0 29 19.5 48.5t46.5 19.5q29 0 48.5 -19.5t19.5 -48.5q0 -28 -19.5 -47.5t-48.5 -19.5zM580 1655q-28 0 -48 19.5t-20 47.5q0 29 20 48.5t48 19.5q27 0 46 -19.5t19 -48.5q0 -28 -19.5 -47.5t-45.5 -19.5zM461 -20q-164 0 -257 106.5
t-93 298.5v1069h114v-1071q0 -142 63.5 -219.5t172.5 -77.5t172 77t63 220v1071h115v-1069q0 -192 -93 -298.5t-257 -106.5z" />
    <glyph glyph-name="Yacute" unicode="&#xdd;" horiz-adv-x="804" 
d="M467 1872h117l-138 -285h-90zM645 1454h123l-307 -842v-612h-117v612l-307 842h125q132 -373 179 -522.5t62 -243.5q18 96 66 249.5t176 516.5z" />
    <glyph glyph-name="Thorn" unicode="&#xde;" horiz-adv-x="804" 
d="M240 1192h98q191 0 301.5 -121.5t110.5 -337.5q0 -218 -111 -341.5t-301 -123.5h-98v-268h-117v1454h117v-262zM240 375h98q138 0 217.5 94t79.5 262q0 167 -79.5 260.5t-217.5 93.5h-98v-710z" />
    <glyph glyph-name="germandbls" unicode="&#xdf;" 
d="M524 834q101 -33 156 -144.5t55 -267.5q0 -89 -19 -165t-56 -135.5t-98 -93.5t-140 -34q-74 0 -127 35v112q53 -39 115 -39q58 0 100.5 26t66.5 73t35 104t11 125q0 163 -64 252.5t-160 89.5h-12v98h10q74 0 120 70.5t46 185.5q0 122 -46 189t-128 67q-84 0 -131 -59.5
t-47 -165.5v-1157h-115v1157q0 153 76.5 242.5t212.5 89.5q138 0 215.5 -92t77.5 -252q0 -108 -38 -191.5t-116 -119.5z" />
    <glyph glyph-name="agrave" unicode="&#xe0;" horiz-adv-x="849" 
d="M375 1464l106 -284h-90l-137 284h121zM641 813l8 234h105v-1047h-115v231q-35 -120 -104.5 -185.5t-163.5 -65.5q-146 0 -229 145.5t-83 402.5q0 253 84.5 395t233.5 142q92 0 162.5 -68t101.5 -184zM408 84q108 0 169.5 117t61.5 323t-61.5 322.5t-169.5 116.5
t-171 -116t-63 -323t63 -323.5t171 -116.5z" />
    <glyph glyph-name="aacute" unicode="&#xe1;" horiz-adv-x="849" 
d="M500 1464h116l-137 -284h-90zM641 813l8 234h105v-1047h-115v231q-35 -120 -104.5 -185.5t-163.5 -65.5q-146 0 -229 145.5t-83 402.5q0 253 84.5 395t233.5 142q92 0 162.5 -68t101.5 -184zM408 84q108 0 169.5 117t61.5 323t-61.5 322.5t-169.5 116.5t-171 -116
t-63 -323t63 -323.5t171 -116.5z" />
    <glyph glyph-name="acircumflex" unicode="&#xe2;" horiz-adv-x="849" 
d="M434 1407q-38 -94 -104 -223h-103l154 286h104l154 -286h-102q-68 136 -103 223zM641 813l8 234h105v-1047h-115v231q-35 -120 -104.5 -185.5t-163.5 -65.5q-146 0 -229 145.5t-83 402.5q0 253 84.5 395t233.5 142q92 0 162.5 -68t101.5 -184zM408 84q108 0 169.5 117
t61.5 323t-61.5 322.5t-169.5 116.5t-171 -116t-63 -323t63 -323.5t171 -116.5z" />
    <glyph glyph-name="atilde" unicode="&#xe3;" horiz-adv-x="849" 
d="M340 1315q-49 0 -68 -66l-73 25q10 53 44 89t91 36q43 0 104 -36t90 -36q48 0 66 68l76 -27q-11 -56 -45 -90.5t-86 -34.5q-46 0 -108 36t-91 36zM641 813l8 234h105v-1047h-115v231q-35 -120 -104.5 -185.5t-163.5 -65.5q-146 0 -229 145.5t-83 402.5q0 253 84.5 395
t233.5 142q92 0 162.5 -68t101.5 -184zM408 84q108 0 169.5 117t61.5 323t-61.5 322.5t-169.5 116.5t-171 -116t-63 -323t63 -323.5t171 -116.5z" />
    <glyph glyph-name="adieresis" unicode="&#xe4;" horiz-adv-x="849" 
d="M315 1245q-26 0 -45.5 20t-19.5 48q0 29 19 48t46 19q29 0 48.5 -19t19.5 -48q0 -28 -19.5 -48t-48.5 -20zM555 1245q-28 0 -48 20t-20 48q0 29 20 48t48 19q27 0 46.5 -19t19.5 -48q0 -28 -20 -48t-46 -20zM641 813l8 234h105v-1047h-115v231q-35 -120 -104.5 -185.5
t-163.5 -65.5q-146 0 -229 145.5t-83 402.5q0 253 84.5 395t233.5 142q92 0 162.5 -68t101.5 -184zM408 84q108 0 169.5 117t61.5 323t-61.5 322.5t-169.5 116.5t-171 -116t-63 -323t63 -323.5t171 -116.5z" />
    <glyph glyph-name="aring" unicode="&#xe5;" horiz-adv-x="849" 
d="M434 1178q-68 0 -115 46t-47 113q0 66 47.5 113t114.5 47t114.5 -47t47.5 -113q0 -67 -47 -113t-115 -46zM434 1432q-40 0 -67 -27.5t-27 -67.5t27 -67t67 -27q41 0 68.5 27t27.5 67t-27.5 67.5t-68.5 27.5zM641 813l8 234h105v-1047h-115v231q-35 -120 -104.5 -185.5
t-163.5 -65.5q-146 0 -229 145.5t-83 402.5q0 253 84.5 395t233.5 142q92 0 162.5 -68t101.5 -184zM408 84q108 0 169.5 117t61.5 323t-61.5 322.5t-169.5 116.5t-171 -116t-63 -323t63 -323.5t171 -116.5z" />
    <glyph glyph-name="ae" unicode="&#xe6;" horiz-adv-x="1243" 
d="M852 1065q161 0 248.5 -147t83.5 -426h-551q3 -195 64.5 -305.5t164.5 -110.5q75 0 127.5 59.5t75.5 169.5l100 -16q-30 -145 -109.5 -228.5t-193.5 -83.5q-99 0 -173.5 58t-117.5 166q-31 -117 -100.5 -169t-155.5 -52q-121 0 -194.5 100t-73.5 266q0 165 69.5 265
t184.5 100q71 0 129 -43t88 -121v213q0 205 -211 205q-126 0 -225 -70v113q130 61 252 61q206 0 272 -151q89 147 246 147zM852 969q-97 0 -156.5 -104.5t-62.5 -286.5h438q-2 183 -60 287t-159 104zM334 68q83 0 133.5 76.5t50.5 201.5q0 124 -51 201.5t-133 77.5
q-76 0 -124 -76.5t-48 -200.5q0 -126 48 -203t124 -77z" />
    <glyph glyph-name="ccedilla" unicode="&#xe7;" horiz-adv-x="641" 
d="M446 961q-129 0 -201.5 -116t-72.5 -319q0 -205 72.5 -323.5t199.5 -118.5q80 0 140 57v-106q-60 -51 -152 -51h-6l-37 -121q117 -44 117 -168q0 -83 -48.5 -127.5t-119.5 -44.5q-42 0 -88 16l2 88q34 -18 70 -18t58.5 23t22.5 65q0 93 -122 113l51 188q-129 40 -201 178
t-72 350q0 248 100 392.5t273 144.5q92 0 152 -51v-109q-61 58 -138 58z" />
    <glyph glyph-name="egrave" unicode="&#xe8;" 
d="M330 1464l106 -284h-90l-137 284h121zM391 1067q161 0 248.5 -147t83.5 -426h-551q3 -195 64.5 -305.5t164.5 -110.5q75 0 127.5 59.5t75.5 169.5l101 -16q-30 -144 -110 -227.5t-194 -83.5q-159 0 -250.5 144.5t-91.5 401.5q0 253 89 397t243 144zM391 971
q-97 0 -156.5 -104.5t-62.5 -286.5h438q-2 183 -60 287t-159 104z" />
    <glyph glyph-name="eacute" unicode="&#xe9;" 
d="M455 1464h116l-137 -284h-90zM391 1067q161 0 248.5 -147t83.5 -426h-551q3 -195 64.5 -305.5t164.5 -110.5q75 0 127.5 59.5t75.5 169.5l101 -16q-30 -144 -110 -227.5t-194 -83.5q-159 0 -250.5 144.5t-91.5 401.5q0 253 89 397t243 144zM391 971q-97 0 -156.5 -104.5
t-62.5 -286.5h438q-2 183 -60 287t-159 104z" />
    <glyph glyph-name="ecircumflex" unicode="&#xea;" 
d="M391 1407q-38 -94 -104 -223h-103l154 286h104l154 -286h-102q-68 136 -103 223zM391 1067q161 0 248.5 -147t83.5 -426h-551q3 -195 64.5 -305.5t164.5 -110.5q75 0 127.5 59.5t75.5 169.5l101 -16q-30 -144 -110 -227.5t-194 -83.5q-159 0 -250.5 144.5t-91.5 401.5
q0 253 89 397t243 144zM391 971q-97 0 -156.5 -104.5t-62.5 -286.5h438q-2 183 -60 287t-159 104z" />
    <glyph glyph-name="edieresis" unicode="&#xeb;" 
d="M270 1245q-26 0 -45.5 20t-19.5 48q0 29 19 48t46 19q29 0 48.5 -19t19.5 -48q0 -28 -19.5 -48t-48.5 -20zM510 1245q-28 0 -48 20t-20 48q0 29 20 48t48 19q27 0 46 -19t19 -48q0 -28 -19.5 -48t-45.5 -20zM391 1067q161 0 248.5 -147t83.5 -426h-551
q3 -195 64.5 -305.5t164.5 -110.5q75 0 127.5 59.5t75.5 169.5l101 -16q-30 -144 -110 -227.5t-194 -83.5q-159 0 -250.5 144.5t-91.5 401.5q0 253 89 397t243 144zM391 971q-97 0 -156.5 -104.5t-62.5 -286.5h438q-2 183 -60 287t-159 104z" />
    <glyph glyph-name="igrave" unicode="&#xec;" horiz-adv-x="307" 
d="M94 1464l107 -284h-90l-138 284h121zM96 1047h115v-1047h-115v1047z" />
    <glyph glyph-name="iacute" unicode="&#xed;" horiz-adv-x="307" 
d="M199 1180h-90l110 284h117zM96 1047h115v-1047h-115v1047z" />
    <glyph glyph-name="icircumflex" unicode="&#xee;" horiz-adv-x="307" 
d="M100 1470h105l153 -286h-102q-63 125 -102 223q-34 -85 -105 -223h-102zM211 0h-115v1047h115v-1047z" />
    <glyph glyph-name="idieresis" unicode="&#xef;" horiz-adv-x="307" 
d="M33 1245q-26 0 -46 20t-20 48q0 29 19.5 48t46.5 19q29 0 48 -19t19 -48q0 -28 -19 -48t-48 -20zM272 1245q-28 0 -47.5 20t-19.5 48q0 29 19.5 48t47.5 19q27 0 46.5 -19t19.5 -48q0 -28 -20 -48t-46 -20zM96 1047h115v-1047h-115v1047z" />
    <glyph glyph-name="eth" unicode="&#xf0;" horiz-adv-x="784" 
d="M477 1300l168 -368q84 -182 84 -404q0 -259 -90.5 -405t-247.5 -146t-246.5 142t-89.5 393q0 252 84.5 392t233.5 140q72 0 116 -36l-110 241l-189 -100v86l158 82l-100 219h123l75 -166l181 94v-86zM391 84q102 0 162.5 115t60.5 315q0 201 -60 315.5t-163 114.5
q-102 0 -162.5 -114.5t-60.5 -315.5q0 -200 60.5 -315t162.5 -115z" />
    <glyph glyph-name="ntilde" unicode="&#xf1;" 
d="M307 1315q-48 0 -67 -66l-74 25q10 53 44 89t91 36q43 0 104.5 -36t90.5 -36q47 0 65 68l76 -27q-11 -56 -45 -90.5t-86 -34.5q-46 0 -108 36t-91 36zM446 1067q115 0 181.5 -78t66.5 -233v-756h-114v743q0 113 -48.5 169.5t-130.5 56.5q-89 0 -139.5 -68t-50.5 -188
v-713h-115v1047h105l6 -162q57 182 239 182z" />
    <glyph glyph-name="ograve" unicode="&#xf2;" horiz-adv-x="802" 
d="M340 1464l106 -284h-90l-137 284h121zM401 -20q-159 0 -250.5 145t-91.5 399t91.5 398.5t250.5 144.5t250.5 -144.5t91.5 -398.5t-91.5 -399t-250.5 -145zM401 84q107 0 169.5 117.5t62.5 322.5q0 207 -62.5 324t-169.5 117t-169 -117t-62 -324q0 -206 62.5 -323
t168.5 -117z" />
    <glyph glyph-name="oacute" unicode="&#xf3;" horiz-adv-x="802" 
d="M444 1180h-90l111 284h117zM401 -20q-159 0 -250.5 145t-91.5 399t91.5 398.5t250.5 144.5t250.5 -144.5t91.5 -398.5t-91.5 -399t-250.5 -145zM401 84q107 0 169.5 117.5t62.5 322.5q0 207 -62.5 324t-169.5 117t-169 -117t-62 -324q0 -206 62.5 -323t168.5 -117z" />
    <glyph glyph-name="ocircumflex" unicode="&#xf4;" horiz-adv-x="802" 
d="M401 1407q-38 -94 -104 -223h-102l153 286h105l153 -286h-102q-68 136 -103 223zM401 1067q159 0 250.5 -144.5t91.5 -398.5t-91.5 -399t-250.5 -145t-250.5 145t-91.5 399t91.5 398.5t250.5 144.5zM401 84q107 0 169.5 117.5t62.5 322.5q0 207 -62.5 324t-169.5 117
t-169 -117t-62 -324q0 -206 62.5 -323t168.5 -117z" />
    <glyph glyph-name="otilde" unicode="&#xf5;" horiz-adv-x="802" 
d="M238 1249l-74 25q10 53 44 89t91 36q43 0 104.5 -36t90.5 -36q47 0 65 68l76 -27q-11 -56 -45 -90.5t-86 -34.5q-46 0 -108 36t-91 36q-48 0 -67 -66zM401 -20q-159 0 -250.5 145t-91.5 399t91.5 398.5t250.5 144.5t250.5 -144.5t91.5 -398.5t-91.5 -399t-250.5 -145z
M401 84q107 0 169.5 117.5t62.5 322.5q0 207 -62.5 324t-169.5 117t-169 -117t-62 -324q0 -206 62.5 -323t168.5 -117z" />
    <glyph glyph-name="odieresis" unicode="&#xf6;" horiz-adv-x="802" 
d="M281 1245q-26 0 -46 20t-20 48q0 29 19.5 48t46.5 19q29 0 48 -19t19 -48q0 -28 -19 -48t-48 -20zM520 1245q-28 0 -47.5 20t-19.5 48q0 29 19.5 48t47.5 19q27 0 46.5 -19t19.5 -48q0 -28 -20 -48t-46 -20zM401 -20q-159 0 -250.5 145t-91.5 399t91.5 398.5t250.5 144.5
t250.5 -144.5t91.5 -398.5t-91.5 -399t-250.5 -145zM401 84q107 0 169.5 117.5t62.5 322.5q0 207 -62.5 324t-169.5 117t-169 -117t-62 -324q0 -206 62.5 -323t168.5 -117z" />
    <glyph glyph-name="divide" unicode="&#xf7;" horiz-adv-x="634" 
d="M313 717q-29 0 -49 20t-20 49q0 31 20 51.5t49 20.5q31 0 51.5 -20.5t20.5 -51.5q0 -29 -20.5 -49t-51.5 -20zM549 506h-469v104h469v-104zM313 262q-29 0 -49 20.5t-20 51.5t20 51.5t49 20.5q31 0 51.5 -20.5t20.5 -51.5t-20.5 -51.5t-51.5 -20.5z" />
    <glyph glyph-name="oslash" unicode="&#xf8;" horiz-adv-x="802" 
d="M715 1092l-74 -152q102 -145 102 -416q0 -254 -91.5 -399t-250.5 -145q-114 0 -194 77l-51 -104h-76l78 160q-99 148 -99 411q0 254 91.5 398.5t250.5 144.5q111 0 189 -72l47 97h78zM170 524q0 -179 47 -291l324 662q-58 70 -140 70q-107 0 -169 -117t-62 -324zM401 84
q107 0 169.5 117.5t62.5 322.5q0 182 -49 299l-326 -661q57 -78 143 -78z" />
    <glyph glyph-name="ugrave" unicode="&#xf9;" 
d="M319 1464l107 -284h-90l-137 284h120zM571 334v713h115v-1047h-104l-7 162q-61 -182 -239 -182q-114 0 -181 80t-67 231v756h115v-744q0 -109 48.5 -167t129.5 -58q90 0 140 67.5t50 188.5z" />
    <glyph glyph-name="uacute" unicode="&#xfa;" 
d="M444 1464h117l-137 -284h-90zM571 334v713h115v-1047h-104l-7 162q-61 -182 -239 -182q-114 0 -181 80t-67 231v756h115v-744q0 -109 48.5 -167t129.5 -58q90 0 140 67.5t50 188.5z" />
    <glyph glyph-name="ucircumflex" unicode="&#xfb;" 
d="M379 1407q-34 -85 -105 -223h-102l154 286h104l154 -286h-103q-63 125 -102 223zM571 334v713h115v-1047h-104l-7 162q-61 -182 -239 -182q-114 0 -181 80t-67 231v756h115v-744q0 -109 48.5 -167t129.5 -58q90 0 140 67.5t50 188.5z" />
    <glyph glyph-name="udieresis" unicode="&#xfc;" 
d="M260 1245q-26 0 -45.5 20t-19.5 48q0 29 19 48t46 19q29 0 48.5 -19t19.5 -48q0 -28 -19.5 -48t-48.5 -20zM500 1245q-28 0 -48 20t-20 48q0 29 20 48t48 19q27 0 46 -19t19 -48q0 -28 -19.5 -48t-45.5 -20zM571 334v713h115v-1047h-104l-7 162q-61 -182 -239 -182
q-114 0 -181 80t-67 231v756h115v-744q0 -109 48.5 -167t129.5 -58q90 0 140 67.5t50 188.5z" />
    <glyph glyph-name="yacute" unicode="&#xfd;" horiz-adv-x="727" 
d="M428 1464h117l-137 -284h-91zM567 1047h117l-371 -1518h-110l112 467l-272 1051h121q162 -665 207 -930q38 270 196 930z" />
    <glyph glyph-name="thorn" unicode="&#xfe;" horiz-adv-x="849" 
d="M479 1067q146 0 229 -146t83 -403q0 -253 -84 -394.5t-234 -141.5q-91 0 -160 65t-102 178v-696h-115v2007h115v-721q35 120 105 186t163 66zM442 84q108 0 171 115.5t63 322.5q0 208 -63 324.5t-171 116.5t-169.5 -117.5t-61.5 -323.5t61.5 -322t169.5 -116z" />
    <glyph glyph-name="ydieresis" unicode="&#xff;" horiz-adv-x="727" 
d="M242 1245q-26 0 -46 20t-20 48q0 29 19.5 48t46.5 19q29 0 48 -19t19 -48q0 -28 -19 -48t-48 -20zM481 1245q-28 0 -47.5 20t-19.5 48q0 29 19.5 48t47.5 19q27 0 46.5 -19t19.5 -48q0 -28 -20 -48t-46 -20zM567 1047h117l-371 -1518h-110l112 467l-272 1051h121
q162 -665 207 -930q38 270 196 930z" />
    <glyph glyph-name="Amacron" unicode="&#x100;" horiz-adv-x="825" 
d="M215 1743h395v-90h-395v90zM780 0h-125q-21 107 -80 416h-329q-13 -64 -39.5 -204t-40.5 -212h-121l295 1454h141zM264 514h293q-135 706 -147 842q-11 -125 -146 -842z" />
    <glyph glyph-name="amacron" unicode="&#x101;" horiz-adv-x="849" 
d="M238 1335h395v-90h-395v90zM641 813l8 234h105v-1047h-115v231q-35 -120 -104.5 -185.5t-163.5 -65.5q-146 0 -229 145.5t-83 402.5q0 253 84.5 395t233.5 142q92 0 162.5 -68t101.5 -184zM408 84q108 0 169.5 117t61.5 323t-61.5 322.5t-169.5 116.5t-171 -116t-63 -323
t63 -323.5t171 -116.5z" />
    <glyph glyph-name="Abreve" unicode="&#x102;" horiz-adv-x="825" 
d="M414 1589q-89 0 -142.5 67.5t-52.5 194.5h86q-1 -88 27.5 -135t81.5 -47q54 0 82 47t26 135h88q1 -126 -53.5 -194t-142.5 -68zM780 0h-125q-21 107 -80 416h-329q-13 -64 -39.5 -204t-40.5 -212h-121l295 1454h141zM264 514h293q-135 706 -147 842q-11 -125 -146 -842z
" />
    <glyph glyph-name="abreve" unicode="&#x103;" horiz-adv-x="849" 
d="M434 1182q-88 0 -141.5 67t-52.5 193h86q-1 -87 27 -134.5t81 -47.5q54 0 82.5 47.5t26.5 134.5h88q1 -125 -54 -192.5t-143 -67.5zM641 813l8 234h105v-1047h-115v231q-35 -120 -104.5 -185.5t-163.5 -65.5q-146 0 -229 145.5t-83 402.5q0 253 84.5 395t233.5 142
q92 0 162.5 -68t101.5 -184zM408 84q108 0 169.5 117t61.5 323t-61.5 322.5t-169.5 116.5t-171 -116t-63 -323t63 -323.5t171 -116.5z" />
    <glyph glyph-name="Aogonek" unicode="&#x104;" horiz-adv-x="825" 
d="M741 -291q35 0 74 27v-80q-42 -27 -94 -27q-67 0 -114.5 39.5t-47.5 114.5q0 88 96 217q-21 107 -80 416h-329q-13 -64 -39.5 -204t-40.5 -212h-121l295 1454h141l299 -1454h-32q-44 -48 -72.5 -102t-28.5 -95q0 -43 26.5 -68.5t67.5 -25.5zM264 514h293
q-135 706 -147 842q-11 -125 -146 -842z" />
    <glyph glyph-name="aogonek" unicode="&#x105;" horiz-adv-x="849" 
d="M725 -291q35 0 74 27v-80q-42 -27 -94 -27q-67 0 -114.5 39.5t-47.5 114.5q0 88 96 217v231q-35 -120 -104.5 -185.5t-163.5 -65.5q-146 0 -229 145.5t-83 402.5q0 253 84.5 395t233.5 142q92 0 162.5 -68t101.5 -184l8 234h105v-1047h-23q-43 -48 -71.5 -102t-28.5 -95
q0 -43 26.5 -68.5t67.5 -25.5zM408 84q108 0 169.5 117t61.5 323t-61.5 322.5t-169.5 116.5t-171 -116t-63 -323t63 -323.5t171 -116.5z" />
    <glyph glyph-name="Cacute" unicode="&#x106;" horiz-adv-x="796" 
d="M545 1587h-90l110 285h117zM537 -14q-144 0 -249.5 97t-158.5 263t-53 381t53 381t158.5 263t249.5 97q126 0 198 -55v-110q-30 28 -80 45.5t-106 17.5q-113 0 -195 -84.5t-121.5 -227t-39.5 -327.5t39.5 -327.5t121.5 -227t195 -84.5q56 0 105.5 18t80.5 46v-111
q-72 -55 -198 -55z" />
    <glyph glyph-name="cacute" unicode="&#x107;" horiz-adv-x="641" 
d="M438 1182h-90l111 284h116zM432 -16q-173 0 -273 145.5t-100 396.5q0 248 100 392.5t273 144.5q92 0 152 -51v-109q-61 58 -138 58q-129 0 -201.5 -116t-72.5 -319q0 -205 72.5 -323.5t199.5 -118.5q80 0 140 57v-106q-60 -51 -152 -51z" />
    <glyph glyph-name="Cdotaccent" unicode="&#x10a;" horiz-adv-x="796" 
d="M502 1651q-31 0 -53.5 21.5t-22.5 53.5t22.5 53t53.5 21t53.5 -21t22.5 -53t-22.5 -53.5t-53.5 -21.5zM537 -14q-144 0 -249.5 97t-158.5 263t-53 381t53 381t158.5 263t249.5 97q126 0 198 -55v-110q-30 28 -80 45.5t-106 17.5q-113 0 -195 -84.5t-121.5 -227
t-39.5 -327.5t39.5 -327.5t121.5 -227t195 -84.5q56 0 105.5 18t80.5 46v-111q-72 -55 -198 -55z" />
    <glyph glyph-name="cdotaccent" unicode="&#x10b;" horiz-adv-x="641" 
d="M395 1245q-31 0 -53.5 22t-22.5 54t22.5 53t53.5 21t53.5 -21t22.5 -53t-22.5 -54t-53.5 -22zM432 -16q-173 0 -273 145.5t-100 396.5q0 248 100 392.5t273 144.5q92 0 152 -51v-109q-61 58 -138 58q-129 0 -201.5 -116t-72.5 -319q0 -205 72.5 -323.5t199.5 -118.5
q80 0 140 57v-106q-60 -51 -152 -51z" />
    <glyph glyph-name="Ccaron" unicode="&#x10c;" horiz-adv-x="796" 
d="M707 1876l-154 -287h-104l-154 287h102q78 -164 105 -236q41 109 104 236h101zM549 1366q-113 0 -195 -84.5t-121.5 -227t-39.5 -327.5t39.5 -327.5t121.5 -227t195 -84.5q56 0 105.5 18t80.5 46v-111q-72 -55 -198 -55q-144 0 -249.5 97t-158.5 263t-53 381t53 381
t158.5 263t249.5 97q126 0 198 -55v-110q-30 28 -80 45.5t-106 17.5z" />
    <glyph glyph-name="ccaron" unicode="&#x10d;" horiz-adv-x="641" 
d="M602 1473l-153 -289h-105l-154 289h103q70 -148 104 -238q41 109 105 238h100zM59 526q0 248 100 392.5t273 144.5q92 0 152 -51v-109q-61 58 -138 58q-129 0 -201.5 -116t-72.5 -319q0 -205 72.5 -323.5t199.5 -118.5q80 0 140 57v-106q-60 -51 -152 -51
q-173 0 -273 145.5t-100 396.5z" />
    <glyph glyph-name="Dcaron" unicode="&#x10e;" horiz-adv-x="894" 
d="M588 1876l-154 -287h-104l-154 287h103q74 -155 104 -236q41 109 104 236h101zM123 1454h184q242 0 377 -195.5t135 -531.5t-135 -531.5t-377 -195.5h-184v1454zM240 106h82q178 0 280.5 166t102.5 455t-102.5 455t-280.5 166h-82v-1242z" />
    <glyph glyph-name="dcaron" unicode="&#x10f;" horiz-adv-x="1009" 
d="M639 821v715h115v-1536h-115v231q-35 -120 -104.5 -185.5t-163.5 -65.5q-146 0 -229 145.5t-83 402.5q0 253 84.5 395t233.5 142q90 0 160 -65.5t102 -178.5zM852 1184l63 352h119l-96 -352h-86zM408 84q108 0 169.5 117t61.5 323t-61.5 322.5t-169.5 116.5t-171 -116
t-63 -323t63 -323.5t171 -116.5z" />
    <glyph glyph-name="Dcroat" unicode="&#x110;" horiz-adv-x="909" 
d="M137 1454h185q242 0 377 -195.5t135 -531.5t-135 -531.5t-377 -195.5h-185v696h-143v86h143v672zM254 106h82q178 0 280.5 166t102.5 455t-102.5 455t-280.5 166h-82v-566h172v-86h-172v-590z" />
    <glyph glyph-name="dcroat" unicode="&#x111;" horiz-adv-x="849" 
d="M754 1315h161v-86h-161v-1229h-115v231q-35 -120 -104.5 -185.5t-163.5 -65.5q-146 0 -229 145.5t-83 402.5q0 253 84.5 395t233.5 142q90 0 160 -65.5t102 -178.5v408h-158v86h158v221h115v-221zM408 84q108 0 169.5 117t61.5 323t-61.5 322.5t-169.5 116.5t-171 -116
t-63 -323t63 -323.5t171 -116.5z" />
    <glyph glyph-name="Emacron" unicode="&#x112;" horiz-adv-x="712" 
d="M205 1743h395v-90h-395v90zM662 1454v-106h-422v-551h340v-105h-340v-586h422v-106h-539v1454h539z" />
    <glyph glyph-name="emacron" unicode="&#x113;" 
d="M193 1335h395v-90h-395v90zM391 1067q161 0 248.5 -147t83.5 -426h-551q3 -195 64.5 -305.5t164.5 -110.5q75 0 127.5 59.5t75.5 169.5l101 -16q-30 -144 -110 -227.5t-194 -83.5q-159 0 -250.5 144.5t-91.5 401.5q0 253 89 397t243 144zM391 971q-97 0 -156.5 -104.5
t-62.5 -286.5h438q-2 183 -60 287t-159 104z" />
    <glyph glyph-name="Edotaccent" unicode="&#x116;" horiz-adv-x="712" 
d="M403 1651q-31 0 -53 21.5t-22 53.5t22 53t53 21t53.5 -21t22.5 -53t-22.5 -53.5t-53.5 -21.5zM662 1454v-106h-422v-551h340v-105h-340v-586h422v-106h-539v1454h539z" />
    <glyph glyph-name="edotaccent" unicode="&#x117;" 
d="M391 1243q-31 0 -53.5 22t-22.5 54t22.5 53t53.5 21t53.5 -21t22.5 -53t-22.5 -54t-53.5 -22zM391 1067q161 0 248.5 -147t83.5 -426h-551q3 -195 64.5 -305.5t164.5 -110.5q75 0 127.5 59.5t75.5 169.5l101 -16q-30 -144 -110 -227.5t-194 -83.5q-159 0 -250.5 144.5
t-91.5 401.5q0 253 89 397t243 144zM391 971q-97 0 -156.5 -104.5t-62.5 -286.5h438q-2 183 -60 287t-159 104z" />
    <glyph glyph-name="Eogonek" unicode="&#x118;" horiz-adv-x="712" 
d="M653 -291q35 0 74 27v-80q-42 -27 -94 -27q-67 0 -114.5 39.5t-47.5 114.5q0 88 96 217h-444v1454h539v-106h-422v-551h340v-105h-340v-586h422v-106h-3q-43 -48 -71.5 -102t-28.5 -95q0 -43 26.5 -68.5t67.5 -25.5z" />
    <glyph glyph-name="eogonek" unicode="&#x119;" 
d="M391 1067q161 0 248.5 -147t83.5 -426h-551q3 -195 64.5 -305.5t164.5 -110.5q75 0 127.5 59.5t75.5 169.5l101 -16q-26 -125 -90 -205t-156 -100q-88 -106 -88 -183q0 -43 26.5 -68.5t67.5 -25.5q35 0 74 27v-80q-42 -27 -95 -27q-67 0 -114 39.5t-47 114.5q0 83 82 199
q-142 17 -224 160t-82 384q0 253 89 397t243 144zM391 971q-97 0 -156.5 -104.5t-62.5 -286.5h438q-2 183 -60 287t-159 104z" />
    <glyph glyph-name="Ecaron" unicode="&#x11a;" horiz-adv-x="712" 
d="M610 1876l-153 -287h-105l-153 287h102q78 -164 105 -236q41 109 104 236h100zM662 1454v-106h-422v-551h340v-105h-340v-586h422v-106h-539v1454h539z" />
    <glyph glyph-name="ecaron" unicode="&#x11b;" 
d="M598 1470l-154 -288h-104l-154 288h103q72 -151 104 -237q39 105 105 237h100zM391 1067q161 0 248.5 -147t83.5 -426h-551q3 -195 64.5 -305.5t164.5 -110.5q75 0 127.5 59.5t75.5 169.5l101 -16q-30 -144 -110 -227.5t-194 -83.5q-159 0 -250.5 144.5t-91.5 401.5
q0 253 89 397t243 144zM391 971q-97 0 -156.5 -104.5t-62.5 -286.5h438q-2 183 -60 287t-159 104z" />
    <glyph glyph-name="Gbreve" unicode="&#x11e;" horiz-adv-x="952" 
d="M485 1589q-88 0 -141.5 67.5t-52.5 194.5h86q-1 -88 27 -135t81 -47q54 0 82 47t27 135h88q1 -126 -54 -194t-143 -68zM418 655v101h471q0 -365 -108.5 -569.5t-299.5 -204.5q-190 0 -297.5 198t-107.5 547t110 547.5t303 198.5q120 0 213.5 -85.5t133.5 -250.5l-101 -43
q-32 131 -95.5 201.5t-147.5 70.5q-140 0 -221 -169t-81 -470q0 -300 78.5 -469.5t214.5 -169.5q125 0 203.5 150t87.5 417h-356z" />
    <glyph glyph-name="gbreve" unicode="&#x11f;" horiz-adv-x="849" 
d="M434 1182q-88 0 -141.5 67t-52.5 193h86q-1 -87 27 -134.5t81 -47.5q54 0 82.5 47.5t26.5 134.5h88q1 -125 -54 -192.5t-143 -67.5zM641 811l8 236h105v-1108q0 -219 -100.5 -325t-268.5 -106q-139 0 -252 66v107q112 -72 229 -72q130 0 203.5 81.5t73.5 248.5v292
q-35 -120 -104.5 -185.5t-163.5 -65.5q-146 0 -229 145.5t-83 402.5q0 253 84.5 395t233.5 142q92 0 162.5 -68.5t101.5 -185.5zM408 84q108 0 169.5 117t61.5 323t-61.5 322.5t-169.5 116.5t-171 -116t-63 -323t63 -323.5t171 -116.5z" />
    <glyph glyph-name="Gdotaccent" unicode="&#x120;" horiz-adv-x="952" 
d="M485 1651q-31 0 -53 21.5t-22 53.5t22 53t53 21t53.5 -21t22.5 -53t-22.5 -53.5t-53.5 -21.5zM418 655v101h471q0 -365 -108.5 -569.5t-299.5 -204.5q-190 0 -297.5 198t-107.5 547t110 547.5t303 198.5q120 0 213.5 -85.5t133.5 -250.5l-101 -43q-32 131 -95.5 201.5
t-147.5 70.5q-140 0 -221 -169t-81 -470q0 -300 78.5 -469.5t214.5 -169.5q125 0 203.5 150t87.5 417h-356z" />
    <glyph glyph-name="gdotaccent" unicode="&#x121;" horiz-adv-x="849" 
d="M436 1243q-31 0 -53.5 22t-22.5 54t22.5 53t53.5 21t53.5 -21t22.5 -53t-22.5 -54t-53.5 -22zM641 811l8 236h105v-1108q0 -219 -100.5 -325t-268.5 -106q-139 0 -252 66v107q112 -72 229 -72q130 0 203.5 81.5t73.5 248.5v292q-35 -120 -104.5 -185.5t-163.5 -65.5
q-146 0 -229 145.5t-83 402.5q0 253 84.5 395t233.5 142q92 0 162.5 -68.5t101.5 -185.5zM408 84q108 0 169.5 117t61.5 323t-61.5 322.5t-169.5 116.5t-171 -116t-63 -323t63 -323.5t171 -116.5z" />
    <glyph glyph-name="uni0122" unicode="&#x122;" horiz-adv-x="952" 
d="M418 655v101h471q0 -365 -108.5 -569.5t-299.5 -204.5q-190 0 -297.5 198t-107.5 547t110 547.5t303 198.5q120 0 213.5 -85.5t133.5 -250.5l-101 -43q-32 131 -95.5 201.5t-147.5 70.5q-140 0 -221 -169t-81 -470q0 -300 78.5 -469.5t214.5 -169.5q125 0 203.5 150
t87.5 417h-356zM461 -471h-88l57 330h121z" />
    <glyph glyph-name="uni0123" unicode="&#x123;" horiz-adv-x="849" 
d="M461 1479h90l-62 -314h-122zM641 811l8 236h105v-1108q0 -219 -100.5 -325t-268.5 -106q-139 0 -252 66v107q112 -72 229 -72q130 0 203.5 81.5t73.5 248.5v292q-35 -120 -104.5 -185.5t-163.5 -65.5q-146 0 -229 145.5t-83 402.5q0 253 84.5 395t233.5 142
q92 0 162.5 -68.5t101.5 -185.5zM408 84q108 0 169.5 117t61.5 323t-61.5 322.5t-169.5 116.5t-171 -116t-63 -323t63 -323.5t171 -116.5z" />
    <glyph glyph-name="Hbar" unicode="&#x126;" horiz-adv-x="933" 
d="M811 1120h115v-86h-115v-1034h-115v690h-456v-690h-117v1034h-119v86h119v334h117v-334h456v334h115v-334zM240 793h456v241h-456v-241z" />
    <glyph glyph-name="hbar" unicode="&#x127;" horiz-adv-x="780" 
d="M446 1067q113 0 180.5 -78.5t67.5 -232.5v-756h-114v743q0 113 -48.5 169.5t-130.5 56.5q-90 0 -140 -67.5t-50 -188.5v-713h-115v1229h-157v86h157v221h115v-221h162v-86h-162v-330q60 168 235 168z" />
    <glyph glyph-name="Imacron" unicode="&#x12a;" horiz-adv-x="362" 
d="M-16 1653v90h395v-90h-395zM240 0h-117v1454h117v-1454z" />
    <glyph glyph-name="imacron" unicode="&#x12b;" horiz-adv-x="307" 
d="M-43 1245v90h395v-90h-395zM96 1047h115v-1047h-115v1047z" />
    <glyph glyph-name="Iogonek" unicode="&#x12e;" horiz-adv-x="362" 
d="M209 -291q35 0 74 27v-80q-42 -27 -95 -27q-67 0 -114 39.5t-47 114.5q0 88 96 217v1454h117v-1454h-25q-43 -48 -71.5 -102t-28.5 -95q0 -43 26.5 -68.5t67.5 -25.5z" />
    <glyph glyph-name="iogonek" unicode="&#x12f;" horiz-adv-x="307" 
d="M154 1243q-31 0 -53.5 22t-22.5 54t22.5 53t53.5 21t53 -21t22 -53t-22 -54t-53 -22zM182 -291q35 0 74 27v-80q-42 -27 -94 -27q-67 0 -114.5 39.5t-47.5 114.5q0 88 96 217v1047h115v-1047h-23q-43 -48 -71.5 -102t-28.5 -95q0 -43 26.5 -68.5t67.5 -25.5z" />
    <glyph glyph-name="Idotaccent" unicode="&#x130;" horiz-adv-x="362" 
d="M182 1651q-31 0 -53.5 21.5t-22.5 53.5t22.5 53t53.5 21t53.5 -21t22.5 -53t-22.5 -53.5t-53.5 -21.5zM240 0h-117v1454h117v-1454z" />
    <glyph glyph-name="dotlessi" unicode="&#x131;" horiz-adv-x="307" 
d="M96 1047h115v-1047h-115v1047z" />
    <glyph glyph-name="uni0136" unicode="&#x136;" horiz-adv-x="829" 
d="M653 1452l129 2l-430 -698l428 -756h-133l-414 741q9 -159 9 -741h-119v1454h119q0 -526 -9 -682zM373 -471h-88l57 330h121z" />
    <glyph glyph-name="uni0137" unicode="&#x137;" horiz-adv-x="716" 
d="M672 1047l-359 -482l361 -565h-127l-344 541q8 -213 8 -541h-115v1536h115q0 -686 -8 -946l344 457h125zM307 -471h-88l57 330h121z" />
    <glyph glyph-name="kgreenlandic" unicode="&#x138;" horiz-adv-x="688" 
d="M313 565l361 -565h-127l-344 541q8 -213 8 -541h-115v1047h115q0 -332 -6 -455l342 455h125z" />
    <glyph glyph-name="Lacute" unicode="&#x139;" horiz-adv-x="675" 
d="M225 1587h-90l111 285h116zM631 0h-508v1454h117v-1348h391v-106z" />
    <glyph glyph-name="lacute" unicode="&#x13a;" horiz-adv-x="307" 
d="M201 1669h-90l110 285h117zM96 1536h115v-1536h-115v1536z" />
    <glyph glyph-name="uni013B" unicode="&#x13b;" horiz-adv-x="675" 
d="M631 0h-508v1454h117v-1348h391v-106zM252 -471l57 330h121l-90 -330h-88z" />
    <glyph glyph-name="uni013C" unicode="&#x13c;" horiz-adv-x="307" 
d="M96 1536h115v-1536h-115v1536zM37 -471l57 330h121l-90 -330h-88z" />
    <glyph glyph-name="Lcaron" unicode="&#x13d;" horiz-adv-x="692" 
d="M631 0h-508v1454h117v-1348h391v-106zM422 1102l63 352h119l-94 -352h-88z" />
    <glyph glyph-name="lcaron" unicode="&#x13e;" horiz-adv-x="430" 
d="M59 1536h115v-1536h-115v1536zM272 1184l64 352h117l-95 -352h-86z" />
    <glyph glyph-name="Ldot" unicode="&#x13f;" horiz-adv-x="679" 
d="M631 0h-508v1454h117v-1348h391v-106zM459 653q-31 0 -52.5 21t-21.5 53q0 31 21.5 51.5t52.5 20.5t52 -20.5t21 -51.5q0 -32 -21 -53t-52 -21z" />
    <glyph glyph-name="ldot" unicode="&#x140;" horiz-adv-x="514" 
d="M96 1536h115v-1536h-115v1536zM412 653q-31 0 -52.5 21t-21.5 53q0 31 21.5 51.5t52.5 20.5t52 -20.5t21 -51.5q0 -32 -21 -53t-52 -21z" />
    <glyph glyph-name="Lslash" unicode="&#x141;" horiz-adv-x="675" 
d="M240 741v-635h391v-106h-508v653l-98 -73v108l98 74v692h117v-604l104 80v-109z" />
    <glyph glyph-name="lslash" unicode="&#x142;" horiz-adv-x="358" 
d="M233 868l107 80v-108l-107 -80v-760h-112v674l-101 -76v109l101 75v754h112v-668z" />
    <glyph glyph-name="Nacute" unicode="&#x143;" horiz-adv-x="958" 
d="M547 1872h117l-138 -285h-90zM723 1454h111v-1454h-107l-512 1235q12 -123 15 -352.5t3 -882.5h-110v1454h108l512 -1239q-13 124 -16.5 353t-3.5 886z" />
    <glyph glyph-name="nacute" unicode="&#x144;" 
d="M467 1464h117l-138 -284h-90zM446 1067q115 0 181.5 -78t66.5 -233v-756h-114v743q0 113 -48.5 169.5t-130.5 56.5q-89 0 -139.5 -68t-50.5 -188v-713h-115v1047h105l6 -162q57 182 239 182z" />
    <glyph glyph-name="uni0145" unicode="&#x145;" horiz-adv-x="958" 
d="M723 1454h111v-1454h-107l-512 1235q12 -123 15 -352.5t3 -882.5h-110v1454h108l512 -1239q-13 124 -16.5 353t-3.5 886zM457 -471h-88l57 330h121z" />
    <glyph glyph-name="uni0146" unicode="&#x146;" 
d="M446 1067q115 0 181.5 -78t66.5 -233v-756h-114v743q0 113 -48.5 169.5t-130.5 56.5q-89 0 -139.5 -68t-50.5 -188v-713h-115v1047h105l6 -162q57 182 239 182zM377 -471h-88l57 330h121z" />
    <glyph glyph-name="Ncaron" unicode="&#x147;" horiz-adv-x="958" 
d="M690 1876l-153 -287h-105l-153 287h102q74 -155 104 -236q38 101 105 236h100zM723 1454h111v-1454h-107l-512 1235q12 -123 15 -352.5t3 -882.5h-110v1454h108l512 -1239q-13 124 -16.5 353t-3.5 886z" />
    <glyph glyph-name="ncaron" unicode="&#x148;" 
d="M608 1470l-153 -288h-105l-153 288h102q72 -151 104 -237q39 105 105 237h100zM446 1067q115 0 181.5 -78t66.5 -233v-756h-114v743q0 113 -48.5 169.5t-130.5 56.5q-89 0 -139.5 -68t-50.5 -188v-713h-115v1047h105l6 -162q57 182 239 182z" />
    <glyph glyph-name="Eng" unicode="&#x14a;" horiz-adv-x="958" 
d="M723 1454h111v-1925h-111v481l-508 1225q12 -123 15 -352.5t3 -882.5h-110v1454h108l512 -1239q-13 124 -16.5 353t-3.5 886z" />
    <glyph glyph-name="eng" unicode="&#x14b;" 
d="M446 1067q115 0 181.5 -78t66.5 -233v-1227h-114v1214q0 113 -48.5 169.5t-130.5 56.5q-89 0 -139.5 -68t-50.5 -188v-713h-115v1047h105l6 -162q57 182 239 182z" />
    <glyph glyph-name="Omacron" unicode="&#x14c;" horiz-adv-x="987" 
d="M295 1653v90h395v-90h-395zM494 -18q-193 0 -305.5 199t-112.5 546t112.5 546.5t305.5 199.5q194 0 305.5 -199t111.5 -547t-111.5 -546.5t-305.5 -198.5zM494 90q139 0 221 171t82 466t-82 467t-221 172q-137 0 -219 -172t-82 -467q0 -294 82 -465.5t219 -171.5z" />
    <glyph glyph-name="omacron" unicode="&#x14d;" horiz-adv-x="802" 
d="M203 1245v90h395v-90h-395zM401 -20q-159 0 -250.5 145t-91.5 399t91.5 398.5t250.5 144.5t250.5 -144.5t91.5 -398.5t-91.5 -399t-250.5 -145zM401 84q107 0 169.5 117.5t62.5 322.5q0 207 -62.5 324t-169.5 117t-169 -117t-62 -324q0 -206 62.5 -323t168.5 -117z" />
    <glyph glyph-name="Ohungarumlaut" unicode="&#x150;" horiz-adv-x="987" 
d="M453 1585h-84l104 287h113zM635 1585h-84l104 287h113zM494 -18q-193 0 -305.5 199t-112.5 546t112.5 546.5t305.5 199.5q194 0 305.5 -199t111.5 -547t-111.5 -546.5t-305.5 -198.5zM494 90q139 0 221 171t82 466t-82 467t-221 172q-137 0 -219 -172t-82 -467
q0 -294 82 -465.5t219 -171.5z" />
    <glyph glyph-name="ohungarumlaut" unicode="&#x151;" horiz-adv-x="802" 
d="M360 1180h-84l105 284h113zM543 1180h-84l104 284h113zM401 -20q-159 0 -250.5 145t-91.5 399t91.5 398.5t250.5 144.5t250.5 -144.5t91.5 -398.5t-91.5 -399t-250.5 -145zM401 84q107 0 169.5 117.5t62.5 322.5q0 207 -62.5 324t-169.5 117t-169 -117t-62 -324
q0 -206 62.5 -323t168.5 -117z" />
    <glyph glyph-name="OE" unicode="&#x152;" horiz-adv-x="1124" 
d="M1073 0h-532q-149 -8 -256.5 84t-161 257.5t-53.5 385.5t53.5 385.5t161 257.5t256.5 84h532v-106h-416v-551h334v-105h-334v-586h416v-106zM541 104v1246q-114 8 -195.5 -71t-121.5 -220.5t-40 -331.5t40 -331.5t121.5 -220.5t195.5 -71z" />
    <glyph glyph-name="oe" unicode="&#x153;" horiz-adv-x="1357" 
d="M967 1067q161 0 248 -147t83 -426h-550q3 -195 64.5 -305.5t164.5 -110.5q75 0 127.5 59.5t75.5 169.5l100 -16q-30 -144 -109.5 -227.5t-193.5 -83.5q-98 0 -172 56.5t-117 162.5q-41 -106 -115 -162.5t-172 -56.5q-159 0 -250.5 145t-91.5 399t91.5 398.5t250.5 144.5
q96 0 170 -56t117 -159q42 104 113.5 159.5t165.5 55.5zM967 971q-97 0 -156.5 -104.5t-62.5 -286.5h438q-2 183 -60 287t-159 104zM401 84q107 0 169.5 117.5t62.5 322.5q0 207 -62.5 324t-169.5 117t-169 -117t-62 -324q0 -206 62.5 -323t168.5 -117z" />
    <glyph glyph-name="Racute" unicode="&#x154;" horiz-adv-x="796" 
d="M455 1872h116l-137 -285h-90zM371 664h-11q44 -68 377 -664h-133l-371 690q7 -222 7 -690h-117v1454h225q183 0 286 -107.5t103 -293.5q0 -177 -100 -283t-266 -106zM621 1042q0 141 -76 223.5t-211 82.5h-94v-607h94q135 0 211 82t76 219z" />
    <glyph glyph-name="racute" unicode="&#x155;" horiz-adv-x="487" 
d="M272 1464h117l-137 -284h-90zM197 1047l10 -195q52 239 244 199l-2 -117q-113 24 -175.5 -47t-62.5 -213v-674h-115v1047h101z" />
    <glyph glyph-name="uni0156" unicode="&#x156;" horiz-adv-x="796" 
d="M371 664h-11q44 -68 377 -664h-133l-371 690q7 -222 7 -690h-117v1454h225q183 0 286 -107.5t103 -293.5q0 -177 -100 -283t-266 -106zM621 1042q0 141 -76 223.5t-211 82.5h-94v-607h94q135 0 211 82t76 219zM365 -471h-89l58 330h121z" />
    <glyph glyph-name="uni0157" unicode="&#x157;" horiz-adv-x="487" 
d="M197 1047l10 -195q52 239 244 199l-2 -117q-113 24 -175.5 -47t-62.5 -213v-674h-115v1047h101zM182 -471h-88l58 330h120z" />
    <glyph glyph-name="Rcaron" unicode="&#x158;" horiz-adv-x="796" 
d="M598 1876l-154 -287h-104l-154 287h103q74 -155 104 -236q38 101 105 236h100zM371 664h-11q44 -68 377 -664h-133l-371 690q7 -222 7 -690h-117v1454h225q183 0 286 -107.5t103 -293.5q0 -177 -100 -283t-266 -106zM621 1042q0 141 -76 223.5t-211 82.5h-94v-607h94
q135 0 211 82t76 219z" />
    <glyph glyph-name="rcaron" unicode="&#x159;" horiz-adv-x="487" 
d="M416 1470l-154 -288h-104l-154 288h102q77 -161 105 -237q42 113 104 237h101zM197 1047l10 -195q52 239 244 199l-2 -117q-113 24 -175.5 -47t-62.5 -213v-674h-115v1047h101z" />
    <glyph glyph-name="Sacute" unicode="&#x15a;" horiz-adv-x="753" 
d="M422 1587h-90l110 285h117zM381 -16q-146 0 -234 94t-92 268h121q4 -127 60 -194.5t145 -67.5t139.5 58t50.5 153q0 70 -27 137.5t-70 124t-94.5 113t-103.5 114t-95 116.5t-70 131t-27 147q0 132 79 212t206 80q139 0 218 -86.5t83 -248.5l-117 -2q-15 237 -180 237
q-77 0 -123.5 -49.5t-46.5 -138.5q0 -66 27 -130.5t70 -119t95 -109.5t104.5 -112.5t95.5 -117.5t70 -135t27 -155q0 -147 -83.5 -233t-227.5 -86z" />
    <glyph glyph-name="sacute" unicode="&#x15b;" horiz-adv-x="665" 
d="M379 1180h-90l110 284h117zM338 -20q-132 0 -211 77.5t-88 218.5h113q7 -98 55.5 -151t130.5 -53q77 0 124.5 42t47.5 115q0 46 -24.5 89t-63.5 78.5t-86 71.5t-94 73.5t-86 78t-63.5 93t-24.5 110.5q0 109 71.5 174.5t188.5 65.5q120 0 192.5 -70.5t79.5 -197.5h-108
q-6 86 -49 132t-115 46q-68 0 -110 -39t-42 -105q0 -47 24.5 -90t64 -78t87.5 -69.5t95.5 -72t87 -77t64 -92.5t24.5 -112q0 -119 -77.5 -188.5t-207.5 -69.5z" />
    <glyph glyph-name="Scedilla" unicode="&#x15e;" horiz-adv-x="753" 
d="M692 303q0 -135 -71 -219.5t-197 -97.5l-37 -123q117 -44 117 -168q0 -83 -48.5 -127.5t-119.5 -44.5q-42 0 -88 16l2 88q34 -18 69 -18q36 0 59 23t23 65q0 93 -122 113l47 178q-123 18 -195 109.5t-76 248.5h121q4 -127 60 -194.5t145 -67.5t139.5 58t50.5 153
q0 70 -27 137.5t-70 124t-94.5 113t-103.5 114t-95 116.5t-70 131t-27 147q0 132 79 212t206 80q139 0 218 -86.5t83 -248.5l-117 -2q-15 237 -180 237q-77 0 -123.5 -49.5t-46.5 -138.5q0 -66 27 -130.5t70 -119t95 -109.5t104.5 -112.5t95.5 -117.5t70 -135t27 -155z" />
    <glyph glyph-name="scedilla" unicode="&#x15f;" horiz-adv-x="665" 
d="M623 238q0 -110 -65.5 -177.5t-178.5 -78.5l-35 -119q117 -44 117 -168q0 -83 -48.5 -127.5t-119.5 -44.5q-42 0 -88 16l2 88q35 -18 69 -18q36 0 59 23t23 65q0 93 -122 113l47 174q-108 15 -172.5 91t-71.5 201h113q7 -98 55.5 -151t130.5 -53q77 0 124.5 42t47.5 115
q0 46 -24.5 89t-63.5 78.5t-86 71.5t-94 73.5t-86 78t-63.5 93t-24.5 110.5q0 109 71.5 174.5t188.5 65.5q120 0 192.5 -70.5t79.5 -197.5h-108q-6 86 -49 132t-115 46q-68 0 -110 -39t-42 -105q0 -47 24.5 -90t64 -78t87.5 -69.5t95.5 -72t87 -77t64 -92.5t24.5 -112z" />
    <glyph glyph-name="Scaron" unicode="&#x160;" horiz-adv-x="753" 
d="M584 1876l-154 -287h-104l-154 287h102q78 -164 105 -236q41 109 104 236h101zM203 1182q0 -66 27 -130.5t70 -119t95 -109.5t104.5 -112.5t95.5 -117.5t70 -135t27 -155q0 -147 -83.5 -233t-227.5 -86q-146 0 -234 94t-92 268h121q4 -127 60 -194.5t145 -67.5t139.5 58
t50.5 153q0 70 -27 137.5t-70 124t-94.5 113t-103.5 114t-95 116.5t-70 131t-27 147q0 132 79 212t206 80q139 0 218 -86.5t83 -248.5l-117 -2q-15 237 -180 237q-77 0 -123.5 -49.5t-46.5 -138.5z" />
    <glyph glyph-name="scaron" unicode="&#x161;" horiz-adv-x="665" 
d="M541 1470l-154 -288h-104l-154 288h102q77 -161 105 -237q42 113 104 237h101zM176 829q0 -47 24.5 -90t64 -78t87.5 -69.5t95.5 -72t87 -77t64 -92.5t24.5 -112q0 -119 -77.5 -188.5t-207.5 -69.5q-132 0 -211 77.5t-88 218.5h113q7 -98 55.5 -151t130.5 -53
q77 0 124.5 42t47.5 115q0 46 -24.5 89t-63.5 78.5t-86 71.5t-94 73.5t-86 78t-63.5 93t-24.5 110.5q0 109 71.5 174.5t188.5 65.5q120 0 192.5 -70.5t79.5 -197.5h-108q-6 86 -49 132t-115 46q-68 0 -110 -39t-42 -105z" />
    <glyph glyph-name="uni0162" unicode="&#x162;" horiz-adv-x="700" 
d="M410 1348v-1348h-11l-41 -137q117 -44 117 -168q0 -83 -48.5 -127.5t-119.5 -44.5q-42 0 -88 16l2 88q34 -18 70 -18t59 23t23 65q0 93 -123 113l51 190h-8v1348h-248v106h610v-106h-245z" />
    <glyph glyph-name="uni0163" unicode="&#x163;" horiz-adv-x="413" 
d="M248 950v-950h-8l-41 -137q116 -44 116 -168q0 -83 -48.5 -127.5t-119.5 -44.5q-42 0 -88 16l2 88q35 -18 70 -18q36 0 59 23t23 65q0 93 -123 113l51 190h-8v950h-90v97h90v296h115v-296h131v-97h-131z" />
    <glyph glyph-name="Tcaron" unicode="&#x164;" horiz-adv-x="700" 
d="M557 1876l-154 -287h-104l-154 287h103q74 -155 104 -236q38 101 105 236h100zM45 1348v106h610v-106h-245v-1348h-117v1348h-248z" />
    <glyph glyph-name="tcaron" unicode="&#x165;" horiz-adv-x="374" 
d="M336 1221l63 350h119l-96 -350h-86zM133 1343h115v-296h131v-97h-131v-950h-115v950h-90v97h90v296z" />
    <glyph glyph-name="Tbar" unicode="&#x166;" horiz-adv-x="700" 
d="M655 1454v-106h-245v-537h157v-86h-157v-725h-117v725h-160v86h160v537h-248v106h610z" />
    <glyph glyph-name="tbar" unicode="&#x167;" horiz-adv-x="413" 
d="M248 539h133v-86h-133v-453h-115v453h-100v86h100v411h-90v97h90v296h115v-296h131v-97h-131v-411z" />
    <glyph glyph-name="Utilde" unicode="&#x168;" horiz-adv-x="921" 
d="M299 1657l-74 24q10 53 44 89t91 36q43 0 104.5 -35.5t90.5 -35.5q48 0 66 67l75 -26q-11 -56 -45 -90.5t-86 -34.5q-46 0 -107.5 35.5t-90.5 35.5q-49 0 -68 -65zM461 -20q-164 0 -257 106.5t-93 298.5v1069h114v-1071q0 -142 63.5 -219.5t172.5 -77.5t172 77t63 220
v1071h115v-1069q0 -192 -93 -298.5t-257 -106.5z" />
    <glyph glyph-name="utilde" unicode="&#x169;" 
d="M285 1315q-49 0 -68 -66l-74 25q10 53 44.5 89t91.5 36q43 0 104 -36t90 -36q48 0 66 68l75 -27q-11 -56 -45 -90.5t-86 -34.5q-46 0 -107.5 36t-90.5 36zM571 334v713h115v-1047h-104l-7 162q-61 -182 -239 -182q-114 0 -181 80t-67 231v756h115v-744q0 -109 48.5 -167
t129.5 -58q90 0 140 67.5t50 188.5z" />
    <glyph glyph-name="Umacron" unicode="&#x16a;" horiz-adv-x="921" 
d="M262 1653v90h395v-90h-395zM461 -20q-164 0 -257 106.5t-93 298.5v1069h114v-1071q0 -142 63.5 -219.5t172.5 -77.5t172 77t63 220v1071h115v-1069q0 -192 -93 -298.5t-257 -106.5z" />
    <glyph glyph-name="umacron" unicode="&#x16b;" 
d="M182 1335h396v-90h-396v90zM571 334v713h115v-1047h-104l-7 162q-61 -182 -239 -182q-114 0 -181 80t-67 231v756h115v-744q0 -109 48.5 -167t129.5 -58q90 0 140 67.5t50 188.5z" />
    <glyph glyph-name="Uring" unicode="&#x16e;" horiz-adv-x="921" 
d="M461 1585q-67 0 -114.5 47t-47.5 113t47.5 113t114.5 47t114.5 -47t47.5 -113t-47.5 -113t-114.5 -47zM461 1651q41 0 68.5 27t27.5 67t-27.5 67t-68.5 27q-40 0 -67 -27t-27 -67t27 -67t67 -27zM461 -20q-164 0 -257 106.5t-93 298.5v1069h114v-1071q0 -142 63.5 -219.5
t172.5 -77.5t172 77t63 220v1071h115v-1069q0 -192 -93 -298.5t-257 -106.5z" />
    <glyph glyph-name="uring" unicode="&#x16f;" 
d="M379 1178q-68 0 -115 46t-47 113q0 66 47.5 113t114.5 47t114.5 -47t47.5 -113q0 -67 -47 -113t-115 -46zM379 1432q-40 0 -67 -27.5t-27 -67.5t27 -67t67 -27q41 0 68.5 27t27.5 67t-27.5 67.5t-68.5 27.5zM571 334v713h115v-1047h-104l-7 162q-61 -182 -239 -182
q-114 0 -181 80t-67 231v756h115v-744q0 -109 48.5 -167t129.5 -58q90 0 140 67.5t50 188.5z" />
    <glyph glyph-name="Uhungarumlaut" unicode="&#x170;" horiz-adv-x="921" 
d="M420 1585h-84l104 287h113zM602 1585h-84l105 287h112zM461 -20q-164 0 -257 106.5t-93 298.5v1069h114v-1071q0 -142 63.5 -219.5t172.5 -77.5t172 77t63 220v1071h115v-1069q0 -192 -93 -298.5t-257 -106.5z" />
    <glyph glyph-name="uhungarumlaut" unicode="&#x171;" 
d="M360 1464h113l-133 -284h-84zM655 1464l-133 -284h-84l105 284h112zM571 334v713h115v-1047h-104l-7 162q-61 -182 -239 -182q-114 0 -181 80t-67 231v756h115v-744q0 -109 48.5 -167t129.5 -58q90 0 140 67.5t50 188.5z" />
    <glyph glyph-name="Uogonek" unicode="&#x172;" horiz-adv-x="921" 
d="M696 383v1071h115v-1069q0 -172 -75 -275.5t-210 -125.5q-86 -104 -86 -181q0 -43 27 -68.5t68 -25.5q34 0 73 27v-80q-42 -27 -94 -27q-67 0 -114.5 39.5t-47.5 114.5q0 84 82 197q-152 9 -237.5 114.5t-85.5 290.5v1069h114v-1071q0 -142 63.5 -219.5t172.5 -77.5
t172 77t63 220z" />
    <glyph glyph-name="uogonek" unicode="&#x173;" 
d="M670 -291q34 0 73 27v-80q-42 -27 -94 -27q-67 0 -114.5 39.5t-47.5 114.5q0 86 97 217h-2l-7 162q-61 -182 -239 -182q-114 0 -181 80t-67 231v756h115v-744q0 -109 48.5 -167t129.5 -58q90 0 140 67.5t50 188.5v713h115v-1047h-10q-44 -48 -72.5 -102t-28.5 -95
q0 -43 27 -68.5t68 -25.5z" />
    <glyph glyph-name="Wcircumflex" unicode="&#x174;" horiz-adv-x="1196" 
d="M598 1815q-33 -83 -104 -226h-103l154 287h104l154 -287h-103q-56 113 -102 226zM1036 1454h115l-238 -1454h-141q-103 746 -133 978t-39 347q-22 -190 -180 -1325h-137l-238 1454h115q171 -1143 190 -1327q14 159 182 1327h134q105 -718 137.5 -955t42.5 -370
q21 188 190 1325z" />
    <glyph glyph-name="wcircumflex" unicode="&#x175;" horiz-adv-x="1081" 
d="M541 1407q-34 -85 -105 -223h-102l153 286h105l153 -286h-102q-63 125 -102 223zM926 1047h106l-209 -1047h-114q-103 522 -129.5 667t-36.5 255q-17 -142 -45 -290.5t-127 -631.5h-113l-209 1047h111q93 -477 121 -632t43 -282q13 127 41 280.5t124 633.5h109
q94 -478 122 -636t42 -274q18 148 46 304.5t118 605.5z" />
    <glyph glyph-name="Ycircumflex" unicode="&#x176;" horiz-adv-x="804" 
d="M401 1815q-33 -83 -104 -226h-102l153 287h105l153 -287h-102q-62 123 -103 226zM645 1454h123l-307 -842v-612h-117v612l-307 842h125q132 -373 179 -522.5t62 -243.5q18 96 66 249.5t176 516.5z" />
    <glyph glyph-name="ycircumflex" unicode="&#x177;" horiz-adv-x="727" 
d="M362 1407q-38 -94 -104 -223h-102l153 286h105l153 -286h-102q-68 136 -103 223zM567 1047h117l-371 -1518h-110l112 467l-272 1051h121q162 -665 207 -930q38 270 196 930z" />
    <glyph glyph-name="Ydieresis" unicode="&#x178;" horiz-adv-x="804" 
d="M281 1655q-27 0 -46.5 19.5t-19.5 47.5q0 29 19.5 48.5t46.5 19.5q29 0 48 -19.5t19 -48.5q0 -28 -19 -47.5t-48 -19.5zM520 1655q-28 0 -47.5 19.5t-19.5 47.5q0 29 19.5 48.5t47.5 19.5q27 0 46.5 -19.5t19.5 -48.5q0 -28 -20 -47.5t-46 -19.5zM645 1454h123l-307 -842
v-612h-117v612l-307 842h125q132 -373 179 -522.5t62 -243.5q18 96 66 249.5t176 516.5z" />
    <glyph glyph-name="Zacute" unicode="&#x179;" horiz-adv-x="794" 
d="M461 1872h117l-138 -285h-90zM66 1454h679l-532 -1350h510v-104h-674l537 1350h-520v104z" />
    <glyph glyph-name="zacute" unicode="&#x17a;" horiz-adv-x="593" 
d="M362 1464h117l-137 -284h-90zM45 1047h514l-369 -947h361v-100h-516l371 946h-361v101z" />
    <glyph glyph-name="Zdotaccent" unicode="&#x17b;" horiz-adv-x="794" 
d="M397 1651q-31 0 -53 21.5t-22 53.5t22 53t53 21t53.5 -21t22.5 -53t-22.5 -53.5t-53.5 -21.5zM66 1454h679l-532 -1350h510v-104h-674l537 1350h-520v104z" />
    <glyph glyph-name="zdotaccent" unicode="&#x17c;" horiz-adv-x="593" 
d="M297 1243q-31 0 -53.5 22t-22.5 54t22.5 53t53.5 21t53.5 -21t22.5 -53t-22.5 -54t-53.5 -22zM45 1047h514l-369 -947h361v-100h-516l371 946h-361v101z" />
    <glyph glyph-name="Zcaron" unicode="&#x17d;" horiz-adv-x="794" 
d="M604 1876l-153 -287h-105l-153 287h102q74 -155 104 -236q38 101 105 236h100zM66 1454h679l-532 -1350h510v-104h-674l537 1350h-520v104z" />
    <glyph glyph-name="zcaron" unicode="&#x17e;" horiz-adv-x="593" 
d="M504 1470l-154 -288h-104l-154 288h103q72 -151 104 -237q42 113 104 237h101zM45 1047h514l-369 -947h361v-100h-516l371 946h-361v101z" />
    <glyph glyph-name="uni018F" unicode="&#x18f;" horiz-adv-x="950" 
d="M465 1473q193 0 303.5 -198.5t110.5 -549.5q0 -349 -109.5 -546t-300.5 -197q-197 0 -303 206.5t-105 587.5h703q-7 274 -87.5 431t-211.5 157q-88 0 -158 -88t-104 -240l-109 25q41 192 141 302t230 110zM469 90q130 0 209 156t86 432h-584q10 -284 86 -436t203 -152z
" />
    <glyph glyph-name="florin" unicode="&#x192;" horiz-adv-x="622" 
d="M543 1450v-96q-176 66 -176 -127v-201h172v-94h-172v-709q0 -141 -85 -199.5t-206 -15.5v96q80 -33 128 -1t48 133v696h-152v94h152v215q0 72 25 123.5t65.5 75.5t93 28.5t107.5 -18.5z" />
    <glyph glyph-name="uni019D" unicode="&#x19d;" horiz-adv-x="958" 
d="M723 1454h111v-1454h-107l-512 1235q12 -123 15 -352.5t3 -882.5v-471h-110v1925h108l512 -1239q-13 124 -16.5 353t-3.5 886z" />
    <glyph glyph-name="uni0218" unicode="&#x218;" horiz-adv-x="753" 
d="M381 -16q-146 0 -234 94t-92 268h121q4 -127 60 -194.5t145 -67.5t139.5 58t50.5 153q0 70 -27 137.5t-70 124t-94.5 113t-103.5 114t-95 116.5t-70 131t-27 147q0 132 79 212t206 80q139 0 218 -86.5t83 -248.5l-117 -2q-15 237 -180 237q-77 0 -123.5 -49.5
t-46.5 -138.5q0 -66 27 -130.5t70 -119t95 -109.5t104.5 -112.5t95.5 -117.5t70 -135t27 -155q0 -147 -83.5 -233t-227.5 -86zM264 -471l58 330h120l-90 -330h-88z" />
    <glyph glyph-name="uni0219" unicode="&#x219;" horiz-adv-x="665" 
d="M338 -20q-132 0 -211 77.5t-88 218.5h113q7 -98 55.5 -151t130.5 -53q77 0 124.5 42t47.5 115q0 46 -24.5 89t-63.5 78.5t-86 71.5t-94 73.5t-86 78t-63.5 93t-24.5 110.5q0 109 71.5 174.5t188.5 65.5q120 0 192.5 -70.5t79.5 -197.5h-108q-6 86 -49 132t-115 46
q-68 0 -110 -39t-42 -105q0 -47 24.5 -90t64 -78t87.5 -69.5t95.5 -72t87 -77t64 -92.5t24.5 -112q0 -119 -77.5 -188.5t-207.5 -69.5zM221 -471l58 330h120l-90 -330h-88z" />
    <glyph glyph-name="uni021A" unicode="&#x21a;" horiz-adv-x="700" 
d="M410 0h-117v1348h-248v106h610v-106h-245v-1348zM236 -471l57 330h121l-90 -330h-88z" />
    <glyph glyph-name="uni021B" unicode="&#x21b;" horiz-adv-x="413" 
d="M248 1343v-296h131v-97h-131v-950h-115v950h-90v97h90v296h115zM164 -471h-88l57 330h121z" />
    <glyph glyph-name="uni0237" unicode="&#x237;" horiz-adv-x="307" 
d="M96 1047h115v-1518h-115v1518z" />
    <glyph glyph-name="uni0259" unicode="&#x259;" 
d="M381 1067q159 0 250.5 -145t91.5 -402q0 -253 -89 -396.5t-243 -143.5q-161 0 -248.5 147t-83.5 426h551q-3 195 -64.5 305.5t-164.5 110.5q-75 0 -127.5 -59.5t-75.5 -170.5l-100 17q30 144 109.5 227.5t193.5 83.5zM391 76q97 0 156.5 104.5t62.5 286.5h-438
q2 -183 60 -287t159 -104z" />
    <glyph glyph-name="uni0272" unicode="&#x272;" 
d="M446 1067q115 0 181.5 -78t66.5 -233v-756h-114v743q0 113 -48.5 169.5t-130.5 56.5q-89 0 -139.5 -68t-50.5 -188v-1184h-115v1518h105l6 -162q57 182 239 182z" />
    <glyph glyph-name="circumflex" unicode="&#x2c6;" horiz-adv-x="477" 
d="M291 1470l153 -286h-102q-63 125 -102 223q-34 -85 -105 -223h-102l153 286h105z" />
    <glyph glyph-name="caron" unicode="&#x2c7;" horiz-adv-x="477" 
d="M344 1470h100l-153 -288h-105l-153 288h102q77 -161 105 -237q42 113 104 237z" />
    <glyph glyph-name="breve" unicode="&#x2d8;" horiz-adv-x="524" 
d="M262 1182q-88 0 -141.5 67t-52.5 193h86q-1 -87 27 -134.5t81 -47.5q54 0 82.5 47.5t26.5 134.5h88q1 -125 -54 -192.5t-143 -67.5z" />
    <glyph glyph-name="dotaccent" unicode="&#x2d9;" horiz-adv-x="315" 
d="M158 1243q-31 0 -53.5 22t-22.5 54t22.5 53t53.5 21t53 -21t22 -53t-22 -54t-53 -22z" />
    <glyph glyph-name="ring" unicode="&#x2da;" horiz-adv-x="456" 
d="M227 1178q-68 0 -114.5 46t-46.5 113q0 66 47 113t114 47t114.5 -47t47.5 -113q0 -67 -47 -113t-115 -46zM227 1243q41 0 69 27t28 67t-28 67.5t-69 27.5q-40 0 -67 -27.5t-27 -67.5t27 -67t67 -27z" />
    <glyph glyph-name="ogonek" unicode="&#x2db;" horiz-adv-x="360" 
d="M322 -264v-80q-42 -27 -95 -27q-67 0 -114 39.5t-47 114.5q0 88 96 217h92q-43 -48 -71.5 -102t-28.5 -95q0 -43 26.5 -68.5t67.5 -25.5q35 0 74 27z" />
    <glyph glyph-name="tilde" unicode="&#x2dc;" horiz-adv-x="614" 
d="M145 1249l-73 25q10 53 44 89t91 36q43 0 104 -36t90 -36q48 0 66 68l76 -27q-11 -56 -45 -90.5t-86 -34.5q-46 0 -108 36t-91 36q-49 0 -68 -66z" />
    <glyph glyph-name="hungarumlaut" unicode="&#x2dd;" horiz-adv-x="483" 
d="M129 1180h-84l105 284h112zM311 1180h-84l105 284h112z" />
    <glyph glyph-name="gravecomb" unicode="&#x300;" horiz-adv-x="0" 
d="M-152 1464l107 -284h-90l-137 284h120z" />
    <glyph glyph-name="acutecomb" unicode="&#x301;" horiz-adv-x="0" 
d="M-174 1180h-90l110 284h117z" />
    <glyph glyph-name="uni0302" unicode="&#x302;" horiz-adv-x="0" 
d="M-186 1470l153 -286h-102q-68 136 -103 223q-38 -94 -104 -223h-102l153 286h105z" />
    <glyph glyph-name="tildecomb" unicode="&#x303;" horiz-adv-x="0" 
d="M-469 1249l-74 25q10 53 44 89t91 36q43 0 104.5 -36t90.5 -36q48 0 66 68l75 -27q-11 -56 -45 -90.5t-86 -34.5q-46 0 -107.5 36t-90.5 36q-49 0 -68 -66z" />
    <glyph glyph-name="uni0304" unicode="&#x304;" horiz-adv-x="0" 
d="M-492 1245v90h396v-90h-396z" />
    <glyph glyph-name="uni0306" unicode="&#x306;" horiz-adv-x="0" 
d="M-262 1182q-88 0 -142 67t-53 193h86q-1 -87 27.5 -134.5t81.5 -47.5q54 0 82 47.5t26 134.5h88q1 -125 -53.5 -192.5t-142.5 -67.5z" />
    <glyph glyph-name="uni0307" unicode="&#x307;" horiz-adv-x="0" 
d="M-158 1243q-31 0 -53 22t-22 54t22 53t53 21t53.5 -21t22.5 -53t-22.5 -54t-53.5 -22z" />
    <glyph glyph-name="uni0308" unicode="&#x308;" horiz-adv-x="0" 
d="M-389 1245q-26 0 -46 20t-20 48q0 29 19.5 48t46.5 19q29 0 48 -19t19 -48q0 -28 -19 -48t-48 -20zM-150 1245q-28 0 -47.5 20t-19.5 48q0 29 19.5 48t47.5 19q27 0 46.5 -19t19.5 -48q0 -28 -20 -48t-46 -20z" />
    <glyph glyph-name="uni030A" unicode="&#x30a;" horiz-adv-x="0" 
d="M-229 1178q-68 0 -115 46t-47 113q0 66 47.5 113t114.5 47t114 -47t47 -113q0 -67 -46.5 -113t-114.5 -46zM-229 1243q41 0 68.5 27t27.5 67t-27.5 67.5t-68.5 27.5q-40 0 -67.5 -27.5t-27.5 -67.5t27.5 -67t67.5 -27z" />
    <glyph glyph-name="uni030B" unicode="&#x30b;" horiz-adv-x="0" 
d="M-354 1180h-84l104 284h113zM-172 1180h-84l104 284h113z" />
    <glyph glyph-name="uni030C" unicode="&#x30c;" horiz-adv-x="0" 
d="M-133 1470h100l-153 -288h-105l-153 288h102q72 -151 104 -237q39 105 105 237z" />
    <glyph glyph-name="uni0312" unicode="&#x312;" horiz-adv-x="0" 
d="M-68 1968l-61 -313h-123l94 313h90z" />
    <glyph glyph-name="uni0326" unicode="&#x326;" horiz-adv-x="0" 
d="M-238 -471l58 330h121l-91 -330h-88z" />
    <glyph glyph-name="uni0327" unicode="&#x327;" horiz-adv-x="0" 
d="M-123 0l-41 -137q117 -44 117 -168q0 -83 -48.5 -127.5t-119.5 -44.5q-42 0 -88 16l2 88q35 -18 70 -18q36 0 58.5 23t22.5 65q0 93 -122 113l57 215z" />
    <glyph glyph-name="uni0328" unicode="&#x328;" horiz-adv-x="0" 
d="M-39 -264v-80q-42 -27 -94 -27q-67 0 -114.5 39.5t-47.5 114.5q0 88 96 217h93q-44 -48 -72.5 -102t-28.5 -95q0 -43 26.5 -68.5t67.5 -25.5q35 0 74 27z" />
    <glyph glyph-name="uni0394" unicode="&#x394;" horiz-adv-x="815" 
d="M479 1454l289 -1350v-104h-721v100l291 1354h141zM408 1311l-252 -1207h501z" />
    <glyph glyph-name="uni03A9" unicode="&#x3a9;" horiz-adv-x="995" 
d="M698 104l220 -2v-102h-375v94q123 62 191.5 227.5t68.5 401.5q0 297 -83 470t-222 173t-222 -173t-83 -470q0 -237 69 -402.5t193 -226.5v-94h-377v102l219 2q-102 89 -159.5 253t-57.5 374q0 347 112 545.5t306 198.5t305.5 -198.5t111.5 -545.5q0 -209 -56.5 -371.5
t-160.5 -255.5z" />
    <glyph glyph-name="pi" unicode="&#x3c0;" horiz-adv-x="731" 
d="M631 96q41 0 74 33v-98q-53 -39 -107 -39q-64 0 -104.5 46.5t-40.5 131.5v770h-217v-940h-109v940h-113v107h662v-107h-113v-754q0 -43 18 -66.5t50 -23.5z" />
    <glyph glyph-name="uni0400" unicode="&#x400;" horiz-adv-x="712" 
d="M344 1872l107 -287h-91l-137 287h121zM662 1454v-106h-422v-551h340v-105h-340v-586h422v-106h-539v1454h539z" />
    <glyph glyph-name="uni0401" unicode="&#x401;" horiz-adv-x="712" 
d="M283 1655q-27 0 -46.5 19.5t-19.5 47.5q0 29 19.5 48.5t46.5 19.5q29 0 48 -19.5t19 -48.5q0 -28 -19 -47.5t-48 -19.5zM522 1655q-28 0 -47.5 19.5t-19.5 47.5q0 29 19.5 48.5t47.5 19.5q27 0 46.5 -19.5t19.5 -48.5q0 -28 -20 -47.5t-46 -19.5zM662 1454v-106h-422
v-551h340v-105h-340v-586h422v-106h-539v1454h539z" />
    <glyph glyph-name="uni0402" unicode="&#x402;" horiz-adv-x="983" 
d="M573 866q347 0 347 -542q0 -135 -20.5 -242t-63 -187.5t-113 -123t-164.5 -41.5v104q124 0 184 128.5t60 354.5q0 445 -246 445q-79 0 -149 -47v-715h-117v1348h-246v106h608v-106h-245v-531q73 49 165 49z" />
    <glyph glyph-name="uni0403" unicode="&#x403;" horiz-adv-x="657" 
d="M393 1872h117l-137 -285h-90zM623 1454v-106h-383v-1348h-117v1454h500z" />
    <glyph glyph-name="uni0404" unicode="&#x404;" horiz-adv-x="796" 
d="M549 1366q-109 0 -188 -77.5t-120.5 -208t-47.5 -302.5h479v-102h-479q6 -172 47.5 -302.5t120.5 -208t188 -77.5q56 0 105.5 18t80.5 46v-111q-72 -55 -198 -55q-144 0 -249.5 97t-158.5 263t-53 381t53 381t158.5 263t249.5 97q126 0 198 -55v-110q-30 28 -80 45.5
t-106 17.5z" />
    <glyph glyph-name="uni0405" unicode="&#x405;" horiz-adv-x="753" 
d="M381 -16q-146 0 -234 94t-92 268h121q4 -127 60 -194.5t145 -67.5t139.5 58t50.5 153q0 70 -27 137.5t-70 124t-94.5 113t-103.5 114t-95 116.5t-70 131t-27 147q0 132 79 212t206 80q139 0 218 -86.5t83 -248.5l-117 -2q-15 237 -180 237q-77 0 -123.5 -49.5
t-46.5 -138.5q0 -66 27 -130.5t70 -119t95 -109.5t104.5 -112.5t95.5 -117.5t70 -135t27 -155q0 -147 -83.5 -233t-227.5 -86z" />
    <glyph glyph-name="uni0406" unicode="&#x406;" horiz-adv-x="362" 
d="M240 0h-117v1454h117v-1454z" />
    <glyph glyph-name="uni0407" unicode="&#x407;" horiz-adv-x="362" 
d="M61 1655q-26 0 -45.5 19.5t-19.5 47.5q0 29 19 48.5t46 19.5q29 0 48.5 -19.5t19.5 -48.5q0 -28 -19.5 -47.5t-48.5 -19.5zM301 1655q-28 0 -48 19.5t-20 47.5q0 29 20 48.5t48 19.5q27 0 46.5 -19.5t19.5 -48.5q0 -28 -19.5 -47.5t-46.5 -19.5zM240 0h-117v1454h117
v-1454z" />
    <glyph glyph-name="uni0408" unicode="&#x408;" horiz-adv-x="565" 
d="M35 70l45 92q50 -63 125 -66q131 0 131 187v1171h117v-1182q0 -146 -66 -217t-166 -71q-64 0 -113.5 25.5t-72.5 60.5z" />
    <glyph glyph-name="uni0409" unicode="&#x409;" horiz-adv-x="1349" 
d="M784 920h99q191 0 301 -121.5t110 -339.5q0 -217 -110 -338t-301 -121h-215v1348h-392v-1051q0 -148 -67 -225t-174 -72v104q127 6 127 199v1151h622v-534zM784 106h99q138 0 217.5 94t79.5 261t-79.5 259.5t-217.5 92.5h-99v-707z" />
    <glyph glyph-name="uni040A" unicode="&#x40a;" horiz-adv-x="1376" 
d="M811 920h98q191 0 301.5 -121.5t110.5 -339.5q0 -216 -110.5 -337.5t-301.5 -121.5h-215v690h-454v-690h-117v1454h117v-661h454v661h117v-534zM811 106h98q138 0 217.5 94t79.5 261t-79.5 259.5t-217.5 92.5h-98v-707z" />
    <glyph glyph-name="uni040B" unicode="&#x40b;" horiz-adv-x="972" 
d="M608 866q291 0 291 -344v-522h-115v520q0 242 -206 242q-106 0 -181 -60v-702h-116v1348h-246v106h608v-106h-246v-547q84 65 211 65z" />
    <glyph glyph-name="uni040C" unicode="&#x40c;" horiz-adv-x="829" 
d="M485 1872h117l-137 -285h-90zM653 1452l129 2l-430 -698l428 -756h-133l-414 741q9 -159 9 -741h-119v1454h119q0 -526 -9 -682z" />
    <glyph glyph-name="uni040D" unicode="&#x40d;" horiz-adv-x="958" 
d="M420 1872l106 -287h-90l-137 287h121zM727 1454h109v-1454h-113q0 1102 12 1266q-70 -183 -248.5 -628t-255.5 -638h-108v1454h113q0 -895 -15 -1274q67 172 243.5 614t262.5 660z" />
    <glyph glyph-name="uni040F" unicode="&#x40f;" horiz-adv-x="931" 
d="M694 1454h115v-1454h-293v-254h-106v254h-287v1454h117v-1348h454v1348z" />
    <glyph glyph-name="uni0410" unicode="&#x410;" horiz-adv-x="825" 
d="M780 0h-125q-21 107 -80 416h-329q-13 -64 -39.5 -204t-40.5 -212h-121l295 1454h141zM264 514h293q-135 706 -147 842q-11 -125 -146 -842z" />
    <glyph glyph-name="uni0411" unicode="&#x411;" horiz-adv-x="800" 
d="M240 868h98q191 0 299 -114t108 -320q0 -204 -109 -319t-298 -115h-215v1454h549v-106h-432v-480zM240 106h98q135 0 213 87.5t78 244.5q0 155 -78 240.5t-213 85.5h-98v-658z" />
    <glyph glyph-name="uni0412" unicode="&#x412;" horiz-adv-x="841" 
d="M356 0h-233v1454h221q184 0 284.5 -92t100.5 -258q0 -129 -66.5 -219t-175.5 -107q134 -20 210.5 -121.5t76.5 -257.5q0 -185 -111 -292t-307 -107zM240 1352v-541h104q129 0 199.5 71.5t70.5 200.5q0 128 -70.5 198.5t-199.5 70.5h-104zM240 719v-617h116
q142 0 221.5 80t79.5 219q0 150 -78 234t-217 84h-122z" />
    <glyph glyph-name="uni0413" unicode="&#x413;" horiz-adv-x="657" 
d="M623 1454v-106h-383v-1348h-117v1454h500z" />
    <glyph glyph-name="uni0414" unicode="&#x414;" horiz-adv-x="964" 
d="M795 1454v-1348h112v-360h-108v254h-660v-254h-106v360h84q14 0 27 18t23.5 64t10.5 113l6 1153h611zM242 106h436v1242h-383l-4 -1039q0 -62 -10 -110t-20 -68t-19 -25z" />
    <glyph glyph-name="uni0415" unicode="&#x415;" horiz-adv-x="712" 
d="M662 1454v-106h-422v-551h340v-105h-340v-586h422v-106h-539v1454h539z" />
    <glyph glyph-name="uni0416" unicode="&#x416;" horiz-adv-x="1220" 
d="M1063 1454h121l-416 -698l414 -756h-123l-400 739q9 -94 9 -247v-492h-115v492q0 161 6 243l-397 -735h-123l414 756l-418 698h123l401 -676q-6 95 -6 236v440h115v-440q0 -146 -9 -240z" />
    <glyph glyph-name="uni0417" unicode="&#x417;" horiz-adv-x="821" 
d="M545 760q98 -32 153.5 -127.5t55.5 -233.5q0 -192 -91 -305.5t-251 -113.5q-166 0 -260.5 116t-94.5 320h113q0 -157 65.5 -244.5t178.5 -87.5q105 0 163 83.5t58 233.5q0 142 -67.5 219.5t-178.5 77.5h-70v103h72q100 0 156.5 78t56.5 213q0 133 -53.5 205.5
t-147.5 72.5q-102 0 -159.5 -82.5t-57.5 -232.5h-114q0 196 89.5 308t246.5 112q145 0 229 -99t84 -272q0 -121 -45 -212.5t-131 -131.5z" />
    <glyph glyph-name="uni0418" unicode="&#x418;" horiz-adv-x="958" 
d="M727 1454h109v-1454h-113q0 1102 12 1266q-70 -183 -248.5 -628t-255.5 -638h-108v1454h113q0 -895 -15 -1274q67 172 243.5 614t262.5 660z" />
    <glyph glyph-name="uni0419" unicode="&#x419;" horiz-adv-x="958" 
d="M481 1589q-89 0 -143 67t-53 193h88q-1 -89 26.5 -135.5t81.5 -46.5t82.5 47.5t26.5 134.5h86q3 -126 -51.5 -193t-143.5 -67zM727 1454h109v-1454h-113q0 1102 12 1266q-70 -183 -248.5 -628t-255.5 -638h-108v1454h113q0 -895 -15 -1274q67 172 243.5 614t262.5 660z
" />
    <glyph glyph-name="uni041A" unicode="&#x41a;" horiz-adv-x="829" 
d="M653 1452l129 2l-430 -698l428 -756h-133l-414 741q9 -159 9 -741h-119v1454h119q0 -526 -9 -682z" />
    <glyph glyph-name="uni041B" unicode="&#x41b;" horiz-adv-x="907" 
d="M35 0v104q127 6 127 199v1151h622v-1454h-116v1348h-392v-1051q0 -148 -67 -225t-174 -72z" />
    <glyph glyph-name="uni041C" unicode="&#x41c;" horiz-adv-x="1130" 
d="M565 586l332 868h111v-1454h-113q0 707 3 927t15 320l-348 -909l-348 909q11 -101 13.5 -304t2.5 -943h-110v1454h110z" />
    <glyph glyph-name="uni041D" unicode="&#x41d;" horiz-adv-x="933" 
d="M696 793v661h115v-1454h-115v690h-456v-690h-117v1454h117v-661h456z" />
    <glyph glyph-name="uni041E" unicode="&#x41e;" horiz-adv-x="987" 
d="M494 -18q-193 0 -305.5 199t-112.5 546t112.5 546.5t305.5 199.5q194 0 305.5 -199t111.5 -547t-111.5 -546.5t-305.5 -198.5zM494 90q139 0 221 171t82 466t-82 467t-221 172q-137 0 -219 -172t-82 -467q0 -294 82 -465.5t219 -171.5z" />
    <glyph glyph-name="uni041F" unicode="&#x41f;" horiz-adv-x="931" 
d="M240 0h-117v1454h686v-1454h-115v1348h-454v-1348z" />
    <glyph glyph-name="uni0420" unicode="&#x420;" horiz-adv-x="806" 
d="M123 1454h215q191 0 301.5 -121.5t110.5 -337.5q0 -218 -110.5 -339t-301.5 -121h-98v-535h-117v1454zM240 641h98q138 0 217.5 92.5t79.5 259.5t-79.5 261t-217.5 94h-98v-707z" />
    <glyph glyph-name="uni0421" unicode="&#x421;" horiz-adv-x="796" 
d="M537 -14q-144 0 -249.5 97t-158.5 263t-53 381t53 381t158.5 263t249.5 97q126 0 198 -55v-110q-30 28 -80 45.5t-106 17.5q-113 0 -195 -84.5t-121.5 -227t-39.5 -327.5t39.5 -327.5t121.5 -227t195 -84.5q56 0 105.5 18t80.5 46v-111q-72 -55 -198 -55z" />
    <glyph glyph-name="uni0422" unicode="&#x422;" horiz-adv-x="700" 
d="M410 0h-117v1348h-248v106h610v-106h-245v-1348z" />
    <glyph glyph-name="uni0423" unicode="&#x423;" horiz-adv-x="800" 
d="M645 1454h121l-430 -1454h-115l131 449l-317 1005h125q65 -235 124.5 -443.5t83.5 -293.5t40 -154q15 66 38 151t79 292t120 448z" />
    <glyph glyph-name="uni0424" unicode="&#x424;" horiz-adv-x="964" 
d="M944 743q0 -247 -105.5 -391t-297.5 -151v-224h-117v224q-192 9 -298 153.5t-106 388.5t106 388t298 153v195h117v-195q192 -7 297.5 -151.5t105.5 -389.5zM133 743q0 -127 34 -225.5t100.5 -155t156.5 -57.5v875q-137 -1 -214 -119t-77 -318zM541 1180v-875
q137 3 213.5 120t76.5 318q0 197 -77 315.5t-213 121.5z" />
    <glyph glyph-name="uni0425" unicode="&#x425;" horiz-adv-x="843" 
d="M672 1454h127l-289 -723l289 -731h-127q-155 389 -197 501t-55 177q-14 -69 -59.5 -194.5t-188.5 -483.5h-129l291 729l-291 725h129q221 -549 250 -663q13 56 59.5 180t190.5 483z" />
    <glyph glyph-name="uni0426" unicode="&#x426;" horiz-adv-x="976" 
d="M809 1454v-1348h111v-360h-109v254h-688v1454h117v-1348h454v1348h115z" />
    <glyph glyph-name="uni0427" unicode="&#x427;" horiz-adv-x="837" 
d="M600 741v713h119v-1454h-119v637q-79 -49 -188 -49q-164 0 -252 87.5t-88 262.5v516h116v-512q0 -129 59.5 -189.5t176.5 -60.5q96 0 176 49z" />
    <glyph glyph-name="uni0428" unicode="&#x428;" horiz-adv-x="1310" 
d="M713 106h358v1348h117v-1454h-1065v1454h117v-1348h358v1348h115v-1348z" />
    <glyph glyph-name="uni0429" unicode="&#x429;" horiz-adv-x="1357" 
d="M1188 1454v-1348h110v-360h-108v254h-1067v1454h117v-1348h358v1348h115v-1348h358v1348h117z" />
    <glyph glyph-name="uni042A" unicode="&#x42a;" horiz-adv-x="804" 
d="M242 920h98q192 0 302 -121.5t110 -339.5q0 -217 -110 -338t-302 -121h-215v1350h-125v104h242v-534zM242 106h98q138 0 217.5 94t79.5 261t-79.5 259.5t-217.5 92.5h-98v-707z" />
    <glyph glyph-name="uni042B" unicode="&#x42b;" horiz-adv-x="1167" 
d="M240 920h98q191 0 301.5 -121.5t110.5 -339.5q0 -216 -110.5 -337.5t-301.5 -121.5h-215v1454h117v-534zM928 0v1454h116v-1454h-116zM240 106h98q138 0 217.5 94t79.5 261t-79.5 259.5t-217.5 92.5h-98v-707z" />
    <glyph glyph-name="uni042C" unicode="&#x42c;" horiz-adv-x="804" 
d="M240 920h98q191 0 301.5 -121.5t110.5 -339.5q0 -216 -110.5 -337.5t-301.5 -121.5h-215v1454h117v-534zM240 106h98q138 0 217.5 94t79.5 261t-79.5 259.5t-217.5 92.5h-98v-707z" />
    <glyph glyph-name="uni042D" unicode="&#x42d;" horiz-adv-x="796" 
d="M260 1468q144 0 249.5 -97t158.5 -263t53 -381t-53 -381t-158.5 -263t-249.5 -97q-127 0 -199 55v111q30 -28 80.5 -46t106.5 -18q109 0 188 77.5t120.5 208t47.5 302.5h-479v102h479q-6 172 -47.5 302.5t-120.5 208t-188 77.5q-56 0 -106 -17.5t-81 -45.5v110
q72 55 199 55z" />
    <glyph glyph-name="uni042E" unicode="&#x42e;" horiz-adv-x="1284" 
d="M799 1473q186 0 292.5 -198.5t106.5 -547.5q0 -348 -106.5 -546.5t-292.5 -198.5q-180 0 -286 188.5t-112 521.5h-161v-692h-117v1454h117v-663h161q10 319 116.5 500.5t281.5 181.5zM799 90q130 0 207 171t77 466t-77 466t-207 171t-206.5 -171t-76.5 -466t76.5 -466
t206.5 -171z" />
    <glyph glyph-name="uni042F" unicode="&#x42f;" horiz-adv-x="796" 
d="M453 1454h219v-1454h-115q0 580 4 686l-371 -686h-131q186 341 268.5 481t121.5 183h-23q-166 0 -266.5 106t-100.5 283q0 185 105 293t289 108zM174 1042q0 -137 77 -219t212 -82h94v607h-94q-135 0 -212 -82.5t-77 -223.5z" />
    <glyph glyph-name="uni0430" unicode="&#x430;" horiz-adv-x="849" 
d="M641 813l8 234h105v-1047h-115v231q-35 -120 -104.5 -185.5t-163.5 -65.5q-146 0 -229 145.5t-83 402.5q0 253 84.5 395t233.5 142q92 0 162.5 -68t101.5 -184zM408 84q108 0 169.5 117t61.5 323t-61.5 322.5t-169.5 116.5t-171 -116t-63 -323t63 -323.5t171 -116.5z" />
    <glyph glyph-name="uni0431" unicode="&#x431;" horiz-adv-x="802" 
d="M438 1038q144 0 228 -140t84 -386q0 -250 -90 -391t-248 -141q-155 0 -246.5 146t-91.5 413v170q0 127 10 225.5t32 173t51 128t74 94.5t93.5 68.5t116.5 53.5l223 86v-102l-199 -76q-61 -26 -101 -51t-78.5 -67t-61 -99t-37 -142.5t-17.5 -201.5q33 119 101 179t157 60z
M414 86q103 0 164 114t61 314q0 197 -61 311.5t-164 114.5q-105 0 -166.5 -114.5t-61.5 -311.5q0 -200 61.5 -314t166.5 -114z" />
    <glyph glyph-name="uni0432" unicode="&#x432;" horiz-adv-x="731" 
d="M467 559q100 -12 160.5 -83t60.5 -183q0 -136 -94.5 -214.5t-263.5 -78.5h-234v1044h223q155 0 240.5 -66t85.5 -185q0 -97 -49.5 -157.5t-128.5 -76.5zM319 956h-120v-368h120q106 0 165 49t59 137q0 86 -59 134t-165 48zM199 90h131q121 0 188.5 54t67.5 151
q0 100 -65.5 156.5t-182.5 56.5h-139v-418z" />
    <glyph glyph-name="uni0433" unicode="&#x433;" horiz-adv-x="542" 
d="M96 0v1047h432v-103h-319v-944h-113z" />
    <glyph glyph-name="uni0434" unicode="&#x434;" horiz-adv-x="800" 
d="M672 1047v-941h96v-360h-109v254h-555v-254h-106v360h76q22 0 40.5 32.5t18.5 94.5l4 814h535zM195 106h364v838h-313l-2 -698q-1 -62 -17 -96.5t-32 -43.5z" />
    <glyph glyph-name="uni0435" unicode="&#x435;" 
d="M391 1067q161 0 248.5 -147t83.5 -426h-551q3 -195 64.5 -305.5t164.5 -110.5q75 0 127.5 59.5t75.5 169.5l101 -16q-30 -144 -110 -227.5t-194 -83.5q-159 0 -250.5 144.5t-91.5 401.5q0 253 89 397t243 144zM391 971q-97 0 -156.5 -104.5t-62.5 -286.5h438
q-2 183 -60 287t-159 104z" />
    <glyph glyph-name="uni0436" unicode="&#x436;" horiz-adv-x="1036" 
d="M899 1047h121l-346 -482l346 -565h-121l-334 547q8 -312 8 -547h-112q0 286 10 549l-336 -549h-121l348 565l-346 482h119l336 -465q-10 205 -10 465h112q0 -219 -8 -461z" />
    <glyph glyph-name="uni0437" unicode="&#x437;" horiz-adv-x="696" 
d="M477 547q83 -28 126.5 -93.5t43.5 -162.5q0 -142 -78 -226.5t-215 -84.5q-145 0 -227.5 93.5t-85.5 260.5h111q0 -122 53.5 -192t146.5 -70q84 0 132 60t48 163q0 97 -53 150t-145 53h-66v84h64q80 0 127 51.5t47 144.5t-44.5 146t-121.5 53q-82 0 -129 -69.5t-47 -190.5
h-111q5 165 82.5 258.5t210.5 93.5q127 0 199.5 -75.5t72.5 -205.5q0 -176 -141 -241z" />
    <glyph glyph-name="uni0438" unicode="&#x438;" horiz-adv-x="804" 
d="M205 184l403 865h101v-1049h-109v850l-403 -850h-101v1049h109v-865z" />
    <glyph glyph-name="uni0439" unicode="&#x439;" horiz-adv-x="804" 
d="M403 1165q-88 0 -141.5 67t-52.5 193h86q-1 -87 27 -134.5t81 -47.5q54 0 82.5 47.5t26.5 134.5h88q1 -125 -54 -192.5t-143 -67.5zM205 184l403 865h101v-1049h-109v850l-403 -850h-101v1049h109v-865z" />
    <glyph glyph-name="uni043A" unicode="&#x43a;" horiz-adv-x="688" 
d="M313 565l361 -565h-127l-344 541q8 -213 8 -541h-115v1047h115q0 -332 -6 -455l342 455h125z" />
    <glyph glyph-name="uni043B" unicode="&#x43b;" horiz-adv-x="778" 
d="M39 -2v102q47 2 82 34t35 110v803h526v-1047h-113v944h-307v-706q0 -127 -62 -183.5t-161 -56.5z" />
    <glyph glyph-name="uni043C" unicode="&#x43c;" horiz-adv-x="870" 
d="M434 455l234 592h106v-1047h-112q0 530 10 852q-95 -270 -238 -616q-154 386 -235 622q10 -330 10 -858h-113v1047h107z" />
    <glyph glyph-name="uni043D" unicode="&#x43d;" horiz-adv-x="786" 
d="M578 575v472h112v-1047h-112v485h-369v-485h-113v1047h113v-472h369z" />
    <glyph glyph-name="uni043E" unicode="&#x43e;" horiz-adv-x="802" 
d="M401 -20q-159 0 -250.5 145t-91.5 399t91.5 398.5t250.5 144.5t250.5 -144.5t91.5 -398.5t-91.5 -399t-250.5 -145zM401 84q107 0 169.5 117.5t62.5 322.5q0 207 -62.5 324t-169.5 117t-169 -117t-62 -324q0 -206 62.5 -323t168.5 -117z" />
    <glyph glyph-name="uni043F" unicode="&#x43f;" horiz-adv-x="790" 
d="M96 1047h598v-1047h-112v944h-373v-944h-113v1047z" />
    <glyph glyph-name="uni0440" unicode="&#x440;" horiz-adv-x="849" 
d="M479 1067q146 0 229 -146t83 -403q0 -253 -84 -394.5t-234 -141.5q-90 0 -160 65t-102 178v-696h-115v1518h105l8 -240q34 123 104.5 191.5t165.5 68.5zM442 84q108 0 171 115.5t63 322.5q0 208 -63 324.5t-171 116.5t-169.5 -117.5t-61.5 -323.5t61.5 -322t169.5 -116z
" />
    <glyph glyph-name="uni0441" unicode="&#x441;" horiz-adv-x="641" 
d="M432 -16q-173 0 -273 145.5t-100 396.5q0 248 100 392.5t273 144.5q92 0 152 -51v-109q-61 58 -138 58q-129 0 -201.5 -116t-72.5 -319q0 -205 72.5 -323.5t199.5 -118.5q80 0 140 57v-106q-60 -51 -152 -51z" />
    <glyph glyph-name="uni0442" unicode="&#x442;" horiz-adv-x="552" 
d="M332 0h-113v944h-205v103h523v-103h-205v-944z" />
    <glyph glyph-name="uni0443" unicode="&#x443;" horiz-adv-x="727" 
d="M567 1047h117l-371 -1518h-110l112 467l-272 1051h121q162 -665 207 -930q38 270 196 930z" />
    <glyph glyph-name="uni0444" unicode="&#x444;" horiz-adv-x="921" 
d="M870 524q0 -243 -95.5 -386.5t-260.5 -149.5v-459h-106v459q-165 9 -261 153t-96 383t96 382t261 151v479h106v-479q165 -6 260.5 -149t95.5 -384zM158 524q0 -195 66.5 -313t183.5 -127v877q-117 -6 -183.5 -123t-66.5 -314zM514 961v-877q117 7 183.5 125t66.5 315
q0 196 -67 313.5t-183 123.5z" />
    <glyph glyph-name="uni0445" unicode="&#x445;" horiz-adv-x="749" 
d="M588 1047h123l-256 -521l256 -526h-123q-115 234 -154.5 320.5t-58.5 152.5q-22 -71 -62 -161.5t-147 -311.5h-123l256 524l-256 523h123q176 -362 211 -472q20 65 59.5 153.5t151.5 318.5z" />
    <glyph glyph-name="uni0446" unicode="&#x446;" horiz-adv-x="821" 
d="M694 1047v-941h97v-360h-111v254h-584v1047h113v-945h373v945h112z" />
    <glyph glyph-name="uni0447" unicode="&#x447;" horiz-adv-x="716" 
d="M506 549v498h115v-1047h-115v451q-64 -37 -156 -37q-150 0 -226.5 81t-76.5 236v316h113v-312q0 -219 202 -219q79 0 144 33z" />
    <glyph glyph-name="uni0448" unicode="&#x448;" horiz-adv-x="1138" 
d="M627 104h303v943h112v-1047h-946v1047h113v-943h303v943h115v-943z" />
    <glyph glyph-name="uni0449" unicode="&#x449;" horiz-adv-x="1173" 
d="M1042 1047v-941h99v-360h-109v254h-936v1047h113v-943h303v943h115v-943h303v943h112z" />
    <glyph glyph-name="uni044A" unicode="&#x44a;" horiz-adv-x="722" 
d="M254 676h74q168 0 264 -89.5t96 -248.5t-96 -248.5t-264 -89.5h-189v942h-125v105h240v-371zM254 98h68q118 0 185.5 63t67.5 177q0 115 -66.5 177.5t-184.5 62.5h-70v-480z" />
    <glyph glyph-name="uni044B" unicode="&#x44b;" horiz-adv-x="987" 
d="M209 676h76q167 0 263.5 -89.5t96.5 -248.5t-96.5 -248.5t-263.5 -89.5h-189v1047h113v-371zM776 0v1047h115v-1047h-115zM209 98h70q118 0 185.5 63t67.5 177q0 115 -66.5 177.5t-184.5 62.5h-72v-480z" />
    <glyph glyph-name="uni044C" unicode="&#x44c;" horiz-adv-x="679" 
d="M209 676h76q167 0 263.5 -89.5t96.5 -248.5t-96.5 -248.5t-263.5 -89.5h-189v1047h113v-371zM209 98h70q118 0 185.5 63t67.5 177q0 115 -66.5 177.5t-184.5 62.5h-72v-480z" />
    <glyph glyph-name="uni044D" unicode="&#x44d;" horiz-adv-x="612" 
d="M188 1063q171 0 272 -145.5t101 -395.5q0 -248 -101 -393t-272 -145q-91 0 -151 51v106q60 -57 137 -57q120 0 194 106t83 291h-340v82h340q-7 186 -81.5 294t-193.5 108q-78 0 -139 -58v105q60 51 151 51z" />
    <glyph glyph-name="uni044E" unicode="&#x44e;" horiz-adv-x="1034" 
d="M647 1063q153 0 240.5 -143.5t87.5 -397.5q0 -253 -87.5 -395.5t-240.5 -142.5q-149 0 -236.5 133t-93.5 370h-108v-487h-113v1047h113v-463h110q10 227 96.5 353t231.5 126zM647 88q100 0 159.5 116.5t59.5 319.5q0 201 -59.5 317.5t-159.5 116.5t-159.5 -116.5
t-59.5 -317.5q0 -203 59.5 -319.5t159.5 -116.5z" />
    <glyph glyph-name="uni044F" unicode="&#x44f;" horiz-adv-x="722" 
d="M362 1049h265v-1049h-111q0 412 6 496l-356 -496h-125q290 402 360 463h-63q-133 0 -215 80t-82 209q0 137 86 217t235 80zM152 739q0 -91 59 -147.5t160 -56.5h145v413h-145q-102 0 -160.5 -56t-58.5 -153z" />
    <glyph glyph-name="uni0450" unicode="&#x450;" 
d="M330 1464l106 -284h-90l-137 284h121zM391 1067q161 0 248.5 -147t83.5 -426h-551q3 -195 64.5 -305.5t164.5 -110.5q75 0 127.5 59.5t75.5 169.5l101 -16q-30 -144 -110 -227.5t-194 -83.5q-159 0 -250.5 144.5t-91.5 401.5q0 253 89 397t243 144zM391 971
q-97 0 -156.5 -104.5t-62.5 -286.5h438q-2 183 -60 287t-159 104z" />
    <glyph glyph-name="uni0451" unicode="&#x451;" 
d="M270 1245q-26 0 -45.5 20t-19.5 48q0 29 19 48t46 19q29 0 48.5 -19t19.5 -48q0 -28 -19.5 -48t-48.5 -20zM510 1245q-28 0 -48 20t-20 48q0 29 20 48t48 19q27 0 46 -19t19 -48q0 -28 -19.5 -48t-45.5 -20zM391 1067q161 0 248.5 -147t83.5 -426h-551
q3 -195 64.5 -305.5t164.5 -110.5q75 0 127.5 59.5t75.5 169.5l101 -16q-30 -144 -110 -227.5t-194 -83.5q-159 0 -250.5 144.5t-91.5 401.5q0 253 89 397t243 144zM391 971q-97 0 -156.5 -104.5t-62.5 -286.5h438q-2 183 -60 287t-159 104z" />
    <glyph glyph-name="uni0452" unicode="&#x452;" horiz-adv-x="780" 
d="M446 1067q113 0 180.5 -78.5t67.5 -232.5v-1227h-114v1214q0 113 -48.5 169.5t-130.5 56.5q-90 0 -140 -67.5t-50 -188.5v-713h-115v1229h-157v86h157v221h115v-221h162v-86h-162v-330q60 168 235 168z" />
    <glyph glyph-name="uni0453" unicode="&#x453;" horiz-adv-x="542" 
d="M350 1180h-90l111 284h116zM96 0v1047h432v-103h-319v-944h-113z" />
    <glyph glyph-name="uni0454" unicode="&#x454;" horiz-adv-x="612" 
d="M438 963q-120 0 -193.5 -106.5t-82.5 -291.5h340v-82h-340q7 -186 81 -293.5t193 -107.5q79 0 139 57v-104q-60 -51 -151 -51q-171 0 -272 145t-101 395q0 248 101 393.5t272 145.5q91 0 151 -51v-107q-61 58 -137 58z" />
    <glyph glyph-name="uni0455" unicode="&#x455;" horiz-adv-x="665" 
d="M338 -20q-132 0 -211 77.5t-88 218.5h113q7 -98 55.5 -151t130.5 -53q77 0 124.5 42t47.5 115q0 46 -24.5 89t-63.5 78.5t-86 71.5t-94 73.5t-86 78t-63.5 93t-24.5 110.5q0 109 71.5 174.5t188.5 65.5q120 0 192.5 -70.5t79.5 -197.5h-108q-6 86 -49 132t-115 46
q-68 0 -110 -39t-42 -105q0 -47 24.5 -90t64 -78t87.5 -69.5t95.5 -72t87 -77t64 -92.5t24.5 -112q0 -119 -77.5 -188.5t-207.5 -69.5z" />
    <glyph glyph-name="uni0456" unicode="&#x456;" horiz-adv-x="307" 
d="M154 1243q-31 0 -53.5 22t-22.5 54t22.5 53t53.5 21t53 -21t22 -53t-22 -54t-53 -22zM96 1047h115v-1047h-115v1047z" />
    <glyph glyph-name="uni0457" unicode="&#x457;" horiz-adv-x="307" 
d="M33 1245q-26 0 -46 20t-20 48q0 29 19.5 48t46.5 19q29 0 48 -19t19 -48q0 -28 -19 -48t-48 -20zM272 1245q-28 0 -47.5 20t-19.5 48q0 29 19.5 48t47.5 19q27 0 46.5 -19t19.5 -48q0 -28 -20 -48t-46 -20zM96 1047h115v-1047h-115v1047z" />
    <glyph glyph-name="uni0458" unicode="&#x458;" horiz-adv-x="307" 
d="M156 1243q-31 0 -53.5 22t-22.5 54t22.5 53t53.5 21t53 -21t22 -53t-22 -54t-53 -22zM-25 -471l121 473v1045h115v-1047l-115 -471h-121z" />
    <glyph glyph-name="uni0459" unicode="&#x459;" horiz-adv-x="1153" 
d="M682 676h76q167 0 263.5 -89.5t96.5 -248.5t-96.5 -248.5t-263.5 -89.5h-189v944h-307v-706q0 -127 -62 -183.5t-161 -56.5v102q47 2 82 34t35 110v803h526v-371zM682 98h70q118 0 186 63t68 177q0 115 -67 177.5t-185 62.5h-72v-480z" />
    <glyph glyph-name="uni045A" unicode="&#x45a;" horiz-adv-x="1161" 
d="M690 676h76q167 0 263.5 -89.5t96.5 -248.5t-96.5 -248.5t-263.5 -89.5h-188v485h-369v-485h-113v1047h113v-472h369v472h112v-371zM690 98h70q118 0 186 63t68 177q0 115 -67 177.5t-185 62.5h-72v-480z" />
    <glyph glyph-name="uni045B" unicode="&#x45b;" horiz-adv-x="780" 
d="M446 1067q113 0 180.5 -78.5t67.5 -232.5v-756h-114v743q0 113 -48.5 169.5t-130.5 56.5q-90 0 -140 -67.5t-50 -188.5v-713h-115v1229h-157v86h157v221h115v-221h162v-86h-162v-330q60 168 235 168z" />
    <glyph glyph-name="uni045C" unicode="&#x45c;" horiz-adv-x="688" 
d="M397 1464h117l-137 -284h-90zM313 565l361 -565h-127l-344 541q8 -213 8 -541h-115v1047h115q0 -332 -6 -455l342 455h125z" />
    <glyph glyph-name="uni045D" unicode="&#x45d;" horiz-adv-x="804" 
d="M344 1448l107 -285h-91l-137 285h121zM205 184l403 865h101v-1049h-109v850l-403 -850h-101v1049h109v-865z" />
    <glyph glyph-name="uni045F" unicode="&#x45f;" horiz-adv-x="790" 
d="M582 1049h112v-1047h-245v-254h-109v254h-244v1047h113v-945h373v945z" />
    <glyph glyph-name="uni0490" unicode="&#x490;" horiz-adv-x="657" 
d="M514 1454v176h109v-282h-383v-1348h-117v1454h391z" />
    <glyph glyph-name="uni0491" unicode="&#x491;" horiz-adv-x="542" 
d="M420 1047v178h108v-281h-319v-944h-113v1047h324z" />
    <glyph glyph-name="Wgrave" unicode="&#x1e80;" horiz-adv-x="1196" 
d="M539 1872l106 -287h-90l-137 287h121zM1036 1454h115l-238 -1454h-141q-103 746 -133 978t-39 347q-22 -190 -180 -1325h-137l-238 1454h115q171 -1143 190 -1327q14 159 182 1327h134q105 -718 137.5 -955t42.5 -370q21 188 190 1325z" />
    <glyph glyph-name="wgrave" unicode="&#x1e81;" horiz-adv-x="1081" 
d="M479 1464l107 -284h-90l-138 284h121zM926 1047h106l-209 -1047h-114q-103 522 -129.5 667t-36.5 255q-17 -142 -45 -290.5t-127 -631.5h-113l-209 1047h111q93 -477 121 -632t43 -282q13 127 41 280.5t124 633.5h109q94 -478 122 -636t42 -274q18 148 46 304.5
t118 605.5z" />
    <glyph glyph-name="Wacute" unicode="&#x1e82;" horiz-adv-x="1196" 
d="M664 1872h116l-137 -285h-90zM1036 1454h115l-238 -1454h-141q-103 746 -133 978t-39 347q-22 -190 -180 -1325h-137l-238 1454h115q171 -1143 190 -1327q14 159 182 1327h134q105 -718 137.5 -955t42.5 -370q21 188 190 1325z" />
    <glyph glyph-name="wacute" unicode="&#x1e83;" horiz-adv-x="1081" 
d="M604 1464h117l-137 -284h-90zM926 1047h106l-209 -1047h-114q-103 522 -129.5 667t-36.5 255q-17 -142 -45 -290.5t-127 -631.5h-113l-209 1047h111q93 -477 121 -632t43 -282q13 127 41 280.5t124 633.5h109q94 -478 122 -636t42 -274q18 148 46 304.5t118 605.5z" />
    <glyph glyph-name="Wdieresis" unicode="&#x1e84;" horiz-adv-x="1196" 
d="M477 1655q-26 0 -45.5 19.5t-19.5 47.5q0 29 19 48.5t46 19.5q29 0 48.5 -19.5t19.5 -48.5q0 -28 -19.5 -47.5t-48.5 -19.5zM717 1655q-28 0 -48 19.5t-20 47.5q0 29 20 48.5t48 19.5q27 0 46 -19.5t19 -48.5q0 -28 -19.5 -47.5t-45.5 -19.5zM1036 1454h115l-238 -1454
h-141q-103 746 -133 978t-39 347q-22 -190 -180 -1325h-137l-238 1454h115q171 -1143 190 -1327q14 159 182 1327h134q105 -718 137.5 -955t42.5 -370q21 188 190 1325z" />
    <glyph glyph-name="wdieresis" unicode="&#x1e85;" horiz-adv-x="1081" 
d="M420 1245q-26 0 -46 20t-20 48q0 29 19.5 48t46.5 19q29 0 48 -19t19 -48q0 -28 -19 -48t-48 -20zM659 1245q-28 0 -47.5 20t-19.5 48q0 29 19.5 48t47.5 19q27 0 46.5 -19t19.5 -48q0 -28 -20 -48t-46 -20zM926 1047h106l-209 -1047h-114q-103 522 -129.5 667t-36.5 255
q-17 -142 -45 -290.5t-127 -631.5h-113l-209 1047h111q93 -477 121 -632t43 -282q13 127 41 280.5t124 633.5h109q94 -478 122 -636t42 -274q18 148 46 304.5t118 605.5z" />
    <glyph glyph-name="uni1E9E" unicode="&#x1e9e;" horiz-adv-x="888" 
d="M819 1454l-254 -606q122 -19 189 -129t67 -293q0 -202 -87.5 -320t-239.5 -118q-89 0 -148 47v115q67 -56 137 -56q101 0 160 89t59 241q0 163 -64 253.5t-181 90.5h-39l250 586h-428v-1354h-117v1454h696z" />
    <glyph glyph-name="uni1EBC" unicode="&#x1ebc;" horiz-adv-x="712" 
d="M309 1722q-48 0 -67 -65l-74 24q10 53 44 89t91 36q43 0 104.5 -35.5t90.5 -35.5q47 0 65 67l76 -26q-11 -56 -45 -90.5t-86 -34.5q-46 0 -108 35.5t-91 35.5zM662 1454v-106h-422v-551h340v-105h-340v-586h422v-106h-539v1454h539z" />
    <glyph glyph-name="uni1EBD" unicode="&#x1ebd;" 
d="M297 1315q-49 0 -68 -66l-73 25q10 53 44 89t91 36q43 0 104 -36t90 -36q48 0 66 68l76 -27q-11 -56 -45 -90.5t-86 -34.5q-46 0 -108 36t-91 36zM391 1067q161 0 248.5 -147t83.5 -426h-551q3 -195 64.5 -305.5t164.5 -110.5q75 0 127.5 59.5t75.5 169.5l101 -16
q-30 -144 -110 -227.5t-194 -83.5q-159 0 -250.5 144.5t-91.5 401.5q0 253 89 397t243 144zM391 971q-97 0 -156.5 -104.5t-62.5 -286.5h438q-2 183 -60 287t-159 104z" />
    <glyph glyph-name="Ygrave" unicode="&#x1ef2;" horiz-adv-x="804" 
d="M342 1872l107 -287h-91l-137 287h121zM645 1454h123l-307 -842v-612h-117v612l-307 842h125q132 -373 179 -522.5t62 -243.5q18 96 66 249.5t176 516.5z" />
    <glyph glyph-name="ygrave" unicode="&#x1ef3;" horiz-adv-x="727" 
d="M303 1464l107 -284h-91l-137 284h121zM567 1047h117l-371 -1518h-110l112 467l-272 1051h121q162 -665 207 -930q38 270 196 930z" />
    <glyph glyph-name="uni1EF8" unicode="&#x1ef8;" horiz-adv-x="804" 
d="M307 1722q-48 0 -67 -65l-74 24q10 53 44 89t91 36q43 0 104.5 -35.5t90.5 -35.5q47 0 65 67l76 -26q-11 -56 -45 -90.5t-86 -34.5q-46 0 -108 35.5t-91 35.5zM645 1454h123l-307 -842v-612h-117v612l-307 842h125q132 -373 179 -522.5t62 -243.5q18 96 66 249.5
t176 516.5z" />
    <glyph glyph-name="uni1EF9" unicode="&#x1ef9;" horiz-adv-x="727" 
d="M268 1315q-48 0 -67 -66l-74 25q10 53 44 89t91 36q43 0 104.5 -36t90.5 -36q47 0 65 68l76 -27q-11 -56 -45 -90.5t-86 -34.5q-46 0 -108 36t-91 36zM567 1047h117l-371 -1518h-110l112 467l-272 1051h121q162 -665 207 -930q38 270 196 930z" />
    <glyph glyph-name="endash" unicode="&#x2013;" horiz-adv-x="724" 
d="M0 502v112h725v-112h-725z" />
    <glyph glyph-name="emdash" unicode="&#x2014;" horiz-adv-x="899" 
d="M0 502v112h899v-112h-899z" />
    <glyph glyph-name="quoteleft" unicode="&#x2018;" horiz-adv-x="391" 
d="M287 1454l-66 -354h-123l95 354h94z" />
    <glyph glyph-name="quoteright" unicode="&#x2019;" horiz-adv-x="391" 
d="M104 1100l66 354h123l-94 -354h-95z" />
    <glyph glyph-name="quotesinglbase" unicode="&#x201a;" horiz-adv-x="391" 
d="M104 -223l66 354h123l-94 -354h-95z" />
    <glyph glyph-name="quotedblleft" unicode="&#x201c;" horiz-adv-x="591" 
d="M287 1454l-66 -354h-123l95 354h94zM487 1454l-65 -354h-123l94 354h94z" />
    <glyph glyph-name="quotedblright" unicode="&#x201d;" horiz-adv-x="591" 
d="M104 1100l66 354h123l-94 -354h-95zM305 1100l66 354h123l-95 -354h-94z" />
    <glyph glyph-name="quotedblbase" unicode="&#x201e;" horiz-adv-x="591" 
d="M104 -223l66 354h123l-94 -354h-95zM305 -223l66 354h123l-95 -354h-94z" />
    <glyph glyph-name="dagger" unicode="&#x2020;" horiz-adv-x="589" 
d="M350 1063h180v-100h-180v-1127h-110v1127h-179v100h179v432h110v-432z" />
    <glyph glyph-name="daggerdbl" unicode="&#x2021;" horiz-adv-x="612" 
d="M541 1069v-100h-179v-611h179v-102h-179v-420h-112v420h-178v102h178v611h-178v100h178v426h112v-426h179z" />
    <glyph glyph-name="bullet" unicode="&#x2022;" horiz-adv-x="589" 
d="M295 612q-46 0 -78.5 32t-32.5 79q0 46 32.5 78.5t78.5 32.5t78.5 -32.5t32.5 -78.5q0 -47 -32.5 -79t-78.5 -32z" />
    <glyph glyph-name="perthousand" unicode="&#x2030;" horiz-adv-x="1904" 
d="M326 705q-116 0 -181 101t-65 279q0 180 65 281.5t181 101.5q114 0 179.5 -101.5t65.5 -281.5q0 -178 -65.5 -279t-179.5 -101zM838 1454h92l-418 -1454h-90zM326 788q72 0 113.5 79.5t41.5 217.5t-41.5 217.5t-113.5 79.5q-71 0 -113.5 -79t-42.5 -218
q0 -138 42.5 -217.5t113.5 -79.5zM1026 -18q-116 0 -181 101t-65 279q0 180 65 281.5t181 101.5q114 0 180 -102t66 -281q0 -178 -66 -279t-180 -101zM1595 -18q-116 0 -181.5 101t-65.5 279q0 180 65.5 281.5t181.5 101.5q114 0 180 -102t66 -281q0 -178 -66 -279
t-180 -101zM1026 68q72 0 114 79.5t42 217.5q0 136 -42 215t-114 79q-71 0 -113.5 -78t-42.5 -216q0 -139 42.5 -218t113.5 -79zM1595 68q72 0 113 79.5t41 217.5q0 137 -41 215.5t-113 78.5t-113.5 -77.5t-41.5 -216.5q0 -140 41.5 -218.5t113.5 -78.5z" />
    <glyph glyph-name="guilsinglleft" unicode="&#x2039;" horiz-adv-x="380" 
d="M215 817h117l-160 -330l160 -331h-117l-164 329z" />
    <glyph glyph-name="guilsinglright" unicode="&#x203a;" horiz-adv-x="380" 
d="M49 817h119l162 -332l-162 -329h-119l162 331z" />
    <glyph glyph-name="fraction" unicode="&#x2044;" horiz-adv-x="270" 
d="M299 1454h90l-416 -1454h-92z" />
    <glyph glyph-name="uni2070" unicode="&#x2070;" horiz-adv-x="581" 
d="M291 713q-96 0 -155.5 61t-59.5 166v485q0 105 59.5 167.5t155.5 62.5t155.5 -62.5t59.5 -167.5v-485q0 -105 -59.5 -166t-155.5 -61zM291 797q57 0 92 38.5t35 104.5v485q0 67 -35 106.5t-92 39.5q-56 0 -90.5 -40t-34.5 -106v-485q0 -65 34.5 -104t90.5 -39z" />
    <glyph glyph-name="uni2074" unicode="&#x2074;" horiz-adv-x="505" 
d="M387 1640v-641h86v-73h-86v-201h-84v201h-278v65l262 649h100zM109 999h194q-3 281 6 547q-28 -85 -59 -170t-74.5 -199t-66.5 -178z" />
    <glyph glyph-name="uni2075" unicode="&#x2075;" horiz-adv-x="532" 
d="M272 713q-98 0 -154.5 81.5t-56.5 217.5h91q0 -103 31.5 -160t88.5 -57q55 0 88 60.5t33 172.5t-33 174t-88 62q-41 0 -73 -36t-45 -104h-86l51 516h323v-81h-249l-29 -310q44 90 133 90q84 0 135 -83t51 -228t-57 -230t-154 -85z" />
    <glyph glyph-name="uni2076" unicode="&#x2076;" horiz-adv-x="507" 
d="M283 1331q83 0 133.5 -81t50.5 -220q0 -147 -56.5 -232t-154.5 -85t-155.5 84t-57.5 227q0 103 39 207l160 409h96l-141 -348q36 39 86 39zM256 797q56 0 88.5 60t32.5 169q0 111 -32.5 171t-88.5 60q-58 0 -90.5 -59.5t-32.5 -171.5q0 -108 33 -168.5t90 -60.5z" />
    <glyph glyph-name="uni2077" unicode="&#x2077;" horiz-adv-x="444" 
d="M414 1640v-69l-215 -846h-93l213 834h-303v81h398z" />
    <glyph glyph-name="uni2078" unicode="&#x2078;" horiz-adv-x="530" 
d="M365 1217q52 -29 81 -91.5t29 -144.5q0 -124 -57 -196t-154 -72q-96 0 -152.5 72t-56.5 196q0 83 29 146t82 90q-86 62 -86 202q0 109 50.5 171.5t133.5 62.5q85 0 137 -63.5t52 -170.5q0 -68 -23 -121.5t-65 -80.5zM264 1577q-44 0 -71 -43t-27 -119q0 -78 27 -121
t71 -43q46 0 74.5 43.5t28.5 120.5q0 75 -29 118.5t-74 43.5zM264 793q56 0 89.5 51t33.5 143q0 90 -33.5 140.5t-89.5 50.5q-55 0 -87 -50t-32 -141t32 -142.5t87 -51.5z" />
    <glyph glyph-name="uni2079" unicode="&#x2079;" horiz-adv-x="507" 
d="M252 1655q98 0 155.5 -85.5t57.5 -228.5q0 -112 -39 -206l-162 -410h-92l137 344q-35 -35 -84 -35q-81 0 -132.5 82t-51.5 219q0 146 57 233t154 87zM252 1108q59 0 91 59.5t32 171.5q0 109 -32.5 169.5t-90.5 60.5q-56 0 -88.5 -61t-32.5 -169q0 -111 32.5 -171
t88.5 -60z" />
    <glyph glyph-name="uni207D" unicode="&#x207d;" horiz-adv-x="348" 
d="M307 440v-84q-95 0 -149 51.5t-54 157.5v832q0 106 54 158.5t149 52.5v-84q-44 0 -77 -30t-33 -97v-832q0 -66 33 -95.5t77 -29.5z" />
    <glyph glyph-name="uni207E" unicode="&#x207e;" horiz-adv-x="348" 
d="M41 1522v84q95 0 149 -51.5t54 -159.5v-830q0 -108 -54 -160.5t-149 -52.5v86q44 0 77.5 30t33.5 95v834q0 64 -33.5 94.5t-77.5 30.5z" />
    <glyph glyph-name="uni2080" unicode="&#x2080;" horiz-adv-x="581" 
d="M291 -483q-96 0 -155.5 61t-59.5 166v485q0 105 59.5 167.5t155.5 62.5t155.5 -62.5t59.5 -167.5v-485q0 -105 -59.5 -166t-155.5 -61zM291 -399q57 0 92 38.5t35 104.5v485q0 67 -35 106.5t-92 39.5q-56 0 -90.5 -40t-34.5 -106v-485q0 -65 34.5 -104t90.5 -39z" />
    <glyph glyph-name="uni2081" unicode="&#x2081;" horiz-adv-x="401" 
d="M379 -471h-346v80h127v721l-119 -62v82l209 94v-835h129v-80z" />
    <glyph glyph-name="uni2082" unicode="&#x2082;" horiz-adv-x="501" 
d="M137 -387h316v-84h-406v63q0 64 23 125.5t58 108t75.5 98t75.5 96t58 102t23 116.5q0 63 -28.5 100t-77.5 37q-54 0 -84.5 -43.5t-32.5 -120.5h-90q0 113 55.5 180.5t149.5 67.5q90 0 144.5 -58.5t54.5 -158.5q0 -79 -31 -152t-76 -129.5t-90 -110t-79 -115t-38 -122.5z
" />
    <glyph glyph-name="uni2083" unicode="&#x2083;" horiz-adv-x="522" 
d="M344 8q60 -23 91.5 -81.5t31.5 -143.5q0 -121 -56.5 -193.5t-154.5 -72.5q-100 0 -157.5 74.5t-57.5 205.5h88q0 -97 33.5 -148.5t91.5 -51.5q57 0 90 49.5t33 138.5q0 86 -38 131t-103 45h-41v80h43q55 0 85.5 45t30.5 127q0 78 -27.5 121t-76.5 43q-53 0 -83 -49.5
t-30 -139.5h-88q0 125 55.5 198t151.5 73q86 0 137 -63.5t51 -172.5q0 -75 -25.5 -131.5t-74.5 -83.5z" />
    <glyph glyph-name="uni2084" unicode="&#x2084;" horiz-adv-x="505" 
d="M387 444v-641h86v-73h-86v-201h-84v201h-278v65l262 649h100zM109 -197h194q-3 281 6 547q-28 -85 -59 -170t-74.5 -199t-66.5 -178z" />
    <glyph glyph-name="uni2085" unicode="&#x2085;" horiz-adv-x="532" 
d="M272 -483q-98 0 -154.5 81.5t-56.5 217.5h91q0 -103 31.5 -160t88.5 -57q55 0 88 60.5t33 172.5t-33 174t-88 62q-41 0 -73 -36t-45 -104h-86l51 516h323v-82h-249l-29 -309q44 90 133 90q84 0 135 -83t51 -228t-57 -230t-154 -85z" />
    <glyph glyph-name="uni2086" unicode="&#x2086;" horiz-adv-x="507" 
d="M283 135q83 0 133.5 -81t50.5 -220q0 -147 -56.5 -232t-154.5 -85t-155.5 84t-57.5 227q0 103 39 207l160 409h96l-141 -348q36 39 86 39zM256 -399q56 0 88.5 60t32.5 169q0 111 -32.5 171t-88.5 60q-58 0 -90.5 -59.5t-32.5 -171.5q0 -108 33 -168.5t90 -60.5z" />
    <glyph glyph-name="uni2087" unicode="&#x2087;" horiz-adv-x="444" 
d="M414 444v-69l-215 -846h-93l213 833h-303v82h398z" />
    <glyph glyph-name="uni2088" unicode="&#x2088;" horiz-adv-x="530" 
d="M365 20q52 -29 81 -91t29 -144q0 -124 -57 -196t-154 -72q-96 0 -152.5 72t-56.5 196q0 83 29 145.5t82 89.5q-86 62 -86 203q0 109 50.5 171.5t133.5 62.5q85 0 137 -63.5t52 -170.5q0 -68 -23 -122t-65 -81zM264 381q-44 0 -71 -43t-27 -119q0 -78 27 -121t71 -43
q46 0 74.5 43.5t28.5 120.5q0 75 -29 118.5t-74 43.5zM264 -403q56 0 89.5 51t33.5 143q0 90 -33.5 140.5t-89.5 50.5q-55 0 -87 -50t-32 -141t32 -142.5t87 -51.5z" />
    <glyph glyph-name="uni2089" unicode="&#x2089;" horiz-adv-x="507" 
d="M252 459q98 0 155.5 -85.5t57.5 -228.5q0 -112 -39 -206l-162 -410h-92l137 344q-35 -35 -84 -35q-81 0 -132.5 82t-51.5 219q0 146 57 233t154 87zM252 -88q59 0 91 59.5t32 171.5q0 109 -32.5 169.5t-90.5 60.5q-56 0 -88.5 -61t-32.5 -169q0 -111 32.5 -171t88.5 -60z
" />
    <glyph glyph-name="uni208D" unicode="&#x208d;" horiz-adv-x="348" 
d="M307 -94v-86q-95 0 -149 52.5t-54 158.5v829q0 108 54 160.5t149 52.5v-86q-44 0 -77 -29.5t-33 -95.5v-833q0 -64 33 -93.5t77 -29.5z" />
    <glyph glyph-name="uni208E" unicode="&#x208e;" horiz-adv-x="348" 
d="M41 989v84q95 0 149 -51.5t54 -159.5v-829q0 -108 -54 -160.5t-149 -52.5v86q44 0 77.5 30t33.5 95v833q0 64 -33.5 94.5t-77.5 30.5z" />
    <glyph glyph-name="Euro" unicode="&#x20ac;" horiz-adv-x="950" 
d="M688 1366q-146 0 -236 -132t-114 -355h453l-23 -76h-436q-2 -25 -2 -76v-53h422l-23 -76h-393q21 -232 112 -371t240 -139q56 0 105.5 18t80.5 46v-111q-72 -55 -200 -55q-193 0 -312 168t-141 444h-131v76h125v53q0 51 2 76h-127v76h133q27 268 144.5 428.5t306.5 160.5
q128 0 200 -55v-110q-30 28 -80 45.5t-106 17.5z" />
    <glyph glyph-name="uni20B4" unicode="&#x20b4;" horiz-adv-x="917" 
d="M608 850h219v-78h-739v78h389q80 100 118 173.5t38 160.5q0 86 -46.5 135t-125.5 49q-77 0 -122.5 -56.5t-51.5 -160.5h-119q6 151 85 235t214 84q129 0 205 -77t76 -205q0 -92 -35.5 -169t-104.5 -169zM254 590h-166v78h739v-78h-442q-55 -70 -86 -141t-31 -160
q0 -92 51 -148.5t140 -56.5q90 0 146.5 63.5t60.5 178.5h118q-4 -161 -93 -251.5t-234 -90.5q-144 0 -225.5 81.5t-81.5 217.5q0 177 104 307z" />
    <glyph glyph-name="uni20B8" unicode="&#x20b8;" horiz-adv-x="772" 
d="M692 1370h-612v84h612v-84zM444 0h-116v1165h-248v82h612v-82h-248v-1165z" />
    <glyph glyph-name="uni20BD" unicode="&#x20bd;" horiz-adv-x="940" 
d="M446 553h-96v-104h174v-80h-174v-369h-117v369h-153v80h153v104h-153v82h153v819h216q187 0 295 -120t108 -330t-109 -330.5t-297 -120.5zM449 1348h-99v-695h99q134 0 211 92t77 254q0 164 -77 256.5t-211 92.5z" />
    <glyph glyph-name="uni20BF" unicode="&#x20bf;" horiz-adv-x="841" 
d="M774 399q0 -138 -63 -234t-179 -136v-213h-81v192q-39 -8 -95 -8h-24v-184h-82v184h-127v1454h127v184h82v-184h12q41 0 107 -8v192h81v-217q96 -38 146.5 -119t50.5 -198q0 -129 -66.5 -219t-175.5 -107q134 -20 210.5 -121.5t76.5 -257.5zM344 1352h-104v-541h104
q129 0 199.5 71.5t70.5 200.5q0 128 -70.5 198.5t-199.5 70.5zM240 102h116q142 0 221.5 80t79.5 219q0 150 -78 234t-217 84h-122v-617z" />
    <glyph glyph-name="uni2116" unicode="&#x2116;" horiz-adv-x="1566" 
d="M1264 705q-116 0 -181 101t-65 279q0 180 65 281.5t181 101.5q114 0 179.5 -101.5t65.5 -281.5q0 -178 -65.5 -279t-179.5 -101zM231 1454l512 -1239q-13 124 -16.5 353t-3.5 886h111v-1454h-107l-512 1235q12 -123 15 -352.5t3 -882.5h-110v1454h108zM1264 1382
q-71 0 -112.5 -78.5t-41.5 -218.5q0 -139 41.5 -218t112.5 -79q72 0 113.5 79.5t41.5 217.5t-41.5 217.5t-113.5 79.5zM1481 528h-434v86h434v-86z" />
    <glyph glyph-name="trademark" unicode="&#x2122;" horiz-adv-x="1077" 
d="M190 1376h-124v78h335v-78h-125v-669h-86v669zM696 1051l158 403h78v-747h-78q0 501 6 606q-2 -6 -166 -436q-58 155 -107 284t-59 156q7 -89 7 -610h-78v747h78z" />
    <glyph glyph-name="uni2153" unicode="&#x2153;" horiz-adv-x="1191" 
d="M250 618h129v-79h-346v79h127v721l-119 -61v82l209 94v-836zM283 0l417 1454h91l-416 -1454h-92zM1016 479q60 -23 91.5 -81.5t31.5 -143.5q0 -121 -56.5 -193.5t-154.5 -72.5q-100 0 -157.5 74.5t-57.5 205.5h88q0 -97 33.5 -148.5t91.5 -51.5q57 0 90 49.5t33 138.5
q0 85 -38.5 130.5t-103.5 45.5h-41v80h43q56 0 86.5 45t30.5 127q0 78 -27.5 121t-76.5 43q-53 0 -83 -49.5t-30 -139.5h-88q0 125 55.5 198t151.5 73q86 0 137 -63.5t51 -172.5q0 -75 -25.5 -131.5t-74.5 -83.5z" />
    <glyph glyph-name="uni2154" unicode="&#x2154;" horiz-adv-x="1292" 
d="M137 623h316v-84h-406v63q0 64 23 125.5t58 107.5t75.5 97.5t75.5 96t58 102t23 116.5q0 63 -28.5 100t-77.5 37q-54 0 -84.5 -43t-32.5 -120h-90q0 113 55.5 180t149.5 67q90 0 144.5 -58.5t54.5 -158.5q0 -79 -31 -152t-76 -129.5t-90 -110t-79 -114.5t-38 -122zM383 0
l418 1454h90l-416 -1454h-92zM1116 479q60 -23 91.5 -81.5t31.5 -143.5q0 -121 -56.5 -193.5t-154.5 -72.5q-100 0 -157.5 74.5t-57.5 205.5h88q0 -97 33.5 -148.5t91.5 -51.5q57 0 90 49.5t33 138.5q0 86 -38 131t-103 45h-41v80h43q55 0 85.5 45t30.5 127q0 78 -27.5 121
t-76.5 43q-53 0 -83 -49.5t-30 -139.5h-88q0 125 55.5 198t151.5 73q86 0 137.5 -64t51.5 -172q0 -75 -26 -131.5t-75 -83.5z" />
    <glyph glyph-name="oneeighth" unicode="&#x215b;" horiz-adv-x="1202" 
d="M250 618h129v-79h-346v79h127v721l-119 -61v82l209 94v-836zM283 0l417 1454h91l-416 -1454h-92zM1036 492q52 -29 81.5 -91.5t29.5 -144.5q0 -124 -57 -196t-154 -72q-96 0 -152.5 72t-56.5 196q0 83 29 146t82 90q-86 62 -86 202q0 109 50.5 171.5t133.5 62.5
q85 0 136.5 -63.5t51.5 -170.5q0 -68 -23 -121.5t-65 -80.5zM936 852q-44 0 -71 -43t-27 -119q0 -78 27 -121t71 -43q46 0 74 43t28 121q0 75 -28.5 118.5t-73.5 43.5zM936 68q56 0 89.5 51t33.5 143q0 90 -33.5 140.5t-89.5 50.5q-55 0 -87 -50t-32 -141t32 -142.5
t87 -51.5z" />
    <glyph glyph-name="threeeighths" unicode="&#x215c;" horiz-adv-x="1323" 
d="M344 1018q60 -23 91.5 -81.5t31.5 -143.5q0 -121 -57 -194t-154 -73q-100 0 -157.5 74.5t-57.5 206.5h88q0 -97 33.5 -149t91.5 -52q57 0 90 50t33 139q0 86 -38 131t-103 45h-41v80h43q55 0 85.5 45t30.5 127q0 78 -27 120.5t-77 42.5q-53 0 -83 -49t-30 -139h-88
q0 125 55.5 197.5t151.5 72.5q86 0 137 -63t51 -172q0 -75 -25.5 -131.5t-74.5 -83.5zM403 0l418 1454h90l-415 -1454h-93zM1157 492q52 -29 81.5 -91.5t29.5 -144.5q0 -124 -57 -196t-154 -72q-96 0 -152.5 72t-56.5 196q0 83 28.5 146t81.5 90q-86 62 -86 202
q0 109 51 171.5t134 62.5q85 0 136.5 -63.5t51.5 -170.5q0 -68 -23 -121.5t-65 -80.5zM1057 852q-44 0 -71.5 -43t-27.5 -119q0 -77 27.5 -120.5t71.5 -43.5q46 0 74 43t28 121q0 75 -28.5 118.5t-73.5 43.5zM1057 68q56 0 89.5 51t33.5 143q0 90 -33.5 140.5t-89.5 50.5
q-55 0 -87 -50t-32 -141t32 -142.5t87 -51.5z" />
    <glyph glyph-name="fiveeighths" unicode="&#x215d;" horiz-adv-x="1333" 
d="M297 1153q84 0 135 -83t51 -228t-57 -230.5t-154 -85.5q-98 0 -154.5 81.5t-56.5 217.5h91q0 -103 31.5 -160t88.5 -57q55 0 88 61t33 173t-33 173.5t-88 61.5q-41 0 -73 -35.5t-45 -103.5h-86l51 516h323v-82h-249l-29 -309q44 90 133 90zM414 0l417 1454h91l-416 -1454
h-92zM1167 492q52 -29 81.5 -91.5t29.5 -144.5q0 -124 -57 -196t-154 -72q-96 0 -152.5 72t-56.5 196q0 83 29 146t82 90q-86 62 -86 202q0 109 50.5 171.5t133.5 62.5q85 0 136.5 -63.5t51.5 -170.5q0 -68 -23 -121.5t-65 -80.5zM1067 852q-44 0 -71 -43t-27 -119
q0 -78 27 -121t71 -43q46 0 74 43t28 121q0 75 -28.5 118.5t-73.5 43.5zM1067 68q56 0 89.5 51t33.5 143q0 90 -33.5 140.5t-89.5 50.5q-55 0 -87 -50t-32 -141t32 -142.5t87 -51.5z" />
    <glyph glyph-name="seveneighths" unicode="&#x215e;" horiz-adv-x="1177" 
d="M16 1454h398v-70l-215 -845h-93l213 833h-303v82zM258 0l418 1454h90l-416 -1454h-92zM1012 492q52 -29 81 -91.5t29 -144.5q0 -124 -57 -196t-154 -72q-96 0 -152.5 72t-56.5 196q0 83 29 146t82 90q-86 62 -86 202q0 109 50.5 171.5t133.5 62.5q85 0 137 -63.5
t52 -170.5q0 -68 -23 -121.5t-65 -80.5zM911 852q-44 0 -71 -43t-27 -119q0 -78 27 -121t71 -43q46 0 74.5 43.5t28.5 120.5q0 75 -29 118.5t-74 43.5zM911 68q56 0 89.5 51t33.5 143q0 90 -33.5 140.5t-89.5 50.5q-55 0 -86.5 -50t-31.5 -141t31.5 -142.5t86.5 -51.5z" />
    <glyph glyph-name="arrowleft" unicode="&#x2190;" horiz-adv-x="978" 
d="M911 594v-102q-559 0 -688 4l350 -496h-118l-392 541l390 542h120l-350 -497q169 8 688 8z" />
    <glyph glyph-name="arrowup" unicode="&#x2191;" horiz-adv-x="776" 
d="M387 1468l324 -321v-131l-279 282q8 -121 10 -1298h-106q0 1136 10 1300l-280 -284v131z" />
    <glyph glyph-name="arrowright" unicode="&#x2192;" horiz-adv-x="978" 
d="M406 1083h118l391 -540l-389 -543h-120l350 496q-190 -9 -688 -9v105q563 0 690 -6z" />
    <glyph glyph-name="arrowdown" unicode="&#x2193;" horiz-adv-x="776" 
d="M430 168l281 285v-131l-324 -322l-321 322v131l278 -283q-10 164 -10 1298h106q-2 -1177 -10 -1300z" />
    <glyph glyph-name="arrowboth" unicode="&#x2194;" horiz-adv-x="1433" 
d="M860 1083h119l391 -542l-391 -541h-121l350 494q-134 -5 -501 -4.5t-484 6.5l350 -496h-118l-392 541l390 542h120l-348 -495q129 6 494.5 6t488.5 -6z" />
    <glyph glyph-name="arrowupdn" unicode="&#x2195;" horiz-adv-x="747" 
d="M670 1184v-123q-189 183 -248 248q5 -155 4.5 -599t-6.5 -567q59 63 250 248v-123l-295 -291h-2l-295 291v123q204 -200 250 -250q-6 126 -6.5 569.5t4.5 598.5q-55 -61 -248 -248v123l295 291h2z" />
    <glyph glyph-name="uni2196" unicode="&#x2196;" horiz-adv-x="1234" 
d="M1176 252l-74 -76q-808 808 -914 926l7 -397l-95 92v456h457l92 -92l-399 4q69 -62 231.5 -222.5t694.5 -690.5z" />
    <glyph glyph-name="uni2197" unicode="&#x2197;" horiz-adv-x="1234" 
d="M586 1161l90 92h457v-456l-93 -92l4 397q-132 -147 -911 -926l-76 76q532 530 694.5 690.5t231.5 222.5z" />
    <glyph glyph-name="uni2198" unicode="&#x2198;" horiz-adv-x="1234" 
d="M1044 391l-4 397l93 -92v-456h-457l-90 92l397 -4q-69 62 -231.5 222.5t-694.5 690.5l76 76q779 -779 911 -926z" />
    <glyph glyph-name="uni2199" unicode="&#x2199;" horiz-adv-x="1234" 
d="M1102 1315l74 -76q-532 -530 -694.5 -690.5t-231.5 -222.5l399 4l-92 -92h-457v456l95 92l-7 -397q106 118 914 926z" />
    <glyph glyph-name="partialdiff" unicode="&#x2202;" horiz-adv-x="815" 
d="M416 1454l248 -633q67 -174 67 -350q0 -226 -87 -358.5t-236 -132.5q-150 0 -237 134t-87 367q0 221 80.5 350.5t208.5 129.5q89 0 145 -70l-225 563h123zM408 88q97 0 151.5 102t54.5 287t-54.5 287t-151.5 102q-96 0 -150.5 -102t-54.5 -287t54.5 -287t150.5 -102z" />
    <glyph glyph-name="emptyset" unicode="&#x2205;" horiz-adv-x="995" 
d="M895 1495l-96 -211q119 -202 119 -557q0 -347 -112.5 -546t-305.5 -199q-143 0 -242 108l-59 -131h-103l99 217q-115 200 -115 551q0 348 113 547t307 199q138 0 235 -105l58 127h102zM197 727q0 -254 59 -414l428 942q-76 111 -184 111q-139 0 -221 -172t-82 -467z
M500 90q137 0 219 171.5t82 465.5q0 257 -64 422l-428 -944q79 -115 191 -115z" />
    <glyph glyph-name="product" unicode="&#x220f;" horiz-adv-x="808" 
d="M59 1454h693v-96h-117v-1358h-107v1358h-247v-1358h-107v1358h-115v96z" />
    <glyph glyph-name="summation" unicode="&#x2211;" horiz-adv-x="694" 
d="M78 1454h549v-100h-455q29 -55 61.5 -124t57 -126t69.5 -160.5t78 -177.5q-37 -93 -97 -248.5t-96.5 -246t-74.5 -171.5h457v-100h-549v88l250 676l-250 602v88z" />
    <glyph glyph-name="minus" unicode="&#x2212;" horiz-adv-x="757" 
d="M150 512v100h468v-100h-468z" />
    <glyph glyph-name="radical" unicode="&#x221a;" horiz-adv-x="864" 
d="M526 1536h281v-96h-184l-234 -1440h-133l-186 1047h116q125 -778 136 -914q10 120 44.5 356.5t159.5 1046.5z" />
    <glyph glyph-name="infinity" unicode="&#x221e;" horiz-adv-x="1204" 
d="M844 897q113 0 184.5 -72.5t71.5 -177.5q0 -102 -71.5 -171.5t-184.5 -69.5q-163 0 -244 147q-82 -147 -240 -147q-113 0 -184.5 70.5t-71.5 176.5q0 103 72 173.5t184 70.5q173 0 250 -154v-2q43 75 98.5 115.5t135.5 40.5zM541 616l14 27l-14 31q-30 59 -71.5 94
t-109.5 35q-72 0 -115.5 -43.5t-43.5 -106.5q0 -65 43.5 -109t115.5 -44q69 0 110.5 31t70.5 85zM842 502q73 0 117.5 41.5t44.5 103.5q0 64 -44.5 108t-117.5 44q-65 0 -105 -33.5t-73 -95.5l-11 -19l13 -24q30 -57 69.5 -91t106.5 -34z" />
    <glyph glyph-name="integral" unicode="&#x222b;" horiz-adv-x="505" 
d="M131 -481q-48 0 -74 16v96q24 -14 52 -14q40 0 64 29.5t24 91.5v1585q0 112 55.5 165.5t128.5 53.5q43 0 68 -14v-94q-17 10 -43 10q-97 0 -97 -123v-1585q0 -109 -53.5 -163t-124.5 -54z" />
    <glyph glyph-name="approxequal" unicode="&#x2248;" horiz-adv-x="776" 
d="M199 643l-82 21q7 65 44.5 110t104.5 45q42 0 84.5 -23.5t81 -47t70.5 -23.5q33 0 51.5 24.5t21.5 57.5l84 -21q-7 -65 -45 -110t-104 -45q-41 0 -84.5 23.5t-82.5 47t-71 23.5q-33 0 -51.5 -24t-21.5 -58zM199 381l-82 20q7 65 44.5 110.5t104.5 45.5q42 0 84.5 -23.5
t81 -47t70.5 -23.5q33 0 51.5 24.5t21.5 57.5l84 -21q-7 -65 -45 -110t-104 -45q-41 0 -84.5 23.5t-82.5 47t-71 23.5q-33 0 -51.5 -24t-21.5 -58z" />
    <glyph glyph-name="notequal" unicode="&#x2260;" horiz-adv-x="757" 
d="M614 723v-100h-170l-34 -119h204v-98h-233l-55 -189h-97l58 189h-142v98h170l35 119h-205v100h236l57 190h92l-55 -190h139z" />
    <glyph glyph-name="lessequal" unicode="&#x2264;" horiz-adv-x="651" 
d="M553 512v-100l-469 211v108l469 213v-100q-207 -95 -275.5 -125t-111.5 -41q45 -11 114 -41.5t273 -124.5zM86 236v98h469v-98h-469z" />
    <glyph glyph-name="greaterequal" unicode="&#x2265;" horiz-adv-x="653" 
d="M98 844v100l469 -213v-108l-469 -211v100q198 92 270 123t117 43q-44 12 -117 43t-270 123zM567 236h-469v98h469v-98z" />
    <glyph glyph-name="uni2460" unicode="&#x2460;" horiz-adv-x="1247" 
d="M623 -43q-240 0 -386.5 213t-146.5 567q0 352 146.5 565.5t386.5 213.5q160 0 281 -96t187 -273t66 -410q0 -354 -146 -567t-388 -213zM623 31q206 0 331 193t125 513q0 319 -125 511t-331 192q-205 0 -330 -192.5t-125 -510.5q0 -320 125 -513t330 -193zM799 287h-346
v80h127v720l-119 -61v82l209 94v-835h129v-80z" />
    <glyph glyph-name="uni2461" unicode="&#x2461;" horiz-adv-x="1247" 
d="M623 1516q160 0 281 -96t187 -273t66 -410q0 -354 -146 -567t-388 -213q-240 0 -386.5 213t-146.5 567q0 352 146.5 565.5t386.5 213.5zM623 31q206 0 331 193t125 513q0 319 -125 511t-331 192q-205 0 -330 -192.5t-125 -510.5q0 -320 125 -513t330 -193zM831 999
q0 -79 -31 -152t-75.5 -129.5t-90 -110t-79 -114.5t-37.5 -122h316v-84h-406v63q0 64 23 125.5t58 107.5t75.5 97.5t75.5 96t58 102t23 116.5q0 63 -28.5 100.5t-77.5 37.5q-54 0 -84.5 -43.5t-32.5 -120.5h-90q0 113 55.5 180.5t149.5 67.5q90 0 144 -58.5t54 -159.5z" />
    <glyph glyph-name="uni2462" unicode="&#x2462;" horiz-adv-x="1247" 
d="M623 1516q160 0 281 -96t187 -273t66 -410q0 -354 -146 -567t-388 -213q-240 0 -386.5 213t-146.5 567q0 352 146.5 565.5t386.5 213.5zM623 31q206 0 331 193t125 513q0 319 -125 511t-331 192q-205 0 -330 -192.5t-125 -510.5q0 -320 125 -513t330 -193zM717 766
q60 -23 91.5 -81.5t31.5 -143.5q0 -121 -57 -194t-154 -73q-100 0 -157.5 74.5t-57.5 206.5h88q0 -97 33.5 -149t91.5 -52q57 0 90 50t33 139q0 85 -38.5 130.5t-103.5 45.5h-41v80h43q56 0 86.5 45t30.5 127q0 78 -27.5 121t-76.5 43q-53 0 -83 -49.5t-30 -139.5h-88
q0 125 55.5 198t151.5 73q86 0 137 -63.5t51 -172.5q0 -75 -25.5 -131.5t-74.5 -83.5z" />
    <glyph glyph-name="uni2463" unicode="&#x2463;" horiz-adv-x="1247" 
d="M623 1516q160 0 281 -96t187 -273t66 -410q0 -354 -146 -567t-388 -213q-240 0 -386.5 213t-146.5 567q0 352 146.5 565.5t386.5 213.5zM623 31q206 0 331 193t125 513q0 319 -125 511t-331 192q-205 0 -330 -192.5t-125 -510.5q0 -320 125 -513t330 -193zM645 1202h100
v-641h86v-74h-86v-200h-83v200h-279v66zM467 561h195q-3 281 6 547q-28 -85 -60 -171.5t-74 -197t-67 -178.5z" />
    <glyph glyph-name="uni2464" unicode="&#x2464;" horiz-adv-x="1247" 
d="M623 -43q-240 0 -386.5 213t-146.5 567q0 352 146.5 565.5t386.5 213.5q160 0 281 -96t187 -273t66 -410q0 -354 -146 -567t-388 -213zM623 31q206 0 331 193t125 513q0 319 -125 511t-331 192q-205 0 -330 -192.5t-125 -510.5q0 -320 125 -513t330 -193zM625 274
q-98 0 -154.5 81.5t-56.5 217.5h90q0 -103 32 -160t89 -57q55 0 87.5 61t32.5 173t-32.5 173.5t-87.5 61.5q-42 0 -74 -35.5t-45 -103.5h-86l51 516h324v-82h-250l-29 -309q44 90 133 90q84 0 135.5 -83.5t51.5 -227.5q0 -145 -57 -230.5t-154 -85.5z" />
    <glyph glyph-name="uni2465" unicode="&#x2465;" horiz-adv-x="1247" 
d="M623 1516q160 0 281 -96t187 -273t66 -410q0 -354 -146 -567t-388 -213q-240 0 -386.5 213t-146.5 567q0 352 146.5 565.5t386.5 213.5zM623 31q206 0 331 193t125 513q0 319 -125 511t-331 192q-205 0 -330 -192.5t-125 -510.5q0 -320 125 -513t330 -193zM655 893
q83 0 134 -81t51 -220q0 -147 -56.5 -232.5t-154.5 -85.5t-155.5 84.5t-57.5 227.5q0 103 39 207l159 409h97l-142 -348q36 39 86 39zM629 358q56 0 88.5 60.5t32.5 169.5q0 111 -32.5 171t-88.5 60q-58 0 -90.5 -59.5t-32.5 -171.5q0 -108 33 -169t90 -61z" />
    <glyph glyph-name="uni2466" unicode="&#x2466;" horiz-adv-x="1247" 
d="M623 -43q-240 0 -386.5 213t-146.5 567q0 352 146.5 565.5t386.5 213.5q160 0 281 -96t187 -273t66 -410q0 -354 -146 -567t-388 -213zM623 31q206 0 331 193t125 513q0 319 -125 511t-331 192q-205 0 -330 -192.5t-125 -510.5q0 -320 125 -513t330 -193zM823 1202v-69
l-215 -846h-92l213 833h-303v82h397z" />
    <glyph glyph-name="uni2467" unicode="&#x2467;" horiz-adv-x="1247" 
d="M623 1516q160 0 281 -96t187 -273t66 -410q0 -354 -146 -567t-388 -213q-240 0 -386.5 213t-146.5 567q0 352 146.5 565.5t386.5 213.5zM623 31q206 0 331 193t125 513q0 319 -125 511t-331 192q-205 0 -330 -192.5t-125 -510.5q0 -320 125 -513t330 -193zM719 778
q52 -29 81 -91t29 -144q0 -124 -57 -196.5t-154 -72.5q-95 0 -151.5 72.5t-56.5 196.5q0 83 28.5 145.5t81.5 89.5q-86 62 -86 203q0 109 50.5 171t133.5 62q85 0 137 -63t52 -170q0 -68 -23 -122t-65 -81zM618 1139q-44 0 -71 -43t-27 -119q0 -78 27 -121t71 -43
q46 0 74.5 43.5t28.5 120.5q0 75 -29 118.5t-74 43.5zM618 354q56 0 89.5 51.5t33.5 143.5q0 90 -33.5 140t-89.5 50q-55 0 -86.5 -49.5t-31.5 -140.5q0 -92 32 -143.5t86 -51.5z" />
    <glyph glyph-name="uni2468" unicode="&#x2468;" horiz-adv-x="1247" 
d="M623 1516q160 0 281 -96t187 -273t66 -410q0 -354 -146 -567t-388 -213q-240 0 -386.5 213t-146.5 567q0 352 146.5 565.5t386.5 213.5zM623 31q206 0 331 193t125 513q0 319 -125 511t-331 192q-205 0 -330 -192.5t-125 -510.5q0 -320 125 -513t330 -193zM631 1217
q98 0 155.5 -85.5t57.5 -228.5q0 -113 -39 -207l-162 -409h-92l137 344q-35 -35 -84 -35q-81 0 -132.5 82t-51.5 219q0 146 57 233t154 87zM631 670q59 0 91 59.5t32 171.5q0 109 -32.5 169t-90.5 60q-56 0 -88.5 -60.5t-32.5 -168.5q0 -111 32.5 -171t88.5 -60z" />
    <glyph glyph-name="uni24EA" unicode="&#x24ea;" horiz-adv-x="1247" 
d="M623 -43q-240 0 -386.5 213t-146.5 567q0 352 146.5 565.5t386.5 213.5q160 0 281 -96t187 -273t66 -410q0 -354 -146 -567t-388 -213zM623 31q206 0 331 193t125 513q0 319 -125 511t-331 192q-205 0 -330 -192.5t-125 -510.5q0 -320 125 -513t330 -193zM623 274
q-96 0 -155.5 61.5t-59.5 166.5v485q0 105 59.5 167.5t155.5 62.5t155.5 -62.5t59.5 -167.5v-485q0 -105 -59.5 -166.5t-155.5 -61.5zM623 358q57 0 92 39t35 105v485q0 67 -35 106.5t-92 39.5q-56 0 -90.5 -40t-34.5 -106v-485q0 -66 34.5 -105t90.5 -39z" />
    <glyph glyph-name="uni24FF" unicode="&#x24ff;" horiz-adv-x="1216" 
d="M606 -27q-232 0 -374 208.5t-142 553.5q0 346 142 555t374 209q234 0 376 -209t142 -555q0 -345 -142 -553.5t-376 -208.5zM608 274q96 0 155.5 61.5t59.5 166.5v485q0 105 -59.5 167.5t-155.5 62.5t-155.5 -62.5t-59.5 -167.5v-485q0 -105 59.5 -166.5t155.5 -61.5z
M608 358q-56 0 -90.5 39t-34.5 105v485q0 66 34.5 106t90.5 40q57 0 92 -39.5t35 -106.5v-485q0 -66 -35 -105t-92 -39z" />
    <glyph glyph-name="filledbox" unicode="&#x25a0;" horiz-adv-x="1280" 
d="M840 0h-398q-144 0 -230.5 86t-86.5 229v824q0 143 86.5 229t230.5 86h398q142 0 228.5 -86t86.5 -229v-824q0 -143 -86.5 -229t-228.5 -86z" />
    <glyph glyph-name="uni25A1" unicode="&#x25a1;" horiz-adv-x="1314" 
d="M877 -25h-437q-142 0 -228.5 85.5t-86.5 226.5v882q0 141 86.5 226.5t228.5 85.5h437q141 0 226 -85.5t85 -226.5v-882q0 -141 -85 -226.5t-226 -85.5zM440 49h437q106 0 168.5 64.5t62.5 173.5v882q0 109 -62.5 173.5t-168.5 64.5h-437q-107 0 -170 -64.5t-63 -173.5
v-882q0 -109 63 -173.5t170 -64.5z" />
    <glyph glyph-name="lozenge" unicode="&#x25ca;" horiz-adv-x="778" 
d="M330 1479h121l262 -820l-262 -819h-121l-262 819zM389 -74q70 269 211 733q-144 470 -211 721q-67 -258 -211 -721q141 -455 211 -733z" />
    <glyph glyph-name="circle" unicode="&#x25cb;" horiz-adv-x="1247" 
d="M623 -43q-240 0 -386.5 213t-146.5 567q0 352 146.5 565.5t386.5 213.5q160 0 281 -96t187 -273t66 -410q0 -354 -146 -567t-388 -213zM623 31q206 0 331 193t125 513q0 319 -125 511t-331 192q-205 0 -330 -192.5t-125 -510.5q0 -320 125 -513t330 -193z" />
    <glyph glyph-name="uni25CF" unicode="&#x25cf;" horiz-adv-x="1216" 
d="M606 -27q-232 0 -374 208.5t-142 553.5q0 346 142 555t374 209q234 0 376 -209t142 -555q0 -345 -142 -553.5t-376 -208.5z" />
    <glyph glyph-name="smileface" unicode="&#x263a;" horiz-adv-x="1730" 
d="M864 -45q-216 0 -395.5 103t-283 281.5t-103.5 393.5t103.5 394t283 282.5t395.5 103.5q162 0 307.5 -61t250.5 -165t166 -248.5t61 -305.5t-61 -305t-166 -248t-250.5 -164.5t-307.5 -60.5zM864 39q143 0 271 54t220.5 146.5t146.5 221.5t54 272t-54 272.5t-146.5 222.5
t-220.5 147.5t-271 54.5t-270.5 -54.5t-219 -147.5t-145 -222t-53.5 -273t53.5 -272.5t145 -221t219 -146.5t270.5 -54zM616 846q-39 0 -67.5 28.5t-28.5 65.5q0 41 28 68.5t68 27.5q38 0 67.5 -28t29.5 -68q0 -36 -29.5 -65t-67.5 -29zM1130 846q-37 0 -65.5 28.5
t-28.5 65.5q0 39 28.5 67.5t65.5 28.5q38 0 66.5 -28t28.5 -68q0 -36 -28.5 -65t-66.5 -29zM864 338q-159 0 -259.5 99t-100.5 255h88q-1 -118 74 -191t198 -73q122 0 197.5 73t75.5 191h88q0 -156 -101 -255t-260 -99z" />
    <glyph glyph-name="invsmileface" unicode="&#x263b;" horiz-adv-x="1746" 
d="M872 -45q-216 0 -395.5 103t-283 281.5t-103.5 393.5t103.5 394t283 282.5t395.5 103.5q162 0 307 -61t250 -165t166.5 -248.5t61.5 -305.5t-61.5 -305t-166.5 -248t-250 -164.5t-307 -60.5zM623 858q36 0 65 29t29 65q0 40 -28.5 68.5t-65.5 28.5q-40 0 -69.5 -28.5
t-29.5 -68.5q0 -38 29.5 -66t69.5 -28zM1143 858q38 0 66 29t28 65q0 40 -28 68.5t-66 28.5q-37 0 -66.5 -29t-29.5 -68q0 -37 29 -65.5t67 -28.5zM872 334q162 0 264.5 98t102.5 254h-88q0 -120 -77 -193t-202 -73q-126 0 -202.5 73t-75.5 193h-88q0 -156 102.5 -254
t263.5 -98z" />
    <glyph glyph-name="uni2776" unicode="&#x2776;" horiz-adv-x="1216" 
d="M606 -27q-232 0 -374 208.5t-142 553.5q0 346 142 555t374 209q234 0 376 -209t142 -555q0 -345 -142 -553.5t-376 -208.5zM438 367v-80h346v80h-129v835l-209 -94v-82l119 61v-720h-127z" />
    <glyph glyph-name="uni2777" unicode="&#x2777;" horiz-adv-x="1216" 
d="M606 -27q-232 0 -374 208.5t-142 553.5q0 346 142 555t374 209q234 0 376 -209t142 -555q0 -345 -142 -553.5t-376 -208.5zM412 350v-63h405v84h-315q3 45 22 89.5t47 83t61 78t65 81.5t58.5 85.5t43 98t16.5 112.5q0 100 -54.5 159t-144.5 59q-93 0 -148.5 -67.5
t-55.5 -180.5h90q2 77 32 120.5t84 43.5q49 0 78 -37.5t29 -100.5q0 -59 -23 -116.5t-58 -102t-75.5 -96t-75.5 -97.5t-58 -107.5t-23 -125.5z" />
    <glyph glyph-name="uni2778" unicode="&#x2778;" horiz-adv-x="1216" 
d="M606 -27q-232 0 -374 208.5t-142 553.5q0 346 142 555t374 209q234 0 376 -209t142 -555q0 -345 -142 -553.5t-376 -208.5zM612 274q97 0 154 73t57 194q0 85 -32.5 143.5t-92.5 81.5q103 56 103 215q0 108 -51.5 172t-137.5 64q-96 0 -151 -73t-55 -198h88
q0 90 29.5 139.5t82.5 49.5q50 0 77.5 -43t27.5 -121q0 -82 -30.5 -127t-86.5 -45h-43v-80h41q65 0 103 -45t38 -131q0 -89 -33 -139t-90 -50q-58 0 -91.5 52t-33.5 149h-88q0 -132 57.5 -206.5t157.5 -74.5z" />
    <glyph glyph-name="uni2779" unicode="&#x2779;" horiz-adv-x="1216" 
d="M606 -27q-232 0 -374 208.5t-142 553.5q0 346 142 555t374 209q234 0 376 -209t142 -555q0 -345 -142 -553.5t-376 -208.5zM637 487v-200h84v200h86v74h-86v641h-100l-263 -649v-66h279zM637 561h-195q18 48 53 139.5t54 141t45.5 123.5t48.5 141q-6 -182 -6 -545z" />
    <glyph glyph-name="uni277A" unicode="&#x277a;" horiz-adv-x="1216" 
d="M606 -27q-232 0 -374 208.5t-142 553.5q0 346 142 555t374 209q234 0 376 -209t142 -555q0 -345 -142 -553.5t-376 -208.5zM608 274q97 0 154 85.5t57 230.5t-51 228t-135 83q-89 0 -133 -90l28 309h250v82h-323l-52 -516h86q13 68 45 103.5t74 35.5q55 0 88 -61.5
t33 -173.5t-33 -173t-88 -61q-57 0 -89 57t-32 160h-90q0 -136 56.5 -217.5t154.5 -81.5z" />
    <glyph glyph-name="uni277B" unicode="&#x277b;" horiz-adv-x="1216" 
d="M606 -27q-232 0 -374 208.5t-142 553.5q0 346 142 555t374 209q234 0 376 -209t142 -555q0 -345 -142 -553.5t-376 -208.5zM612 274q98 0 154.5 85.5t56.5 232.5q0 139 -50.5 220t-133.5 81q-50 0 -84 -37l139 346h-96l-160 -409q-39 -104 -39 -207q0 -143 57.5 -227.5
t155.5 -84.5zM612 358q-57 0 -90 61t-33 169q0 112 32.5 171.5t90.5 59.5q56 0 88.5 -60t32.5 -171q0 -109 -32.5 -169.5t-88.5 -60.5z" />
    <glyph glyph-name="uni277C" unicode="&#x277c;" horiz-adv-x="1216" 
d="M606 -27q-232 0 -374 208.5t-142 553.5q0 346 142 555t374 209q234 0 376 -209t142 -555q0 -345 -142 -553.5t-376 -208.5zM725 1120l-213 -833h92l215 846v69h-397v-82h303z" />
    <glyph glyph-name="uni277D" unicode="&#x277d;" horiz-adv-x="1216" 
d="M606 -27q-232 0 -374 208.5t-142 553.5q0 346 142 555t374 209q234 0 376 -209t142 -555q0 -345 -142 -553.5t-376 -208.5zM606 274q97 0 154 72.5t57 196.5q0 83 -28 144.5t-80 90.5q41 28 63.5 81.5t22.5 121.5q0 107 -52 170t-137 63q-83 0 -133.5 -62t-50.5 -171
q0 -143 84 -203q-52 -29 -80.5 -91t-28.5 -144q0 -124 56.5 -196.5t152.5 -72.5zM606 813q-44 0 -71 43t-27 121q0 76 27 119t71 43q45 0 74 -43.5t29 -118.5q0 -77 -28.5 -120.5t-74.5 -43.5zM606 354q-55 0 -87 52t-32 143t32 140.5t87 49.5q56 0 89.5 -50t33.5 -140
q0 -92 -33.5 -143.5t-89.5 -51.5z" />
    <glyph glyph-name="uni277E" unicode="&#x277e;" horiz-adv-x="1216" 
d="M606 -27q-232 0 -374 208.5t-142 553.5q0 346 142 555t374 209q234 0 376 -209t142 -555q0 -345 -142 -553.5t-376 -208.5zM672 633l-137 -346h92l161 409q39 94 39 207q0 143 -57.5 228.5t-155.5 85.5q-97 0 -154 -87t-57 -233q0 -137 52 -219t133 -82q50 0 84 37z
M614 670q-56 0 -88 60t-32 171q0 108 32 168.5t88 60.5q58 0 90.5 -60t32.5 -169q0 -112 -32 -171.5t-91 -59.5z" />
    <glyph glyph-name="Q.ss01" horiz-adv-x="997" 
d="M647 98l287 2v-100h-406q-217 0 -336.5 192.5t-119.5 534.5q0 347 112 546.5t305 199.5t305.5 -196t112.5 -536q0 -242 -66.5 -415.5t-193.5 -227.5zM489 109q137 0 219.5 166.5t82.5 451.5q0 294 -82.5 465.5t-219.5 171.5q-139 0 -221 -171t-82 -466q0 -286 82 -452
t221 -166z" />
    <glyph glyph-name="J.ss03" horiz-adv-x="356" 
d="M23 -473l86 448l10 1393l96 86l21 -1368l-105 -528z" />
    <glyph glyph-name="T_i.dlig" horiz-adv-x="860" 
d="M410 0h-117v1348h-248v106h610v-106h-245v-1348zM649 1047h115v-1047h-115v1047z" />
    <glyph glyph-name="i.loclTRK" horiz-adv-x="307" 
d="M154 1243q-31 0 -53.5 22t-22.5 54t22.5 53t53.5 21t53 -21t22 -53t-22 -54t-53 -22zM96 1047h115v-1047h-115v1047z" />
    <glyph glyph-name="m.ss01" horiz-adv-x="1159" 
d="M811 1067q120 0 191 -80.5t71 -220.5v-766h-112v766q0 92 -43.5 147.5t-116.5 55.5q-76 0 -120 -55t-44 -148v-766h-115v766q0 93 -44 148t-120 55q-73 0 -115 -55t-42 -148v-766h-115v766q0 140 71.5 220.5t192.5 80.5q166 0 230 -137q67 137 231 137z" />
    <glyph glyph-name="n.ss01" horiz-adv-x="755" 
d="M203 0h-115v748q0 152 77 235.5t212 83.5q136 0 213.5 -83.5t77.5 -235.5v-748h-115v756q0 102 -47.5 157.5t-128.5 55.5q-80 0 -127 -55.5t-47 -157.5v-756z" />
    <glyph glyph-name="nacute.ss01" horiz-adv-x="755" 
d="M420 1180h-90l110 284h117zM203 0h-115v748q0 152 77 235.5t212 83.5q136 0 213.5 -83.5t77.5 -235.5v-748h-115v756q0 102 -47.5 157.5t-128.5 55.5q-80 0 -127 -55.5t-47 -157.5v-756z" />
    <glyph glyph-name="ncaron.ss01" horiz-adv-x="755" 
d="M584 1470l-154 -288h-104l-154 288h102q77 -161 105 -237q42 113 104 237h101zM377 1067q136 0 213.5 -83.5t77.5 -235.5v-748h-115v756q0 102 -47.5 157.5t-128.5 55.5q-80 0 -127 -55.5t-47 -157.5v-756h-115v748q0 152 77 235.5t212 83.5z" />
    <glyph glyph-name="uni0146.ss01" horiz-adv-x="755" 
d="M203 0h-115v748q0 152 77 235.5t212 83.5q136 0 213.5 -83.5t77.5 -235.5v-748h-115v756q0 102 -47.5 157.5t-128.5 55.5q-80 0 -127 -55.5t-47 -157.5v-756zM262 -471l57 330h121l-90 -330h-88z" />
    <glyph glyph-name="uni0272.ss01" horiz-adv-x="755" 
d="M377 1067q136 0 213.5 -83.5t77.5 -235.5v-748h-115v756q0 102 -47.5 157.5t-128.5 55.5q-80 0 -127 -55.5t-47 -157.5v-1227h-115v1219q0 152 77 235.5t212 83.5z" />
    <glyph glyph-name="ntilde.ss01" horiz-adv-x="755" 
d="M213 1249l-74 25q10 53 44 89t91 36q43 0 104.5 -36t90.5 -36q48 0 66 68l75 -27q-11 -56 -45 -90.5t-86 -34.5q-46 0 -107.5 36t-90.5 36q-49 0 -68 -66zM203 0h-115v748q0 152 77 235.5t212 83.5q136 0 213.5 -83.5t77.5 -235.5v-748h-115v756q0 102 -47.5 157.5
t-128.5 55.5q-80 0 -127 -55.5t-47 -157.5v-756z" />
    <glyph glyph-name="eng.ss01" horiz-adv-x="755" 
d="M377 1067q136 0 213.5 -83.5t77.5 -235.5v-1219h-115v1227q0 102 -47.5 157.5t-128.5 55.5q-80 0 -127 -55.5t-47 -157.5v-756h-115v748q0 152 77 235.5t212 83.5z" />
    <glyph glyph-name="u.ss01" horiz-adv-x="755" 
d="M553 1047h115v-748q0 -152 -77 -235.5t-212 -83.5q-136 0 -213.5 83.5t-77.5 235.5v748h115v-756q0 -102 47.5 -157.5t128.5 -55.5q80 0 127 55.5t47 157.5v756z" />
    <glyph glyph-name="uacute.ss01" horiz-adv-x="755" 
d="M424 1180h-90l110 284h117zM553 1047h115v-748q0 -152 -77 -235.5t-212 -83.5q-136 0 -213.5 83.5t-77.5 235.5v748h115v-756q0 -102 47.5 -157.5t128.5 -55.5q80 0 127 55.5t47 157.5v756z" />
    <glyph glyph-name="ucircumflex.ss01" horiz-adv-x="755" 
d="M379 1407q-34 -85 -105 -223h-102l154 286h104l154 -286h-103q-63 125 -102 223zM553 291v756h115v-748q0 -152 -77 -235.5t-212 -83.5q-136 0 -213.5 83.5t-77.5 235.5v748h115v-756q0 -102 47.5 -157.5t128.5 -55.5q80 0 127 55.5t47 157.5z" />
    <glyph glyph-name="udieresis.ss01" horiz-adv-x="755" 
d="M258 1247q-26 0 -45.5 20t-19.5 48q0 29 19 48t46 19q29 0 48.5 -19t19.5 -48q0 -28 -19.5 -48t-48.5 -20zM498 1247q-28 0 -48 20t-20 48q0 29 20 48t48 19q27 0 46 -19t19 -48q0 -28 -19.5 -48t-45.5 -20zM553 1047h115v-748q0 -152 -77 -235.5t-212 -83.5
q-136 0 -213.5 83.5t-77.5 235.5v748h115v-756q0 -102 47.5 -157.5t128.5 -55.5q80 0 127 55.5t47 157.5v756z" />
    <glyph glyph-name="ugrave.ss01" horiz-adv-x="755" 
d="M319 1464l107 -284h-90l-137 284h120zM553 1047h115v-748q0 -152 -77 -235.5t-212 -83.5q-136 0 -213.5 83.5t-77.5 235.5v748h115v-756q0 -102 47.5 -157.5t128.5 -55.5q80 0 127 55.5t47 157.5v756z" />
    <glyph glyph-name="uhungarumlaut.ss01" horiz-adv-x="755" 
d="M340 1180h-84l104 284h113zM522 1180h-84l105 284h112zM553 1047h115v-748q0 -152 -77 -235.5t-212 -83.5q-136 0 -213.5 83.5t-77.5 235.5v748h115v-756q0 -102 47.5 -157.5t128.5 -55.5q80 0 127 55.5t47 157.5v756z" />
    <glyph glyph-name="umacron.ss01" horiz-adv-x="755" 
d="M182 1245v90h396v-90h-396zM553 1047h115v-748q0 -152 -77 -235.5t-212 -83.5q-136 0 -213.5 83.5t-77.5 235.5v748h115v-756q0 -102 47.5 -157.5t128.5 -55.5q80 0 127 55.5t47 157.5v756z" />
    <glyph glyph-name="uring.ss01" horiz-adv-x="755" 
d="M379 1178q-68 0 -115 46t-47 113q0 66 47.5 113t114.5 47t114.5 -47t47.5 -113q0 -67 -47 -113t-115 -46zM379 1243q41 0 68.5 27t27.5 67t-27.5 67.5t-68.5 27.5q-40 0 -67 -27.5t-27 -67.5t27 -67t67 -27zM553 1047h115v-748q0 -152 -77 -235.5t-212 -83.5
q-136 0 -213.5 83.5t-77.5 235.5v748h115v-756q0 -102 47.5 -157.5t128.5 -55.5q80 0 127 55.5t47 157.5v756z" />
    <glyph glyph-name="utilde.ss01" horiz-adv-x="755" 
d="M217 1249l-74 25q10 53 44.5 89t91.5 36q43 0 104 -36t90 -36q48 0 66 68l75 -27q-11 -56 -45 -90.5t-86 -34.5q-46 0 -107.5 36t-90.5 36q-49 0 -68 -66zM553 1047h115v-748q0 -152 -77 -235.5t-212 -83.5q-136 0 -213.5 83.5t-77.5 235.5v748h115v-756
q0 -102 47.5 -157.5t128.5 -55.5q80 0 127 55.5t47 157.5v756z" />
    <glyph glyph-name="w.ss01" horiz-adv-x="1161" 
d="M958 281v766h115v-766q0 -140 -71.5 -220.5t-192.5 -80.5q-165 0 -229 137q-67 -137 -232 -137q-120 0 -191 80.5t-71 220.5v766h113v-766q0 -93 43 -148t116 -55q76 0 120 55t44 148v766h115v-766q0 -93 44 -148t120 -55q73 0 115 55t42 148z" />
    <glyph glyph-name="wacute.ss01" horiz-adv-x="1161" 
d="M643 1464h117l-137 -284h-91zM958 281v766h115v-766q0 -140 -71.5 -220.5t-192.5 -80.5q-165 0 -229 137q-67 -137 -232 -137q-120 0 -191 80.5t-71 220.5v766h113v-766q0 -93 43 -148t116 -55q76 0 120 55t44 148v766h115v-766q0 -93 44 -148t120 -55q73 0 115 55
t42 148z" />
    <glyph glyph-name="wcircumflex.ss01" horiz-adv-x="1161" 
d="M578 1407q-34 -85 -105 -223h-102l153 286h105l153 -286h-102q-63 125 -102 223zM958 281v766h115v-766q0 -140 -71.5 -220.5t-192.5 -80.5q-165 0 -229 137q-67 -137 -232 -137q-120 0 -191 80.5t-71 220.5v766h113v-766q0 -93 43 -148t116 -55q76 0 120 55t44 148v766
h115v-766q0 -93 44 -148t120 -55q73 0 115 55t42 148z" />
    <glyph glyph-name="wdieresis.ss01" horiz-adv-x="1161" 
d="M457 1247q-26 0 -46 20t-20 48q0 29 19.5 48t46.5 19q29 0 48 -19t19 -48q0 -28 -19 -48t-48 -20zM696 1247q-28 0 -47.5 20t-19.5 48q0 29 19.5 48t47.5 19q27 0 46.5 -19t19.5 -48q0 -28 -20 -48t-46 -20zM958 281v766h115v-766q0 -140 -71.5 -220.5t-192.5 -80.5
q-165 0 -229 137q-67 -137 -232 -137q-120 0 -191 80.5t-71 220.5v766h113v-766q0 -93 43 -148t116 -55q76 0 120 55t44 148v766h115v-766q0 -93 44 -148t120 -55q73 0 115 55t42 148z" />
    <glyph glyph-name="wgrave.ss01" horiz-adv-x="1161" 
d="M518 1464l107 -284h-90l-138 284h121zM958 281v766h115v-766q0 -140 -71.5 -220.5t-192.5 -80.5q-165 0 -229 137q-67 -137 -232 -137q-120 0 -191 80.5t-71 220.5v766h113v-766q0 -93 43 -148t116 -55q76 0 120 55t44 148v766h115v-766q0 -93 44 -148t120 -55
q73 0 115 55t42 148z" />
    <glyph glyph-name="a.ss02" horiz-adv-x="720" 
d="M336 1069q151 0 225 -86t74 -231v-752h-115v174q-20 -93 -78 -143.5t-141 -50.5q-118 0 -185 97t-67 269q0 171 69 268t189 97q65 0 122.5 -37.5t90.5 -102.5v170q0 224 -209 224q-128 0 -227 -70v113q125 61 252 61zM338 68q85 0 133.5 73.5t48.5 204.5t-48.5 205
t-133.5 74q-80 0 -126 -73t-46 -204q0 -133 46 -206.5t126 -73.5z" />
    <glyph glyph-name="aacute.ss02" horiz-adv-x="720" 
d="M422 1464h117l-138 -284h-90zM336 1069q151 0 225 -86t74 -231v-752h-115v174q-20 -93 -78 -143.5t-141 -50.5q-118 0 -185 97t-67 269q0 171 69 268t189 97q65 0 122.5 -37.5t90.5 -102.5v170q0 224 -209 224q-128 0 -227 -70v113q125 61 252 61zM338 68
q85 0 133.5 73.5t48.5 204.5t-48.5 205t-133.5 74q-80 0 -126 -73t-46 -204q0 -133 46 -206.5t126 -73.5z" />
    <glyph glyph-name="abreve.ss02" horiz-adv-x="720" 
d="M356 1182q-88 0 -141.5 67t-52.5 193h86q-1 -87 27 -134.5t81 -47.5q54 0 82.5 47.5t26.5 134.5h88q1 -125 -54 -192.5t-143 -67.5zM336 1069q151 0 225 -86t74 -231v-752h-115v174q-20 -93 -78 -143.5t-141 -50.5q-118 0 -185 97t-67 269q0 171 69 268t189 97
q65 0 122.5 -37.5t90.5 -102.5v170q0 224 -209 224q-128 0 -227 -70v113q125 61 252 61zM338 68q85 0 133.5 73.5t48.5 204.5t-48.5 205t-133.5 74q-80 0 -126 -73t-46 -204q0 -133 46 -206.5t126 -73.5z" />
    <glyph glyph-name="acircumflex.ss02" horiz-adv-x="720" 
d="M356 1407q-38 -94 -104 -223h-102l153 286h105l153 -286h-102q-68 136 -103 223zM336 1069q151 0 225 -86t74 -231v-752h-115v174q-20 -93 -78 -143.5t-141 -50.5q-118 0 -185 97t-67 269q0 171 69 268t189 97q65 0 122.5 -37.5t90.5 -102.5v170q0 224 -209 224
q-128 0 -227 -70v113q125 61 252 61zM338 68q85 0 133.5 73.5t48.5 204.5t-48.5 205t-133.5 74q-80 0 -126 -73t-46 -204q0 -133 46 -206.5t126 -73.5z" />
    <glyph glyph-name="adieresis.ss02" horiz-adv-x="720" 
d="M238 1245q-26 0 -46 20t-20 48q0 29 19.5 48t46.5 19q29 0 48 -19t19 -48q0 -28 -19 -48t-48 -20zM477 1245q-28 0 -47.5 20t-19.5 48q0 29 19.5 48t47.5 19q27 0 46.5 -19t19.5 -48q0 -28 -20 -48t-46 -20zM336 1069q151 0 225 -86t74 -231v-752h-115v174
q-20 -93 -78 -143.5t-141 -50.5q-118 0 -185 97t-67 269q0 171 69 268t189 97q65 0 122.5 -37.5t90.5 -102.5v170q0 224 -209 224q-128 0 -227 -70v113q125 61 252 61zM338 68q85 0 133.5 73.5t48.5 204.5t-48.5 205t-133.5 74q-80 0 -126 -73t-46 -204q0 -133 46 -206.5
t126 -73.5z" />
    <glyph glyph-name="agrave.ss02" horiz-adv-x="720" 
d="M297 1464l106 -284h-90l-137 284h121zM336 1069q151 0 225 -86t74 -231v-752h-115v174q-20 -93 -78 -143.5t-141 -50.5q-118 0 -185 97t-67 269q0 171 69 268t189 97q65 0 122.5 -37.5t90.5 -102.5v170q0 224 -209 224q-128 0 -227 -70v113q125 61 252 61zM338 68
q85 0 133.5 73.5t48.5 204.5t-48.5 205t-133.5 74q-80 0 -126 -73t-46 -204q0 -133 46 -206.5t126 -73.5z" />
    <glyph glyph-name="amacron.ss02" horiz-adv-x="720" 
d="M160 1335h395v-90h-395v90zM336 1069q151 0 225 -86t74 -231v-752h-115v174q-20 -93 -78 -143.5t-141 -50.5q-118 0 -185 97t-67 269q0 171 69 268t189 97q65 0 122.5 -37.5t90.5 -102.5v170q0 224 -209 224q-128 0 -227 -70v113q125 61 252 61zM338 68q85 0 133.5 73.5
t48.5 204.5t-48.5 205t-133.5 74q-80 0 -126 -73t-46 -204q0 -133 46 -206.5t126 -73.5z" />
    <glyph glyph-name="aogonek.ss02" horiz-adv-x="720" 
d="M606 -291q35 0 74 27v-80q-42 -27 -94 -27q-67 0 -114.5 39.5t-47.5 114.5q0 88 96 217v174q-20 -93 -78 -143.5t-141 -50.5q-118 0 -185 97t-67 269q0 171 69 268t189 97q65 0 122.5 -37.5t90.5 -102.5v170q0 224 -209 224q-128 0 -227 -70v113q125 61 252 61
q151 0 225 -86t74 -231v-752h-23q-43 -48 -71.5 -102t-28.5 -95q0 -43 26.5 -68.5t67.5 -25.5zM338 68q85 0 133.5 73.5t48.5 204.5t-48.5 205t-133.5 74q-80 0 -126 -73t-46 -204q0 -133 46 -206.5t126 -73.5z" />
    <glyph glyph-name="aring.ss02" horiz-adv-x="720" 
d="M356 1178q-68 0 -114.5 46t-46.5 113q0 66 47 113t114 47t114.5 -47t47.5 -113q0 -67 -47 -113t-115 -46zM356 1432q-40 0 -67 -27.5t-27 -67.5t27 -67t67 -27q41 0 69 27t28 67t-28 67.5t-69 27.5zM336 1069q151 0 225 -86t74 -231v-752h-115v174q-20 -93 -78 -143.5
t-141 -50.5q-118 0 -185 97t-67 269q0 171 69 268t189 97q65 0 122.5 -37.5t90.5 -102.5v170q0 224 -209 224q-128 0 -227 -70v113q125 61 252 61zM338 68q85 0 133.5 73.5t48.5 204.5t-48.5 205t-133.5 74q-80 0 -126 -73t-46 -204q0 -133 46 -206.5t126 -73.5z" />
    <glyph glyph-name="atilde.ss02" horiz-adv-x="720" 
d="M262 1315q-48 0 -67 -66l-74 25q10 53 44 89t91 36q43 0 104.5 -36t90.5 -36q47 0 65 68l76 -27q-11 -56 -45 -90.5t-86 -34.5q-46 0 -108 36t-91 36zM336 1069q151 0 225 -86t74 -231v-752h-115v174q-20 -93 -78 -143.5t-141 -50.5q-118 0 -185 97t-67 269q0 171 69 268
t189 97q65 0 122.5 -37.5t90.5 -102.5v170q0 224 -209 224q-128 0 -227 -70v113q125 61 252 61zM338 68q85 0 133.5 73.5t48.5 204.5t-48.5 205t-133.5 74q-80 0 -126 -73t-46 -204q0 -133 46 -206.5t126 -73.5z" />
    <glyph glyph-name="e.ss02" horiz-adv-x="739" 
d="M383 1067q150 0 231.5 -151.5t77.5 -430.5h-524q1 -195 73.5 -300t202.5 -105q114 0 201 70v-105q-90 -65 -215 -65q-182 0 -278.5 142t-96.5 406q0 254 87 396.5t241 142.5zM383 973q-100 0 -157.5 -106t-57.5 -296h418q-8 193 -59.5 297.5t-143.5 104.5z" />
    <glyph glyph-name="eacute.ss02" horiz-adv-x="739" 
d="M432 1464h117l-137 -284h-90zM383 1067q150 0 231.5 -151.5t77.5 -430.5h-524q1 -195 73.5 -300t202.5 -105q114 0 201 70v-105q-90 -65 -215 -65q-182 0 -278.5 142t-96.5 406q0 254 87 396.5t241 142.5zM383 973q-100 0 -157.5 -106t-57.5 -296h418q-8 193 -59.5 297.5
t-143.5 104.5z" />
    <glyph glyph-name="ecaron.ss02" horiz-adv-x="739" 
d="M573 1470l-153 -288h-105l-153 288h102q77 -161 105 -237q42 113 104 237h100zM383 1067q150 0 231.5 -151.5t77.5 -430.5h-524q1 -195 73.5 -300t202.5 -105q114 0 201 70v-105q-90 -65 -215 -65q-182 0 -278.5 142t-96.5 406q0 254 87 396.5t241 142.5zM383 973
q-100 0 -157.5 -106t-57.5 -296h418q-8 193 -59.5 297.5t-143.5 104.5z" />
    <glyph glyph-name="ecircumflex.ss02" horiz-adv-x="739" 
d="M367 1407q-34 -85 -105 -223h-102l153 286h105l153 -286h-102q-63 125 -102 223zM383 1067q150 0 231.5 -151.5t77.5 -430.5h-524q1 -195 73.5 -300t202.5 -105q114 0 201 70v-105q-90 -65 -215 -65q-182 0 -278.5 142t-96.5 406q0 254 87 396.5t241 142.5zM383 973
q-100 0 -157.5 -106t-57.5 -296h418q-8 193 -59.5 297.5t-143.5 104.5z" />
    <glyph glyph-name="edieresis.ss02" horiz-adv-x="739" 
d="M248 1245q-26 0 -46 20t-20 48q0 29 19.5 48t46.5 19q29 0 48 -19t19 -48q0 -28 -19 -48t-48 -20zM487 1245q-28 0 -47.5 20t-19.5 48q0 29 19.5 48t47.5 19q27 0 46.5 -19t19.5 -48q0 -28 -20 -48t-46 -20zM383 1067q150 0 231.5 -151.5t77.5 -430.5h-524
q1 -195 73.5 -300t202.5 -105q114 0 201 70v-105q-90 -65 -215 -65q-182 0 -278.5 142t-96.5 406q0 254 87 396.5t241 142.5zM383 973q-100 0 -157.5 -106t-57.5 -296h418q-8 193 -59.5 297.5t-143.5 104.5z" />
    <glyph glyph-name="edotaccent.ss02" horiz-adv-x="739" 
d="M369 1243q-31 0 -53.5 22t-22.5 54t22.5 53t53.5 21t53 -21t22 -53t-22 -54t-53 -22zM383 1067q150 0 231.5 -151.5t77.5 -430.5h-524q1 -195 73.5 -300t202.5 -105q114 0 201 70v-105q-90 -65 -215 -65q-182 0 -278.5 142t-96.5 406q0 254 87 396.5t241 142.5zM383 973
q-100 0 -157.5 -106t-57.5 -296h418q-8 193 -59.5 297.5t-143.5 104.5z" />
    <glyph glyph-name="egrave.ss02" horiz-adv-x="739" 
d="M307 1464l107 -284h-90l-138 284h121zM383 1067q150 0 231.5 -151.5t77.5 -430.5h-524q1 -195 73.5 -300t202.5 -105q114 0 201 70v-105q-90 -65 -215 -65q-182 0 -278.5 142t-96.5 406q0 254 87 396.5t241 142.5zM383 973q-100 0 -157.5 -106t-57.5 -296h418
q-8 193 -59.5 297.5t-143.5 104.5z" />
    <glyph glyph-name="emacron.ss02" horiz-adv-x="739" 
d="M170 1335h395v-90h-395v90zM383 1067q150 0 231.5 -151.5t77.5 -430.5h-524q1 -195 73.5 -300t202.5 -105q114 0 201 70v-105q-90 -65 -215 -65q-182 0 -278.5 142t-96.5 406q0 254 87 396.5t241 142.5zM383 973q-100 0 -157.5 -106t-57.5 -296h418q-8 193 -59.5 297.5
t-143.5 104.5z" />
    <glyph glyph-name="eogonek.ss02" horiz-adv-x="739" 
d="M383 1067q150 0 231.5 -151.5t77.5 -430.5h-524q1 -195 73.5 -300t202.5 -105q114 0 201 70v-105q-72 -51 -174 -63q-84 -102 -84 -179q0 -43 26.5 -68.5t67.5 -25.5q35 0 74 27v-80q-42 -27 -94 -27q-67 0 -114.5 39.5t-47.5 114.5q0 85 84 199q-159 19 -243.5 160
t-84.5 386q0 254 87 396.5t241 142.5zM383 973q-100 0 -157.5 -106t-57.5 -296h418q-8 193 -59.5 297.5t-143.5 104.5z" />
    <glyph glyph-name="uni1EBD.ss02" horiz-adv-x="739" 
d="M272 1315q-48 0 -67 -66l-74 25q10 53 44 89t91 36q43 0 104.5 -36t90.5 -36q47 0 65 68l76 -27q-11 -56 -45 -90.5t-86 -34.5q-46 0 -108 36t-91 36zM383 1067q150 0 231.5 -151.5t77.5 -430.5h-524q1 -195 73.5 -300t202.5 -105q114 0 201 70v-105q-90 -65 -215 -65
q-182 0 -278.5 142t-96.5 406q0 254 87 396.5t241 142.5zM383 973q-100 0 -157.5 -106t-57.5 -296h418q-8 193 -59.5 297.5t-143.5 104.5z" />
    <glyph glyph-name="j.ss02" horiz-adv-x="307" 
d="M156 1243q-31 0 -53.5 22t-22.5 54t22.5 53t53.5 21t53 -21t22 -53t-22 -54t-53 -22zM-25 -471l121 473v1045h115v-1047l-115 -471h-121z" />
    <glyph glyph-name="y.ss02" 
d="M571 322v725h115v-1123q0 -211 -93.5 -314.5t-248.5 -103.5q-75 0 -139 21t-103 45v106q105 -71 220 -71q117 0 183 77.5t66 239.5v217q-60 -161 -227 -161q-117 0 -186.5 75.5t-69.5 218.5v773h115v-758q0 -103 48.5 -157t129.5 -54q89 0 139.5 65t50.5 179z" />
    <glyph glyph-name="yacute.ss02" 
d="M457 1464h116l-137 -284h-90zM571 322v725h115v-1123q0 -211 -93.5 -314.5t-248.5 -103.5q-75 0 -139 21t-103 45v106q105 -71 220 -71q117 0 183 77.5t66 239.5v217q-60 -161 -227 -161q-117 0 -186.5 75.5t-69.5 218.5v773h115v-758q0 -103 48.5 -157t129.5 -54
q89 0 139.5 65t50.5 179z" />
    <glyph glyph-name="ycircumflex.ss02" 
d="M393 1407q-38 -94 -104 -223h-103l154 286h104l154 -286h-102q-68 136 -103 223zM571 322v725h115v-1123q0 -211 -93.5 -314.5t-248.5 -103.5q-75 0 -139 21t-103 45v106q105 -71 220 -71q117 0 183 77.5t66 239.5v217q-60 -161 -227 -161q-117 0 -186.5 75.5
t-69.5 218.5v773h115v-758q0 -103 48.5 -157t129.5 -54q89 0 139.5 65t50.5 179z" />
    <glyph glyph-name="ydieresis.ss02" 
d="M272 1245q-26 0 -45.5 20t-19.5 48q0 29 19 48t46 19q29 0 48.5 -19t19.5 -48q0 -28 -19.5 -48t-48.5 -20zM512 1245q-28 0 -48 20t-20 48q0 29 20 48t48 19q27 0 46.5 -19t19.5 -48q0 -28 -20 -48t-46 -20zM571 322v725h115v-1123q0 -211 -93.5 -314.5t-248.5 -103.5
q-75 0 -139 21t-103 45v106q105 -71 220 -71q117 0 183 77.5t66 239.5v217q-60 -161 -227 -161q-117 0 -186.5 75.5t-69.5 218.5v773h115v-758q0 -103 48.5 -157t129.5 -54q89 0 139.5 65t50.5 179z" />
    <glyph glyph-name="ygrave.ss02" 
d="M332 1464l106 -284h-90l-137 284h121zM571 322v725h115v-1123q0 -211 -93.5 -314.5t-248.5 -103.5q-75 0 -139 21t-103 45v106q105 -71 220 -71q117 0 183 77.5t66 239.5v217q-60 -161 -227 -161q-117 0 -186.5 75.5t-69.5 218.5v773h115v-758q0 -103 48.5 -157
t129.5 -54q89 0 139.5 65t50.5 179z" />
    <glyph glyph-name="uni1EF9.ss02" 
d="M297 1315q-49 0 -68 -66l-73 25q10 53 44 89t91 36q43 0 104 -36t90 -36q48 0 66 68l76 -27q-11 -56 -45 -90.5t-86 -34.5q-46 0 -108 36t-91 36zM571 322v725h115v-1123q0 -211 -93.5 -314.5t-248.5 -103.5q-75 0 -139 21t-103 45v106q105 -71 220 -71q117 0 183 77.5
t66 239.5v217q-60 -161 -227 -161q-117 0 -186.5 75.5t-69.5 218.5v773h115v-758q0 -103 48.5 -157t129.5 -54q89 0 139.5 65t50.5 179z" />
    <glyph glyph-name="uni0237.ss03" horiz-adv-x="307" 
d="M96 2v1045h115v-1047l-115 -471h-121z" />
    <glyph glyph-name="uni0414.loclBGR" horiz-adv-x="952" 
d="M547 1454l289 -1348h96v-360h-109v254h-682v-254h-106v360h82l291 1348h139zM475 1317l-252 -1213h504z" />
    <glyph glyph-name="uni041B.loclBGR" horiz-adv-x="817" 
d="M477 1454l299 -1454h-123q-144 738 -191.5 1002t-55.5 356q-6 -84 -50.5 -330t-195.5 -1028h-119l295 1454h141z" />
    <glyph glyph-name="uni0424.loclBGR" horiz-adv-x="1044" 
d="M1010 727q0 -312 -115 -497t-315 -197v-142h-115v142q-198 15 -314 201.5t-116 492.5q0 310 116 498t314 202v142h115v-142q200 -14 315 -200.5t115 -499.5zM147 727q0 -263 84 -420.5t234 -167.5v1182q-148 -9 -233 -169t-85 -425zM580 1321v-1182q149 10 233 167.5
t84 420.5q0 267 -83.5 425.5t-233.5 168.5z" />
    <glyph glyph-name="uni0432.loclBGR" horiz-adv-x="722" 
d="M446 801q113 -33 171.5 -139t58.5 -259q0 -203 -81 -312t-228 -109q-133 0 -208 93t-75 283v840q0 181 74.5 271t210.5 90q131 0 203.5 -97.5t72.5 -283.5q0 -139 -50 -238.5t-149 -138.5zM365 1454q-170 0 -170 -262v-352h88q126 0 187.5 84.5t61.5 240.5
q0 289 -167 289zM369 84q94 0 145 83.5t51 240.5q0 162 -71 249.5t-213 87.5h-86v-374q0 -287 174 -287z" />
    <glyph glyph-name="uni0433.loclBGR" horiz-adv-x="661" 
d="M326 -20q-131 0 -208 67t-77 180q0 64 24.5 120t63.5 97t86.5 79t95 72.5t86.5 70t63.5 79.5t24.5 93q0 61 -40.5 98t-110.5 37q-69 0 -111.5 -46t-48.5 -132h-111q7 126 81 197t192 71t189 -63.5t71 -165.5q0 -61 -24.5 -115t-63 -93.5t-85.5 -76t-94 -71.5t-85.5 -70.5
t-63 -81.5t-24.5 -97q0 -72 47.5 -113.5t122.5 -41.5q82 0 130 52.5t56 149.5h115q-9 -141 -88 -218.5t-213 -77.5z" />
    <glyph glyph-name="uni0434.loclBGR" horiz-adv-x="849" 
d="M641 811l8 236h105v-1108q0 -219 -100.5 -325t-268.5 -106q-139 0 -252 66v107q112 -72 229 -72q130 0 203.5 81.5t73.5 248.5v292q-35 -120 -104.5 -185.5t-163.5 -65.5q-146 0 -229 145.5t-83 402.5q0 253 84.5 395t233.5 142q92 0 162.5 -68.5t101.5 -185.5zM408 84
q108 0 169.5 117t61.5 323t-61.5 322.5t-169.5 116.5t-171 -116t-63 -323t63 -323.5t171 -116.5z" />
    <glyph glyph-name="uni0436.loclBGR" horiz-adv-x="1036" 
d="M899 1047h121l-346 -482l346 -565h-121l-334 547q8 -312 8 -547h-112q0 286 10 549l-336 -549h-121l348 565l-346 482h119l336 -465q-10 205 -10 465v499h114v-499h-2q0 -219 -8 -461z" />
    <glyph glyph-name="uni0437.loclBGR" horiz-adv-x="665" 
d="M457 317q81 -38 125.5 -135.5t44.5 -234.5q0 -201 -79 -316.5t-216 -115.5q-142 0 -225.5 114.5t-83.5 315.5h110q0 -154 53 -242t144 -88q86 0 135 89t49 247q0 146 -54.5 227.5t-144.5 81.5h-65v98h63q78 0 124 80.5t46 220.5t-44.5 218.5t-121.5 78.5q-80 0 -126 -85
t-46 -236h-110q0 196 79 308t212 112q125 0 196.5 -101t71.5 -282q0 -124 -36 -217.5t-101 -137.5z" />
    <glyph glyph-name="uni0438.loclBGR" 
d="M571 334v713h115v-1047h-104l-7 162q-61 -182 -239 -182q-114 0 -181 80t-67 231v756h115v-744q0 -109 48.5 -167t129.5 -58q90 0 140 67.5t50 188.5z" />
    <glyph glyph-name="uni0439.loclBGR" horiz-adv-x="804" 
d="M403 1165q-88 0 -141.5 67t-52.5 193h86q-1 -87 27 -134.5t81 -47.5q54 0 82.5 47.5t26.5 134.5h88q1 -125 -54 -192.5t-143 -67.5zM205 184l403 865h101v-1049h-109v850l-403 -850h-101v1049h109v-865z" />
    <glyph glyph-name="uni045D.loclBGR" horiz-adv-x="804" 
d="M344 1448l107 -285h-91l-137 285h121zM205 184l403 865h101v-1049h-109v850l-403 -850h-101v1049h109v-865z" />
    <glyph glyph-name="uni043A.loclBGR" horiz-adv-x="716" 
d="M313 565l361 -565h-127l-344 541q8 -213 8 -541h-115v1536h115q0 -686 -8 -946l344 457h125z" />
    <glyph glyph-name="uni043B.loclBGR" horiz-adv-x="729" 
d="M422 1047l262 -1047h-121q-175 761 -203 946q-31 -205 -202 -946h-115l258 1047h121z" />
    <glyph glyph-name="uni043F.loclBGR" 
d="M446 1067q115 0 181.5 -78t66.5 -233v-756h-114v743q0 113 -48.5 169.5t-130.5 56.5q-89 0 -139.5 -68t-50.5 -188v-713h-115v1047h105l6 -162q57 182 239 182z" />
    <glyph glyph-name="uni0442.loclBGR" horiz-adv-x="1173" 
d="M856 1063q107 0 168 -78t61 -219v-766h-114v752q0 101 -42.5 157t-117.5 56t-118.5 -56t-43.5 -157v-752h-114v752q0 100 -43 156.5t-117 56.5q-77 0 -120.5 -56t-43.5 -157v-752h-115v1047h103l6 -136q59 152 215 152q78 0 133 -42.5t78 -121.5q55 164 225 164z" />
    <glyph glyph-name="uni0446.loclBGR" horiz-adv-x="798" 
d="M686 1047v-941h96v-360h-110v254h-90l-7 164q-28 -90 -89.5 -137t-151.5 -47q-113 0 -179.5 80t-66.5 231v756h115v-744q0 -110 48 -167.5t130 -57.5q89 0 139.5 68t50.5 188v713h115z" />
    <glyph glyph-name="uni0448.loclBGR" horiz-adv-x="1173" 
d="M967 297v752h112v-1047h-100l-8 139q-55 -155 -215 -155q-77 0 -131.5 42.5t-77.5 121.5q-27 -79 -84 -121.5t-141 -42.5q-108 0 -170 77.5t-62 217.5v768h115v-752q0 -100 43 -156.5t117 -56.5q76 0 119.5 56.5t43.5 156.5v752h113v-752q0 -101 43.5 -157t118.5 -56
q76 0 120 56.5t44 156.5z" />
    <glyph glyph-name="uni0449.loclBGR" horiz-adv-x="1193" 
d="M1081 1049v-943h97v-360h-111v254h-63v2h-25l-6 137q-58 -153 -217 -153q-77 0 -131.5 42.5t-77.5 121.5q-27 -79 -84 -121.5t-141 -42.5q-108 0 -169 77.5t-61 217.5v768h113v-752q0 -100 43 -156.5t117 -56.5q77 0 120 56t43 157v752h115v-752q0 -101 42.5 -157
t117.5 -56q76 0 120 56.5t44 156.5v752h114z" />
    <glyph glyph-name="uni044C.loclBGR" horiz-adv-x="677" 
d="M199 676h145q139 0 217 -87.5t78 -250.5q0 -167 -76.5 -257.5t-206.5 -90.5q-133 0 -201.5 79.5t-68.5 221.5v756h113v-371zM356 88q77 0 123.5 62t46.5 188q0 121 -48 180.5t-138 59.5h-141v-267q0 -106 39.5 -164.5t117.5 -58.5z" />
    <glyph glyph-name="uni044A.loclBGR" horiz-adv-x="731" 
d="M252 676h145q139 0 217 -87.5t78 -250.5q0 -167 -76 -257.5t-206 -90.5q-133 0 -202 79.5t-69 221.5v651h-125v105h238v-371zM410 88q77 0 123.5 62t46.5 188q0 120 -48.5 180t-138.5 60h-141v-267q0 -106 40 -164.5t118 -58.5z" />
    <glyph glyph-name="yucy.loclBGR" horiz-adv-x="1034" 
d="M647 1063q153 0 240.5 -143.5t87.5 -397.5q0 -253 -87.5 -395.5t-240.5 -142.5q-149 0 -236.5 133t-93.5 370h-108v-487h-113v1536h113v-952h110q10 227 96.5 353t231.5 126zM647 88q100 0 159.5 116.5t59.5 319.5q0 201 -59.5 317.5t-159.5 116.5t-159.5 -116.5
t-59.5 -317.5q0 -203 59.5 -319.5t159.5 -116.5z" />
    <glyph glyph-name="uni0431.loclSRB" horiz-adv-x="790" 
d="M256 1442l350 -469q131 -174 131 -449q0 -254 -91.5 -399t-248.5 -145q-159 0 -251.5 145t-92.5 399q0 244 83 384.5t226 140.5q24 0 70 -11l-305 416v82h537v-94h-408zM397 84q105 0 168.5 118.5t63.5 321.5q0 204 -63.5 322.5t-168.5 118.5q-106 0 -168.5 -118
t-62.5 -323q0 -203 62.5 -321.5t168.5 -118.5z" />
    <glyph glyph-name="zero.osf" horiz-adv-x="794" 
d="M397 -20q-141 0 -226 94.5t-85 255.5v385q0 160 85.5 255t225.5 95q141 0 226.5 -95t85.5 -255v-385q0 -161 -85.5 -255.5t-226.5 -94.5zM397 84q91 0 146 66.5t55 181.5v381q0 115 -55 181.5t-146 66.5q-92 0 -147 -66.5t-55 -181.5v-381q0 -115 55 -181.5t147 -66.5z
" />
    <glyph glyph-name="one.osf" horiz-adv-x="604" 
d="M569 0h-518v104h203v807l-188 -108v108l299 154v-961h204v-104z" />
    <glyph glyph-name="two.osf" horiz-adv-x="675" 
d="M614 0h-551v78q0 65 24 126t62 109.5t84 94.5t91.5 90.5t83.5 89t62 98t24 109.5q0 78 -40 126t-108 48q-79 0 -124.5 -61t-45.5 -160l-110 10q5 143 81 227t203 84q113 0 184.5 -73t71.5 -201q0 -68 -23.5 -131t-60.5 -112t-82 -95t-90.5 -88.5t-82.5 -83.5t-61 -88
t-24 -95h432v-102z" />
    <glyph glyph-name="three.osf" horiz-adv-x="716" 
d="M608 958l-254 -423q140 -5 222.5 -124.5t82.5 -322.5q0 -211 -84 -333t-225 -122q-144 0 -226.5 113.5t-82.5 306.5h113q0 -148 51.5 -231.5t142.5 -83.5q90 0 144 92t55 256q0 167 -63 260t-179 94h-69l-5 76l252 428h-413v103h538v-89z" />
    <glyph glyph-name="four.osf" horiz-adv-x="714" 
d="M545 1047v-951h135v-96h-135v-358h-103v358h-401v86l383 961h121zM465 944l-322 -848h299q0 581 23 848z" />
    <glyph glyph-name="five.osf" horiz-adv-x="745" 
d="M403 590q127 0 204 -128.5t77 -350.5q0 -219 -84 -348.5t-223 -129.5q-147 0 -232.5 125.5t-85.5 339.5h115q2 -166 54.5 -262t144.5 -96q90 0 143 99t53 272q0 179 -53 278.5t-143 99.5q-67 0 -119 -51t-70 -145l-104 31l96 720h467v-104h-375l-63 -469q36 58 88 88.5
t110 30.5z" />
    <glyph glyph-name="six.osf" 
d="M434 961q129 0 209 -129.5t80 -350.5q0 -232 -87 -366.5t-235 -134.5q-150 0 -236.5 132t-86.5 359q0 183 67 350l248 633h119l-227 -569q56 76 149 76zM401 88q96 0 150.5 102t54.5 287t-54.5 287t-150.5 102q-99 0 -153.5 -102t-54.5 -287t55.5 -287t152.5 -102z" />
    <glyph glyph-name="seven.osf" horiz-adv-x="649" 
d="M35 942v105h569v-95l-352 -1310h-115l348 1300h-450z" />
    <glyph glyph-name="eight.osf" horiz-adv-x="778" 
d="M528 780q87 -42 135 -142.5t48 -236.5q0 -196 -87 -308.5t-235 -112.5t-234.5 112.5t-86.5 308.5q0 137 47 237.5t133 143.5q-67 44 -103 129.5t-36 196.5q0 171 76 269t204 98t205.5 -98t77.5 -269q0 -111 -38 -198.5t-106 -129.5zM389 1376q-74 0 -121 -72t-47 -202
t47 -203.5t121 -73.5q76 0 123 73.5t47 203.5t-47 202t-123 72zM389 84q95 0 150 86t55 240q0 152 -55 236.5t-150 84.5t-150 -84.5t-55 -236.5q0 -154 55 -240t150 -86z" />
    <glyph glyph-name="nine.osf" horiz-adv-x="788" 
d="M397 1065q149 0 236.5 -133.5t87.5 -360.5q0 -171 -68 -350l-247 -633l-121 2l227 568q-56 -76 -150 -76q-128 0 -208 129t-80 350q0 233 87 368.5t236 135.5zM397 178q97 0 152 102t55 287t-55 286t-152 101q-96 0 -151.5 -101.5t-55.5 -285.5t55.5 -286.5t151.5 -102.5
z" />
    <glyph glyph-name="zero.slash" horiz-adv-x="847" 
d="M424 1475q149 0 239.5 -94.5t90.5 -254.5v-798q0 -160 -90.5 -254t-239.5 -94t-238.5 94t-89.5 254v798q0 160 89.5 254.5t238.5 94.5zM213 1126v-798q0 -96 45 -160l281 1167q-48 31 -115 31q-96 0 -153.5 -65t-57.5 -175zM637 328v798q0 99 -49 164l-279 -1169
q44 -33 115 -33q96 0 154.5 65t58.5 175z" />
    <glyph glyph-name="uni24FF.ss06" horiz-adv-x="1280" 
d="M840 0h-398q-144 0 -230.5 86t-86.5 229v824q0 143 86.5 229t230.5 86h398q142 0 228.5 -86t86.5 -229v-824q0 -143 -86.5 -229t-228.5 -86zM639 274q96 0 155.5 61.5t59.5 166.5v485q0 105 -59.5 167.5t-155.5 62.5t-155.5 -62.5t-59.5 -167.5v-485q0 -105 59.5 -166.5
t155.5 -61.5zM639 358q-56 0 -90.5 39t-34.5 105v485q0 66 34.5 106t90.5 40q57 0 92 -39.5t35 -106.5v-485q0 -66 -35 -105t-92 -39z" />
    <glyph glyph-name="uni2776.ss06" horiz-adv-x="1280" 
d="M840 0h-398q-144 0 -230.5 86t-86.5 229v824q0 143 86.5 229t230.5 86h398q142 0 228.5 -86t86.5 -229v-824q0 -143 -86.5 -229t-228.5 -86zM469 367v-80h346v80h-129v835l-209 -94v-82l119 61v-720h-127z" />
    <glyph glyph-name="uni2777.ss06" horiz-adv-x="1280" 
d="M840 0h-398q-144 0 -230.5 86t-86.5 229v824q0 143 86.5 229t230.5 86h398q142 0 228.5 -86t86.5 -229v-824q0 -143 -86.5 -229t-228.5 -86zM442 350v-63h406v84h-316q4 61 38.5 122t79.5 114.5t89.5 110t75.5 129.5t31 152q0 100 -54.5 159t-144.5 59
q-94 0 -149.5 -67.5t-55.5 -180.5h90q2 77 32.5 120.5t84.5 43.5q49 0 78 -37.5t29 -100.5q0 -69 -32.5 -136t-78.5 -122.5t-92 -112t-78.5 -128t-32.5 -146.5z" />
    <glyph glyph-name="uni2778.ss06" horiz-adv-x="1280" 
d="M840 0h-398q-144 0 -230.5 86t-86.5 229v824q0 143 86.5 229t230.5 86h398q142 0 228.5 -86t86.5 -229v-824q0 -143 -86.5 -229t-228.5 -86zM643 274q97 0 154 73t57 194q0 85 -32.5 143.5t-92.5 81.5q102 56 102 215q0 109 -51 172.5t-137 63.5q-96 0 -151.5 -73
t-55.5 -198h88q0 90 30 139.5t83 49.5q49 0 76.5 -43t27.5 -121q0 -82 -30.5 -127t-85.5 -45h-43v-80h41q65 0 103 -45t38 -131q0 -89 -33 -139t-90 -50q-58 0 -91.5 52t-33.5 149h-88q0 -132 57.5 -206.5t157.5 -74.5z" />
    <glyph glyph-name="uni2779.ss06" horiz-adv-x="1280" 
d="M840 0h-398q-144 0 -230.5 86t-86.5 229v824q0 143 86.5 229t230.5 86h398q142 0 228.5 -86t86.5 -229v-824q0 -143 -86.5 -229t-228.5 -86zM670 487v-200h84v200h86v74h-86v641h-101l-262 -649v-66h279zM670 561h-195q18 48 53 139.5t54 141t45.5 123.5t48.5 141
q-6 -182 -6 -545z" />
    <glyph glyph-name="uni277A.ss06" horiz-adv-x="1280" 
d="M840 0h-398q-144 0 -230.5 86t-86.5 229v824q0 143 86.5 229t230.5 86h398q142 0 228.5 -86t86.5 -229v-824q0 -143 -86.5 -229t-228.5 -86zM641 274q97 0 154 85.5t57 230.5t-51 228t-135 83q-90 0 -134 -90l29 309h250v82h-324l-51 -516h86q13 68 45 103.5t74 35.5
q55 0 88 -61.5t33 -173.5t-33 -173t-88 -61q-57 0 -89 57t-32 160h-90q0 -136 56.5 -217.5t154.5 -81.5z" />
    <glyph glyph-name="uni277B.ss06" horiz-adv-x="1280" 
d="M840 0h-398q-144 0 -230.5 86t-86.5 229v824q0 143 86.5 229t230.5 86h398q142 0 228.5 -86t86.5 -229v-824q0 -143 -86.5 -229t-228.5 -86zM645 274q98 0 154.5 85.5t56.5 232.5q0 139 -50.5 220t-133.5 81q-50 0 -84 -37l139 346h-96l-160 -409q-39 -104 -39 -207
q0 -143 57.5 -227.5t155.5 -84.5zM645 358q-57 0 -90 61t-33 169q0 112 32.5 171.5t90.5 59.5q56 0 88.5 -60t32.5 -171q0 -109 -32.5 -169.5t-88.5 -60.5z" />
    <glyph glyph-name="uni277C.ss06" horiz-adv-x="1280" 
d="M840 0h-398q-144 0 -230.5 86t-86.5 229v824q0 143 86.5 229t230.5 86h398q142 0 228.5 -86t86.5 -229v-824q0 -143 -86.5 -229t-228.5 -86zM758 1120l-213 -833h92l215 846v69h-397v-82h303z" />
    <glyph glyph-name="uni277D.ss06" horiz-adv-x="1280" 
d="M840 0h-398q-144 0 -230.5 86t-86.5 229v824q0 143 86.5 229t230.5 86h398q142 0 228.5 -86t86.5 -229v-824q0 -143 -86.5 -229t-228.5 -86zM637 274q97 0 154 72.5t57 196.5q0 82 -28.5 144t-80.5 91q41 28 63.5 81.5t22.5 121.5q0 107 -51.5 170t-136.5 63
q-83 0 -133.5 -62t-50.5 -171q0 -143 84 -203q-52 -29 -80.5 -91t-28.5 -144q0 -124 56.5 -196.5t152.5 -72.5zM637 813q-44 0 -71 43t-27 121q0 76 27 119t71 43q45 0 73.5 -43.5t28.5 -118.5q0 -78 -28 -121t-74 -43zM637 354q-55 0 -87 52t-32 143t32 140.5t87 49.5
q56 0 89.5 -50t33.5 -140q0 -92 -33.5 -143.5t-89.5 -51.5z" />
    <glyph glyph-name="uni277E.ss06" horiz-adv-x="1280" 
d="M840 0h-398q-144 0 -230.5 86t-86.5 229v824q0 143 86.5 229t230.5 86h398q142 0 228.5 -86t86.5 -229v-824q0 -143 -86.5 -229t-228.5 -86zM702 633l-137 -346h92l162 409q39 94 39 207q0 143 -57.5 228.5t-155.5 85.5q-97 0 -154 -87t-57 -233q0 -137 51.5 -219
t132.5 -82q50 0 84 37zM645 670q-56 0 -88.5 60t-32.5 171q0 108 32.5 168.5t88.5 60.5q58 0 90.5 -60t32.5 -169q0 -112 -32 -171.5t-91 -59.5z" />
    <glyph glyph-name="uni24EA.ss06" horiz-adv-x="1314" 
d="M877 -25h-437q-142 0 -228.5 85.5t-86.5 226.5v882q0 141 86.5 226.5t228.5 85.5h437q141 0 226 -85.5t85 -226.5v-882q0 -141 -85 -226.5t-226 -85.5zM440 49h437q106 0 168.5 64.5t62.5 173.5v882q0 109 -62.5 173.5t-168.5 64.5h-437q-107 0 -170 -64.5t-63 -173.5
v-882q0 -109 63 -173.5t170 -64.5zM655 274q-96 0 -155.5 61.5t-59.5 166.5v485q0 105 59.5 167.5t155.5 62.5t155.5 -62.5t59.5 -167.5v-485q0 -105 -59.5 -166.5t-155.5 -61.5zM655 358q57 0 92 39t35 105v485q0 67 -35 106.5t-92 39.5q-56 0 -90.5 -40t-34.5 -106v-485
q0 -66 34.5 -105t90.5 -39z" />
    <glyph glyph-name="uni2460.ss06" horiz-adv-x="1314" 
d="M877 -25h-437q-142 0 -228.5 85.5t-86.5 226.5v882q0 141 86.5 226.5t228.5 85.5h437q141 0 226 -85.5t85 -226.5v-882q0 -141 -85 -226.5t-226 -85.5zM440 49h437q106 0 168.5 64.5t62.5 173.5v882q0 109 -62.5 173.5t-168.5 64.5h-437q-107 0 -170 -64.5t-63 -173.5
v-882q0 -109 63 -173.5t170 -64.5zM834 287h-347v80h127v720l-118 -61v82l209 94v-835h129v-80z" />
    <glyph glyph-name="uni2461.ss06" horiz-adv-x="1314" 
d="M440 1481h437q141 0 226 -85.5t85 -226.5v-882q0 -141 -85 -226.5t-226 -85.5h-437q-142 0 -228.5 85.5t-86.5 226.5v882q0 141 86.5 226.5t228.5 85.5zM1108 287v882q0 109 -62.5 173.5t-168.5 64.5h-437q-107 0 -170 -64.5t-63 -173.5v-882q0 -109 63 -173.5t170 -64.5
h437q106 0 168.5 64.5t62.5 173.5zM864 999q0 -79 -31 -152t-75.5 -129.5t-90 -110t-79 -114.5t-37.5 -122h315v-84h-405v63q0 64 23 125.5t58 107.5t75.5 97.5t75.5 96t58 102t23 116.5q0 63 -28.5 100.5t-77.5 37.5q-54 0 -84.5 -43.5t-32.5 -120.5h-90q0 113 55.5 180.5
t149.5 67.5q90 0 144 -58.5t54 -159.5z" />
    <glyph glyph-name="uni2462.ss06" horiz-adv-x="1314" 
d="M440 1481h437q141 0 226 -85.5t85 -226.5v-882q0 -141 -85 -226.5t-226 -85.5h-437q-142 0 -228.5 85.5t-86.5 226.5v882q0 141 86.5 226.5t228.5 85.5zM1108 287v882q0 109 -62.5 173.5t-168.5 64.5h-437q-107 0 -170 -64.5t-63 -173.5v-882q0 -109 63 -173.5t170 -64.5
h437q106 0 168.5 64.5t62.5 173.5zM750 766q60 -23 91 -81.5t31 -143.5q0 -121 -56.5 -194t-153.5 -73q-100 0 -158 75t-58 206h89q0 -97 33 -149t91 -52q57 0 90 50t33 139q0 86 -38 131t-103 45h-41v80h43q56 0 86.5 45t30.5 127q0 78 -27.5 121t-77.5 43
q-53 0 -82.5 -49.5t-29.5 -139.5h-88q0 125 55.5 198t151.5 73q86 0 137 -63.5t51 -172.5q0 -75 -25.5 -131.5t-74.5 -83.5z" />
    <glyph glyph-name="uni2463.ss06" horiz-adv-x="1314" 
d="M440 1481h437q141 0 226 -85.5t85 -226.5v-882q0 -141 -85 -226.5t-226 -85.5h-437q-142 0 -228.5 85.5t-86.5 226.5v882q0 141 86.5 226.5t228.5 85.5zM1108 287v882q0 109 -62.5 173.5t-168.5 64.5h-437q-107 0 -170 -64.5t-63 -173.5v-882q0 -109 63 -173.5t170 -64.5
h437q106 0 168.5 64.5t62.5 173.5zM678 1202h100v-641h86v-74h-86v-200h-84v200h-278v66zM500 561h194q-3 281 6 547q-28 -85 -59 -170t-74.5 -199t-66.5 -178z" />
    <glyph glyph-name="uni2464.ss06" horiz-adv-x="1314" 
d="M877 -25h-437q-142 0 -228.5 85.5t-86.5 226.5v882q0 141 86.5 226.5t228.5 85.5h437q141 0 226 -85.5t85 -226.5v-882q0 -141 -85 -226.5t-226 -85.5zM440 49h437q106 0 168.5 64.5t62.5 173.5v882q0 109 -62.5 173.5t-168.5 64.5h-437q-107 0 -170 -64.5t-63 -173.5
v-882q0 -109 63 -173.5t170 -64.5zM657 274q-98 0 -154.5 81.5t-56.5 217.5h91q0 -103 31.5 -160t88.5 -57q55 0 88 61t33 173t-33 173.5t-88 61.5q-41 0 -73 -35.5t-45 -103.5h-86l51 516h323v-82h-249l-29 -309q44 90 133 90q84 0 135 -83t51 -228t-57 -230.5t-154 -85.5z
" />
    <glyph glyph-name="uni2465.ss06" horiz-adv-x="1314" 
d="M440 1481h437q141 0 226 -85.5t85 -226.5v-882q0 -141 -85 -226.5t-226 -85.5h-437q-142 0 -228.5 85.5t-86.5 226.5v882q0 141 86.5 226.5t228.5 85.5zM1108 287v882q0 109 -62.5 173.5t-168.5 64.5h-437q-107 0 -170 -64.5t-63 -173.5v-882q0 -109 63 -173.5t170 -64.5
h437q106 0 168.5 64.5t62.5 173.5zM688 893q83 0 133.5 -81t50.5 -220q0 -147 -56 -232.5t-154 -85.5t-155.5 84.5t-57.5 227.5q0 106 38 207l160 409h96l-141 -348q36 39 86 39zM662 358q56 0 88 60.5t32 169.5q0 111 -32 171t-88 60q-58 0 -90.5 -59.5t-32.5 -171.5
q0 -108 33 -169t90 -61z" />
    <glyph glyph-name="uni2466.ss06" horiz-adv-x="1314" 
d="M877 -25h-437q-142 0 -228.5 85.5t-86.5 226.5v882q0 141 86.5 226.5t228.5 85.5h437q141 0 226 -85.5t85 -226.5v-882q0 -141 -85 -226.5t-226 -85.5zM440 49h437q106 0 168.5 64.5t62.5 173.5v882q0 109 -62.5 173.5t-168.5 64.5h-437q-107 0 -170 -64.5t-63 -173.5
v-882q0 -109 63 -173.5t170 -64.5zM856 1202v-69l-215 -846h-92l213 833h-303v82h397z" />
    <glyph glyph-name="uni2467.ss06" horiz-adv-x="1314" 
d="M440 1481h437q141 0 226 -85.5t85 -226.5v-882q0 -141 -85 -226.5t-226 -85.5h-437q-142 0 -228.5 85.5t-86.5 226.5v882q0 141 86.5 226.5t228.5 85.5zM1108 287v882q0 109 -62.5 173.5t-168.5 64.5h-437q-107 0 -170 -64.5t-63 -173.5v-882q0 -109 63 -173.5t170 -64.5
h437q106 0 168.5 64.5t62.5 173.5zM752 778q52 -29 81 -91t29 -144q0 -124 -57 -196.5t-154 -72.5q-96 0 -152.5 72.5t-56.5 196.5q0 83 29 145.5t82 89.5q-86 62 -86 203q0 109 50.5 171t133.5 62q85 0 137 -63t52 -170q0 -68 -23 -122t-65 -81zM651 1139q-44 0 -71 -43
t-27 -119q0 -78 27 -121t71 -43q46 0 74.5 43.5t28.5 120.5q0 75 -29 118.5t-74 43.5zM651 354q56 0 89.5 51.5t33.5 143.5q0 90 -33.5 140t-89.5 50q-55 0 -87 -49.5t-32 -140.5t32 -143t87 -52z" />
    <glyph glyph-name="uni2468.ss06" horiz-adv-x="1314" 
d="M440 1481h437q141 0 226 -85.5t85 -226.5v-882q0 -141 -85 -226.5t-226 -85.5h-437q-142 0 -228.5 85.5t-86.5 226.5v882q0 141 86.5 226.5t228.5 85.5zM1108 287v882q0 109 -62.5 173.5t-168.5 64.5h-437q-107 0 -170 -64.5t-63 -173.5v-882q0 -109 63 -173.5t170 -64.5
h437q106 0 168.5 64.5t62.5 173.5zM664 1217q98 0 155.5 -85.5t57.5 -228.5q0 -113 -39 -207l-162 -409h-92l137 344q-35 -35 -84 -35q-81 0 -132.5 82t-51.5 219q0 146 57 233t154 87zM664 670q59 0 90.5 59.5t31.5 171.5q0 109 -32 169t-90 60q-56 0 -88.5 -60.5
t-32.5 -168.5q0 -111 32.5 -171t88.5 -60z" />
    <glyph glyph-name="zero.dnom" horiz-adv-x="581" 
d="M291 -12q-96 0 -155.5 61t-59.5 166v485q0 105 59.5 167.5t155.5 62.5t155.5 -62.5t59.5 -167.5v-485q0 -105 -59.5 -166t-155.5 -61zM291 72q57 0 92 38.5t35 104.5v485q0 67 -35 106.5t-92 39.5q-56 0 -90.5 -40t-34.5 -106v-485q0 -65 34.5 -104t90.5 -39z" />
    <glyph glyph-name="one.dnom" horiz-adv-x="401" 
d="M379 0h-346v80h127v721l-119 -62v82l209 94v-835h129v-80z" />
    <glyph glyph-name="two.dnom" horiz-adv-x="501" 
d="M137 84h316v-84h-406v63q0 64 23 125.5t58 108t75.5 98t75.5 96t58 102t23 116.5q0 63 -28.5 100t-77.5 37q-54 0 -84.5 -43.5t-32.5 -120.5h-90q0 113 55.5 180.5t149.5 67.5q90 0 144.5 -58.5t54.5 -158.5q0 -79 -31 -152t-76 -129.5t-90 -110t-79 -115t-38 -122.5z
" />
    <glyph glyph-name="three.dnom" horiz-adv-x="522" 
d="M344 479q60 -23 91.5 -81.5t31.5 -143.5q0 -121 -56.5 -193.5t-154.5 -72.5q-100 0 -157.5 74.5t-57.5 205.5h88q0 -97 33.5 -148.5t91.5 -51.5q57 0 90 49.5t33 138.5q0 86 -38 131t-103 45h-41v80h43q55 0 85.5 45t30.5 127q0 78 -27.5 121t-76.5 43q-53 0 -83 -49.5
t-30 -139.5h-88q0 125 55.5 198t151.5 73q86 0 137 -63.5t51 -172.5q0 -75 -25.5 -131.5t-74.5 -83.5z" />
    <glyph glyph-name="four.dnom" horiz-adv-x="505" 
d="M387 915v-641h86v-73h-86v-201h-84v201h-278v65l262 649h100zM109 274h194q-3 281 6 547q-28 -85 -59 -170t-74.5 -199t-66.5 -178z" />
    <glyph glyph-name="five.dnom" horiz-adv-x="532" 
d="M272 -12q-98 0 -154.5 81.5t-56.5 217.5h91q0 -103 31.5 -160t88.5 -57q55 0 88 60.5t33 172.5t-33 174t-88 62q-41 0 -73 -36t-45 -104h-86l51 516h323v-81h-249l-29 -310q44 90 133 90q84 0 135 -83t51 -228t-57 -230t-154 -85z" />
    <glyph glyph-name="six.dnom" horiz-adv-x="507" 
d="M283 606q83 0 133.5 -81t50.5 -220q0 -147 -56.5 -232t-154.5 -85t-155.5 84t-57.5 227q0 103 39 207l160 409h96l-141 -348q36 39 86 39zM256 72q56 0 88.5 60t32.5 169q0 111 -32.5 171t-88.5 60q-58 0 -90.5 -59.5t-32.5 -171.5q0 -108 33 -168.5t90 -60.5z" />
    <glyph glyph-name="seven.dnom" horiz-adv-x="444" 
d="M414 915v-69l-215 -846h-93l213 834h-303v81h398z" />
    <glyph glyph-name="eight.dnom" horiz-adv-x="530" 
d="M365 492q52 -29 81 -91.5t29 -144.5q0 -124 -57 -196t-154 -72q-96 0 -152.5 72t-56.5 196q0 83 29 146t82 90q-86 62 -86 202q0 109 50.5 171.5t133.5 62.5q85 0 137 -63.5t52 -170.5q0 -68 -23 -121.5t-65 -80.5zM264 852q-44 0 -71 -43t-27 -119q0 -78 27 -121t71 -43
q46 0 74.5 43.5t28.5 120.5q0 75 -29 118.5t-74 43.5zM264 68q56 0 89.5 51t33.5 143q0 90 -33.5 140.5t-89.5 50.5q-55 0 -87 -50t-32 -141t32 -142.5t87 -51.5z" />
    <glyph glyph-name="nine.dnom" horiz-adv-x="507" 
d="M252 930q98 0 155.5 -85.5t57.5 -228.5q0 -112 -39 -206l-162 -410h-92l137 344q-35 -35 -84 -35q-81 0 -132.5 82t-51.5 219q0 146 57 233t154 87zM252 383q59 0 91 59.5t32 171.5q0 109 -32.5 169.5t-90.5 60.5q-56 0 -88.5 -61t-32.5 -169q0 -111 32.5 -171t88.5 -60z
" />
    <glyph glyph-name="zero.numr" horiz-adv-x="581" 
d="M291 526q-96 0 -155.5 61.5t-59.5 166.5v485q0 105 59.5 167t155.5 62t155.5 -62t59.5 -167v-485q0 -105 -59.5 -166.5t-155.5 -61.5zM291 610q57 0 92 39t35 105v485q0 67 -34.5 106t-92.5 39q-56 0 -90.5 -39.5t-34.5 -105.5v-485q0 -66 34.5 -105t90.5 -39z" />
    <glyph glyph-name="one.numr" horiz-adv-x="401" 
d="M379 539h-346v79h127v721l-119 -61v82l209 94v-836h129v-79z" />
    <glyph glyph-name="two.numr" horiz-adv-x="501" 
d="M137 623h316v-84h-406v63q0 64 23 125.5t58 107.5t75.5 97.5t75.5 96t58 102t23 116.5q0 63 -28.5 100t-77.5 37q-54 0 -84.5 -43t-32.5 -120h-90q0 113 55.5 180t149.5 67q90 0 144.5 -58.5t54.5 -158.5q0 -79 -31 -152t-76 -129.5t-90 -110t-79 -114.5t-38 -122z" />
    <glyph glyph-name="three.numr" horiz-adv-x="522" 
d="M344 1018q60 -23 91.5 -81.5t31.5 -143.5q0 -121 -57 -194t-154 -73q-100 0 -157.5 74.5t-57.5 206.5h88q0 -97 33.5 -149t91.5 -52q57 0 90 50t33 139q0 86 -38 131t-103 45h-41v80h43q55 0 85.5 45t30.5 127q0 78 -27 120.5t-77 42.5q-53 0 -83 -49t-30 -139h-88
q0 125 55.5 197.5t151.5 72.5q86 0 137 -63t51 -172q0 -75 -25.5 -131.5t-74.5 -83.5z" />
    <glyph glyph-name="four.numr" horiz-adv-x="505" 
d="M387 1454v-641h86v-74h-86v-200h-84v200h-278v66l262 649h100zM109 813h194q-3 281 6 547q-28 -85 -59 -170t-74.5 -199t-66.5 -178z" />
    <glyph glyph-name="five.numr" horiz-adv-x="532" 
d="M272 526q-98 0 -154.5 81.5t-56.5 217.5h91q0 -103 31.5 -160t88.5 -57q55 0 88 61t33 173t-33 173.5t-88 61.5q-41 0 -73 -35.5t-45 -103.5h-86l51 516h323v-82h-249l-29 -309q44 90 133 90q84 0 135 -83t51 -228t-57 -230.5t-154 -85.5z" />
    <glyph glyph-name="six.numr" horiz-adv-x="507" 
d="M283 1145q83 0 133.5 -81t50.5 -220q0 -147 -56.5 -232.5t-154.5 -85.5t-155.5 84.5t-57.5 227.5q0 102 39 206l160 410h96l-141 -348q36 39 86 39zM256 610q56 0 88.5 60.5t32.5 169.5q0 111 -32.5 171t-88.5 60q-58 0 -90.5 -59.5t-32.5 -171.5q0 -108 33 -169t90 -61z
" />
    <glyph glyph-name="seven.numr" horiz-adv-x="444" 
d="M414 1454v-70l-215 -845h-93l213 833h-303v82h398z" />
    <glyph glyph-name="eight.numr" horiz-adv-x="530" 
d="M365 1030q52 -29 81 -91t29 -144q0 -124 -57 -196.5t-154 -72.5q-96 0 -152.5 72.5t-56.5 196.5q0 83 29 145.5t82 89.5q-86 62 -86 203q0 109 50.5 171t133.5 62q85 0 137 -63t52 -170q0 -68 -23 -122t-65 -81zM264 1391q-44 0 -71 -43t-27 -119q0 -78 27 -121t71 -43
q46 0 74.5 43.5t28.5 120.5q0 75 -29 118.5t-74 43.5zM264 606q56 0 89.5 51.5t33.5 143.5q0 90 -33.5 140t-89.5 50q-55 0 -87 -49.5t-32 -140.5t32 -143t87 -52z" />
    <glyph glyph-name="nine.numr" horiz-adv-x="507" 
d="M252 1468q98 0 155.5 -85t57.5 -228q0 -113 -39 -207l-162 -409h-92l137 344q-35 -35 -84 -35q-81 0 -132.5 82t-51.5 219q0 146 57 232.5t154 86.5zM252 922q59 0 91 59.5t32 171.5q0 109 -32.5 169t-90.5 60q-56 0 -88.5 -60.5t-32.5 -168.5q0 -111 32.5 -171t88.5 -60
z" />
    <glyph glyph-name="zero.dnom.reversed" horiz-adv-x="581" 
d="M291 -12q96 0 155.5 61t59.5 166v485q0 105 -59.5 167.5t-155.5 62.5t-155.5 -62.5t-59.5 -167.5v-485q0 -105 59.5 -166t155.5 -61zM291 72q-56 0 -90.5 39t-34.5 104v485q0 66 34.5 106t90.5 40q57 0 92 -39.5t35 -106.5v-485q0 -66 -35 -104.5t-92 -38.5z" />
    <glyph glyph-name="one.dnom.reversed" horiz-adv-x="393" 
d="M33 80v-80h346v80h-129v835l-209 -94v-82l119 62v-721h-127z" />
    <glyph glyph-name="two.dnom.reversed" horiz-adv-x="501" 
d="M47 63v-63h406v84h-316q4 61 38.5 122.5t79.5 115t89.5 110t75.5 129.5t31 152q0 100 -54.5 158.5t-144.5 58.5q-94 0 -149.5 -67.5t-55.5 -180.5h90q2 77 32.5 120.5t84.5 43.5q49 0 77.5 -37t28.5 -100q0 -59 -23 -116.5t-58 -102t-75.5 -96t-75.5 -98t-58 -108
t-23 -125.5z" />
    <glyph glyph-name="three.dnom.reversed" horiz-adv-x="522" 
d="M256 -12q98 0 154.5 72.5t56.5 193.5q0 85 -32.5 143.5t-92.5 81.5q102 55 102 215q0 109 -51 172.5t-137 63.5q-96 0 -151.5 -73t-55.5 -198h88q0 90 30 139.5t83 49.5q49 0 76.5 -43t27.5 -121q0 -82 -30.5 -127t-85.5 -45h-43v-80h41q65 0 103 -45t38 -131
q0 -89 -33 -138.5t-90 -49.5q-58 0 -91.5 51.5t-33.5 148.5h-88q0 -131 57.5 -205.5t157.5 -74.5z" />
    <glyph glyph-name="four.dnom.reversed" horiz-adv-x="505" 
d="M303 201v-201h84v201h86v73h-86v641h-100l-262 -649v-65h278zM303 274h-194q157 415 200 545q-6 -182 -6 -545z" />
    <glyph glyph-name="five.dnom.reversed" horiz-adv-x="532" 
d="M272 -12q97 0 154 85t57 230t-51 228t-135 83q-89 0 -133 -90l29 310h249v81h-323l-51 -516h86q13 68 45 104t73 36q55 0 88 -62t33 -174t-33 -172.5t-88 -60.5q-57 0 -88.5 57t-31.5 160h-91q0 -136 56.5 -217.5t154.5 -81.5z" />
    <glyph glyph-name="six.dnom.reversed" horiz-adv-x="507" 
d="M256 -12q98 0 154.5 85t56.5 232q0 139 -50.5 220t-133.5 81q-50 0 -84 -37l139 346h-96l-160 -409q-39 -104 -39 -207q0 -143 57.5 -227t155.5 -84zM256 72q-57 0 -90 60.5t-33 168.5q0 112 32.5 171.5t90.5 59.5q56 0 88.5 -60t32.5 -171q0 -109 -32.5 -169t-88.5 -60z
" />
    <glyph glyph-name="seven.dnom.reversed" horiz-adv-x="444" 
d="M319 834l-213 -834h93l215 846v69h-398v-81h303z" />
    <glyph glyph-name="eight.dnom.reversed" horiz-adv-x="530" 
d="M264 -12q97 0 154 72t57 196q0 83 -28 145t-80 91q41 28 63.5 81t22.5 121q0 107 -52 170.5t-137 63.5q-83 0 -133.5 -62.5t-50.5 -171.5q0 -142 84 -202q-52 -29 -80.5 -91.5t-28.5 -144.5q0 -124 56.5 -196t152.5 -72zM264 526q-44 0 -71 43t-27 121q0 76 27 119t71 43
q45 0 74 -43.5t29 -118.5q0 -77 -28.5 -120.5t-74.5 -43.5zM264 68q-55 0 -87 51.5t-32 142.5t32 141t87 50q56 0 89.5 -50.5t33.5 -140.5q0 -92 -33.5 -143t-89.5 -51z" />
    <glyph glyph-name="nine.dnom.reversed" horiz-adv-x="507" 
d="M309 346l-137 -346h92l162 410q39 94 39 206q0 143 -57.5 228.5t-155.5 85.5q-97 0 -154 -87t-57 -233q0 -137 51.5 -219t132.5 -82q50 0 84 37zM252 383q-56 0 -88.5 60t-32.5 171q0 108 32.5 169t88.5 61q58 0 90.5 -60.5t32.5 -169.5q0 -112 -32 -171.5t-91 -59.5z
" />
    <glyph glyph-name="exclamdown.case" horiz-adv-x="389" 
d="M195 1464q31 0 52 -20t21 -51q0 -32 -21 -53t-52 -21t-52.5 21t-21.5 53q0 30 21.5 50.5t52.5 20.5zM137 1077h113l4 -1077h-117v1077z" />
    <glyph glyph-name="questiondown.case" horiz-adv-x="632" 
d="M328 1464q31 0 52 -20t21 -51q0 -32 -21 -53t-52 -21t-52.5 21t-21.5 53q0 30 21.5 50.5t52.5 20.5zM492 422h114q0 -204 -79 -323t-212 -119q-128 0 -202 101t-74 273q0 159 62.5 260.5t172.5 128.5v334h107v-420q-110 0 -166.5 -76t-56.5 -219q0 -127 42 -198.5
t119 -71.5q79 0 126 87t47 243z" />
    <glyph glyph-name="periodcentered.case" horiz-adv-x="387" 
d="M195 662q-31 0 -52.5 20.5t-21.5 52.5q0 31 21.5 52.5t52.5 21.5t52 -21.5t21 -52.5q0 -32 -21 -52.5t-52 -20.5z" />
    <glyph glyph-name="hyphen.case" horiz-adv-x="661" 
d="M96 676v100h469v-100h-469z" />
    <glyph glyph-name="endash.case" horiz-adv-x="724" 
d="M0 668v110h725v-110h-725z" />
    <glyph glyph-name="emdash.case" horiz-adv-x="899" 
d="M0 668v110h899v-110h-899z" />
    <glyph glyph-name="parenleft.case" horiz-adv-x="405" 
d="M371 1577v-104q-68 0 -113 -42.5t-45 -125.5v-1217q0 -84 45 -126t113 -42v-104q-125 0 -196 71t-71 205v1208q0 134 71 205.5t196 71.5z" />
    <glyph glyph-name="parenright.case" horiz-adv-x="405" 
d="M37 -184v104q67 0 111.5 42.5t44.5 125.5v1217q0 84 -44.5 126t-111.5 42v104q125 0 195.5 -71.5t70.5 -205.5v-1208q0 -134 -70.5 -205t-195.5 -71z" />
    <glyph glyph-name="braceleft.case" horiz-adv-x="407" 
d="M371 1577v-102q-28 8 -53 8t-48 -9.5t-35.5 -38t-9.5 -73.5l29 -522q3 -58 -16.5 -94.5t-51.5 -49.5q71 -33 68 -145l-29 -518q-3 -46 9.5 -74.5t36 -38t48 -9t52.5 8.5v-104q-120 -22 -189.5 22t-62.5 170l28 533q3 64 -19.5 87t-61.5 23h-27v92h27q86 0 81 109l-28 532
q-7 127 63 171t189 22z" />
    <glyph glyph-name="braceright.case" horiz-adv-x="407" 
d="M342 741h27v-92h-27q-39 0 -62 -22.5t-20 -85.5l29 -533q4 -65 -14.5 -109.5t-53.5 -64t-82.5 -25t-101.5 6.5v102q36 -8 69.5 -8t56.5 31t19 90l-28 522q-3 58 16 94t51 49q-32 15 -51 52t-16 94l28 518q3 46 -9.5 74.5t-35.5 38t-47.5 9t-52.5 -8.5v104
q120 22 189.5 -22.5t62.5 -170.5l-29 -532q-5 -111 82 -111z" />
    <glyph glyph-name="bracketleft.case" horiz-adv-x="417" 
d="M381 -184h-266v1761h266v-102h-156v-1557h156v-102z" />
    <glyph glyph-name="bracketright.case" horiz-adv-x="417" 
d="M37 1577h266v-1761h-266v102h156v1557h-156v102z" />
    <glyph glyph-name="parenleft.ss04" horiz-adv-x="327" 
d="M291 1454v-37q-66 0 -107 -44t-41 -126v-1347q0 -82 41 -126t107 -44v-37q-82 0 -134.5 55t-52.5 152v1347q0 97 52.5 152t134.5 55z" />
    <glyph glyph-name="parenright.ss04" horiz-adv-x="327" 
d="M37 -307v37q64 0 105.5 44t41.5 126v1347q0 82 -41.5 126t-105.5 44v37q81 0 133.5 -55t52.5 -152v-1347q0 -97 -52.5 -152t-133.5 -55z" />
    <glyph glyph-name="braceleft.ss04" horiz-adv-x="339" 
d="M303 1454v-41q-20 7 -39.5 9.5t-40 -1t-35.5 -15t-23.5 -36.5t-6.5 -61l35 -607q3 -59 -15 -90.5t-47 -38.5q67 -19 62 -129l-35 -606q-2 -36 6.5 -61t23.5 -36.5t35.5 -15t40 -1t39.5 9.5v-41q-29 -7 -54.5 -8t-51.5 6t-43.5 23.5t-27.5 48t-7 75.5l35 608
q7 111 -84 111h-31v33h31q17 0 30 3.5t27.5 13.5t21.5 34t5 59l-35 609q-4 54 11.5 89.5t43 47.5t61.5 15t68 -7z" />
    </font>
</defs>
</svg>
