<svg xmlns="http://www.w3.org/2000/svg" viewBox="0 0 192.97 87.14"><defs><style>.cls-1{fill:#ebe6dd;}</style></defs><title>Recurso 2</title><g id="Capa_2" data-name="Capa 2"><g id="Capa_1-2" data-name="Capa 1"><path class="cls-1" d="M133.38,56l6.28-4.83-7.4,10.35Zm-114-.84,9.64-4.71L27.94,65.61Zm116.69-12.5L141.46,44l-6.68,5.14Zm-104.78-23L29.45,45.11,19.06,50.2ZM107.23,0,86.33,64.41l-7.67-12L87,32.4l-4.15-1.91-13,25.9L76.5,7,72.06,6,60.46,43,54.8,34.68l-4.09.67-5,17.87-.2-12.32-3.29-2-8,3.91L37,5.23l-4.4-1L0,85.44l4.24,1.7L15.91,58.05,28,73l4.05-1.27,1.74-23.63L41,44.58l.39,24.34,4.49.59,7.94-28.19,5.56,8.16,4.07-.6,5-15.9L63.5,69.33l4.31,1.33,7.53-15L85.09,71l4.1-.53,13.88-42.76L96,75.07l4.3,1.38L112.2,53.2l-1.79,15.54,3.67,2.07,13.76-10.59-2.21,10.85,4.1,1.79,19.05-26.62-2.51,21.11,4.2,1.49,14.76-23.17-.31,12.42,4.37,1,7.3-16.3.68,14.38,4.36.87,6.5-13.82-.54,21.52,4.57.12L193,33.47l-4.35-1-7.21,15.32L180.71,33l-4.37-.82L169.78,46.8l.23-9.25-4.21-1.28L152,57.94l2.38-20-4.13-1.59-3.12,4.35-12.21-3.1-2.81,1.76-2.86,14L115.57,63.89l2.61-22.67-4.31-1.3L102.55,62,111.67,1Z"/></g></g></svg>