<svg xmlns="http://www.w3.org/2000/svg" viewBox="0 0 483.46 255.51"><defs><style>.cls-1{fill:#984124;}</style></defs><title>Recurso 15</title><g id="Capa_2" data-name="Capa 2"><g id="Capa_1-2" data-name="Capa 1"><path class="cls-1" d="M19.36,59.53c-.52-.14-.64-.21-.7-.18-4.3,2-8.92,3.38-12.59,6.59-1.19,1-2,1.1-3,.26s-1.63-2.6-.91-3.62A13.21,13.21,0,0,1,5.29,59.2c2.85-1.91,5.85-3.59,8.84-5.28,2.08-1.18,4.21-2.28,6.38-3.27a2.94,2.94,0,0,0,1.82-2.31c.49-2.64,1-5.28,1.42-7.92.67-3.72,1.35-7.44,2.06-11.37a4.56,4.56,0,0,1,1.6.5c2.18,1.82,3.57,3.95,3.09,7a55.64,55.64,0,0,0-.19,5.79c-.09,1.71-.3,3.41-.46,5.24,2.77-.36,5.2-.8,7.65-1,4.44-.29,8.84.39,13.26.75,2.77.22,5.33,1.58,8.21,1.16.9-.14,1.92.53,2.88.84,4.56,1.51,8.45,3.86,10.73,8.32a8,8,0,0,1,.42,7.2,53.82,53.82,0,0,1-4.08,7.25,33.72,33.72,0,0,1-4.56,5.43,20.2,20.2,0,0,1-5.46,4,5.15,5.15,0,0,0-1.07.62c-4.16,3.58-9.21,5.57-14.12,7.79-.06,0-.07.16-.2.49.46.15.9.34,1.36.44s1.14,0,1.53.26c3.27,2.15,7.31,2.82,10.42,5.07,3.3,2.39,6.86,4.84,8.58,8.76,1.3,2.94,2.16,6.22,1.19,9.37a80,80,0,0,1-4,9,3,3,0,0,1-.49.8c-3.06,3.19-5.66,6.8-9.27,9.51a46.46,46.46,0,0,1-7.75,5.13c-4.21,2-8.33,4.22-12.6,6.07a44.18,44.18,0,0,1-8.89,2.89,21.22,21.22,0,0,1-9.45,0,39,39,0,0,0-5.11-1.06c-1.62-.2-2.87-1.19-4.31-1.67-2.84-1-3.72-3.26-4.25-5.67a15.49,15.49,0,0,1-.17-7.11c.66-2.7,1-5.49,1.5-8.23a39.19,39.19,0,0,1,1.52-6.59,11.83,11.83,0,0,0,.61-3,57.09,57.09,0,0,1,1.9-8.28c.88-3.09,1.59-6.22,2.38-9.34a120.22,120.22,0,0,1,3.47-12.16c1.38-3.8,2.41-7.72,3.57-11.59,1.36-4.51,2.68-9,4.07-13.71M7.76,137.87A65.88,65.88,0,0,0,15,139.62a22.48,22.48,0,0,0,11-.85c3.18-1.23,6.37-2.42,9.51-3.76,4.18-1.77,7.51-4.67,11.09-7.25,2.76-2,4.82-4.69,7.14-7.15s3.42-5.16,4.64-8a10,10,0,0,0,.53-3,2,2,0,0,0-.36-1.43c-1.77-1.73-3.28-3.76-5.81-4.6-1.85-.62-3.59-1.59-5.41-2.32a67.51,67.51,0,0,0-7.21-2.73,97.09,97.09,0,0,0-16-3c-2.51-.26-4.81.58-7.26.57a54.71,54.71,0,0,1-1.88,6.06c-.94,2.15-.86,4.45-1.38,6.66-.93,3.91-2,7.79-2.93,11.7-.65,2.7-1.08,5.46-1.83,8.13a22.25,22.25,0,0,0-1,9.29M28.09,56.76c-.57,2-1.21,4.39-1.89,6.74a62.1,62.1,0,0,1-2.29,7.63c-1.84,4.28-2.55,8.88-4.12,13.23a17.5,17.5,0,0,0-.43,1.9,5.2,5.2,0,0,0,1.9.36c1.9-.47,4-.36,5.71-.94,3.4-1.12,7.18-1,10.29-3.07.16-.11.44-.22.57-.15,1.41.67,2.44-.38,3.46-.9,5.36-2.72,11-5.06,15.43-9.24,1.87-1.74,4.11-3.13,5.06-5.71a4.46,4.46,0,0,1,1.12-1.78,5.15,5.15,0,0,0,1.61-5C63.37,59.2,62.23,58.1,61,58c-2.31-.16-4.41-1.08-6.66-1.38-3.9-.52-7.82-1-11.73-1.44a17.34,17.34,0,0,0-4.95-.29c-3,.57-6.21-.06-9.58,1.85"/><path class="cls-1" d="M457.15,0c2.6,1.44,3.43,4.05,3.7,6.72a39.08,39.08,0,0,1-.35,10.79c-.53,3-.58,6-1,9-.31,2.53-.87,5-1.15,7.55a74.29,74.29,0,0,1-1.29,10c-.22.94.27,2.06.44,3.19,3.76.34,7.35-.67,11-1.44a9.64,9.64,0,0,1,3.82-.08,9.44,9.44,0,0,0,3.78.11,5,5,0,0,1,5.2,2.09c.81,1.1,1.45,2.33,2.14,3.45a8.54,8.54,0,0,1-6.14,3.5c-5.26.8-10.55,1.36-15.82,2.07-1.6.21-3.19.59-4.94.92-.56,1.15-1.31,2.32-.75,3.81a1,1,0,0,1,0,.69c-1.31,3.17-.74,6.64-1.63,9.88a16.13,16.13,0,0,0-.79,4.42c.08,4.28-1.65,8.19-2.19,12.34a33.19,33.19,0,0,1-4.13,11.39c-.67,1.24-2.87,2.41-4.07,2.13a3.61,3.61,0,0,1-2.52-2.65,10.15,10.15,0,0,1-.43-5.85,87.93,87.93,0,0,0,1.74-12.7,1.45,1.45,0,0,1,.12-.68c1.8-2.39,1.24-5.26,1.54-7.92a25.77,25.77,0,0,1,.92-4.69,33.21,33.21,0,0,0,1-9c-4.2.42-8.22.68-12.19,1.26-4.12.61-8.2,1.53-12.29,2.32-1.64.32-2.32-.19-2.62-1.88a3.52,3.52,0,0,1,1.45-4c1.45-1,2.79-2.09,4.69-2.17a7.17,7.17,0,0,0,2.7-.71A48.6,48.6,0,0,1,442,50.14a37.25,37.25,0,0,0,4.78-1.26c.44-3.47,1.1-6.89,1.23-10.32.08-2.2,1-4.14,1.21-6.27.34-3.11,1.2-6.16,1.77-9.25.36-1.94.58-3.9.87-5.85a13.54,13.54,0,0,1,.28-1.69,41,41,0,0,0,1.72-10.69c0-2.1.61-4.23,3.33-4.81"/><path class="cls-1" d="M271.31,119.33c-1.72-2.07-1.72-4.31-1.48-6.51.5-4.81,1.41-9.59,1.62-14.41.13-3.17,1.1-6.28.61-9.36-.78-.58-1.88-1-2.11-1.68a10,10,0,0,1-.22-3.79c0-.46.65-1,1.11-1.26.89-.56,1.86-1,3.14-1.64,0-1.16.08-2.49.15-3.82a20.21,20.21,0,0,1,.19-2.06c.58-3.89,1-7.82,1.83-11.66,1.26-5.77,2.82-11.49,4.27-17.22.11-.44.58-.85.57-1.26-.14-4.17,2.59-7.45,3.43-11.3a1.59,1.59,0,0,1,.2-.67c3.09-3.86,5.35-8.37,9.44-11.46a19.17,19.17,0,0,1,9.47-3.54,14.56,14.56,0,0,0,2.28,1.39c3.39,1.38,5,4.33,5.84,7.47a34.16,34.16,0,0,1,1.47,11,57.77,57.77,0,0,0,.83,9.95c.14,1.13.34,2.08-.86,2.71a2.31,2.31,0,0,1-3.14-.63,6.94,6.94,0,0,1-1.36-2.76c-.58-2.73-.93-5.51-1.46-8.26s-1.05-5.25-1.68-7.85c-.35-1.46-.71-1.77-2.76-3.36a26.48,26.48,0,0,0-2.89,2.19A29.31,29.31,0,0,0,294,38c-1.36,2.89-2.61,5.88-4.08,8.75-.45.9-.36,2-.71,3-1.18,3.27-1.31,6.82-2.8,10-.4.85.19,2.14-.18,3-2,4.76-2,9.86-3,15.19,1.9-.23,3.58-.44,5.25-.62,2.19-.24,4.39-.47,6.59-.66s4.31-.34,6.47-.49c1.7-.11,4.36,1.74,4.78,3.34a2.05,2.05,0,0,1-1.23,2.61,38.29,38.29,0,0,1-7.23,2.52,107,107,0,0,1-11.06,1.12,11.72,11.72,0,0,0-5.17,1.33c-.24,1.06-.57,2.16-.74,3.29-.68,4.36-1.24,8.74-2,13.09-.38,2.29-1,4.53-1.49,6.81-.22,1-.4,2-.53,3.07-.44,3.37-1.93,5-5.58,5.91"/><path class="cls-1" d="M233.23,81.46c.64-.62,1.23-1.29,1.91-1.85a24.86,24.86,0,0,1,4.41-3.32,6,6,0,0,1,6.89.71c2.65,2.19,4,5.11,5.05,8.22,1,2.8.5,5.72.7,8.59.05.69-.11,1.39-.08,2.08a19.1,19.1,0,0,0,.36,4.87c.43,1.38,1.58,2.53,2.37,3.72-.47,2.3-2.27,3-4,3.77a3.06,3.06,0,0,1-4.32-1.77,20.75,20.75,0,0,1-1.69-7.39c0-3.66-.52-7.34-.07-11a8.18,8.18,0,0,0-.45-2.76c-.44-1.78-1.79-2.22-3.07-.89a39.89,39.89,0,0,0-4.09,4.72,59.7,59.7,0,0,0-4.55,7.44,69.73,69.73,0,0,0-3.53,9.7,17.07,17.07,0,0,1-3,5.82c-.94,1.08-2.82,1.54-4.36,1.82a2.55,2.55,0,0,1-2.79-2.19,12.79,12.79,0,0,1-.57-4.48c.27-2.4,1-4.75,1.47-7.14.21-1.09.15-2.24.37-3.33.48-2.37,1.13-4.71,1.58-7.1.26-1.34-.1-2.9.46-4.07.87-1.83.64-3.75,1-5.6.37-1.69.39-3.46.82-5.12a46.56,46.56,0,0,0,1.41-6c.3-2.38,1-4.71,1.38-7.08.43-2.58,1.18-5.06,1.82-7.58.59-2.32.92-4.71,1.35-7.07,0-.22-.1-.49,0-.67,2-4.58,2.42-9.59,4-14.29.68-2.07,1.22-4.33,3.81-4.88,3.84,1.93,4,4.76,3.23,9.29-.27,1.68-1,3.28-.77,5.07a3.15,3.15,0,0,1-.19,1.38,111.15,111.15,0,0,0-2.68,11.41c-.76,3.57-1.3,7.19-2,10.77-.86,4.41-1.81,8.8-2.69,13.21-.17.88-.2,1.79-.29,2.68l.79.34"/><path class="cls-1" d="M90.37,112.81c-1,3.1-.33,4.59,2.46,5.24,5.9,1.37,11.83.91,17.73,0a3.8,3.8,0,0,0,1.53-.79c.94-.7,1.88-1,2.83-.12a3.17,3.17,0,0,1,.52,3.55,4.69,4.69,0,0,1-2.8,2.49c-2.81.76-5.59,1.9-8.45,2.15a48.59,48.59,0,0,1-12.86-.12c-3.94-.71-6.72-2.82-7.46-6.7-.65-3.41-1.63-6.81-.58-10.38a15.9,15.9,0,0,1,4.2-7.51c1.17-1.1,2.08-2.46,3.22-3.58a40.63,40.63,0,0,1,20.71-10.87c5.31-1.1,11.51,3.25,11.47,10,0,2.82-1.61,4.79-4,6.09-3.57,1.94-7.13,3.9-10.81,5.62a44.51,44.51,0,0,1-7.23,2.52c-3.47.93-7,1.64-10.49,2.44m25.52-18a1.84,1.84,0,0,0-2-1.54,15.67,15.67,0,0,0-4.86.48,31.6,31.6,0,0,0-16.46,12.1c13.52-3.35,19.41-6.9,23.35-11"/><path class="cls-1" d="M156.25,103.47c-1.05,1.31-2.13,2.61-3.15,4a33.43,33.43,0,0,1-6.95,7.15c-4.21,3.05-4.26,3-11,3.92a5.06,5.06,0,0,0-1.07-.74c-4.57-1.72-5.22-5.64-5.74-9.79-.68-5.41,1.67-9.66,4.85-13.63a43.25,43.25,0,0,1,7.3-7.39,22.6,22.6,0,0,1,7.82-3.82c3.32-.94,6,1,6.68,4.75a26.55,26.55,0,0,1-4.69,1.88c-2.73.56-4.59,2.4-6.36,4.15a52.51,52.51,0,0,0-8,10.76,3.27,3.27,0,0,0-.57,1.63c.06,1.58-.52,3.46,1.2,4.49s2.82-.29,4.09-1.1c4.94-3.16,8.52-7.63,11.53-12.48a57.39,57.39,0,0,0,4.69-10.3A5.47,5.47,0,0,1,161.77,83a6.68,6.68,0,0,1,2.59,6c-.2,2,.5,4.17.45,6.25-.09,3.26-.47,6.52-.75,9.77,0,.46-.38.94-.3,1.35,1,4.68-1.19,8.88-1.88,13.61l-4.18,1a8.66,8.66,0,0,1-1.64-6.21c.36-3.7.55-7.41.82-11.11l-.63-.22"/><path class="cls-1" d="M405.88,73c2.27-1.75,4.48-3.43,6.65-5.15a11.11,11.11,0,0,1,6.74-2.53,3.45,3.45,0,0,1,3.44,1.91c3.14,5.67,4.81,11.54,3.23,18.13-.65,2.68-.34,5.58-.73,8.35a77.68,77.68,0,0,1-1.66,7.79c-.25,1-2,1.89-3.5,1.86s-1.69-1-2-2.06c-1.08-4-.8-8.11-.53-12.18.3-4.5.72-9,1-13.48,0-.38-.3-.78-.57-1.44-1.31.87-2.76,1.38-3.48,2.4-1.39,2-3.88,3-4.76,5.4a4.89,4.89,0,0,1-1.4,1.56c-2.54,2.37-3.95,5.49-5.4,8.51-1.3,2.71-2.16,5.64-3.19,8.48-.62,1.72-4.09,3.47-5.73,2.81-.4-.17-.92-.52-1-.89a16.64,16.64,0,0,1-1.09-5,15.42,15.42,0,0,1,1.6-5,74.1,74.1,0,0,0,5.25-17.67,32.56,32.56,0,0,1,1.31-5.41c.39-1.13.82-2.53,2.65-2.55,2,1.38,2.09,3.89,3.13,6.16"/><path class="cls-1" d="M382,84.19c-.51,1.37-1,2.75-1.54,4.1-.31.75-.84,1.4-1.13,2.15A22,22,0,0,1,376,95.57a28,28,0,0,1-6.09,5.6,13,13,0,0,1-12.8,2,5.05,5.05,0,0,1-2-1.4c-3.45-4-5.56-8.57-5-14,.22-2.2.17-4.41,1.53-6.47,1.09-1.66,3.12-4.88,4.85-6,1.47-1,3-1.8,4.42-2.82a3.76,3.76,0,0,1,3.95-.61c1.5.83,2.94.53,4.38.51,3.39-.06,6.41.63,8.81,3.24a14.85,14.85,0,0,1,4,8.54m-25.2,6.24c.36,1.31.44,2.81,1.15,3.9,1.3,2,3.83,3,6.75,1.14,4.52-2.91,7.43-7.14,9.66-11.89a3,3,0,0,0-2.33-4,21,21,0,0,0-4.85-.53,7.93,7.93,0,0,0-5.22,1.71c-2.82,2.56-5.26,5.37-5.16,9.66"/><path class="cls-1" d="M211.08,98.3c2.17,2.67,2.34,3.74.69,5.88a22.15,22.15,0,0,1-8.11,6.51c-3.46,1.66-7,3.17-10.56,4.6a18.2,18.2,0,0,1-9.92,1c-3.36-.54-5.1-3-7.13-5.22a1,1,0,0,1-.28-.62c.17-4.13-1.53-8.22.36-12.44a38.62,38.62,0,0,1,3-6.23c1.21-1.79,2.2-3.76,3.88-5.16a36.2,36.2,0,0,1,10.81-6.32c3.29-1.19,5.79,0,7.67,3.06,1.47,2.41,1.21,3.35-1.58,5.1a7.91,7.91,0,0,0-1.6-1,4.09,4.09,0,0,0-4.3.41c-4.08,3.36-7.66,7.09-9.93,12a21.89,21.89,0,0,0-1.29,5.72,2,2,0,0,0,1.86,2.51,15.85,15.85,0,0,0,6.22.14,52.45,52.45,0,0,0,10.87-3.65,60.44,60.44,0,0,0,6.44-4.17c1-.64,1.87-1.33,2.94-2.1"/><path class="cls-1" d="M321,76l2,2.65c1.14-1,2.2-1.87,3.17-2.83,3.34-3.34,7.74-4.27,12.07-4.84a14.33,14.33,0,0,1,7.35,1.55c2,.89,2.28,2.77,2.8,4.58a2.54,2.54,0,0,1-3.58,1.11c-2.64-1.15-5.28-.23-7.9.38a1.08,1.08,0,0,0-.61.31c-1.67,2.49-5,3.23-6.31,6.19a16.7,16.7,0,0,1-3.05,4.15c-2.46,2.72-3.88,6-5.45,9.26a24.12,24.12,0,0,0-1,3.67c-.58,1.88-1.23,3.73-1.93,5.85-1.2.4-2.51.87-3.84,1.24-2,.54-3.68,0-4.35-1.8s-1.35-3.73-.26-5.92,1.35-4.61,2.09-6.9a7.09,7.09,0,0,1,1.43-2.75c1.63-1.72,2.11-3.85,2.57-6s1-4.55,1.44-6.83c.33-1.69,1.27-2.7,3.37-3"/><path class="cls-1" d="M127.54,124c2.44,1.66,3.44,3.36,3.19,6.42-.36,4.37-2.42,8.37-2.34,12.78-1.38,2.59-1.89,5.47-2.81,8.22-1.44,4.3-3,8.58-4.4,12.89-.59,1.81-.89,3.72-1.46,5.54s-1.46,3.57-2,5.41c-.85,2.95-1.22,6.08-2.38,8.9-1.06,2.59-1.14,5.44-2.53,7.91a13.45,13.45,0,0,0-.88,3,73,73,0,0,1-2.28,8,28.59,28.59,0,0,0-1.44,4.84,51.82,51.82,0,0,1-1.64,5.23,24.8,24.8,0,0,0,5.47-2.2,149.57,149.57,0,0,1,19.39-7.91c2.57-.82,5.17-1.56,7.68-2.54a31,31,0,0,0,4.62-2.45,3.19,3.19,0,0,0,1-1.33c.58-1.18.55-1.19,2.23-1.91a1,1,0,0,1,.24.15c1.05,1.26,2.52,2.53,2.23,4.24a7.21,7.21,0,0,1-3.46,4.88,79.7,79.7,0,0,1-15.52,7.8,90,90,0,0,0-8.68,4.09c-1.49.7-3,1.32-4.5,2-4,1.93-8,3.93-12.05,5.83-1.29.61-2.52,1.35-4.14,1.1a4.16,4.16,0,0,1-3.93-3.59,13.64,13.64,0,0,1,.73-7.32c1.07-3.26,2.08-6.54,3.12-9.81-.56-2.38,1.13-4.12,1.74-6.16s1.3-4,1.9-6c.34-1.16.47-2.39.85-3.54,1.47-4.51,2.75-9.07,3.92-13.67.67-2.59,1.59-5.11,2.47-7.64,1.79-5.2,3.16-10.55,5.46-15.57-.49-1.93.93-3.38,1.34-5.09a38.17,38.17,0,0,1,2-4.75c.2-.49,0-1.12.14-1.64.56-2.14,1.18-4.28,1.8-6.41.48-1.66,1.08-3.29,1.46-5,.47-2.12,1.92-3.39,3.49-4.77"/><path class="cls-1" d="M306.54,154.46l2.78-1.24a4.54,4.54,0,0,1,2.74,3.45,24.76,24.76,0,0,1,1,6.65c-.07,2.83-.75,5.77.33,8.59-.64,2.23-.26,4.5-.16,6.75a35.3,35.3,0,0,1-.35,9c1,2.28,0,4.63.23,6.95a23.48,23.48,0,0,1-.87,9.64,5.64,5.64,0,0,0-.2,1.59,43.48,43.48,0,0,1-1.91,12.29c-.49,1.4-.32,3-.6,4.48a49.48,49.48,0,0,1-4.08,11.77,30.67,30.67,0,0,1-4.82,7.93A46.27,46.27,0,0,1,294.7,248c-2.39,1.82-5.12,3.19-7.65,4.83-3.14,2-6.73,2.42-10.27,2.62a8.22,8.22,0,0,1-6.83-3.21,20.32,20.32,0,0,1-4.78-14.35c.1-2.94,2.11-4.59,4.46-5.87a22.66,22.66,0,0,1,3.06-1.07,9.5,9.5,0,0,1,1.41,1.92,1.62,1.62,0,0,1-.73,2.23,4.9,4.9,0,0,0-1.56,1.16,2.73,2.73,0,0,0-.69,1.72,19.86,19.86,0,0,0,2.13,7.43,3.54,3.54,0,0,0,3.14,2,15.09,15.09,0,0,0,5.09-.63,31.18,31.18,0,0,0,8.22-4.93c3.1-2.47,5.12-5.69,7.5-8.66a8.51,8.51,0,0,0,1.68-3.78,10.77,10.77,0,0,1,1.82-5,2.11,2.11,0,0,0,.32-.9c.91-4.62,2.12-9.2,2.6-13.85.35-3.39.78-6.77,1.16-10.16a180.59,180.59,0,0,0,.66-21.23,23.7,23.7,0,0,0-2.3,2.64c-1.59,2.62-4.11,4-6.6,5.59-4,2.55-9.53-.41-11.16-3.92-2.52-5.42-1.65-10.5.83-15.56.14-.29.43-.52.54-.81,2.14-6,7.11-9.28,12.19-12.4,2.66-1.64,5.27-1.89,7.6.56m-.88,1.8c-2.41,1.48-4.52,2.06-6.36,3.49A24.33,24.33,0,0,0,291,171.86a15.62,15.62,0,0,0-1.06,6.63,2.84,2.84,0,0,0,3.56,2.75,5.88,5.88,0,0,0,2.89-1.26,19.08,19.08,0,0,0,3.68-4.31c3.27-5.79,4.86-12.1,5.63-19.41"/><path class="cls-1" d="M262.67,166.71a12.27,12.27,0,0,0-5.76,4.73,17.92,17.92,0,0,0-3,5.67c-.92,3.43-3.16,6.39-3.41,10a1.75,1.75,0,0,1-.58,1.09c-.92.79-.95,1.86-1.23,2.91-.81,3-1.73,5.94-2.73,8.86a3.84,3.84,0,0,1-1.49,1.59,19.91,19.91,0,0,1-2.49,1.24c-1.16-.2-2.48-.38-3.14-1.71-.82-1.66-1.63-3.43-1.18-5.3,1-4.05,1.42-8.18,2.24-12.23.74-3.66,1.39-7.34,1.79-11,.38-3.49,2-6.71,1.88-10.29a2.94,2.94,0,0,1,2.71-2.81c2.47,1.33,3.39,3.72,4.14,6.56,3.86-4,7.32-7.94,13.46-7.93,1.35.52,2.34,2,3.35,3.36,3,4.18,4.09,8.95,4.42,14,.13,1.94.34,3.87.57,5.8a25.33,25.33,0,0,1-.32,7c-.11.63-.22,1.26-.33,1.92a4.47,4.47,0,0,1,2.57,3.89c-1.16,1.34-2.42,3-3.86,4.4a8.27,8.27,0,0,1-2.73,1.7,2.22,2.22,0,0,1-3.24-1.68,15.07,15.07,0,0,1-.22-8,17,17,0,0,0,.31-3.8c.19-3.17-.49-6.31-.09-9.49a13.83,13.83,0,0,0-.54-3.83c-.34-2.1-.7-4.19-1.12-6.66"/><path class="cls-1" d="M207.22,162.11a2.5,2.5,0,0,1,1.06,3.66c-2.44,4.61-3.48,9.74-5.5,14.5-1.6,3.77-2.89,7.67-4.42,11.46a49.21,49.21,0,0,1-2.67,5.52c-1.25,2.24-2.62,4.42-4,6.59a5.72,5.72,0,0,1-3.76,2.38c-1.5.36-2.36,0-2.87-1.38a12.9,12.9,0,0,1-1-4.39A84.43,84.43,0,0,0,182.93,184c-.48-2.62-.23-5.37-.32-8.06-.1-3-.1-6-.35-8.94-.15-1.82.5-2.89,2.44-3.61a11.62,11.62,0,0,1,3.19,7.36c.42,4.31.59,8.65.91,13a30.75,30.75,0,0,0,.54,4.16c.4,1.86,1,3.68.28,5.69a3.32,3.32,0,0,0,1.89-2c2.28-5.56,4.48-11.15,7-16.6a71.48,71.48,0,0,1,5.76-10.73,4.77,4.77,0,0,1,3-2.18"/><path class="cls-1" d="M215.49,197.37c.59-5.34,1.13-10.12,1.65-14.9.46-4.19.82-8.4,1.35-12.59.33-2.64.75-5.32,2.36-7.57,1.09-1.53,2.74-1.53,3.66.1a16.51,16.51,0,0,1,1.85,8.75c-.06,2.47-.36,4.93-.53,7.4-.3,4.66-.37,9.35-1,14a54.94,54.94,0,0,1-2.23,8.41c-.33,1.13-3,2.81-4.15,2.69a2.08,2.08,0,0,1-1.89-1.52c-.62-1.72-1.55-3.36-1.12-4.74"/><path class="cls-1" d="M164.84,166.79l2.75-1.21c2.73,2.57,3.09,5.72,3,9-.05,2.48-.07,5-.34,7.43-.3,2.78-.85,5.53-1.33,8.3-.16.95-.52,1.88-.6,2.83-.33,3.69-1.87,7.07-2.62,10.65-.35,1.72-1.25,3.46-3.48,3.76-1.29.17-2.31-.11-2.65-1.28-.61-2.15-1.49-4.32-.51-6.61.09-.2.26-.42.22-.59-.92-4.14,1.67-7.86,1.43-12-.09-1.59.87-3.23,1.3-4.86a17.06,17.06,0,0,0,.76-6.59,3.67,3.67,0,0,1,.18-1.21l1.87-7.65"/></g></g></svg>