<svg xmlns="http://www.w3.org/2000/svg" viewBox="0 0 307.03 60.33"><defs><style>.cls-1{fill:#ebe6dd;}</style></defs><title>Recurso 1</title><g id="Capa_2" data-name="Capa 2"><g id="Capa_1-2" data-name="Capa 1"><polygon class="cls-1" points="61.08 0.66 84.54 0.66 84.54 4.09 64.79 4.09 64.79 12.84 76.74 12.84 76.74 16.27 64.79 16.27 64.79 27.06 85.76 27.06 85.76 30.49 61.08 30.49 61.08 0.66"/><polygon class="cls-1" points="91.13 0.66 94.56 0.66 106.62 18.92 118.73 0.66 122.11 0.66 122.11 30.49 118.46 30.49 118.46 7.19 106.62 24.84 94.78 7.19 94.78 30.49 91.13 30.49 91.13 0.66"/><path class="cls-1" d="M147.57,13.94c3.81,0,5.7-1.6,5.7-4.86,0-3.1-1.94-5-5.54-5H134.4v9.84ZM130.69.66h17.1c5.92,0,9.35,3.05,9.35,8.08s-3.32,8.69-8.85,8.69H134.4V30.49h-3.71Z"/><path class="cls-1" d="M188,15.66c0-7.08-5-12.17-11.62-12.17s-11.62,5.09-11.62,12.17,5,12.12,11.62,12.12S188,22.69,188,15.66m-27.06,0C160.9,6.59,167.43,0,176.34,0s15.49,6.59,15.49,15.66-6.58,15.6-15.49,15.6-15.44-6.52-15.44-15.6"/><path class="cls-1" d="M215.07,13.94c3.82,0,5.7-1.6,5.7-4.86,0-3.1-1.94-5-5.53-5H201.9v9.84ZM198.2.66h17.09c5.92,0,9.35,3.05,9.35,8.3a8.31,8.31,0,0,1-7.08,8.42L225,30.49h-4.09l-7.47-13.06H201.9V30.49h-3.7Z"/><rect class="cls-1" x="231.45" y="0.66" width="3.76" height="29.93"/><path class="cls-1" d="M247.11,20c0,6.2,1.77,7.81,8.58,7.81s8.57-1.61,8.57-7.81V.66H268V21c0,7.3-3.49,10.29-12.28,10.29S243.4,28.27,243.4,21V.66h3.71Z"/><polygon class="cls-1" points="276.05 0.66 279.48 0.66 291.54 18.92 303.66 0.66 307.03 0.66 307.03 30.49 303.38 30.49 303.38 7.19 291.54 24.84 279.7 7.19 279.7 30.49 276.05 30.49 276.05 0.66"/><polygon class="cls-1" points="63.04 45.74 64.6 45.74 70.08 54.04 75.59 45.74 77.12 45.74 77.12 59.3 75.46 59.3 75.46 48.71 70.08 56.73 64.7 48.71 64.7 59.3 63.04 59.3 63.04 45.74"/><path class="cls-1" d="M89.4,54.07l-3-6-3,6Zm-3.7-8.33h1.41L93.82,59.3H92l-1.84-3.65H82.66L80.87,59.3H79.06Z"/><path class="cls-1" d="M95.58,55.8a10,10,0,0,0,6.06,2.29c2.59,0,4.23-1.23,4.23-2.84,0-1.23-1.06-2.24-3.17-2.42-2.31-.17-4.15-.2-5.58-.85a3.06,3.06,0,0,1-1.94-2.79c0-2.09,2-3.75,5.25-3.75a11,11,0,0,1,6.49,2.21l-1,1.41a8.59,8.59,0,0,0-5.48-2c-2.14,0-3.52.95-3.52,2.08a1.48,1.48,0,0,0,.65,1.21c1.16.88,3.1.68,5.59,1,2.84.33,4.47,2,4.47,4,0,2.34-2.16,4.35-6,4.35a11.11,11.11,0,0,1-7.07-2.39Z"/><polygon class="cls-1" points="113.26 47.3 107.55 47.3 107.55 45.74 120.66 45.74 120.66 47.3 114.95 47.3 114.95 59.3 113.26 59.3 113.26 47.3"/><polygon class="cls-1" points="121.38 45.74 132.05 45.74 132.05 47.3 123.07 47.3 123.07 51.27 128.5 51.27 128.5 52.83 123.07 52.83 123.07 57.74 132.6 57.74 132.6 59.3 121.38 59.3 121.38 45.74"/><path class="cls-1" d="M142.71,51.78c1.71,0,2.59-.78,2.59-2.21s-.88-2.27-2.52-2.27h-6.06v4.48Zm-7.67-6h7.77c2.66,0,4.25,1.41,4.25,3.77a3.78,3.78,0,0,1-3.22,3.83l3.4,6h-1.86L142,53.36h-5.26V59.3H135Z"/><path class="cls-1" d="M167.28,57.74a2.54,2.54,0,0,0,0-5.08h-7.09v5.08Zm-.61-6.64c1.44,0,2.19-.68,2.19-1.89s-.73-1.91-2.19-1.91h-6.48v3.8Zm-8.17-5.36h8c2.72,0,4,1.18,4,3.37a2.83,2.83,0,0,1-1.23,2.49,4,4,0,0,1,2.19,3.62c0,2.47-1.71,4.08-4.58,4.08H158.5Z"/><path class="cls-1" d="M182.52,51.78c1.71,0,2.59-.78,2.59-2.21s-.88-2.27-2.52-2.27h-6.06v4.48Zm-7.67-6h7.77c2.66,0,4.25,1.41,4.25,3.77a3.78,3.78,0,0,1-3.22,3.83l3.4,6h-1.87l-3.39-5.94h-5.26V59.3h-1.68Z"/><path class="cls-1" d="M201.15,52.56a5.29,5.29,0,1,0-10.56,0,5.28,5.28,0,1,0,10.56,0m-12.29,0a7,7,0,1,1,14,0,7,7,0,1,1-14,0"/><polygon class="cls-1" points="205.88 45.72 207.57 45.72 207.57 52.48 215.34 45.72 217.55 45.72 212.07 50.55 218.38 59.3 216.34 59.3 210.86 51.7 207.57 54.47 207.57 59.3 205.88 59.3 205.88 45.72"/><polygon class="cls-1" points="220.62 45.74 231.28 45.74 231.28 47.3 222.3 47.3 222.3 51.27 227.74 51.27 227.74 52.83 222.3 52.83 222.3 57.74 231.83 57.74 231.83 59.3 220.62 59.3 220.62 45.74"/><path class="cls-1" d="M241.94,51.78c1.71,0,2.59-.78,2.59-2.21s-.88-2.27-2.51-2.27H236v4.48Zm-7.67-6H242c2.67,0,4.25,1.41,4.25,3.77a3.78,3.78,0,0,1-3.22,3.83l3.4,6h-1.86l-3.4-5.94H236V59.3h-1.69Z"/><polygon class="cls-1" points="4.17 8.57 4.17 11.9 4.17 11.91 7.07 11.91 7.07 60.33 7.93 60.33 8.1 60.33 11.32 60.33 39.2 60.33 43.45 60.33 43.52 60.33 43.45 56.07 43.45 40.89 39.2 40.89 39.2 56.07 11.32 56.07 11.32 11.91 39.2 11.91 39.2 31.68 19.95 31.68 19.95 20.48 30.72 20.48 30.72 27.23 34.97 27.23 34.97 16.35 34.92 16.35 34.92 16.23 15.69 16.23 15.69 16.81 15.69 47.52 15.69 49.72 15.69 51.78 30.72 51.78 34.97 51.78 34.97 40.89 30.72 40.89 30.72 47.52 19.95 47.52 19.95 35.94 43.45 35.94 43.45 33.59 43.45 31.68 43.45 11.91 46.8 11.91 46.8 11.9 46.8 8.57 46.8 7.65 4.17 7.65 4.17 8.57"/><polygon class="cls-1" points="0 0 0 0.93 0 4.26 50.98 4.26 50.98 0.93 50.98 0 0 0"/></g></g></svg>