<svg xmlns="http://www.w3.org/2000/svg" viewBox="0 0 40 40"><defs><style>.cls-1{fill:#2e331f;}</style></defs><title>Recurso 4</title><g id="Capa_2" data-name="Capa 2"><g id="Capa_1-2" data-name="Capa 1"><path class="cls-1" d="M34.61,0H5.39A5.39,5.39,0,0,0,0,5.39V34.61A5.4,5.4,0,0,0,5.39,40H19.8l0-14.3H16.11a.86.86,0,0,1-.87-.87l0-4.61a.89.89,0,0,1,.88-.88H19.8V14.89c0-5.16,3.15-8,7.76-8h3.79a.88.88,0,0,1,.87.88v3.88a.87.87,0,0,1-.87.88H29c-2.5,0-3,1.19-3,2.94v3.85h5.51a.88.88,0,0,1,.87,1l-.55,4.61a.87.87,0,0,1-.86.77H26.06L26,40h8.58A5.4,5.4,0,0,0,40,34.61V5.39A5.39,5.39,0,0,0,34.61,0"/></g></g></svg>