<svg xmlns="http://www.w3.org/2000/svg" viewBox="0 0 552 194.26"><defs><style>.cls-1{fill:#ebe6dd;}</style></defs><title>Recurso 2</title><g id="Capa_2" data-name="Capa 2"><g id="Capa_1-2" data-name="Capa 1"><path class="cls-1" d="M258.79,34l-34-34L139.4,85.32H118.5L201.66,2.16H96.12L0,98.32H144.77l80-80,47,47V14.44h-13ZM31.3,85.32l70.19-70.19h68.86L100.17,85.32Z"/><rect class="cls-1" x="258.79" y="1.04" width="12.96" height="9.57"/><path class="cls-1" d="M242.07,145.18a97.4,97.4,0,0,1-29.59,5.14c-12.49,0-22.94-3.26-30.41-10-7.33-6.38-11.53-16.56-11.53-28.23,0-17.11,6.92-31.9,18.59-41.81C199.45,61.73,213.7,57,229.58,57c11.81,0,20.64,2.31,24.17,4.08l-5.84,16.42c-4.07-1.9-11.27-3.66-19.41-3.66-9.1,0-17.11,2.58-23.21,7.33-8,6.24-13.31,17.1-13.31,29.59,0,15.34,9.1,23.08,23.49,23.08a26,26,0,0,0,10-1.63l3.67-19.28H214.92L218,97.26h33.3Z"/><path class="cls-1" d="M309.26,145.58c-7.74,3.94-17.38,5.3-24.84,5.3-18.87,0-28.64-10.73-28.64-28.1,0-20.23,14.66-41.27,38.68-41.27,13.44,0,23.08,7.61,23.08,20,0,16.83-16.43,22.94-43.17,22.26a14.85,14.85,0,0,0,2.17,6.79c2.58,3.39,7.06,5.16,12.76,5.16a41.75,41.75,0,0,0,18.6-4.21ZM292,95.77c-9.1,0-14.39,7.6-15.75,13.71,15.34.13,22.94-1.9,22.94-8.15C299.21,98.07,296.5,95.77,292,95.77Z"/><path class="cls-1" d="M342.24,83l4.07,28.91c.95,6.92,1.63,11.67,2.18,15.88h.27c1.49-4.07,3-8.28,5.83-15.47L366.67,83h20.64l-23.76,47.78c-8.82,17.65-16.69,29.59-25.52,37.87-7.73,7.33-17,10.72-21.31,11.4l-4.34-16.83a42.55,42.55,0,0,0,11.26-5.16,36.61,36.61,0,0,0,10.86-11.54,4.37,4.37,0,0,0,.28-3.25L321.78,83Z"/><path class="cls-1" d="M382.55,149.39,400.88,53h15.88L398.3,149.39Z"/><path class="cls-1" d="M481.37,83.32l-8.69,45.61c-1.49,7.87-2.44,14.79-3.25,20.5H455.31l1.49-11.54h-.27c-6.38,8.55-14.66,13-22.94,13-9.64,0-17.24-5.16-17.24-18.73a56.2,56.2,0,0,1,1.36-11.84l7.06-37h15.74l-6.78,36.11a47.14,47.14,0,0,0-1.09,9.09c0,5.43,2.17,9.37,8.42,9.37,7.33,0,15.74-8.69,18.46-22.4l6-32.17Z"/><path class="cls-1" d="M483.54,149.39,501.87,53h15.74l-11.26,58.91h.27c2-2.44,4.21-5,6.11-7.19l19.68-21.41H552l-28.51,27.15,19,39H524.94l-13.57-30.28-7.74,7.2-4.34,23.08Z"/><path class="cls-1" d="M374.1,168.24l-4.86,25.6h-4.4l4.86-25.6Z"/><path class="cls-1" d="M373.53,193.84l2.4-12.76c.45-2.21.72-4.14.95-5.74h3.95l-.42,3.31h.07a8,8,0,0,1,6.65-3.73c2.66,0,4.71,1.6,4.71,5.09a17.78,17.78,0,0,1-.34,3l-2,10.79H385l2-10.45a14.77,14.77,0,0,0,.22-2.2c0-1.56-.57-2.66-2.31-2.66-2,0-4.6,2.43-5.39,6.76l-1.6,8.55Z"/><path class="cls-1" d="M393.47,193.84l2.36-12.76c.42-2.21.68-4.14.91-5.74h3.84l-.42,3.23h.07a7.78,7.78,0,0,1,6.46-3.65,4,4,0,0,1,4.32,3.65c0,.05,0,.1,0,.15a7.91,7.91,0,0,1,6.57-3.8c2.51,0,4.48,1.64,4.48,4.94a23.65,23.65,0,0,1-.3,3.15l-2,10.83h-4.29l1.9-10.33a12.89,12.89,0,0,0,.27-2.32c0-1.59-.65-2.66-2.24-2.66-2.05,0-4.29,2.55-5,6.46l-1.63,8.85h-4.29l2-10.48a14.39,14.39,0,0,0,.23-2.17c0-1.37-.42-2.66-2.24-2.66-2.05,0-4.41,2.81-5.09,6.57l-1.6,8.74Z"/><path class="cls-1" d="M442.39,182.56c0,6.3-4.36,11.7-10.67,11.7-4.67,0-7.56-3.23-7.56-7.64,0-6.26,4.37-11.7,10.68-11.7C439.81,174.92,442.39,178.49,442.39,182.56Zm-13.67,3.95c0,2.54,1.33,4.33,3.61,4.33,3.3,0,5.51-4.56,5.51-8.24,0-1.9-.88-4.26-3.54-4.26C430.77,178.32,428.72,183.05,428.72,186.51Z"/><path class="cls-1" d="M452.84,166.87,450.56,178h.08a7.4,7.4,0,0,1,6-3.16c3.94,0,5.58,3.23,5.58,6.54,0,5.85-4,12.8-11.89,12.8-3.87,0-6.19-1.64-6.19-5a15,15,0,0,1,.38-3.19l3.84-19.22ZM449,186.32a7.11,7.11,0,0,0-.23,2.2,2.21,2.21,0,0,0,2,2.37,2.06,2.06,0,0,0,.43,0c3.87,0,6.41-5,6.41-8.63,0-2-.87-3.72-2.92-3.72-2.28,0-4.63,2.36-5.39,6.08Z"/><path class="cls-1" d="M463.13,193.84l3.54-18.5h4.4l-3.53,18.5Zm4.22-23.52a2.61,2.61,0,0,1,2.56-2.66h.1a2.23,2.23,0,0,1,2.35,2.1V170a2.64,2.64,0,0,1-2.62,2.66h-.15a2.19,2.19,0,0,1-2.25-2.11A1.93,1.93,0,0,1,467.35,170.32Z"/><path class="cls-1" d="M471.64,193.84l5.13-27h4.44l-5.16,27Z"/><path class="cls-1" d="M480.15,193.84l3.53-18.5h4.41l-3.54,18.5Zm4.21-23.52a2.62,2.62,0,0,1,2.58-2.66H487a2.23,2.23,0,0,1,2.36,2.09V170a2.64,2.64,0,0,1-2.64,2.66h-.14a2.2,2.2,0,0,1-2.25-2.13A1.55,1.55,0,0,1,484.36,170.32Z"/><path class="cls-1" d="M500.85,193.84c0-1.1.15-2.58.3-4.14h-.08c-1.82,3.38-4.29,4.56-6.64,4.56-3.31,0-5.47-2.59-5.47-6.31,0-6.3,4.4-13,13-13a19.82,19.82,0,0,1,5.62.84l-1.94,9.65a42.58,42.58,0,0,0-.76,8.43Zm1.78-15.31a7.46,7.46,0,0,0-1.82-.19c-4.06,0-7.26,4.6-7.26,8.81,0,1.94.73,3.54,2.66,3.54,2.09,0,4.6-2.59,5.47-7.3Z"/><path class="cls-1" d="M508.33,193.84l2.17-11.4c.49-2.62.75-5.47.94-7.1h3.84c-.11,1.25-.23,2.55-.42,3.88H515c1.25-2.47,3.26-4.3,5.77-4.3h1l-.88,4.33a5.75,5.75,0,0,0-.83,0c-3.15,0-5.17,3.19-5.89,7.14l-1.4,7.45Z"/><path class="cls-1" d="M520.56,193.84l3.53-18.5h4.41l-3.5,18.5Zm4.22-23.52a2.61,2.61,0,0,1,2.56-2.66h.09a2.23,2.23,0,0,1,2.36,2.09V170a2.64,2.64,0,0,1-2.62,2.66H527a2.19,2.19,0,0,1-2.25-2.11A1.93,1.93,0,0,1,524.78,170.32Z"/><path class="cls-1" d="M541.26,193.84c0-1.1.15-2.58.3-4.14h-.07c-1.83,3.38-4.3,4.56-6.65,4.56-3.3,0-5.47-2.59-5.47-6.31,0-6.3,4.41-13,13-13a19.82,19.82,0,0,1,5.62.84l-1.94,9.65a43.34,43.34,0,0,0-.76,8.43ZM543,178.53a7.46,7.46,0,0,0-1.82-.19c-4.06,0-7.25,4.6-7.25,8.81,0,1.94.72,3.54,2.65,3.54,2.09,0,4.6-2.59,5.47-7.3Z"/><rect class="cls-1" x="81.35" y="112.18" width="36.72" height="36.72"/><rect class="cls-1" x="30.3" y="112.18" width="36.73" height="36.72"/></g></g></svg>