<svg xmlns="http://www.w3.org/2000/svg" viewBox="0 0 57.79 100"><defs><style>.cls-1{fill:#323624;}</style></defs><title>Recurso 1</title><g id="Capa_2" data-name="Capa 2"><g id="Capa_1-2" data-name="Capa 1"><path class="cls-1" d="M42.19,13.43A13.43,13.43,0,1,1,28.76,0,13.43,13.43,0,0,1,42.19,13.43"/><path class="cls-1" d="M52.65,99.93l4.63-2a.84.84,0,0,0,.44-1.11L34.79,42.68a.5.5,0,0,1,.47-.7H52a1,1,0,0,0,1-1V36.27a1,1,0,0,0-1-1H4.78a1,1,0,0,0-1,1V41a1,1,0,0,0,1,1H22.53a.5.5,0,0,1,.47.7L.07,96.87A.85.85,0,0,0,.52,98l4.62,2a.84.84,0,0,0,1.11-.45l4.1-9.69a2,2,0,0,1,1.86-1.23H45.58a2,2,0,0,1,1.86,1.23l4.1,9.69a.84.84,0,0,0,1.11.45M14.91,79,28,48.19a1,1,0,0,1,1.87,0L42.89,79A2,2,0,0,1,41,81.85H16.77A2,2,0,0,1,14.91,79"/></g></g></svg>