<svg xmlns="http://www.w3.org/2000/svg" viewBox="0 0 216.85 60"><defs><style>.cls-1{fill:#e29c25;}</style></defs><title>Recurso 1</title><g id="Capa_2" data-name="Capa 2"><g id="Capa_1-2" data-name="Capa 1"><path class="cls-1" d="M0,44.28V42.13H6.06v2c0,6.46,4.21,10.53,10.86,10.53,6.3,0,10.31-3.42,10.34-8.9,0-5-3.36-8.12-9-8.21l-3.84-.1C5.77,37.27.52,32.58.52,24.55.52,16.37,6.85,11,16.34,11c10.07,0,16.27,5.47,16.27,14.34v2.09H26.54v-2c0-5.57-4-9.09-10.27-9.09-5.8,0-9.68,3.19-9.68,8.05,0,4.5,3.26,7.24,8.74,7.34l3.84.1C28,32,33.36,37.08,33.36,45.42c0,9-6.39,14.58-16.5,14.58C6.42,60,0,54,0,44.28"/><path class="cls-1" d="M54.87,11.61h9.66l13.92,47.8H72l-1.7-5.48a3.2,3.2,0,0,0-3.16-2.37H52.27A3.26,3.26,0,0,0,49,53.93l-1.6,5.48H41.28Zm-.42,34.76H64.92c2.9,0,2.64-2.48,2.48-3.2l-7-25.07c-.13-.49-.39-.88-.85-.88s-.72.39-.82.88L52,43.17c-.19.75-.45,3.2,2.45,3.2"/><path class="cls-1" d="M99.9,11.61h9.65l13.93,47.8h-6.43l-1.69-5.48a3.21,3.21,0,0,0-3.17-2.37H97.29a3.28,3.28,0,0,0-3.23,2.37l-1.59,5.48H86.3ZM94.91,0h19.76V4.63H94.91Zm4.57,46.37h10.46c2.91,0,2.64-2.48,2.48-3.2l-7-25.07c-.13-.49-.39-.88-.84-.88s-.72.39-.82.88L97,43.17c-.2.75-.46,3.2,2.45,3.2"/><path class="cls-1" d="M134.59,11.61h6.06l8.87,10a2.84,2.84,0,0,0,2.06,1,2.94,2.94,0,0,0,2-1l8.81-9.95h6.16v47.8h-6.06V23.77c0-1.27-.72-2-1.6-2a2.23,2.23,0,0,0-1.6.92l-7.7,8.83h-.09l-7.73-8.7a2.17,2.17,0,0,0-1.63-.88c-.85,0-1.54.68-1.54,1.95V59.41h-6.06Z"/><path class="cls-1" d="M193.28,11.61h9.65l13.92,47.8h-6.42l-1.7-5.48a3.19,3.19,0,0,0-3.16-2.37h-14.9a3.26,3.26,0,0,0-3.23,2.37l-1.6,5.48h-6.16Zm-.43,34.76h10.47c2.9,0,2.64-2.48,2.48-3.2l-7-25.07c-.13-.49-.39-.88-.85-.88s-.71.39-.81.88l-6.75,25.07c-.2.75-.46,3.2,2.44,3.2"/></g></g></svg>