<svg xmlns="http://www.w3.org/2000/svg" viewBox="0 0 385.5 75"><defs><style>.cls-1{fill:#ede8dd;}</style></defs><g id="Layer_2" data-name="Layer 2"><g id="Texto"><path class="cls-1" d="M335.86,46.61l5.23-4-6.17,8.62Zm-94.93-.7L249,42,248,54.66Zm97.2-10.41,4.46,1.13L337,40.91ZM250.85,16.32l-1.56,21.26-8.66,4.23ZM314.08,0,296.67,53.65l-6.39-10,7-16.64-3.46-1.59L282.94,47l5.54-41.16L284.78,5l-9.66,30.82-4.72-6.92-3.4.55-4.2,14.9-.16-10.27-2.74-1.68-6.65,3.25,2.3-31.29-3.66-.84L224.75,71.17l3.54,1.42L238,48.36l10.09,12.42,3.38-1.06L252.92,40l6-2.91.32,20.28,3.74.49,6.62-23.49,4.62,6.81,3.39-.51,4.16-13.24-4.08,30.28,3.59,1.11,6.27-12.49,8.12,12.74,3.42-.44,11.56-35.62L304.7,62.53l3.58,1.15,9.94-19.36-1.49,12.94,3,1.73,11.47-8.83-1.85,9,3.42,1.49,15.87-22.17L346.6,56.1l3.49,1.25L362.4,38l-.27,10.35,3.64.83,6.09-13.59.56,12,3.63.73,5.42-11.51L381,54.76l3.81.09.67-27L381.87,27l-6,12.76-.59-12.3-3.64-.69L366.18,39l.19-7.71-3.5-1.07-11.51,18,2-16.66-3.44-1.33-2.6,3.63-10.18-2.59-2.33,1.47-2.39,11.68L321,53.22l2.17-18.88-3.59-1.09-9.43,18.37L317.77.87Z"/><path class="cls-1" d="M97.43,18.45H79.26V20.1a19.48,19.48,0,0,1,2.16.31,3.47,3.47,0,0,1,1.57.68c1.09.91,1.06,2.62,1.06,5.72V47.62c0,4.24.39,10.23-5.68,10.15a6.5,6.5,0,0,1-6.11-5.21H70.17C71.06,58.17,74.08,62,81.41,62h0c6.22,0,11.78-2.82,11.77-12.43V26.81c0-3.1,0-4.74,1.06-5.65.69-.59,1.27-.88,3.16-1.06Z"/><path class="cls-1" d="M118.28,18.45H100.1V20.1c1.9.18,2.47.47,3.17,1.06.87.73,1,1.93,1,4,0,.62,0,1.31,0,2.08V52.1c0,.78,0,1.47,0,2.08,0,2-.18,3.25-1,4-.7.59-1.27.87-3.17,1.06v1.65h27.47l2.89-8.31h-2.13c-2.11,4.57-5.38,5.1-8.35,5.1-2.44,0-4.06-.14-5.21-.87-.92-.59-1.27-2.13-1.28-4.75V26.81c0-3.1,0-4.81,1.06-5.72.69-.59,1.83-.81,3.73-1Z"/><path class="cls-1" d="M26.69,69.65h0m0,4a15.54,15.54,0,0,0,2.42-1.37l.49-.34a21.61,21.61,0,0,0,2.68-2.38,27.44,27.44,0,0,0,2.93-3.69,36.1,36.1,0,0,0,1.89-3.22,46.08,46.08,0,0,0,4.4-13.84,59.44,59.44,0,0,0,.69-9.17,59.22,59.22,0,0,0-.69-9.16,46,46,0,0,0-4.4-13.84c-.26-.51-.53-1-.82-1.49a41.22,41.22,0,0,0-3,6.74,52.11,52.11,0,0,1,2.6,13.19c.11,1.51.15,3,.15,4.56h0c0,1.53,0,3.05-.14,4.57a50.77,50.77,0,0,1-3.65,16,39.78,39.78,0,0,1-2.94,5.69c-.26.42-.51.86-.79,1.28-.58.84-1.2,1.67-1.86,2.48a31.94,31.94,0,0,1-2.42,2.65,24.22,24.22,0,0,1-2.93,2.43l-.24.18V75a14.33,14.33,0,0,0,5.59-1.34"/><path class="cls-1" d="M37.85,73.66a15.54,15.54,0,0,0,2.42-1.37l.49-.34a26.48,26.48,0,0,0,7.51-9.29,46.06,46.06,0,0,0,4.39-13.84,59.46,59.46,0,0,0,.7-9.17h0a59.24,59.24,0,0,0-.7-9.16,46,46,0,0,0-4.39-13.84,27.39,27.39,0,0,0-6.79-8.73A34.22,34.22,0,0,0,38.91,11c.27.38.54.75.8,1.14C44.32,18.91,46.53,27,47.1,35.09q.15,2.27.15,4.56c0,1.53,0,3.05-.15,4.57-.57,8.07-2.78,16.17-7.39,22.94-.57.84-1.2,1.67-1.86,2.48a30.28,30.28,0,0,1-2.42,2.65,24.12,24.12,0,0,1-2.92,2.43l-.24.18V75h0a14.29,14.29,0,0,0,5.58-1.34"/><path class="cls-1" d="M51.93,72a26.5,26.5,0,0,0,7.51-9.3,46.08,46.08,0,0,0,4.4-13.84,60.71,60.71,0,0,0,.69-9.17,60.49,60.49,0,0,0-.69-9.16,46,46,0,0,0-4.4-13.84,26.58,26.58,0,0,0-7.5-9.3,15.29,15.29,0,0,0-8.5-3v.1a29.79,29.79,0,0,1,7.45,7.74c4.6,6.77,6.82,14.87,7.38,23,.1,1.51.16,3,.16,4.56s-.06,3.05-.16,4.57c-.56,8.07-2.78,16.17-7.39,22.94a29.43,29.43,0,0,1-7.44,7.74V75a15.22,15.22,0,0,0,8.49-3"/><path class="cls-1" d="M37.84,9.65h0m0-4A16.93,16.93,0,0,0,35.43,7c-.16.11-.33.22-.48.34a20.26,20.26,0,0,0-2.68,2.38,26.25,26.25,0,0,0-2.94,3.7,34.74,34.74,0,0,0-1.89,3.22,45.69,45.69,0,0,0-4.39,13.84,60.35,60.35,0,0,0,0,18.33,45.78,45.78,0,0,0,4.39,13.84c.26.5.53,1,.82,1.49a41.7,41.7,0,0,0,2.95-6.75,52.12,52.12,0,0,1-2.6-13.18c-.1-1.52-.14-3-.15-4.57h0c0-1.52,0-3,.14-4.56a50.51,50.51,0,0,1,3.66-16,39.13,39.13,0,0,1,2.93-5.68c.26-.43.51-.87.79-1.28q.87-1.28,1.86-2.49A33.62,33.62,0,0,1,40.27,7,26,26,0,0,1,43.2,4.58l.24-.18V4.3a14.51,14.51,0,0,0-5.59,1.34"/><path class="cls-1" d="M26.68,5.64A16.4,16.4,0,0,0,24.26,7l-.49.34a26.47,26.47,0,0,0-7.5,9.3,45.71,45.71,0,0,0-4.4,13.84,58,58,0,0,0-.69,9.16h0a59.46,59.46,0,0,0,.7,9.17,45.8,45.8,0,0,0,4.4,13.84,27.18,27.18,0,0,0,6.78,8.72,31.18,31.18,0,0,0,2.57-3.09c-.27-.37-.54-.75-.8-1.13C20.21,60.39,18,52.29,17.44,44.22c-.11-1.52-.16-3-.16-4.57s0-3,.16-4.56C18,27,20.21,18.91,24.82,12.15q.87-1.28,1.86-2.49A31.78,31.78,0,0,1,29.1,7,25.08,25.08,0,0,1,32,4.58l.25-.18V4.3h0a14.51,14.51,0,0,0-5.58,1.34"/><path class="cls-1" d="M12.6,7.35a26.55,26.55,0,0,0-7.51,9.29A45.84,45.84,0,0,0,.7,30.49,59.24,59.24,0,0,0,0,39.65a60.71,60.71,0,0,0,.69,9.17,46.08,46.08,0,0,0,4.4,13.84A26.5,26.5,0,0,0,12.6,72a15.22,15.22,0,0,0,8.49,3v-.1a29.43,29.43,0,0,1-7.44-7.74C9,60.39,6.83,52.29,6.26,44.22c-.1-1.52-.15-3-.16-4.57s.06-3,.16-4.56C6.83,27,9,18.91,13.65,12.15A29.47,29.47,0,0,1,21.09,4.4V4.3A15.23,15.23,0,0,0,12.6,7.35"/><path class="cls-1" d="M34.23,71.38a34.22,34.22,0,0,0,2.57-3.09c-.28-.37-.55-.75-.81-1.13s-.53-.86-.79-1.28a27.44,27.44,0,0,1-2.93,3.69,19.82,19.82,0,0,0,2,1.81"/><path class="cls-1" d="M40.27,72.29a15.54,15.54,0,0,1-2.42,1.37A14.33,14.33,0,0,0,43.44,75h0v-.1a24.55,24.55,0,0,1-3.17-2.61"/><path class="cls-1" d="M32.27,75v-.1a1.53,1.53,0,0,1-.16-.11c-.3.06-.6.1-.9.14C31.56,75,31.91,75,32.27,75Zm-1.06-.07c.3,0,.6-.08.9-.14q-.45-.32-.9-.66a26.22,26.22,0,0,1-2.11-1.84,15.54,15.54,0,0,1-2.42,1.37,14.85,14.85,0,0,0,3.63,1.13c.3.06.6.1.9.14"/><path class="cls-1" d="M30.31,7.92A32.74,32.74,0,0,0,27.73,11q.42.57.81,1.14c.28.41.53.85.79,1.28a26.3,26.3,0,0,1,2.94-3.69,22.46,22.46,0,0,0-2-1.82"/><path class="cls-1" d="M24.26,7a16.4,16.4,0,0,1,2.42-1.37A14.51,14.51,0,0,0,21.09,4.3h0v.1A25.4,25.4,0,0,1,24.26,7"/><path class="cls-1" d="M37.85,5.64a14.85,14.85,0,0,0-3.63-1.13c-.3,0-.6-.1-.9-.13s-.7-.07-1-.08h0v.1l.15.11c.3.21.61.43.9.66A26.47,26.47,0,0,1,35.43,7a16.93,16.93,0,0,1,2.42-1.37"/><path class="cls-1" d="M148.56,18.45H130.39V20.1c1.9.18,2.47.47,3.16,1.06.87.73,1,1.93,1.06,4,0,.62,0,1.31,0,2.08V52.1c0,.78,0,1.47,0,2.08,0,2-.19,3.25-1.06,4-.69.59-1.26.87-3.16,1.06v1.65h27.46l2.9-8.31h-2.14c-2.11,4.57-5.37,5.1-8.35,5.1-2.43,0-4-.14-5.2-.87-.93-.59-1.27-2.13-1.29-4.75V26.81c0-3.1,0-4.81,1.06-5.72.69-.59,1.84-.81,3.73-1Z"/></g></g></svg>