<svg xmlns="http://www.w3.org/2000/svg" viewBox="0 0 234.93 65"><defs><style>.cls-1{fill:#323624;}</style></defs><title>Recurso 2</title><g id="Capa_2" data-name="Capa 2"><g id="Capa_1-2" data-name="Capa 1"><path class="cls-1" d="M0,48V45.64H6.57v2.19c0,7,4.56,11.41,11.76,11.41,6.82,0,11.17-3.71,11.2-9.64,0-5.44-3.64-8.8-9.71-8.9l-4.17-.11C6.25,40.38.56,35.29.56,26.6c0-8.87,6.86-14.73,17.14-14.73,10.91,0,17.63,5.93,17.63,15.54v2.26H28.75V27.55c0-6-4.34-9.85-11.12-9.85-6.29,0-10.49,3.46-10.49,8.72,0,4.88,3.53,7.85,9.46,7.95l4.17.11c9.54.21,15.37,5.69,15.37,14.73C36.14,59,29.21,65,18.26,65,7,65,0,58.5,0,48"/><path class="cls-1" d="M59.45,12.58H69.9L85,64.36H78l-1.84-5.93a3.47,3.47,0,0,0-3.43-2.58H56.62a3.54,3.54,0,0,0-3.5,2.58l-1.73,5.93H44.72ZM59,50.23H70.33c3.14,0,2.86-2.68,2.68-3.46L65.45,19.61c-.14-.53-.42-1-.92-1s-.77.43-.88,1L56.34,46.77c-.21.81-.5,3.46,2.65,3.46"/><path class="cls-1" d="M108.22,12.58h10.46l15.09,51.78h-7L125,58.43a3.47,3.47,0,0,0-3.43-2.58H105.4a3.54,3.54,0,0,0-3.5,2.58l-1.73,5.93H93.49ZM102.82,0h21.41V5H102.82Zm5,50.23h11.34c3.14,0,2.86-2.68,2.68-3.46l-7.56-27.16c-.14-.53-.42-1-.92-1s-.78.43-.88,1l-7.31,27.16c-.22.81-.5,3.46,2.65,3.46"/><path class="cls-1" d="M145.8,12.58h6.58L162,23.35a3,3,0,0,0,2.23,1.13,3.16,3.16,0,0,0,2.22-1.13L176,12.58h6.68V64.36h-6.57V25.75c0-1.37-.78-2.15-1.73-2.15a2.4,2.4,0,0,0-1.73,1l-8.34,9.57h-.11l-8.37-9.43a2.36,2.36,0,0,0-1.76-1c-.92,0-1.66.75-1.66,2.12V64.36H145.8Z"/><path class="cls-1" d="M209.38,12.58h10.46l15.09,51.78h-7l-1.84-5.93a3.47,3.47,0,0,0-3.43-2.58H206.56a3.54,3.54,0,0,0-3.5,2.58l-1.73,5.93h-6.68Zm-.45,37.65h11.34c3.14,0,2.86-2.68,2.68-3.46l-7.56-27.16c-.14-.53-.42-1-.92-1s-.78.43-.88,1l-7.31,27.16c-.22.81-.5,3.46,2.65,3.46"/></g></g></svg>