<svg xmlns="http://www.w3.org/2000/svg" viewBox="0 0 558.84 297.02"><defs><style>.cls-1{fill:#984124;}</style></defs><title>Recurso 8</title><g id="Capa_2" data-name="Capa 2"><g id="Capa_1-2" data-name="Capa 1"><path class="cls-1" d="M118.72,205.16c2.7-1.25,5.26-2.65,8-3.66,4.78-1.77,9.52-3.76,14.66-4.27a89.58,89.58,0,0,1,10.07-.65,27.62,27.62,0,0,1,9.74,2.06,20.36,20.36,0,0,1,5,3.47,23.33,23.33,0,0,1,6.77,8.59c.94,2.07,1.11,3.93-.51,5.75-.72.81-1.27,1.77-2,2.6a7.43,7.43,0,0,1-4,2.65c-3.45.87-6.8,2.15-10.21,3.21a18.41,18.41,0,0,1-3.2.68c-2.12.26-4.26.5-6.4.6-1.49.07-3,.31-4.47-.51a5.29,5.29,0,0,0-2.87-.19c-3.12.33-6-.57-8.8-1.69A11.79,11.79,0,0,0,128,223a16.19,16.19,0,0,1-7.5-3.71,8.42,8.42,0,0,0-1.82-.89c-4.23,1.75-6.93,4.87-9.7,8.09-3.22,3.72-5.47,8-7.85,12.19a9.55,9.55,0,0,0-.88,2.77,37.85,37.85,0,0,0-.88,5.46,7.48,7.48,0,0,0,.74,3.4,18.57,18.57,0,0,0,6.24,7.28,42.05,42.05,0,0,0,8.49,4.42c3.65,1.53,7.55,1.83,11.34,2.67a93.1,93.1,0,0,0,14.59,1.64c2.82.17,5.66.07,8.49,0,1.85-.06,3.7-.25,5.53-.49a7.46,7.46,0,0,0,3.13-.78c1.48-1,3.05-1,4.57-1.24,3.09,5.12,1.44,5.41-1.93,7.12-2.44,1.24-5.4,1.57-8.17,2.06-5.16.92-10.38.5-15.59.58-4.38.06-8.7-.31-13-.6-3.11-.21-6.14-1.28-9.24-1.76a34,34,0,0,1-15-6.6,50.39,50.39,0,0,1-5.81-5.7,2.6,2.6,0,0,1-.56-1.14c-1-3.68-1.92-7.36-2.8-11.06a5,5,0,0,1,.15-1.91c.15-1,.43-1.91.5-2.88A36.28,36.28,0,0,1,95.16,228a47.27,47.27,0,0,1,9.43-12.54c1.68-1.61,3.58-2.88,5.43-4.62a59.94,59.94,0,0,0-2.36-5.9,15.31,15.31,0,0,1-1.45-8.89,20.77,20.77,0,0,0,.34-3.9c-.28-2.79.85-5.15,2.06-7.45,1.4-2.65,3-5.18,4.55-7.76.17-.27.29-.65.54-.79,3.39-1.94,5.49-5.4,8.75-7.47,3.46-2.19,7-4.34,10.53-6.37,3-1.71,6.18-3.21,9.28-4.81a1.7,1.7,0,0,1,.61-.23c3.89-.12,6.84-3.26,10.78-3.32,1,0,2-.87,3-1,3.05-.41,6.1-.75,9.18-.88,1.61-.06,3.22-.34,4.84-.44,4.36-.29,7.27,2.4,7.47,7a10.48,10.48,0,0,1-6.3,2.85c-4.2.55-8.46.73-12.61,1.51-3.58.67-7.23,1.3-10.57,3-2.8,1.43-5.75,2.56-8.61,3.89a69.7,69.7,0,0,0-12.37,7.85c-2.06,1.55-4.1,3.2-5.21,5.67-2.71,1.67-4,4.52-5.48,7.09a17.12,17.12,0,0,0-2,8.41,4,4,0,0,0,.6,2.12c.81,1.26,1.8,2.42,3,4.08m42.64,7.74c-.16-.76-.13-1-.25-1.16a17.8,17.8,0,0,0-7.55-4.15,20,20,0,0,0-11.88.15c-3.88,1.26-7.82,2.36-11.72,3.52a1.74,1.74,0,0,0,1.78,1.7,7.1,7.1,0,0,1,1.8.19c2.33.77,4.62,1.65,7,2.38.57.18,1.27-.12,1.91-.13a9.17,9.17,0,0,1,3.2.13,5.16,5.16,0,0,0,3.14.24c3.06-.65,6.12-1.25,9.17-1.91,1.12-.25,2.22-.62,3.44-1"/><path class="cls-1" d="M516.79,167.81a3,3,0,0,1,0-3.7c1.77-2.39,2.59-5.13,3.67-7.81.73-1.82,1.14-3.91,2.75-5.35a5.23,5.23,0,0,0,1-1.68c.13-.29.12-.65.24-.94.81-2,3-3.69,4.37-3.12a5.36,5.36,0,0,1,3.56,5.59,8.82,8.82,0,0,1-.48,1.9c-2.06,5-4.24,9.91-6.18,14.93-1.1,2.83-1.83,5.79-2.69,8.71-.73,2.49-1.16,5.08-2.76,7.24a3.75,3.75,0,0,0-.38,1.24c-.94,3.79-1.65,7.65-2.87,11.34-1.08,3.29-1.38,6.76-2.49,10-1.38,4-1.82,8.26-3.6,12.12a3.12,3.12,0,0,0-.27,1.27c0,3.21-1,6.22-1.76,9.29-.4,1.69-.56,3.44-1.75,4.88a3.94,3.94,0,0,0-.61,1.83c-.68,4.21-2.16,8.18-3.42,12.22-.55,1.76-.89,3.6-1.29,5.4-.43,2-2.71,3.92-4.67,3.81a2,2,0,0,1-1.38-.72,7,7,0,0,1-1.53-5.2c.9-5,1.92-10,2.94-15.19-1.52.81-3.39,1.32-4.52,2.53-1.34,1.41-3,1.8-4.57,2.34a32,32,0,0,1-10.86,1.87,5.6,5.6,0,0,1-4.64-2.46,15.67,15.67,0,0,1-3.4-12.21c.33-2.91.24-5.83,1.06-8.73a29.46,29.46,0,0,1,12-16.31,21.24,21.24,0,0,1,14.05-3,7.23,7.23,0,0,1,4.73,2.54c.92,1.21,1.82,2.44,2.91,3.92a35.48,35.48,0,0,0,1.77-5.43,78.34,78.34,0,0,0,2.64-11c2.22-2.87,1.49-6.63,2.95-9.74.75-1.61,1.34-3.3,1.95-5a12.08,12.08,0,0,0,.92-3.08,5.78,5.78,0,0,1,2.6-4.35m-18.41,41.54c-1.79-1-3.55-.42-5-.87a5.38,5.38,0,0,0-5.16,1.14c-3.48,2.68-7.11,5.33-8.41,9.94-.78,2.79-1.83,5.5-2.62,8.3a7.6,7.6,0,0,0,0,2.93,2.19,2.19,0,0,0,2.51,2,15.7,15.7,0,0,0,5.11-.94,67.65,67.65,0,0,0,12.46-7c1.66-1.24,3.62-2.67,3.71-4.77a46,46,0,0,1,1-5.32c-1.26.14-2.08-.18-2.39-1.37-.36-1.35-.77-2.69-1.17-4.09"/><path class="cls-1" d="M244,244.19c-2.24,2.64-2.1,5.7-3,8.43.67,1.6-1,2.48-1.19,3.87A92.1,92.1,0,0,1,236.63,269c-1,3.18-1.67,6.43-2.49,9.65-.06.21,0,.56-.12.63-2.13,1.22-1.48,3.67-2.39,5.44s-1.12,3.74-1.88,5.54a29.93,29.93,0,0,1-2.76,5.14,3.85,3.85,0,0,1-4,1.52c-1.59-.28-2.21-1.48-2.51-3a6.32,6.32,0,0,1,0-3.85,12.87,12.87,0,0,0,1.18-4.59c.18-3.28,1.74-6.19,2.59-9.29,1.06-3.88,1.71-7.91,3.57-11.55,0-3.29,1.77-6.16,2.14-9.39.23-2,1.38-3.81,1.68-5.78.6-4,2.15-7.82,3.35-11.67.82-2.64.24-5.56,1.89-8,.6-.89.59-2.2.8-3.34.73-4,2-7.89,3-11.84,1.23-4.91,2.79-9.73,4.3-14.56.5-1.6,2.08-2.09,3.59-3,1.23,1.33,2.7,2.42,3.45,3.88s.77,3.25,1.16,5.17c.76-.49,1.46-.92,2.13-1.38,4-2.7,8.35-3.06,12.93-2.22.41.08,1,.08,1.21.33,2.73,2.66,5.69,5.16,7.23,8.78a8.33,8.33,0,0,1,.58,5.1,33.7,33.7,0,0,1-3.39,10,22.59,22.59,0,0,1-2.82,3.54c-5.17,5.9-11.13,10.59-18.95,12.48-1.95.48-3.86,1.15-5.82,1.6a8.2,8.2,0,0,1-2.25-.1m1.8-7.65c1.12-.4,2.1-.85,3.13-1.11,5.22-1.33,9.37-4.35,13.21-8a23.37,23.37,0,0,0,6.79-11.78c.66-2.73.07-4-2.55-5.12-1.49-.65-6-.1-7.75.95-1.1.69-2.21,1.37-3.3,2.08-2.83,1.84-5.49,3.84-6.31,7.39-.22.94-.36,1.9-.58,2.84s-.5,1.83-.71,2.76q-1,4.49-2,9a3.54,3.54,0,0,0,.12,1"/><path class="cls-1" d="M543.3,204.26c-.16-1.38-.34-3-.53-4.64,2.24-1.41,4.37-2.09,6.66-.33a1.61,1.61,0,0,0,.53.36c5.34,1.13,6.85,5.4,8.21,9.86,1.3,4.23.32,8.45.23,12.68-1.28,1.76-.81,4.31-2.64,5.82,0,2.42-2.6,3.28-3.15,5.36-3.05,2.12-4.74,5.87-8.7,7-1.5.41-2.72,1.73-4.19,2.32a30,30,0,0,1-14.12,1.73,1.59,1.59,0,0,1-.89-.38c-2-1.81-4.47-3.17-5.38-6-.1-.31-.4-.59-.4-.88,0-3.14-1-6.29,0-9.41A16.83,16.83,0,0,1,520,225.5a6.37,6.37,0,0,0,.72-1.69,7.82,7.82,0,0,1,3.47-5.86,5.36,5.36,0,0,0,1.6-1.58,15.92,15.92,0,0,1,6.67-6.07c3.65-1.82,7.14-4,10.81-6m7.37,7.77a13.47,13.47,0,0,0-2.52.51c-1.88.82-3.62,2.07-5.57,2.59-2.92.79-4.91,2.91-6.78,4.82-3.13,3.17-6.46,6.33-7.64,11.05-.7,2.8-.26,3.87,2.68,3.77a7.89,7.89,0,0,0,1.26-.21c3.49-.67,6.28-2.76,9.23-4.54a5.36,5.36,0,0,0,1.21-1.08,50.7,50.7,0,0,0,6.87-9.91,11.13,11.13,0,0,0,1.26-7"/><path class="cls-1" d="M394.43,250.09a3.41,3.41,0,0,1-2.2-3.07,15.42,15.42,0,0,1,.23-5.45,29.07,29.07,0,0,0,.86-9.31c-2,1.87-3.68,3.55-5.51,5a35.09,35.09,0,0,1-8.36,5.21,9.49,9.49,0,0,1-2.55.53c-4.2.49-7-1.26-7.31-6.56-.08-1.42.06-2.84,0-4.26a14.48,14.48,0,0,1,1.64-6.81,28.73,28.73,0,0,1,10-11.59,27.87,27.87,0,0,1,5.26-2.57c1.71-.72,3.51-1.21,5.22-1.92s3.61-.61,5.43-.78c1.43-.14,2.8.09,4-1.4.83-1,2.7-1.18,4.21-1.78,1.92,2,2.92,4,1.95,6.83-.85,2.46-1.21,5.09-2.18,7.5-.77,1.93-.11,4.2-1.58,5.91-.86,4.25-1.7,8.5-2.61,12.74-.64,3-1.33,5.92-2.11,8.85-.38,1.44-1.17,2.58-2.93,2.57a6.77,6.77,0,0,0-1.49.32m-.67-31.71c-6.53,1.11-12.66,6.93-15.79,15,3.83-.9,12.36-9,15.79-15"/><path class="cls-1" d="M281.93,243.92c-.91.41-1.79.86-2.7,1.2-1.38.52-1.94.28-2.63-1.07a7.58,7.58,0,0,1-.71-5.4c1.41-5.51,2.88-11,4.33-16.51a42.28,42.28,0,0,1,3-9.17,4.51,4.51,0,0,0,.19-1.59c.05-.54-.1-1.2.17-1.59,1.57-2.32,1.16-5.24,2.45-7.64a8.58,8.58,0,0,0,.35-1.88,12.05,12.05,0,0,1,.85-2.77,8.11,8.11,0,0,0,1.33-4.17c0-1.6,1.05-3.19,1.62-4.79.75-2.1,1.53-4.18,2.2-6.3s1.15-4.15,1.76-6.21c.37-1.22.8-2.41,1.26-3.59.8-2,1.72-4,2.47-6s1-4,1.71-6c1-2.61,1.82-5.26,2.72-7.89,0-.1.07-.2.11-.3.63-1.46,1.13-3.25,2.95-3.42s3,1.38,3.86,2.68c1,1.49,1.7,3,.52,5.11-1.07,1.89-1.33,4.29-1.71,6.5a56.93,56.93,0,0,1-2.52,8.63c-.3.91-.43,1.88-.65,2.82a6,6,0,0,1-.42,1.55c-1.77,3.13-1.9,6.84-3.55,10a9.07,9.07,0,0,0-.87,3.12c-.51,4.58-2.6,8.71-3.68,13.13-.31,1.25-.92,2.42-1.27,3.66-1.79,6.27-3.42,12.58-5.34,18.81-1,3.19-2.66,6.17-3.61,9.37a28.14,28.14,0,0,1-3,7.1,24.76,24.76,0,0,0-1.21,2.58"/><path class="cls-1" d="M223,199.74c.27.12.4.14.46.21,3.6,4.33,3.25,5,.66,9.55-2.49,4.4-4.86,9-8.5,12.64a4.53,4.53,0,0,0-.66,1.11c-.78,1.39-1.55,2.79-2.43,4.37,1.9,4.56,4,9.4,5.95,14.32.91,2.32,1.41,4.8,2.1,7.21a1.77,1.77,0,0,1-.92,2.21,19.59,19.59,0,0,1-2,1.15,2.36,2.36,0,0,1-3.14-.93,33.89,33.89,0,0,1-2.16-4c-1.57-3.46-3.07-7-4.62-10.43-.08-.18-.31-.29-.49-.45-1.26-.14-1.66.91-2.12,1.71-1.4,2.42-2.57,5-4.08,7.34-2,3.07-4.38,5.87-6.24,9-.88,1.49-2.13,1.62-3.2,2.18-2.07-.85-2.61-2.5-3-4.25a2.07,2.07,0,0,1,.1-1.21c1.6-3.5,2.85-7.13,4.72-10.54,1.37-2.5,2.64-5.07,4.14-7.51,1.13-1.83,2.23-3.68,3.41-5.46a3,3,0,0,0,.28-3.09c-1.1-2.49-2.25-5-3.26-7.47-1.22-3-2.44-6.06-3.43-9.17a10.47,10.47,0,0,1-.27-4.18,4.67,4.67,0,0,1,1.3-2.17,1.5,1.5,0,0,1,2.33-.09,18.84,18.84,0,0,1,3.18,3.7c1.31,2.36,2.28,4.91,3.4,7.37.72,1.57,1.46,3.12,2.29,4.88a6,6,0,0,0,2.67-2.47,40.81,40.81,0,0,1,6.26-8.53,12.37,12.37,0,0,0,2.06-2.93c1.19-2.14,3.16-3.16,5.14-4"/><path class="cls-1" d="M426,203.44c1.93.63,2.28,2.7,3.42,4.15,1.6-1.16,3.18-2.26,4.72-3.42,2.35-1.78,5.22-2.32,7.93-2.76a5.5,5.5,0,0,1,5.52,2.79,15.44,15.44,0,0,1,2.42,11c-.5,2.88-.24,6-1.14,8.67s-.42,5.32-1.42,7.86-1.67,5.18-2.42,7.79c-.45,1.56-.79,3.15-1.24,4.92l-3.25,1.34a2.88,2.88,0,0,1-1.9-2.76,25.93,25.93,0,0,1,.63-9.6,35.08,35.08,0,0,0,.94-6.1,61.16,61.16,0,0,1,1.91-10.45,18,18,0,0,0,.42-4.78c0-2-1-2.68-2.71-1.69-3.15,1.86-6.28,3.81-8.38,7-2.37,3.55-4.93,6.93-6.49,11s-3.75,7.77-5.68,11.63a4.27,4.27,0,0,1-4.28,2.36c-1.65,0-2.51-.58-2.73-2.17s-.31-3.47-.4-5.2a2,2,0,0,1,.31-.91,66.15,66.15,0,0,1,3.31-6.7c1.52-2.43,2-5.17,3-7.8s1.7-5.26,2.54-7.9c.62-1.92,1.18-3.87,1.86-5.77a3.36,3.36,0,0,1,3.15-2.52"/><path class="cls-1" d="M306.77,243.41a9.57,9.57,0,0,1-9.19-6.8,23.92,23.92,0,0,1-.18-13.36,32,32,0,0,1,4.14-8.93,44.76,44.76,0,0,1,7-7.95,14.7,14.7,0,0,1,2.29-1.79c2.12-1.26,3.06-1.23,4.94.46a3.89,3.89,0,0,0,2.89,1.14,14.35,14.35,0,0,1,2.93.21c1.81.33,3.59.72,4.64,2.57.86,1.5,2.05,2.81,2.89,4.31a11.39,11.39,0,0,1,1.19,7.26c-.68,5.5-3.51,9.77-7,13.82-3.66,4.28-8.36,6.83-13.56,8.6a14.06,14.06,0,0,1-3,.46m-2.27-11.77a5.23,5.23,0,0,0-.25,1c-.19,1.75.37,2.43,2.06,2.54a11,11,0,0,0,8.78-3.41,81.76,81.76,0,0,0,5.58-7.17c1.43-1.84,1.88-4.08,2.43-6.24a3.75,3.75,0,0,0-3.35-4.92,14.9,14.9,0,0,0-5.45.42,6.31,6.31,0,0,0-4.63,4.16c-.52,1.6-1.71,3-2.52,4.49a10,10,0,0,0-.75,2.09c-.2.73-.06,1.68-.49,2.19-1.14,1.37-1.23,3-1.41,4.85"/><path class="cls-1" d="M348.64,200.58a10.43,10.43,0,0,1,2.46,6,11.43,11.43,0,0,0,2.62-1.31,28.25,28.25,0,0,1,10.94-6.23,8.35,8.35,0,0,0,2.1-.91c2.64-1.66,5.61-1.62,8.54-1.7a2.49,2.49,0,0,1,1.7.75c1.37,1.56,2.62,3.23,2.44,5.57-1.3,1-2.5,2.21-4.3.88a1.22,1.22,0,0,0-.94,0c-3.9,1.3-7.91,2.35-11.09,5.24a37.89,37.89,0,0,1-3.7,2.68c-4.15,2.93-6.74,7-9.26,11.36-1.88,3.21-2.43,6.95-4.59,10a9.17,9.17,0,0,0-1.12,3.39c-.68,3.2-2.3,6-3.51,9a4.18,4.18,0,0,1-1.76,1.75,21.28,21.28,0,0,1-3,1.17A2.78,2.78,0,0,1,334,246a24.69,24.69,0,0,1-.34-5.14,15.69,15.69,0,0,1,1.09-3.67,19.1,19.1,0,0,1,2-4.71c1.46-2.26,1.63-5.05,2.36-7.6,1.1-3.86,1.93-7.79,3.05-11.64,1-3.28,2.11-6.52,3.3-9.73.63-1.68.76-1.64,3.21-2.89"/><path class="cls-1" d="M47.49,23.19a48.53,48.53,0,0,0-13.33,5.32c-5.34,2.93-11.18,4.94-16,8.72-.67.52-1.34,1.07-2,1.64-2.34,2-4.13,1.48-4.94-1.56-.19-.73-.27-1.49-.43-2.41C14.1,32.22,16.84,28.77,21,27c1.46-.63,2.58-2,4-2.74,4.06-2.1,8.19-4,12.29-6.06a7.59,7.59,0,0,0,1.2-.51c3.3-2.41,7.26-3.49,10.81-5.4a24.09,24.09,0,0,1,3.81-1.38C54,9.39,54.7,8,55.49,6.62A11.9,11.9,0,0,0,57,4.11C57.79,1,59.89,0,63,0a8.74,8.74,0,0,1,1.73,6.39c1.62-.39,3.08-.75,4.54-1.06s2.75-.56,4.13-.81A12.44,12.44,0,0,1,75,4.31c4.24-.17,8.41-1.24,12.72-.37,1.71.34,3.51-.11,5.39.46A26.78,26.78,0,0,0,98,5.58c5,.47,8.49,3.59,12.3,6.16,1.36.92,2.21,2.63,3.24,4A17.07,17.07,0,0,1,117.25,26a32.43,32.43,0,0,1-.63,6.45c-.2,1-1.42,1.66-1.82,2.63-1.91,4.64-5.58,8-8.79,11.57-1.84,2.06-4.52,3.36-6.75,5.08-3.88,3-8.17,5.34-12.31,7.92-2.84,1.76-6,2.76-8.82,4.51-2.65,1.63-5.8,2.43-8.73,3.59-.69.28-1.4.54-2.09.84a37,37,0,0,1-10.56,3,5.63,5.63,0,0,0-1.56.42,18,18,0,0,1-8.55,1.29,3.66,3.66,0,0,0-1.28.16c-2.94.89-6,.55-9.21,1.06-1.57,4.14-4.4,7.74-5.3,12.38-.54,2.78-2.29,5.34-3.65,7.92-1.15,2.19-1.91,4.54-3.54,6.56-1.37,1.71-1.95,4.06-2.86,6.14-.48,1.09-.92,2.19-1.39,3.28-1.11,2.59-2.16,5.21-3.36,7.76-1.88,4-3.85,8-5.8,11.94-.52,1.08-1.05,2.15-1.61,3.2a5.87,5.87,0,0,1-5.7,2.94,3.1,3.1,0,0,1-2.4-2.46,12.88,12.88,0,0,1,2.52-12.14,8.51,8.51,0,0,0,1.23-1.87c2-4.46,4-8.94,6.08-13.39,1.25-2.75,2.49-5.51,3.9-8.18,1.59-3,3.07-6.12,4.55-9.17C20,87.13,21,84.66,22,82.22s2.28-4.8,3.37-7.22a5.4,5.4,0,0,0,.13-1.72c-2.11-.5-4.21-.94-6.29-1.49-3.3-.89-4.91-3.21-5.2-7.42a6.55,6.55,0,0,1,4.14-2.29,2.53,2.53,0,0,1,2,.42,4.75,4.75,0,0,0,3.27,1.24c1.95.14,3.9.24,5.95.37,1.52-2.52,3.23-4.71,3.85-7.72a16.74,16.74,0,0,1,2.17-5.19c2.3-3.61,2.72-7.87,4.68-11.55,1-1.89,1.5-4.1,2.71-5.82,2.21-3.14,2-7.17,4.71-10.64M40.9,64.27c1.65-.15,2.71-.26,3.76-.33A42.7,42.7,0,0,0,57,61.52c.9-.34,1.85-.58,2.77-.87,2.59-.83,5.23-1.52,7.74-2.54,3.31-1.35,6.54-2.9,9.75-4.49,2.92-1.44,5.77-3,8.64-4.58a8.49,8.49,0,0,0,1.06-.75c2.24-1.68,4.44-3.4,6.72-5a39.17,39.17,0,0,0,8.36-7.7,25.61,25.61,0,0,0,4.58-7.32,8.07,8.07,0,0,1,.68-1.11c.78-1.41.18-4.76-1-5.92-4.7-4.54-10.61-6.11-16.85-6.79-1.93-.21-3.88-.14-5.81-.24a26,26,0,0,0-10.18,1.11.85.85,0,0,1-.32,0c-3.9-.32-7.42,1.18-11,2.2-2.49.71-3.68,2.49-4.44,4.74A18.5,18.5,0,0,1,57,24.09c-1.11,2.46-2.31,4.88-3.39,7.35s-1.94,5.07-3.12,7.5-1,5.56-3.32,7.56c-.28.24-.29.8-.43,1.21-.65,2.06-.93,4.36-2.06,6.11-1.52,2.35-1.92,5-3.07,7.48a16.43,16.43,0,0,0-.68,3"/><path class="cls-1" d="M173.19,126.61c-3.09-1.85-3.05-4.41-2.29-7.07,1.11-3.83,2.34-7.63,3.52-11.44.69-2.25,1.36-4.52,2.09-6.76a10.85,10.85,0,0,1,.83-1.76,35.35,35.35,0,0,0,3.19-10,10.45,10.45,0,0,0-4.67.07c-.53.14-1.06.27-1.58.43-1.81.56-3.68,1.1-5.15-.62s-1.14-4-.65-5.91c.42-1.66,2.09-2.34,3.59-2.76a96.18,96.18,0,0,1,9.82-2.39c2.71-.45,3.87-1.94,4.46-4.41.47-2,1.3-3.87,1.9-5.82.31-1,.45-2.08.73-3.11s.69-2.23,1.05-3.35c1.43-4.37,2.87-8.73,4.28-13.11.53-1.64.92-3.33,1.48-5,.48-1.38,1.28-2.66,1.63-4.07,1.06-4.1,3.06-7.84,4.42-11.82.21-.6.59-1.14.86-1.72a25.23,25.23,0,0,0,1.58-3.53c1.17-4,2.27-4.82,6.7-4.59a8.43,8.43,0,0,1,1.07,6.14,22.77,22.77,0,0,1-2,6.79,31.79,31.79,0,0,0-1.54,4.23c-.54,1.54-1.07,3.08-1.56,4.63s-.95,3.08-1.42,4.62c-.74,2.5-1.45,5-2.23,7.48q-2.64,8.4-5.35,16.79c-.63,1.94-1.39,3.85-2,5.81a12.61,12.61,0,0,0-.18,2.54,28.43,28.43,0,0,0,3.42-.41,35,35,0,0,1,9.39-1.08,7.16,7.16,0,0,0,2.26-.28c1.95-.63,3.58.59,5.33,1,1.48.31,2.37,3.88,1.57,5.48a5.63,5.63,0,0,1-3.81,3.3,16.87,16.87,0,0,1-3.24.46c-5.54.12-10.93,1.42-16.4,2-2.06.22-3.16,1.29-3.4,2.86a26.48,26.48,0,0,1-1.8,5.46c-.65,1.72-.89,3.6-1.54,5.31a25.73,25.73,0,0,1-2.11,5,20.34,20.34,0,0,0-3.28,8.42,6,6,0,0,1-.7,1.8,12,12,0,0,0-1.44,4.23c-.18,1.84-1.66,3.21-2.89,4.62s-2.55,1-3.9,1.43"/><path class="cls-1" d="M218.15,109.61c-.3,3.66.79,5.49,4.07,5.91a35.21,35.21,0,0,0,12.86-.37,18,18,0,0,0,6.86-2.86c1.15-.87,1.19-.81,3.34-.77,2.06,3,1.68,4-.94,6.8a10.81,10.81,0,0,1-4.37,2.75c-3.76,1.25-7.37,3.23-11.6,2.68a17.13,17.13,0,0,0-4.23.46,12.38,12.38,0,0,1-8.49-1.66c-3.06-2-5.9-4.55-5.82-8.82a15.24,15.24,0,0,0-.09-2.62,12.3,12.3,0,0,1,.62-7c.72-1.65.69-3.62,1.33-5.33a32.29,32.29,0,0,1,5.06-9.69c1.3-1.56,2.22-3.45,3.6-4.93,4.52-4.8,9.87-8.16,16.59-9a30.67,30.67,0,0,0,3.52-.76c2.14-.53,4.09.13,6,1,.19.08.32.28.5.39,2.49,1.57,2.55,4.46,3.62,6.78.67,1.46.2,2.9-.47,4.38-1.48,3.28-3.21,6.29-6.2,8.49A19.38,19.38,0,0,0,240.59,99c-2.62,3.24-6.34,4.84-9.82,6.84s-7.29,2.58-11.07,3.39c-.53.11-1,.26-1.55.39m3.12-7.9c2.58-1.36,5.22-2.64,7.72-4.13a27.11,27.11,0,0,0,7.32-6.16c1-1.23,1.51-2.84,3.27-3.3.39-1.57,2.49-2.42,2-4.71l-4.26.63a16.12,16.12,0,0,0-7,3.4,21.48,21.48,0,0,0-4.17,4.8c-1.33,1.8-2.49,3.73-3.66,5.64-.69,1.15-1.76,2.23-1.19,3.8l-.15-.11Z"/><path class="cls-1" d="M70.59,108.8a5.73,5.73,0,0,0,3.62,4,31.89,31.89,0,0,0,8.72,2,27.71,27.71,0,0,0,15-3.26c1.42-.71,2.37-2.4,4.72-2,.73.31,1.06,1.34,1.27,2.43a2.15,2.15,0,0,1-.79,2.34,46.54,46.54,0,0,1-5.66,3.79,33.27,33.27,0,0,1-13.42,3.73,30.66,30.66,0,0,1-9.36-.63c-1.16-.31-2.31-.63-3.44-1a11,11,0,0,1-6.94-7.3c-.45-1.33-1-2.62-1.54-3.87-4.18-1.31-4.5-1.7-4.39-5.59L62.89,102c.82-2.89,1.56-6,2.64-9a10.16,10.16,0,0,1,2.56-3.68c2.63-2.53,4.88-5.49,8-7.43a34.34,34.34,0,0,1,4-2.22A40.45,40.45,0,0,1,86.77,77a54.82,54.82,0,0,1,8-1.16,3.49,3.49,0,0,1,3.46,2c.8,1.43,1.66,2.84,2.31,4.33A5.05,5.05,0,0,1,101,85c-.5,2.27-.61,4.73-2.71,6.38-1.45,1.14-1.85,3.07-3.29,4.37a74.26,74.26,0,0,1-9.73,7,39.24,39.24,0,0,1-13.13,5.39,10.67,10.67,0,0,0-1.59.61m21.9-24.29c-6.7-1.54-20.23,9.6-19.79,15.73a47.17,47.17,0,0,0,16.57-11,12.19,12.19,0,0,0,3.22-4.7"/><path class="cls-1" d="M272,76a4.15,4.15,0,0,1,4.12-.71c.39.71.85,1.54,1.34,2.41,3.8-2,7.86-2.61,11.84-3.57a6,6,0,0,1,5.14,1.42,14.59,14.59,0,0,1,5.68,12,43.8,43.8,0,0,1-1,7.76c-.7,4-1.52,7.89-2.3,11.83-.1.52-.34,1-.47,1.54-.41,1.68-.8,3.37-1.19,5-.65,2.74-1.24,5.5-2,8.22-.41,1.58-1.69,2.26-3.6,2.14-1.28-.09-1.91-.68-2.29-2.36a10.71,10.71,0,0,1-.2-2.27A106.25,106.25,0,0,1,289,100.7c.44-2.42,1.47-4.65,1.63-7.16s1.11-4.82,1.59-7.25a2.1,2.1,0,0,0-.53-1.72c-1.44-1.29-3.1-2.08-5.09-1.24a14.8,14.8,0,0,0-6.23,4.45,54,54,0,0,0-6.77,11,45.07,45.07,0,0,0-2.18,6.13,98,98,0,0,1-6.62,15.88c-.34.67-.55,1.41-.86,2.1a4.13,4.13,0,0,1-2.85,2.49c-3,.8-4.71-.59-5.17-3.65-.61-4.13.64-7.84,2.12-11.51,1.24-3.07,3-5.91,3.45-9.33.16-1.21,1.84-2.16,2.26-3.41s.37-2.87,1.5-3.82A5.59,5.59,0,0,0,267,90.62c.83-2.88,2.31-5.53,2.72-8.59.25-1.87,1.34-3.63,2.29-6"/><path class="cls-1" d="M317,103.84c-1.78,4.84.64,9.06,5.49,9.75a33.41,33.41,0,0,0,18.12-2.44c1.53-.65,2.69-2.28,4.68-1.57,1.88,2.94,1.16,3.47-.75,5.26a19.08,19.08,0,0,1-10.49,4.82c-3.65.52-7.31,1-11,1.39-4.19.5-11.28-2.44-12.77-8.16-1-3.7-2-7.34-.76-11.17-.63-2.6.86-4.81,1.5-7.13a16.67,16.67,0,0,1,3-5.63,41.66,41.66,0,0,1,6.42-6.84c2-1.59,4.59-2.39,6.88-3.62,4.73-2.56,9.82-2.59,14.95-2.13a4.82,4.82,0,0,1,2.89,1.3,12.42,12.42,0,0,1,3.49,7.89c.28,4.66-2.3,7.45-6.11,9.4-1.52.78-2.91,1.77-4.45,2.53-2.51,1.26-5.19,2-7.71,3.19-4.18,1.95-8.71,2.66-13.45,3.16m2.2-7.66c3.75-1.36,7-2.08,9.91-3.68,1.23-.68,2.52-1.24,3.77-1.88,2.11-1.08,4.24-2.15,6.32-3.3A1.59,1.59,0,0,0,340,84.9a13.11,13.11,0,0,0-3.18-.75c-4.24,0-7.63,2.34-10.84,4.66a22.47,22.47,0,0,0-6.76,7.37"/><path class="cls-1" d="M412.89,97.29c-.55,2.21-1,4-1.4,5.72a4.16,4.16,0,0,0,1.73,4.51c2.07,1.62,4,3.07,6.78,3.42,2.92.36,5.8,1,8.75.44,1.47-.26,2.89-.77,4.35-1.11,1-.23,2.09-.38,3.06-.55,1.81,3.42,1.65,4.17-1.35,6a12.76,12.76,0,0,1-3.5,1.56,32.94,32.94,0,0,1-10.63,1.1,49.66,49.66,0,0,1-5.7-.75c-2.79-.55-4.9-2.18-7-3.9-2.56-2.07-3.39-4.92-3.7-8-.14-1.41-.19-2.83-.33-4.24-.19-1.91.66-3.59,1.18-5.34s1-3.29,1.51-4.93A2.76,2.76,0,0,1,407.1,90c3.7-3.51,6.72-7.68,11.59-10,3.7-1.77,7.09-4.19,11.05-5.49a16.55,16.55,0,0,1,2.82-.55c2.14-.3,4.14-.67,5.93,1.36s3.05,4.42,2.71,7.35a4.13,4.13,0,0,1-1,2.63c-1.32,1.43-2.27,3.2-3.63,4.56-2.83,2.84-5.91,5.38-9.85,6.59-1.77.55-3.5,1.23-5.29,1.71-2.82.75-5.7,1.75-8.52-.86m4-5.07a16.44,16.44,0,0,0,9.35-3.34c3.84-2.83,6.16-5.3,7-7.42a19.52,19.52,0,0,0-2.91.76,50.32,50.32,0,0,0-12.49,7.6c-.58.5-.76,1.49-1.12,2.25l-.23.53.36-.38"/><path class="cls-1" d="M135,73.85a6.47,6.47,0,0,1,.6,7c-.64,1.29-.66,2.89-1,4.59a5.47,5.47,0,0,0,3.59-1.67c2.16-2.18,5-3.15,7.8-4.2a20,20,0,0,1,3.11-1c2.67-.55,5.33-1.12,8-1.44a3,3,0,0,1,3.08,1.45c1.33,2.19.88,3.28-1.53,4.12A53.06,53.06,0,0,0,153,85a81.26,81.26,0,0,0-10.69,6A87.77,87.77,0,0,0,135.12,97c-1.88,1.61-3.67,3.35-5.57,4.94a8.58,8.58,0,0,0-2.85,5,57.41,57.41,0,0,1-2.91,8.52c-1.06,2.82-2.53,5.49-3.09,8.55-.32,1.74-1.54,3.31-2.43,5.1a31.86,31.86,0,0,1-3.17.55c-1.69.13-2.3-.4-2.93-2-.86-2.17-.19-4.33.2-6.4.32-1.67,1-3.27,1.23-5,.22-1.41,1.18-2.71,1.8-4.07,1.1-2.42,2.26-4.82,3.26-7.29.69-1.69,1.1-3.49,1.7-5.22,1.17-3.36,2.28-6.74,3.62-10,1.47-3.64,3.18-7.18,4.8-10.76.26-.58.59-1.13.82-1.73,1.18-3.11,1.72-3.46,5.42-3.27"/><path class="cls-1" d="M394.7,105.36c1.59,3.52,1.5,4-1,6.27a24.33,24.33,0,0,1-13.1,6,49.51,49.51,0,0,1-9.1-.18c-2.14-.14-3.8-1.51-5.5-2.67-5.77-4-7-9.81-6.7-16.28a37.24,37.24,0,0,1,2.12-10.77,15.21,15.21,0,0,1,1.54-2.31,22.79,22.79,0,0,1,5.56-6.13,25.77,25.77,0,0,1,5-2.89c2.74-1.33,5.42-2.85,8.53-3.21a14.47,14.47,0,0,1,2.27-.18,7.35,7.35,0,0,1,6.62,6.83,4.94,4.94,0,0,1-.35,1.59,1.67,1.67,0,0,1-2.33,1.08,3.91,3.91,0,0,1-.78-.59c-2.44-2-4.74-1.76-7.46-.19a69.58,69.58,0,0,0-6.8,5c-.8.59-1.16,1.75-1.82,2.57-2.52,3.15-3.53,6.94-4.13,10.75a7.33,7.33,0,0,0,2.58,7,16.5,16.5,0,0,0,9,3.39c4.39.51,7.83-1.13,11.16-3.48a6.52,6.52,0,0,1,4.73-1.57"/><path class="cls-1" d="M435.13,136.72a17.79,17.79,0,0,1,1.16-2.44c1.94-3,3.82-6,6-8.82a51.68,51.68,0,0,1,5.39-5.59c1.71-1.64,3.56-3.13,5.31-4.73A7.93,7.93,0,0,1,457.3,113c1.42-.2,1.9.14,2.39,1.57a4.8,4.8,0,0,1-.89,5.12c-1.81,2.14-3.81,4.06-5.71,6.08-2.41,2.56-4.51,5.41-6.73,8.15-1.16,1.42-2.27,2.88-3.46,4.28a7.92,7.92,0,0,1-4.43,2.57c-1.87.43-2.51,0-3-1.93-.15-.62-.22-1.27-.36-2.14"/><polygon class="cls-1" points="221.27 101.71 221.17 101.57 221.32 101.68 221.27 101.71"/><path class="cls-1" d="M416.9,92.22l-.36.38.23-.53.13.15"/></g></g></svg>