<svg xmlns="http://www.w3.org/2000/svg" viewBox="0 0 824.41 181.87"><defs><style>.cls-1{fill:#e29c25;}</style></defs><title>Recurso 3</title><g id="Capa_2" data-name="Capa 2"><g id="Capa_1-2" data-name="Capa 1"><path class="cls-1" d="M90.37,36.15c-.47,3.34-2.34,6.9-4.45,10.3-1.39,2.24-3.31,4.11-4.69,6.41C80,54.92,78.62,57,76.39,58.24a3.43,3.43,0,0,0-1.32,1.27c-3.21,5.65-8.11,10-11.73,15.36-1.76,2.6-3.7,5.08-5.44,7.73-1.53,2.31-3.2,4.56-4.63,7-2.15,3.63-4.14,7.36-6.55,10.85-1.8,2.6-2.54,5.79-4.3,8.47-4.43,6.76-8.23,13.91-13.12,20.41-2,2.63-4.12,5.4-5,8.75-.43,1.59-1.75,2.6-2.56,3.94-.3.51-.92.82-1.26,1.32-1.42,2.06-1.28,4.93-2.72,6.73A16.53,16.53,0,0,0,14.32,156c-.71,2.59-1.16,5.29-3.53,7.07-.18.13-.08.64-.11,1a2.51,2.51,0,0,0,.67,0,13,13,0,0,0,2.8-.88c4.09-2.31,8-5,12.39-6.72,2.27-3.09,5.87-4.8,8.27-7.7,3.73-4.51,7.42-9.1,11.4-13.35s8.38-8.51,12.79-12.56c2.77-.52,3-3.71,5.15-4.87A12.6,12.6,0,0,0,69,112.54c2.3-4.32,6.18-7.56,8-12.26a7.75,7.75,0,0,1,3.1-4,3.85,3.85,0,0,0,1.4-1.68C83.05,91.06,86,88.67,88.68,86c1.61-1.62,2.32-1.69,4.1-.32a19.88,19.88,0,0,1,2.45,2.22,6.54,6.54,0,0,1,.11,8.73,25.5,25.5,0,0,0-5.65,9.28c-.7,2-2.67,3.58-3.17,5.94-1.25,5.88-4.56,11-6.78,16.45-1.94,4.83-4,9.62-5.95,14.46-2.4,6-3.59,12.48-6.87,18.15a3.18,3.18,0,0,0-.22.7c-.45,1.38-1.5,3.4-.39,4.08,1.66,1,2.19-1.43,3-2.38,2.88-3.3,5.51-6.81,8.24-10.23a4.65,4.65,0,0,0,.68-.87c1.66-4,4.64-7,7.44-10.17,1.19-1.35,1.93-3.11,3.25-4.42,3.6-3.57,6.65-7.66,10.41-11.09a24.29,24.29,0,0,0,3.89-4.75c1.49-2.28,3.56-4.22,5.13-6.53,1.7-2.52,3.73-4.8,5.53-7.25a93.25,93.25,0,0,1,6.77-8.07,4.77,4.77,0,0,0,.74-.82c3-5.4,7.61-9.45,11.8-13.85,2.46-2.58,4-5.88,6.39-8.5,4.31-4.64,7.69-10,11.65-14.94A34.34,34.34,0,0,0,154,57.46c3.5-6,7.84-11.5,11.33-17.52,2.76-4.77,6.2-9,9.31-13.57,1.31-1.89,3.14-3.37,4.2-5.48.54-1.09,1.58-2.28,2.76-2.19,2.16.15,4.46-.67,6.49.64a3.1,3.1,0,0,1,.31,5.2c-3.7,2.9-6,6.93-8.92,10.46-3.28,4-5.81,8.4-8.9,12.47a63.78,63.78,0,0,0-6.81,11.23c-.55,1.16-1.62,1.76-2.24,2.86a89.7,89.7,0,0,1-8.35,12.26c-4.58,5.68-8.54,11.83-13.54,17.2-3.29,3.52-6.71,7-9,11.45a9.25,9.25,0,0,1-1.73,1.88c-4.49,4.52-7.75,10-11.28,15.2-1.28,1.91-2.81,3.66-4.26,5.45a9.28,9.28,0,0,0-2.06,3,1.81,1.81,0,0,1-.51,1c-4.2,2.38-5.55,7.24-9.06,10.29-3,2.59-5.48,5.76-8.19,8.68-.25.27-.64.46-.77.77-2.47,5.78-8.32,9.1-10.69,15.07-1,2.47-3.79,4.15-5.19,6.53-1.78,3-4.72,4.83-6.82,7.48-1.61,2-4.12,3.1-6.57,3.86-4.17,1.28-10-3.23-9.46-7.59.57-4.68.74-9.55,3.07-13.87,1.71-3.16,2.06-6.76,3.29-10.1C61.13,148,62,146,62.79,144c1.8-4.65,2.78-9.63,5.61-13.87.2-.3.34-.71-.07-1-.12-.08-.46.09-.63.23-1.56,1.24-3.82,1.77-4.27,4.17a.92.92,0,0,1-.45.56c-6.2,3.71-9.81,10.12-15.23,14.63-2.59,5-8,7.5-10.69,12.38-.11.21-.28.48-.48.54-5.14,1.48-7.9,6.67-13.18,8.2-2.91.84-5.58,2.85-8.36,4.34-3.11,1.67-6,.83-8.87-.08a33.74,33.74,0,0,1-4.58-2.29,2.93,2.93,0,0,1-1.27-1.73,3.33,3.33,0,0,1-.13-2.53c2.18-5.53,2.52-11.72,6-16.82a8.43,8.43,0,0,0,1.62-4.06,3.08,3.08,0,0,1,.36-1.39c4.38-6.87,7.26-14.63,12.53-21,3.67-4.41,6.26-9.52,9-14.49.83-1.49,1.86-2.85,2.72-4.32,3.44-5.91,6.8-11.86,10.15-17.82,1.72-3,4-5.74,5.75-8.83A105,105,0,0,1,62,60c1.77-2,3.32-4.14,5.55-5.76A11,11,0,0,0,71,50a8.32,8.32,0,0,1,2.66-3.42A4.11,4.11,0,0,0,75,44.8c1.58-4,4.69-7.06,6.6-10.85a12.18,12.18,0,0,0,1.19-3c.44-2.07,2.21-2.72,4.07-1.79,3.45,1.73,3.94,2.58,3.55,7"/><path class="cls-1" d="M375.29,93.91a5.07,5.07,0,0,0-.13,1.09c.07.72.07,1.67.69,2s1.22-.51,1.74-1a106.93,106.93,0,0,1,13.33-10.65c2.14-1.42,4.79-1.72,6.75-3.46a2.24,2.24,0,0,1,1.41-.29c4.06.13,7.78,4.77,8.35,8.73s-.55,7.41-1.71,10.66c-1.35,3.78-2.59,7.76-5,11.19a13,13,0,0,0-2.29,5.74,11.22,11.22,0,0,1-2.56,6.39,5.56,5.56,0,0,0-1.07,3.07,20,20,0,0,1-3,7.45c-1.37,2.09-2.48,2.21-4.47.58-4.32-3.53-4.78-6.2-1.67-11.71A15.25,15.25,0,0,0,388,117.6a6.33,6.33,0,0,1,1.25-3c2.29-3,3.45-6.45,4.63-9.93q1.62-4.78,3.33-9.56c.29-.82-.25-.77-.69-.76-2,0-3.25,1.53-4.65,2.68-.55.45-.81,1.48-1.39,1.66-4.82,1.48-6.19,6.25-9.21,9.44a39.28,39.28,0,0,1-3.43,3.78,18.63,18.63,0,0,0-4.43,5.76c-1.85,3.41-4.34,6.47-6.46,9.75-1.55,2.42-3.76,4.38-4.83,7.15a8.92,8.92,0,0,1-1.79,2.32,2.68,2.68,0,0,1-2.34.82c-2.7-.23-5.46-4.55-4.57-7.16a40.27,40.27,0,0,1,4.64-8.65,33.54,33.54,0,0,0,3.75-7.88c1.06-3.24,2.07-6.51,3.33-9.68,1-2.58,1-5.24,1.14-7.9,0-.66-.41-.84-.95-.6a13.55,13.55,0,0,0-3.1,1.89c-2.34,1.91-4.67,3.87-7,5.77a80.31,80.31,0,0,0-7.15,5.9,56,56,0,0,0-7.17,9.56c-2.7,4.33-5,8.92-7.49,13.36-1.11,2-2.68,3.55-3.23,6-.34,1.48-2.33,2.66-3.72,3.79a2.51,2.51,0,0,1-2.81.07c-.74-.41-1.48-.85-2.21-1.31-2.82-1.79-3.33-3.7-1.8-6.71a105.63,105.63,0,0,1,5.45-9.45c1.55-2.42,2.64-5.15,4.16-7.64.69-1.13,1.68-2.12,2.16-3.15,1.36-2.87,3.94-4.82,5.1-7.89a24.49,24.49,0,0,1,4.32-7,31.56,31.56,0,0,0,5.45-8.66,6.69,6.69,0,0,1,2.28-3.25c1.69-1.17,2.79-.85,3.78,1,1.31,2.38,2.4,2.72,4.55,1a27.74,27.74,0,0,1,7.82-4.68c3.12-1.14,5.35-.64,7.27,2.11,1,1.4,1.84,2.88,2.75,4.33.6,1,1.17,1.91.52,3.08"/><path class="cls-1" d="M153.86,150.09a11.63,11.63,0,0,0-3.94.14c-2.51.44-4.92-.07-6.51-2.36a9,9,0,0,0-2.59-2.55c-.41-.26-1-.56-1.09-.95-1.47-4.39-4.91-3.84-8.32-3.4a1.93,1.93,0,0,1-1.39-.16c-2.1-1.3-2.35-6.44-.23-7.78,2-1.23,3.94-2.6,6.25-3a3.38,3.38,0,0,0,2.67-2.12,18.29,18.29,0,0,0,2-4.72,12.53,12.53,0,0,1,2.17-5c2.6-3.65,4.39-7.86,7.91-10.87a45.3,45.3,0,0,0,3.87-4.39c2.92-3.23,6.83-5,10.56-7,2.36-1.29,4.77-2.45,7.19-3.6,1.55-.73,3.1-1.36,4.91-.83,1.64.48,3.33.9,4.92-.29a1.22,1.22,0,0,1,1.06-.14c2.78,1.44,6.17,1.57,8.53,4A3,3,0,0,1,193,97.26c-.48,4.27-.3,8.62-4.64,11.63-2.53,1.76-4.16,4.77-6.51,6.94-.64.59-1.09,1.31-2.05,1.37a1,1,0,0,0-.67.24c-2.63,4-7.6,5-10.7,8.55s-7.29,5.61-11.43,7.68c-.54.27-1.31.32-1.64.73-1.63,2-4,2.78-6.27,3.61-.35.13-.68.29-1,.42a1,1,0,0,0-.75,1.09,1.1,1.1,0,0,0,.95,1c3.44.56,6.79.71,10.19-.68,2.9-1.18,6.05-2,8.83-3.33,2.95-1.43,5,.06,7.14,1s1.95,4.12-.06,5.54-3.86,3.1-6.61,3.67-5.27,2.29-8.2,2.87c-1.93.38-3.73,1.07-5.71.52m27.45-49.22a39.88,39.88,0,0,0-15.07,5.1,1.88,1.88,0,0,0-.74.79c-1,2.13-3,3.27-4.83,4.36a7.15,7.15,0,0,0-3.26,3.78,13.8,13.8,0,0,1-3.4,5.17,8.2,8.2,0,0,0-2,3.4c-.2.54-.8,1.13-.14,1.64a1.26,1.26,0,0,0,1.67-.29c2.45-3.2,6.1-4.82,9.32-6.94,3.37-2.21,5.81-5.57,9.5-7.33,1.25-.59,1.58-2.23,2.93-2.69,2.9-1,3.93-3.9,5.9-5.82.33-.33.51-1.24.08-1.17"/><path class="cls-1" d="M421.32,138.31a17.42,17.42,0,0,0,9.12-1.86c1.94-1.07,4.11-.39,6.12-.33s2.66,1.66,1.87,3.71a11.28,11.28,0,0,1-7.45,6.59c-3.22,1-6.72,2-10.23.6a1.65,1.65,0,0,0-1.07-.08c-3.35,1.15-5.3-1-7.69-2.78-2.81-2.14-3.79-5.32-5.68-7.95a4.53,4.53,0,0,1-.47-2.12c-.27-2.92-.41-5.85-.77-8.76-.42-3.29,1.5-5.88,2.65-8.59a33.09,33.09,0,0,1,8.45-12.19c2.23-2,3.67-4.82,6.84-5.65,1.87-3.16,5.68-4.14,7.84-6.93,1-1.31,2.67-1.1,3.77-2.13,4.06-3.8,9.45-5.23,14.3-7.57,1.38-.66,3.64-1.47,5.16-.81a13.59,13.59,0,0,1,5.78,4.32c1.14,1.59,2.2,3.24,3.31,4.85a2.68,2.68,0,0,1,.62,1.68c-.14,3.19-.21,6.41-3.49,8.28a2.06,2.06,0,0,0-.79.76c-2.15,4.22-6.46,6.09-9.77,9.05s-7.55,5.11-11.45,7.48a3.71,3.71,0,0,1-2.06.58,4.88,4.88,0,0,0-2.81.74c-4.21,2.89-8.48,2.09-12.79.33-2.19-.89-3-.77-3.61,1.33a99.48,99.48,0,0,0-2.85,11.37c-.36,1.93.08,3.86,2.62,4.58,1.54.43,2.6,2.4,4.53,1.5m7-27.38c.87.15,1.88.3,2.34-.55.73-1.35,2.12-1.52,3.22-2.2,2.25-1.41,4.84-2.27,6.68-4.35a3.17,3.17,0,0,1,1.64-.73,5.18,5.18,0,0,0,3.22-2.19,8.26,8.26,0,0,1,3-2.62c1.53-.73,2.37-2.08,3.58-3.08.84-.7,1.28-1.53.61-2.55A1.82,1.82,0,0,0,450,92a19.6,19.6,0,0,0-4.21,2.14,98.23,98.23,0,0,1-11.59,8,25.17,25.17,0,0,0-7.55,7.15c-.42.62-.73.94.22,1.19l1.41.4"/><path class="cls-1" d="M260.91,24.44a5.22,5.22,0,0,1-.56,2.11,22.33,22.33,0,0,1-5.53,8.56c-2.41,2.39-4,5.22-5.89,7.89l-5.06,7.08a39.5,39.5,0,0,0-2.47,4c-2.83,5.23-5.29,10.67-8.59,15.66-2.22,3.36-3.35,7.36-5.95,10.48-2,2.42-2.65,5.64-5,7.9-1.15,1.11-1.57,3-2.32,4.52-1.34,2.73-3.59,4.82-5,7.58-1.94,3.83-4.7,7.36-6.42,11.22-3.17,7.09-7.61,13.6-9.62,21.2-.13.47-.16,1.2-.45,1.34-2.75,1.31-2.26,4.05-3,6.29a14.85,14.85,0,0,1-4.83,6.7,3.52,3.52,0,0,1-5.45-1.59c-1.24-3.06-1.12-6,1.08-8.6a10.08,10.08,0,0,0,2.16-4.6c1.2-6,4.32-11,7.15-16.2a5.74,5.74,0,0,0,.88-2.38,8,8,0,0,1,1.63-4c2.48-3.6,4.15-7.67,6.54-11.28,1.72-2.61,3.56-5.15,5.1-7.87,2-3.46,4.67-6.48,6.05-10.28a2.21,2.21,0,0,1,.28-.68c3.29-4,4.54-9.19,8.14-13a2.48,2.48,0,0,0,.63-.87c2.44-8.07,7.67-14.62,11.88-21.72a167.4,167.4,0,0,1,11.82-16.67c1.84-2.39,3.78-4.57,4.92-7.48S255,17,257.8,18.67a5.79,5.79,0,0,1,3.11,5.77"/><path class="cls-1" d="M284.42,136c-2.22-.28-3.79-.45-5.36-.69-.47-.07-1.13-.19-1.34-.52-1.47-2.31-4.38-3.37-5.23-6.24-1.61-5.43-.89-10.32,1.83-15.43,3-5.67,7.93-9.55,11.71-14.45,3.15-1.25,4.27-5,7.53-6.15,1.15-.42,1.69-1.73,2.43-2.71,1.58-2.1,3.3-4,6.32-3.5.12,0,.29.06.36,0,2.76-2.36,4.43.12,6.11,1.56a2.91,2.91,0,0,1-1.09,5.19c-1.58.42-2.38,1.4-3.49,2.36-3,2.62-5.76,5.57-8.57,8.38-4.17,4.18-9.15,7.7-12.05,13.07a14.37,14.37,0,0,0-1.64,7.08c0,.89-1.69,1.87-.26,2.48,1.26.54,3.06,1.47,4.17.61s2.85-1.26,4-2.42c3.09-3.08,6.59-5.69,9.75-8.72,3.39-3.25,6.7-6.59,9.87-10A36.47,36.47,0,0,0,318,91.65c.71-2.36.54-2.51-1.8-2.82a16.67,16.67,0,0,1-5.6-1.68c-1.84-1-2.69-2.39-2.33-3.74a3.72,3.72,0,0,1,3.71-2.5c3.61.33,7.33.35,10.53,2.52a8.78,8.78,0,0,1,4,7c.63,7.23-2.06,13.3-6.11,19a3,3,0,0,1-1.44,1c-.55.23-1.38.53-1.5,1-.76,2.76-4.07,3.47-4.86,6.19a2.37,2.37,0,0,1-1.22,1.31c-2.29,1-3.58,2.86-4.93,4.77a12.4,12.4,0,0,1-2.87,2.82c-1.74,1.29-3.37,2.73-5.05,4.1-4.24,3.49-9.11,5.65-14.15,5.43"/><path class="cls-1" d="M222.38,131.92c.56-8.46,2.4-16.61,7.76-23.33a52.73,52.73,0,0,1,9.72-9.8C242.28,97,245,95.52,247,93.2a10.47,10.47,0,0,1,1.7-1.4c4-2.93,8.33-5.3,12.08-8.59,1.6-1.4,4.06-1.62,5.86-2.94a1.06,1.06,0,0,1,1,0,5,5,0,0,0,4.4,1.14c1.44-.19,3.84,3,4.17,5.09a4.4,4.4,0,0,1-2.27,4.26c-.64.32-1.46.83-2.07.28-2.6-2.32-4.42.27-6.5,1a4.71,4.71,0,0,0-1.73,1.33c-2.45,2.76-6.09,4-8.54,6.76a4.6,4.6,0,0,1-3.48,1.85,1.86,1.86,0,0,0-1.3.55c-3.93,4.78-9.45,8-12.9,13.27a24.37,24.37,0,0,0-3.37,6.45c-.65,2.23-1.4,4.43-1.92,6.68-.76,3.29-.1,3.88,3.15,4,5.39.25,9.74-2.53,14.34-4.62A35.74,35.74,0,0,0,253.3,126a6.09,6.09,0,0,1,4.49-1.09c1.42.27,2.62.53,3.19,2a4.25,4.25,0,0,1-.68,4.48,22.68,22.68,0,0,1-8.65,6.54c-2.25.94-4.17,2.51-6.62,3.1-1.77.43-3.4,1.32-5.32,1.09a3.32,3.32,0,0,0-2.08.62c-1.1.67-2.19,1.07-3.38.09a1.84,1.84,0,0,0-2.07-.31c-1.79.94-2.86.21-4-1.26a32.9,32.9,0,0,0-4.05-4.13,5.17,5.17,0,0,1-1.76-5.24"/><path class="cls-1" d="M479.33,166.44a10.37,10.37,0,0,1,.39-2.09c2.1-5.21,3.95-10.51,6.24-15.66,2.7-6,6-11.78,8.66-17.82a10.94,10.94,0,0,1,1.07-1.92c4.15-6,6.79-12.86,10.36-19.2a3.12,3.12,0,0,0-.62-4.25c-1.85-1.78-1.51-4.1.62-5.58a39.3,39.3,0,0,1,5.09-2.9,5.88,5.88,0,0,0,3-3.46c2.21-5.42,4-11,7.29-16a5.45,5.45,0,0,0,.75-1.26,70.09,70.09,0,0,1,8.17-16.27c2.79-4.3,4.62-9.11,7.37-13.45,4.1-6.5,8-13.12,11.81-19.79,2.22-3.9,4.76-7.64,6.16-12,1.23-3.83,3.11-7.44,3.77-11.47.22-1.33.92-2.77,2.47-2.85,1.9-.1,4-.95,5.71.39.91.69,1.64,1.91,1.25,2.9-1.08,2.75-.62,5.72-1.93,8.54-1.58,3.38-2.22,7.2-3.94,10.61-2,4-3.7,8.18-6.23,12-2.42,3.61-5,7.13-6.78,11.16-1.12,2.56-3,4.76-4.53,7-3.6,5.27-6.28,11-9.73,16.33-2.48,3.81-4,8.1-6.59,11.79a5.16,5.16,0,0,0-.78,1.64A31.45,31.45,0,0,1,524,92.49a7.93,7.93,0,0,0-.85,2c-.4,1.16-.44,1.5,1.24,2,4.11,1.29,7.62-1,11.45-1a.59.59,0,0,0,.34-.14c1.62-1.23,3,.81,4.5.39s2.64-1.55,4.49-1.15a5.41,5.41,0,0,0,5.41-1.44c1-1,2.57-.54,3.84-1a7.46,7.46,0,0,1,2.16,0c4.19,0,5.61-3.46,7.42-6.18,3-4.47,5.64-9.13,8.38-13.75a53.42,53.42,0,0,1,4.52-6.15c3.69-4.57,6.18-9.92,9.51-14.71s6-10.32,8.79-15.54c3.16-5.8,7.3-10.95,10.38-16.81,1.6-3,4.36-5.47,5.63-8.81a1.2,1.2,0,0,1,.37-.62c2.84-1.83,3.89-4.94,5.52-7.63,1.4-2.32,1.42-2.31,4-1.6a16.59,16.59,0,0,1,2.12.59c3.13,1.29,4.1,4.27,2.24,7.15-.83,1.29-1.19,3-3,3.57-.38.12-.71.68-.88,1.12C620,17,616.34,19.89,614.7,24c-.64,1.61-2.33,2.12-3.13,3.54-1.75,3.06-3.82,5.92-5.33,9.14-1.28,2.74-3.2,5.13-4.7,7.78-1.73,3.06-3.8,5.92-4.88,9.33a4.08,4.08,0,0,1-1,1.54c-4.32,4.57-6.74,10.43-10.57,15.33-3.3,4.23-6.3,8.67-9.2,13.17-.33.51-.79.94-1.08,1.46a1.27,1.27,0,0,0-.12,1c.23.42.65.11.88-.11.69-.65,1.64-.43,2.38-.73,3.09-1.26,5.45.29,7.79,1.85a3.52,3.52,0,0,1,1.69,4.11c-.12.46-.29,1.16-.61,1.27-3.71,1.3-6.68,4.51-11.06,4.12-3.56-.32-6.42,1.82-9.52,3.11-.21.08-.5.28-.53.45-.58,3.64-3.66,5.91-4.89,9.34-1.37,3.81-2.66,7.88-5.41,11.1-.76.89-.81,2-1.3,3-3.39,6.76-6.7,13.56-10.07,20.33-2.11,4.24-4.33,8.43-6.44,12.67-1.4,2.81-2.21,5.87-3.94,8.56a22.66,22.66,0,0,1-4,4.72,2.37,2.37,0,0,1-4-.68c-1.6-2.89-2.22-5.69-.19-8.94a135.7,135.7,0,0,0,8.71-16.38c2.48-5.56,5.62-10.83,8.47-16.22,2-3.67,4.22-7.21,5.73-11.05,1.2-3.07,2.88-5.93,3.78-9.1a10.86,10.86,0,0,1,1.73-2.75c.5-.82.29-1.34-.55-1.74a3.32,3.32,0,0,0-3.14-.15c-3.89,1.9-8.32,1.3-12.39,2.59-1.64.52-3.52-.92-5.36-.25-3.43-1.69-6.85.81-10.38,0-1.39-.31-3,1.34-4.84,1.31-.51,0-.66.63-.84,1.1-2,5.25-4.85,10-7.4,15-1.83,3.57-4.33,6.75-5.71,10.61-.61,1.73-2,3.28-2.95,5a137.33,137.33,0,0,0-8.16,18.75c-1.47,4.15-3,8.3-4.6,12.38-1.16,2.86-2.35,3.57-4.56,3.3-1.48-.18-3.61-3-3.76-5a10.47,10.47,0,0,1,.09-1.54"/><path class="cls-1" d="M674,134.27c.24-2.35.12-4.35,1.68-5.91a2.7,2.7,0,0,0,.53-1.73,17.65,17.65,0,0,1,2.6-7.94,4.07,4.07,0,0,0,.56-1.35c.75-5.07,3.39-9.34,5.76-13.72.5-.94,1.51-2.11.37-2.92s-2.37,0-3.16,1.1a35.46,35.46,0,0,1-6.57,6.14,13.65,13.65,0,0,0-3.84,4.83c-1.22,2.71-3.11,4.92-4.6,7.42s-3.4,4.77-4.29,7.64a5.36,5.36,0,0,1-1.34,1.71,14.59,14.59,0,0,0-3.12,4.52c-1.58,4.44-5.06,7.4-8.07,10.73-1.41,1.57-2.58,1.52-4,.07-.09-.09-.12-.22-.2-.31-3.65-4-3.83-6.25-.07-11.19a50.19,50.19,0,0,0,3.25-5.58,125.21,125.21,0,0,0,6.84-14.5c1.57-3.79,3-7.66,4.4-11.51a11.85,11.85,0,0,0,.48-2.14A.83.83,0,0,0,661,99a.58.58,0,0,0-.9.21c-.64,1.1-2,1.52-2.65,2.39-2.27,3-5.7,4.84-7.78,8.06-.95,1.48-2.7,2.43-4.09,3.62-.46.39-1.3.72-1.36,1.15-.5,4.13-4.93,5.59-6.16,9.3-1.15,3.46-3.74,6.23-5.19,9.62a42.61,42.61,0,0,1-4.29,7.26c-2.12,3.11-3.63,3.13-6,.33a6.18,6.18,0,0,1-.88-1.17c-.58-1.16-2.34-1.59-2-3.29s.63-3.74,2-5c2-1.92,3.17-4.35,4.38-6.74,1.37-2.7,2.42-5.58,4.68-7.76a4.07,4.07,0,0,0,.68-1.66,10.56,10.56,0,0,1,2.54-4.42,6.28,6.28,0,0,0,1.42-2.12c2-5.56,6-9.92,9-14.9.75-1.25,1.75-2.31,2.44-3.63,1.07-2.07,2.08-2.11,4.05-.58.39.3.74.65,1.11,1a1.37,1.37,0,0,0,2,0c1.59-1.15,3.39-2.29,4.18-4,.9-2,2.69-2.74,3.95-4.17a2.69,2.69,0,0,1,3.38-.62c2,1.13,4.12,2.44,4.81,4.82.91,3.15,2.12,6.3,1.24,9.71-.1.41-.37,1,.17,1.24.21.1.72-.19,1-.44,2.54-2.69,6.21-3.84,8.78-6.53,2.11-2.22,5.27-1.55,7.91-2.35a.77.77,0,0,1,.67.21c1.45,2,4.23,2.83,5.27,5a10.62,10.62,0,0,1,.36,7.83c-1.73,5.47-3.66,10.88-5.53,16.31a5.41,5.41,0,0,1-.93,2c-1.7,1.81-1.64,4.33-2.64,6.3-1.87,3.65-1.63,7.79-3.39,11.39a24,24,0,0,0-.81,2.82c-1,2.82-2.47,3.25-5,1.8-3.22-1.84-4.55-4.31-3.27-7.52"/><path class="cls-1" d="M700.62,127.45c.69-2.2.28-3.17-.89-4.24-1.57-1.44-1.61-3.77-2.43-5.66-.32-.75.26-1.45.8-1.93,1.19-1.06,2.45-2,3.7-3,.18-.14.53-.32.65-.24,2.67,1.72,3.12-1,4.11-2.2,1.32-1.59,2.16-3.57,3.44-5.19a48.94,48.94,0,0,1,9.44-9.08,30.29,30.29,0,0,0,4.61-4.06c3.19-3.54,7.9-4.71,11.17-8a3.08,3.08,0,0,1,2.74-.81,75.42,75.42,0,0,1,7.46,1.73A3.71,3.71,0,0,1,748.1,88,14.12,14.12,0,0,1,746,98c-2.19,3.63-5.59,6.44-7,10.55a1.19,1.19,0,0,1-.41.59c-3.11,2.06-5.41,5.2-9,6.68a4.15,4.15,0,0,0-1.23.78c-4.3,4.27-9.76,6.1-15.48,7.39-2,.46-2.93,1.46-2.62,3.6s-.23,4.5,2.48,5.62c1.48.6,2.63,1.13,4.45.6a57.69,57.69,0,0,1,9.25-2.05,10.67,10.67,0,0,0,3.52-1.43c4.17-1.94,7.76-4.88,11.92-6.81a11.26,11.26,0,0,1,2.85-.65c2.53-.43,3.75.93,2.87,3.29a7.69,7.69,0,0,1-1.47,2.52A51.22,51.22,0,0,1,734,138.93c-3,1.75-6.46,2.07-9.33,3.9-.67.43-1.39.11-2.12,0a28.84,28.84,0,0,0-9.39-.48c-3.15.46-6-1.57-8.13-4.2-.45-.58-.73-1.35-1.29-1.75-3.44-2.52-2.48-6.32-3.16-8.93m20.45-18.66a.5.5,0,0,0,.65.56,2.6,2.6,0,0,0,1-.5c4-2.82,7.2-6.47,10.71-9.8a7.46,7.46,0,0,0,1.05-1.48c.19-.3.37-.75,0-1s-.67,0-1,0c-.76.07-1.44.29-1.62,1.17-.22,1.1-1.16,1.6-2,2.06-2.23,1.28-3.82,3.33-5.86,4.85-1.28,1-2,2.69-2.95,4.1"/><path class="cls-1" d="M583.62,128.86c-1-5.58,2-10.42,3-15.6.5-2.45,1.07-5.07,3.06-7a2.53,2.53,0,0,0,.67-1.27c.75-3.83,3.44-6.26,6.14-8.7a11.28,11.28,0,0,0,1.13-1.43A9.53,9.53,0,0,1,603,91.22a5.4,5.4,0,0,0,1.42-.38c3.46-2.06,7.23-1.34,10.94-1.27a7.53,7.53,0,0,0,2.18-.08,3.14,3.14,0,0,1,3.51,1.37c.77,1,1.39,2,2.69,2.38,3,1,4,3.43,4.37,6.23a18.75,18.75,0,0,1-1.77,10.39,40.66,40.66,0,0,0-3.05,7.81,8.73,8.73,0,0,1-2.74,4.67c-2.78,2.27-4.86,5.16-7.41,7.61a80.91,80.91,0,0,1-9.13,7.94c-4.21,3-8.78,4.64-14,2.71a20.15,20.15,0,0,1-5.69-3.9c-1-.86-1.1-2.42-1-3.81s.18-2.69.27-4m34.43-24.54c.08-1.16.14-1.77.16-2.38.12-3.1-.8-4-3.83-3.8a16,16,0,0,0-12.74,7.45A60.46,60.46,0,0,0,595,117.74c-.7,2-1.79,3.71-1.28,6a5,5,0,0,1-.82,3.52,5.72,5.72,0,0,0-.64,2.82c-.1,2,.23,2.29,2,1.48a39.74,39.74,0,0,0,17.22-14.73,30,30,0,0,1,3.51-5.11,9.33,9.33,0,0,0,3-7.37"/><path class="cls-1" d="M771.52,113.14a4.76,4.76,0,0,1,1.81-3.81,10.38,10.38,0,0,0,3.46-5.4c1.3-4.15,2.22-8.54,4.25-12.33,1.78-3.34,2.08-7.11,4-10.33s3.12-6.61,4.66-9.92c.95-2,2.55-4,3.19-6.09,1.14-3.82,4.38-6.31,5.66-10a56.38,56.38,0,0,1,5.19-10c3.65-6.18,7.22-12.36,9.72-19.12a13.13,13.13,0,0,1,.81-1.64c2-3.66,4.25-4.44,7.91-2.68a3.35,3.35,0,0,1,1.93,4.49c-1.14,2.8-1.46,6-3.75,8.28-.47.48-.53,1.35-.79,2-.44,1.14-.58,2.58-1.37,3.35-2.87,2.79-3.16,6.8-5.06,10a27.43,27.43,0,0,1-3.38,5.13c-2.38,2.45-3.53,5.51-4.9,8.47-1,2.18-1.71,4.49-3.2,6.46A8.31,8.31,0,0,0,800.16,73c-.87,3.46-3.1,6.29-4.54,9.51a25.82,25.82,0,0,0-1.75,4.38,5.65,5.65,0,0,1-.57,1.74,39.68,39.68,0,0,0-5,12.31,36.5,36.5,0,0,1-2.85,6.65,42.06,42.06,0,0,0-2.66,8.26c-.92,3.87-3.73,5.06-7,2.91-.62-.4-1.21-.84-1.84-1.23-2.32-1.43-2.56-1.84-2.39-4.34"/><path class="cls-1" d="M768.83,153.18c-2.49,0-4.69-.72-6-3.23a3.4,3.4,0,0,0-1.45-1.09,2.56,2.56,0,0,1-1.25-2.12c-.72-4.6,3.15-11.44,7.47-13.26,2.27-1,3.06-.71,4.82,1,2.47,2.46,3.82,5.64,5.58,8.54,1.24,2.06,1.08,4.06-.84,6-1.54,1.54-2.65,3.41-5,4-1.08.24-2.08.69-3.3.18"/></g></g></svg>