<svg xmlns="http://www.w3.org/2000/svg" viewBox="0 0 141.73 141.73"><defs><style>.cls-1{fill:#2e331f;}.cls-2{fill:#ebe6dd;}</style></defs><title>Recurso 9</title><g id="Capa_2" data-name="Capa 2"><g id="Capa_1-2" data-name="Capa 1"><path class="cls-1" d="M141.73,70.87A70.87,70.87,0,1,1,70.87,0a70.87,70.87,0,0,1,70.86,70.87"/><path class="cls-2" d="M70.87,26.35A42.45,42.45,0,0,0,34.41,90.66l-5.68,20.72,21.17-5.55a42.51,42.51,0,1,0,21-79.48M56.31,49c.69,0,1.4,0,2,0s1.58.07,2.37,1.82c.94,2.07,3,7.28,3.25,7.81A1.92,1.92,0,0,1,64,60.53a7.9,7.9,0,0,1-1,1.77c-.53.61-1.11,1.36-1.58,1.82s-1.08,1.11-.47,2.16a31.28,31.28,0,0,0,5.86,7.29,28.7,28.7,0,0,0,8.47,5.23c1,.52,1.67.44,2.27-.27s2.64-3.06,3.35-4.12,1.39-.87,2.35-.52,6.15,2.9,7.2,3.42,1.75.79,2,1.22.27,2.55-.6,5-5.18,4.83-7.1,5-3.76.87-12.65-2.62C61.4,81.7,54.64,70.72,54.11,70s-4.29-5.7-4.29-10.88a11.79,11.79,0,0,1,3.68-8.78A3.85,3.85,0,0,1,56.31,49"/></g></g></svg>